M48
; DRILL file {KiCad (6.0.7)} date Thu Jan  5 13:14:53 2023
; FORMAT={-:-/ absolute / inch / decimal}
; #@! TF.CreationDate,2023-01-05T13:14:53+00:00
; #@! TF.GenerationSoftware,Kicad,Pcbnew,(6.0.7)
; #@! TF.FileFunction,Plated,1,2,PTH
FMAT,2
INCH
; #@! TA.AperFunction,Plated,PTH,ViaDrill
T1C0.0157
; #@! TA.AperFunction,Plated,PTH,ComponentDrill
T2C0.0315
; #@! TA.AperFunction,Plated,PTH,ComponentDrill
T3C0.0394
; #@! TA.AperFunction,Plated,PTH,ComponentDrill
T4C0.0440
; #@! TA.AperFunction,Plated,PTH,ComponentDrill
T5C0.0472
%
G90
G05
T1
X4.48Y-4.25
X4.859Y-4.272
X5.0011Y-4.2745
X5.07Y-3.97
X5.072Y-4.168
X5.31Y-4.23
X5.32Y-3.6
X5.37Y-4.26
X5.4695Y-4.26
X5.55Y-4.15
X5.6Y-4.24
X5.6113Y-4.107
X5.622Y-3.4715
X5.6824Y-4.1915
X5.7Y-4.02
X5.7339Y-4.2828
X5.75Y-4.04
X5.7733Y-4.2815
X5.85Y-3.8527
X5.8505Y-4.12
X5.864Y-4.281
X5.91Y-4.05
X5.94Y-4.01
X6.18Y-4.09
X6.2023Y-3.5987
X6.23Y-3.82
X6.4313Y-3.9
X6.54Y-4.17
X6.7481Y-2.7507
X6.95Y-2.78
T2
X4.6316Y-3.6
X4.73Y-3.6
X5.32Y-3.86
X5.62Y-3.86
X6.05Y-3.85
X6.05Y-3.98
X6.35Y-3.85
X6.35Y-3.98
X6.3525Y-3.6276
X6.3525Y-3.726
T3
X6.64Y-2.57
X6.64Y-2.67
X6.74Y-2.57
X6.74Y-2.67
X6.84Y-2.57
X6.84Y-2.67
X6.94Y-2.57
X6.94Y-2.67
X7.04Y-2.57
X7.04Y-2.67
X7.14Y-2.57
X7.14Y-2.67
X7.24Y-2.57
X7.24Y-2.67
T4
X4.9185Y-3.127
X4.9185Y-3.727
X5.0185Y-3.127
X5.0185Y-3.727
X5.1185Y-3.127
X5.1185Y-3.727
X5.2185Y-3.127
X5.2185Y-3.727
X5.3185Y-3.127
X5.3185Y-3.727
X5.4185Y-3.127
X5.4185Y-3.727
X5.5185Y-3.127
X5.5185Y-3.727
X5.6185Y-3.127
X5.6185Y-3.727
X5.7185Y-3.127
X5.7185Y-3.727
X5.8185Y-3.127
X5.8185Y-3.727
X5.9185Y-3.127
X5.9185Y-3.727
X6.0185Y-3.127
X6.0185Y-3.727
X6.1185Y-3.127
X6.1185Y-3.727
X6.2185Y-3.127
X6.2185Y-3.727
T5
X3.5354Y-3.208
X3.5354Y-3.308
X3.5362Y-3.0086
X3.5362Y-3.1086
X3.5364Y-3.4072
X3.5364Y-3.5072
X3.537Y-2.4132
X3.537Y-2.5132
X3.5372Y-2.8118
X3.5372Y-2.9118
X3.5378Y-2.2138
X3.5378Y-2.3138
X3.538Y-2.6124
X3.538Y-2.7124
X3.6354Y-3.208
X3.6354Y-3.308
X3.6362Y-3.0086
X3.6362Y-3.1086
X3.6364Y-3.4072
X3.6364Y-3.5072
X3.637Y-2.4132
X3.637Y-2.5132
X3.6372Y-2.8118
X3.6372Y-2.9118
X3.6378Y-2.2138
X3.6378Y-2.3138
X3.638Y-2.6124
X3.638Y-2.7124
X3.7354Y-3.2076
X3.7354Y-3.3076
X3.7362Y-3.0082
X3.7362Y-3.1082
X3.7364Y-3.4068
X3.7364Y-3.5068
X3.737Y-2.4128
X3.737Y-2.5128
X3.7372Y-2.8114
X3.7372Y-2.9114
X3.7378Y-2.2134
X3.7378Y-2.3134
X3.738Y-2.612
X3.738Y-2.712
X3.8354Y-3.2076
X3.8354Y-3.3076
X3.8362Y-3.0082
X3.8362Y-3.1082
X3.8364Y-3.4068
X3.8364Y-3.5068
X3.837Y-2.4128
X3.837Y-2.5128
X3.8372Y-2.8114
X3.8372Y-2.9114
X3.8378Y-2.2134
X3.8378Y-2.3134
X3.838Y-2.612
X3.838Y-2.712
X3.934Y-3.2076
X3.934Y-3.3076
X3.9348Y-3.0082
X3.9348Y-3.1082
X3.935Y-3.4068
X3.935Y-3.5068
X3.9356Y-2.4128
X3.9356Y-2.5128
X3.9357Y-3.611
X3.9357Y-3.711
X3.9358Y-2.8114
X3.9358Y-2.9114
X3.9364Y-2.2134
X3.9364Y-2.3134
X3.9366Y-2.612
X3.9366Y-2.712
X3.9367Y-3.8102
X3.9367Y-3.9102
X4.034Y-3.2076
X4.034Y-3.3076
X4.0348Y-3.0082
X4.0348Y-3.1082
X4.035Y-3.4068
X4.035Y-3.5068
X4.0356Y-2.4128
X4.0356Y-2.5128
X4.0357Y-3.611
X4.0357Y-3.711
X4.0358Y-2.8114
X4.0358Y-2.9114
X4.0364Y-2.2134
X4.0364Y-2.3134
X4.0366Y-2.612
X4.0366Y-2.712
X4.0367Y-3.8102
X4.0367Y-3.9102
X4.1332Y-3.2084
X4.1332Y-3.3084
X4.134Y-3.009
X4.134Y-3.109
X4.1342Y-3.4076
X4.1342Y-3.5076
X4.1348Y-2.4136
X4.1348Y-2.5136
X4.135Y-2.8122
X4.135Y-2.9122
X4.1356Y-2.2142
X4.1356Y-2.3142
X4.1357Y-3.6106
X4.1357Y-3.7106
X4.1358Y-2.6128
X4.1358Y-2.7128
X4.1367Y-3.8098
X4.1367Y-3.9098
X4.2332Y-3.2084
X4.2332Y-3.3084
X4.234Y-3.009
X4.234Y-3.109
X4.2342Y-3.4076
X4.2342Y-3.5076
X4.2348Y-2.4136
X4.2348Y-2.5136
X4.235Y-2.8122
X4.235Y-2.9122
X4.2356Y-2.2142
X4.2356Y-2.3142
X4.2357Y-3.6106
X4.2357Y-3.7106
X4.2358Y-2.6128
X4.2358Y-2.7128
X4.2367Y-3.8098
X4.2367Y-3.9098
X4.33Y-3.01
X4.33Y-3.11
X4.33Y-3.21
X4.33Y-3.31
X4.33Y-3.41
X4.33Y-3.51
X4.3354Y-2.4146
X4.3354Y-2.5146
X4.3356Y-2.8132
X4.3356Y-2.9132
X4.3362Y-2.2152
X4.3362Y-2.3152
X4.3364Y-2.6138
X4.3364Y-2.7138
X4.43Y-3.01
X4.43Y-3.11
X4.43Y-3.21
X4.43Y-3.31
X4.43Y-3.41
X4.43Y-3.51
X4.4354Y-2.4146
X4.4354Y-2.5146
X4.4356Y-2.8132
X4.4356Y-2.9132
X4.4362Y-2.2152
X4.4362Y-2.3152
X4.4364Y-2.6138
X4.4364Y-2.7138
X4.534Y-2.4146
X4.534Y-2.5146
X4.5342Y-2.8132
X4.5342Y-2.9132
X4.5348Y-2.2152
X4.5348Y-2.3152
X4.535Y-2.6138
X4.535Y-2.7138
X4.54Y-3.01
X4.54Y-3.11
X4.54Y-3.21
X4.54Y-3.31
X4.634Y-2.4146
X4.634Y-2.5146
X4.6342Y-2.8132
X4.6342Y-2.9132
X4.6348Y-2.2152
X4.6348Y-2.3152
X4.635Y-2.6138
X4.635Y-2.7138
X4.64Y-3.01
X4.64Y-3.11
X4.64Y-3.21
X4.64Y-3.31
X4.7332Y-2.4154
X4.7332Y-2.5154
X4.7334Y-2.814
X4.7334Y-2.914
X4.734Y-2.216
X4.734Y-2.316
X4.7342Y-2.6146
X4.7342Y-2.7146
X4.8332Y-2.4154
X4.8332Y-2.5154
X4.8334Y-2.814
X4.8334Y-2.914
X4.834Y-2.216
X4.834Y-2.316
X4.8342Y-2.6146
X4.8342Y-2.7146
X4.9332Y-2.4146
X4.9332Y-2.5146
X4.9334Y-2.8132
X4.9334Y-2.9132
X4.934Y-2.2152
X4.934Y-2.3152
X4.9342Y-2.6138
X4.9342Y-2.7138
X5.0332Y-2.4146
X5.0332Y-2.5146
X5.0334Y-2.8132
X5.0334Y-2.9132
X5.034Y-2.2152
X5.034Y-2.3152
X5.0342Y-2.6138
X5.0342Y-2.7138
X5.1318Y-2.4146
X5.1318Y-2.5146
X5.132Y-2.8132
X5.132Y-2.9132
X5.1326Y-2.2152
X5.1326Y-2.3152
X5.1328Y-2.6138
X5.1328Y-2.7138
X5.2318Y-2.4146
X5.2318Y-2.5146
X5.232Y-2.8132
X5.232Y-2.9132
X5.2326Y-2.2152
X5.2326Y-2.3152
X5.2328Y-2.6138
X5.2328Y-2.7138
X5.331Y-2.4154
X5.331Y-2.5154
X5.3312Y-2.814
X5.3312Y-2.914
X5.3318Y-2.216
X5.3318Y-2.316
X5.332Y-2.6146
X5.332Y-2.7146
X5.431Y-2.4154
X5.431Y-2.5154
X5.4312Y-2.814
X5.4312Y-2.914
X5.4318Y-2.216
X5.4318Y-2.316
X5.432Y-2.6146
X5.432Y-2.7146
X5.53Y-2.4154
X5.53Y-2.5154
X5.5302Y-2.814
X5.5302Y-2.914
X5.5308Y-2.216
X5.5308Y-2.316
X5.531Y-2.6146
X5.531Y-2.7146
X5.63Y-2.4154
X5.63Y-2.5154
X5.6302Y-2.814
X5.6302Y-2.914
X5.6308Y-2.216
X5.6308Y-2.316
X5.631Y-2.6146
X5.631Y-2.7146
X5.7286Y-2.4154
X5.7286Y-2.5154
X5.7288Y-2.814
X5.7288Y-2.914
X5.7294Y-2.216
X5.7294Y-2.316
X5.7296Y-2.6146
X5.7296Y-2.7146
X5.8286Y-2.4154
X5.8286Y-2.5154
X5.8288Y-2.814
X5.8288Y-2.914
X5.8294Y-2.216
X5.8294Y-2.316
X5.8296Y-2.6146
X5.8296Y-2.7146
X5.9278Y-2.4162
X5.9278Y-2.5162
X5.928Y-2.8148
X5.928Y-2.9148
X5.9286Y-2.2168
X5.9286Y-2.3168
X5.9288Y-2.6154
X5.9288Y-2.7154
X6.0278Y-2.4162
X6.0278Y-2.5162
X6.028Y-2.8148
X6.028Y-2.9148
X6.0286Y-2.2168
X6.0286Y-2.3168
X6.0288Y-2.6154
X6.0288Y-2.7154
X6.1272Y-2.4164
X6.1272Y-2.5164
X6.1274Y-2.815
X6.1274Y-2.915
X6.128Y-2.217
X6.128Y-2.317
X6.1282Y-2.6156
X6.1282Y-2.7156
X6.2272Y-2.4164
X6.2272Y-2.5164
X6.2274Y-2.815
X6.2274Y-2.915
X6.228Y-2.217
X6.228Y-2.317
X6.2282Y-2.6156
X6.2282Y-2.7156
X6.3258Y-2.4164
X6.3258Y-2.5164
X6.326Y-2.815
X6.326Y-2.915
X6.3266Y-2.217
X6.3266Y-2.317
X6.3268Y-2.6156
X6.3268Y-2.7156
X6.4258Y-2.4164
X6.4258Y-2.5164
X6.426Y-2.815
X6.426Y-2.915
X6.4266Y-2.217
X6.4266Y-2.317
X6.4268Y-2.6156
X6.4268Y-2.7156
X6.78Y-3.01
X6.78Y-3.11
X6.78Y-3.22
X6.78Y-3.32
X6.78Y-3.43
X6.78Y-3.53
X6.78Y-3.62
X6.78Y-3.72
X6.88Y-3.01
X6.88Y-3.11
X6.88Y-3.22
X6.88Y-3.32
X6.88Y-3.43
X6.88Y-3.53
X6.88Y-3.62
X6.88Y-3.72
X6.98Y-3.01
X6.98Y-3.11
X6.98Y-3.22
X6.98Y-3.32
X6.98Y-3.42
X6.98Y-3.52
X6.98Y-3.62
X6.98Y-3.72
X7.08Y-3.01
X7.08Y-3.11
X7.08Y-3.22
X7.08Y-3.32
X7.08Y-3.42
X7.08Y-3.52
X7.08Y-3.62
X7.08Y-3.72
X7.1766Y-3.217
X7.1766Y-3.317
X7.1766Y-3.42
X7.1766Y-3.52
X7.18Y-3.01
X7.18Y-3.11
X7.18Y-3.62
X7.18Y-3.72
X7.2766Y-3.217
X7.2766Y-3.317
X7.2766Y-3.42
X7.2766Y-3.52
X7.28Y-3.01
X7.28Y-3.11
X7.28Y-3.62
X7.28Y-3.72
T0
M30
