M48
; DRILL file {KiCad (5.1.5)-3} date 01/07/2020 21:27:13
; FORMAT={-:-/ absolute / inch / decimal}
; #@! TF.CreationDate,2020-07-01T21:27:13+01:00
; #@! TF.GenerationSoftware,Kicad,Pcbnew,(5.1.5)-3
; #@! TF.FileFunction,Plated,1,2,PTH
FMAT,2
INCH
T1C0.0157
T2C0.0315
T3C0.0394
T4C0.0440
T5C0.0472
%
G90
G05
T1
X4.6495Y-3.3025
X4.739Y-3.332
X4.88Y-3.3345
X4.952Y-3.038
X4.952Y-3.228
X5.1345Y-2.351
X5.1781Y-3.328
X5.2815Y-3.3251
X5.3456Y-3.3161
X5.4535Y-3.3275
X5.4838Y-3.1516
X5.5025Y-2.529
X5.5225Y-3.0725
X5.5745Y-3.3015
X5.6101Y-3.0857
X5.6139Y-3.3428
X5.6452Y-3.1208
X5.6525Y-2.9895
X5.6533Y-3.341
X5.6998Y-2.8865
X5.7331Y-3.1659
X5.7452Y-3.3388
X5.7775Y-3.17
X5.78Y-3.124
X5.7932Y-2.5815
X5.7932Y-2.7043
X5.9864Y-2.93
X6.098Y-2.6065
X6.1623Y-2.8836
X6.1805Y-2.9937
X6.2867Y-2.4278
X6.6802Y-3.3244
T2
X6.2325Y-2.6876
X6.2325Y-2.786
T3
X6.5518Y-2.1917
X6.5518Y-2.2917
X6.5518Y-2.3917
X6.5518Y-2.4917
X6.5518Y-2.5917
X6.5518Y-2.6917
X6.5518Y-2.7917
X6.6518Y-2.1917
X6.6518Y-2.2917
X6.6518Y-2.3917
X6.6518Y-2.4917
X6.6518Y-2.5917
X6.6518Y-2.6917
X6.6518Y-2.7917
T4
X4.7985Y-2.187
X4.7985Y-2.787
X4.8985Y-2.187
X4.8985Y-2.787
X4.9985Y-2.187
X4.9985Y-2.787
X5.0985Y-2.187
X5.0985Y-2.787
X5.1985Y-2.187
X5.1985Y-2.787
X5.2985Y-2.187
X5.2985Y-2.787
X5.3985Y-2.187
X5.3985Y-2.787
X5.4985Y-2.187
X5.4985Y-2.787
X5.5985Y-2.187
X5.5985Y-2.787
X5.6985Y-2.187
X5.6985Y-2.787
X5.7985Y-2.187
X5.7985Y-2.787
X5.8985Y-2.187
X5.8985Y-2.787
X5.9985Y-2.187
X5.9985Y-2.787
X6.0985Y-2.187
X6.0985Y-2.787
T5
X6.0082Y-1.6756
X6.0082Y-1.7756
X6.1082Y-1.6756
X6.1082Y-1.7756
X3.8156Y-1.4728
X3.8156Y-1.5728
X3.9156Y-1.4728
X3.9156Y-1.5728
X3.6172Y-1.8714
X3.6172Y-1.9714
X3.7172Y-1.8714
X3.7172Y-1.9714
X5.8088Y-1.6754
X5.8088Y-1.7754
X5.9088Y-1.6754
X5.9088Y-1.7754
X6.206Y-1.875
X6.206Y-1.975
X6.306Y-1.875
X6.306Y-1.975
X5.411Y-1.6746
X5.411Y-1.7746
X5.511Y-1.6746
X5.511Y-1.7746
X6.6034Y-1.4776
X6.6034Y-1.5776
X6.7034Y-1.4776
X6.7034Y-1.5776
X4.2146Y-2.07
X4.2146Y-2.17
X4.3146Y-2.07
X4.3146Y-2.17
X3.6154Y-2.2676
X3.6154Y-2.3676
X3.7154Y-2.2676
X3.7154Y-2.3676
X5.0118Y-1.4746
X5.0118Y-1.5746
X5.1118Y-1.4746
X5.1118Y-1.5746
X7.002Y-1.279
X7.002Y-1.379
X7.102Y-1.279
X7.102Y-1.379
X4.0156Y-1.2742
X4.0156Y-1.3742
X4.1156Y-1.2742
X4.1156Y-1.3742
X5.0126Y-1.2752
X5.0126Y-1.3752
X5.1126Y-1.2752
X5.1126Y-1.3752
X4.8134Y-1.8732
X4.8134Y-1.9732
X4.9134Y-1.8732
X4.9134Y-1.9732
X4.4142Y-1.8732
X4.4142Y-1.9732
X4.5142Y-1.8732
X4.5142Y-1.9732
X3.618Y-1.672
X3.618Y-1.772
X3.718Y-1.672
X3.718Y-1.772
X6.405Y-1.4772
X6.405Y-1.5772
X6.505Y-1.4772
X6.505Y-1.5772
X3.4172Y-1.8718
X3.4172Y-1.9718
X3.5172Y-1.8718
X3.5172Y-1.9718
X5.012Y-1.8732
X5.012Y-1.9732
X5.112Y-1.8732
X5.112Y-1.9732
X4.6132Y-1.4754
X4.6132Y-1.5754
X4.7132Y-1.4754
X4.7132Y-1.5754
X3.8167Y-2.8702
X3.8167Y-2.9702
X3.9167Y-2.8702
X3.9167Y-2.9702
X4.2138Y-2.2694
X4.2138Y-2.3694
X4.3138Y-2.2694
X4.3138Y-2.3694
X4.014Y-2.069
X4.014Y-2.169
X4.114Y-2.069
X4.114Y-2.169
X5.211Y-1.4754
X5.211Y-1.5754
X5.311Y-1.4754
X5.311Y-1.5754
X5.6094Y-1.276
X5.6094Y-1.376
X5.7094Y-1.276
X5.7094Y-1.376
X3.815Y-2.4668
X3.815Y-2.5668
X3.915Y-2.4668
X3.915Y-2.5668
X4.2148Y-2.4686
X4.2148Y-2.5686
X4.3148Y-2.4686
X4.3148Y-2.5686
X3.4154Y-2.268
X3.4154Y-2.368
X3.5154Y-2.268
X3.5154Y-2.368
X5.808Y-1.8748
X5.808Y-1.9748
X5.908Y-1.8748
X5.908Y-1.9748
X4.2164Y-1.6738
X4.2164Y-1.7738
X4.3164Y-1.6738
X4.3164Y-1.7738
X4.0158Y-1.6728
X4.0158Y-1.7728
X4.1158Y-1.6728
X4.1158Y-1.7728
X3.8166Y-1.672
X3.8166Y-1.772
X3.9166Y-1.672
X3.9166Y-1.772
X5.4102Y-1.874
X5.4102Y-1.974
X5.5102Y-1.874
X5.5102Y-1.974
X5.6088Y-1.874
X5.6088Y-1.974
X5.7088Y-1.874
X5.7088Y-1.974
X4.2154Y-1.4746
X4.2154Y-1.5746
X4.3154Y-1.4746
X4.3154Y-1.5746
X4.0132Y-2.2684
X4.0132Y-2.3684
X4.1132Y-2.2684
X4.1132Y-2.3684
X5.212Y-1.6746
X5.212Y-1.7746
X5.312Y-1.6746
X5.312Y-1.7746
X3.4178Y-1.2738
X3.4178Y-1.3738
X3.5178Y-1.2738
X3.5178Y-1.3738
X3.6178Y-1.2734
X3.6178Y-1.3734
X3.7178Y-1.2734
X3.7178Y-1.3734
X3.814Y-2.2676
X3.814Y-2.3676
X3.914Y-2.2676
X3.914Y-2.3676
X5.41Y-1.4754
X5.41Y-1.5754
X5.51Y-1.4754
X5.51Y-1.5754
X6.008Y-1.277
X6.008Y-1.377
X6.108Y-1.277
X6.108Y-1.377
X3.6164Y-2.4668
X3.6164Y-2.5668
X3.7164Y-2.4668
X3.7164Y-2.5668
X6.4052Y-1.8758
X6.4052Y-1.9758
X6.5052Y-1.8758
X6.5052Y-1.9758
X3.8148Y-2.0682
X3.8148Y-2.1682
X3.9148Y-2.0682
X3.9148Y-2.1682
X7.0022Y-1.6776
X7.0022Y-1.7776
X7.1022Y-1.6776
X7.1022Y-1.7776
X6.2068Y-1.6756
X6.2068Y-1.7756
X6.3068Y-1.6756
X6.3068Y-1.7756
X5.2112Y-1.874
X5.2112Y-1.974
X5.3112Y-1.874
X5.3112Y-1.974
X6.8022Y-1.8762
X6.8022Y-1.9762
X6.9022Y-1.8762
X6.9022Y-1.9762
X4.414Y-1.4746
X4.414Y-1.5746
X4.514Y-1.4746
X4.514Y-1.5746
X3.8157Y-2.671
X3.8157Y-2.771
X3.9157Y-2.671
X3.9157Y-2.771
X6.2058Y-1.4764
X6.2058Y-1.5764
X6.3058Y-1.4764
X6.3058Y-1.5764
X3.6162Y-2.0682
X3.6162Y-2.1682
X3.7162Y-2.0682
X3.7162Y-2.1682
X4.8132Y-1.4746
X4.8132Y-1.5746
X4.9132Y-1.4746
X4.9132Y-1.5746
X5.2118Y-1.276
X5.2118Y-1.376
X5.3118Y-1.276
X5.3118Y-1.376
X6.2066Y-1.277
X6.2066Y-1.377
X6.3066Y-1.277
X6.3066Y-1.377
X6.0074Y-1.875
X6.0074Y-1.975
X6.1074Y-1.875
X6.1074Y-1.975
X4.415Y-1.6738
X4.415Y-1.7738
X4.515Y-1.6738
X4.515Y-1.7738
X6.803Y-1.6768
X6.803Y-1.7768
X6.903Y-1.6768
X6.903Y-1.7768
X6.406Y-1.6764
X6.406Y-1.7764
X6.506Y-1.6764
X6.506Y-1.7764
X4.015Y-1.8722
X4.015Y-1.9722
X4.115Y-1.8722
X4.115Y-1.9722
X4.0167Y-2.8698
X4.0167Y-2.9698
X4.1167Y-2.8698
X4.1167Y-2.9698
X4.0148Y-1.4736
X4.0148Y-1.5736
X4.1148Y-1.4736
X4.1148Y-1.5736
X3.8164Y-1.2734
X3.8164Y-1.3734
X3.9164Y-1.2734
X3.9164Y-1.3734
X6.8028Y-1.2782
X6.8028Y-1.3782
X6.9028Y-1.2782
X6.9028Y-1.3782
X6.6042Y-1.2782
X6.6042Y-1.3782
X6.7042Y-1.2782
X6.7042Y-1.3782
X5.0128Y-1.6738
X5.0128Y-1.7738
X5.1128Y-1.6738
X5.1128Y-1.7738
X4.614Y-1.276
X4.614Y-1.376
X4.714Y-1.276
X4.714Y-1.376
X6.6036Y-1.8762
X6.6036Y-1.9762
X6.7036Y-1.8762
X6.7036Y-1.9762
X6.6044Y-1.6768
X6.6044Y-1.7768
X6.7044Y-1.6768
X6.7044Y-1.7768
X3.417Y-1.4732
X3.417Y-1.5732
X3.517Y-1.4732
X3.517Y-1.5732
X5.6096Y-1.6746
X5.6096Y-1.7746
X5.7096Y-1.6746
X5.7096Y-1.7746
X7.0014Y-1.877
X7.0014Y-1.977
X7.1014Y-1.877
X7.1014Y-1.977
X5.6086Y-1.4754
X5.6086Y-1.5754
X5.7086Y-1.4754
X5.7086Y-1.5754
X6.0072Y-1.4764
X6.0072Y-1.5764
X6.1072Y-1.4764
X6.1072Y-1.5764
X4.0157Y-2.6706
X4.0157Y-2.7706
X4.1157Y-2.6706
X4.1157Y-2.7706
X3.617Y-1.4728
X3.617Y-1.5728
X3.717Y-1.4728
X3.717Y-1.5728
X4.8142Y-1.6738
X4.8142Y-1.7738
X4.9142Y-1.6738
X4.9142Y-1.7738
X5.4108Y-1.276
X5.4108Y-1.376
X5.5108Y-1.276
X5.5108Y-1.376
X4.0142Y-2.4676
X4.0142Y-2.5676
X4.1142Y-2.4676
X4.1142Y-2.5676
X4.814Y-1.2752
X4.814Y-1.3752
X4.914Y-1.2752
X4.914Y-1.3752
X3.4164Y-2.4672
X3.4164Y-2.5672
X3.5164Y-2.4672
X3.5164Y-2.5672
X5.8086Y-1.2768
X5.8086Y-1.3768
X5.9086Y-1.2768
X5.9086Y-1.3768
X3.418Y-1.6724
X3.418Y-1.7724
X3.518Y-1.6724
X3.518Y-1.7724
X4.6142Y-1.6746
X4.6142Y-1.7746
X4.7142Y-1.6746
X4.7142Y-1.7746
X5.8078Y-1.4762
X5.8078Y-1.5762
X5.9078Y-1.4762
X5.9078Y-1.5762
X4.2156Y-1.8732
X4.2156Y-1.9732
X4.3156Y-1.8732
X4.3156Y-1.9732
X3.8158Y-1.8714
X3.8158Y-1.9714
X3.9158Y-1.8714
X3.9158Y-1.9714
X4.6134Y-1.874
X4.6134Y-1.974
X4.7134Y-1.874
X4.7134Y-1.974
X7.0012Y-1.4784
X7.0012Y-1.5784
X7.1012Y-1.4784
X7.1012Y-1.5784
X6.802Y-1.4776
X6.802Y-1.5776
X6.902Y-1.4776
X6.902Y-1.5776
X6.4058Y-1.2778
X6.4058Y-1.3778
X6.5058Y-1.2778
X6.5058Y-1.3778
X4.4148Y-1.2752
X4.4148Y-1.3752
X4.5148Y-1.2752
X4.5148Y-1.3752
X4.2162Y-1.2752
X4.2162Y-1.3752
X4.3162Y-1.2752
X4.3162Y-1.3752
X3.4162Y-2.0686
X3.4162Y-2.1686
X3.5162Y-2.0686
X3.5162Y-2.1686
T0
M30
