G04 #@! TF.GenerationSoftware,KiCad,Pcbnew,(6.0.7)*
G04 #@! TF.CreationDate,2023-01-05T13:14:55+00:00*
G04 #@! TF.ProjectId,msx_eeprom,6d73785f-6565-4707-926f-6d2e6b696361,rev?*
G04 #@! TF.SameCoordinates,Original*
G04 #@! TF.FileFunction,Legend,Bot*
G04 #@! TF.FilePolarity,Positive*
%FSLAX46Y46*%
G04 Gerber Fmt 4.6, Leading zero omitted, Abs format (unit mm)*
G04 Created by KiCad (PCBNEW (6.0.7)) date 2023-01-05 13:14:55*
%MOMM*%
%LPD*%
G01*
G04 APERTURE LIST*
%ADD10C,0.300000*%
%ADD11C,0.010000*%
G04 APERTURE END LIST*
D10*
X165807142Y-104564571D02*
X165807142Y-103064571D01*
X165164285Y-104564571D02*
X165164285Y-103778857D01*
X165235714Y-103636000D01*
X165378571Y-103564571D01*
X165592857Y-103564571D01*
X165735714Y-103636000D01*
X165807142Y-103707428D01*
X164664285Y-103564571D02*
X164092857Y-103564571D01*
X164450000Y-103064571D02*
X164450000Y-104350285D01*
X164378571Y-104493142D01*
X164235714Y-104564571D01*
X164092857Y-104564571D01*
X163807142Y-103564571D02*
X163235714Y-103564571D01*
X163592857Y-103064571D02*
X163592857Y-104350285D01*
X163521428Y-104493142D01*
X163378571Y-104564571D01*
X163235714Y-104564571D01*
X162735714Y-103564571D02*
X162735714Y-105064571D01*
X162735714Y-103636000D02*
X162592857Y-103564571D01*
X162307142Y-103564571D01*
X162164285Y-103636000D01*
X162092857Y-103707428D01*
X162021428Y-103850285D01*
X162021428Y-104278857D01*
X162092857Y-104421714D01*
X162164285Y-104493142D01*
X162307142Y-104564571D01*
X162592857Y-104564571D01*
X162735714Y-104493142D01*
X161450000Y-104493142D02*
X161307142Y-104564571D01*
X161021428Y-104564571D01*
X160878571Y-104493142D01*
X160807142Y-104350285D01*
X160807142Y-104278857D01*
X160878571Y-104136000D01*
X161021428Y-104064571D01*
X161235714Y-104064571D01*
X161378571Y-103993142D01*
X161450000Y-103850285D01*
X161450000Y-103778857D01*
X161378571Y-103636000D01*
X161235714Y-103564571D01*
X161021428Y-103564571D01*
X160878571Y-103636000D01*
X160164285Y-104421714D02*
X160092857Y-104493142D01*
X160164285Y-104564571D01*
X160235714Y-104493142D01*
X160164285Y-104421714D01*
X160164285Y-104564571D01*
X160164285Y-103636000D02*
X160092857Y-103707428D01*
X160164285Y-103778857D01*
X160235714Y-103707428D01*
X160164285Y-103636000D01*
X160164285Y-103778857D01*
X158378571Y-102993142D02*
X159664285Y-104921714D01*
X156807142Y-102993142D02*
X158092857Y-104921714D01*
X155664285Y-103564571D02*
X155664285Y-104778857D01*
X155735714Y-104921714D01*
X155807142Y-104993142D01*
X155950000Y-105064571D01*
X156164285Y-105064571D01*
X156307142Y-104993142D01*
X155664285Y-104493142D02*
X155807142Y-104564571D01*
X156092857Y-104564571D01*
X156235714Y-104493142D01*
X156307142Y-104421714D01*
X156378571Y-104278857D01*
X156378571Y-103850285D01*
X156307142Y-103707428D01*
X156235714Y-103636000D01*
X156092857Y-103564571D01*
X155807142Y-103564571D01*
X155664285Y-103636000D01*
X154950000Y-104564571D02*
X154950000Y-103564571D01*
X154950000Y-103064571D02*
X155021428Y-103136000D01*
X154950000Y-103207428D01*
X154878571Y-103136000D01*
X154950000Y-103064571D01*
X154950000Y-103207428D01*
X154450000Y-103564571D02*
X153878571Y-103564571D01*
X154235714Y-103064571D02*
X154235714Y-104350285D01*
X154164285Y-104493142D01*
X154021428Y-104564571D01*
X153878571Y-104564571D01*
X153378571Y-104564571D02*
X153378571Y-103064571D01*
X152735714Y-104564571D02*
X152735714Y-103778857D01*
X152807142Y-103636000D01*
X152950000Y-103564571D01*
X153164285Y-103564571D01*
X153307142Y-103636000D01*
X153378571Y-103707428D01*
X151378571Y-103564571D02*
X151378571Y-104564571D01*
X152021428Y-103564571D02*
X152021428Y-104350285D01*
X151950000Y-104493142D01*
X151807142Y-104564571D01*
X151592857Y-104564571D01*
X151450000Y-104493142D01*
X151378571Y-104421714D01*
X150664285Y-104564571D02*
X150664285Y-103064571D01*
X150664285Y-103636000D02*
X150521428Y-103564571D01*
X150235714Y-103564571D01*
X150092857Y-103636000D01*
X150021428Y-103707428D01*
X149950000Y-103850285D01*
X149950000Y-104278857D01*
X150021428Y-104421714D01*
X150092857Y-104493142D01*
X150235714Y-104564571D01*
X150521428Y-104564571D01*
X150664285Y-104493142D01*
X149307142Y-104421714D02*
X149235714Y-104493142D01*
X149307142Y-104564571D01*
X149378571Y-104493142D01*
X149307142Y-104421714D01*
X149307142Y-104564571D01*
X147950000Y-104493142D02*
X148092857Y-104564571D01*
X148378571Y-104564571D01*
X148521428Y-104493142D01*
X148592857Y-104421714D01*
X148664285Y-104278857D01*
X148664285Y-103850285D01*
X148592857Y-103707428D01*
X148521428Y-103636000D01*
X148378571Y-103564571D01*
X148092857Y-103564571D01*
X147950000Y-103636000D01*
X147092857Y-104564571D02*
X147235714Y-104493142D01*
X147307142Y-104421714D01*
X147378571Y-104278857D01*
X147378571Y-103850285D01*
X147307142Y-103707428D01*
X147235714Y-103636000D01*
X147092857Y-103564571D01*
X146878571Y-103564571D01*
X146735714Y-103636000D01*
X146664285Y-103707428D01*
X146592857Y-103850285D01*
X146592857Y-104278857D01*
X146664285Y-104421714D01*
X146735714Y-104493142D01*
X146878571Y-104564571D01*
X147092857Y-104564571D01*
X145950000Y-104564571D02*
X145950000Y-103564571D01*
X145950000Y-103707428D02*
X145878571Y-103636000D01*
X145735714Y-103564571D01*
X145521428Y-103564571D01*
X145378571Y-103636000D01*
X145307142Y-103778857D01*
X145307142Y-104564571D01*
X145307142Y-103778857D02*
X145235714Y-103636000D01*
X145092857Y-103564571D01*
X144878571Y-103564571D01*
X144735714Y-103636000D01*
X144664285Y-103778857D01*
X144664285Y-104564571D01*
X142878571Y-102993142D02*
X144164285Y-104921714D01*
X141735714Y-104493142D02*
X141878571Y-104564571D01*
X142164285Y-104564571D01*
X142307142Y-104493142D01*
X142378571Y-104421714D01*
X142450000Y-104278857D01*
X142450000Y-103850285D01*
X142378571Y-103707428D01*
X142307142Y-103636000D01*
X142164285Y-103564571D01*
X141878571Y-103564571D01*
X141735714Y-103636000D01*
X140878571Y-104564571D02*
X141021428Y-104493142D01*
X141092857Y-104421714D01*
X141164285Y-104278857D01*
X141164285Y-103850285D01*
X141092857Y-103707428D01*
X141021428Y-103636000D01*
X140878571Y-103564571D01*
X140664285Y-103564571D01*
X140521428Y-103636000D01*
X140450000Y-103707428D01*
X140378571Y-103850285D01*
X140378571Y-104278857D01*
X140450000Y-104421714D01*
X140521428Y-104493142D01*
X140664285Y-104564571D01*
X140878571Y-104564571D01*
X139807142Y-104493142D02*
X139664285Y-104564571D01*
X139378571Y-104564571D01*
X139235714Y-104493142D01*
X139164285Y-104350285D01*
X139164285Y-104278857D01*
X139235714Y-104136000D01*
X139378571Y-104064571D01*
X139592857Y-104064571D01*
X139735714Y-103993142D01*
X139807142Y-103850285D01*
X139807142Y-103778857D01*
X139735714Y-103636000D01*
X139592857Y-103564571D01*
X139378571Y-103564571D01*
X139235714Y-103636000D01*
X138735714Y-103564571D02*
X138164285Y-103564571D01*
X138521428Y-103064571D02*
X138521428Y-104350285D01*
X138450000Y-104493142D01*
X138307142Y-104564571D01*
X138164285Y-104564571D01*
X137021428Y-104564571D02*
X137021428Y-103778857D01*
X137092857Y-103636000D01*
X137235714Y-103564571D01*
X137521428Y-103564571D01*
X137664285Y-103636000D01*
X137021428Y-104493142D02*
X137164285Y-104564571D01*
X137521428Y-104564571D01*
X137664285Y-104493142D01*
X137735714Y-104350285D01*
X137735714Y-104207428D01*
X137664285Y-104064571D01*
X137521428Y-103993142D01*
X137164285Y-103993142D01*
X137021428Y-103921714D01*
X136307142Y-104564571D02*
X136307142Y-103564571D01*
X136307142Y-103850285D02*
X136235714Y-103707428D01*
X136164285Y-103636000D01*
X136021428Y-103564571D01*
X135878571Y-103564571D01*
X134735714Y-104493142D02*
X134878571Y-104564571D01*
X135164285Y-104564571D01*
X135307142Y-104493142D01*
X135378571Y-104421714D01*
X135449999Y-104278857D01*
X135449999Y-103850285D01*
X135378571Y-103707428D01*
X135307142Y-103636000D01*
X135164285Y-103564571D01*
X134878571Y-103564571D01*
X134735714Y-103636000D01*
X133021428Y-102993142D02*
X134307142Y-104921714D01*
X132521428Y-104564571D02*
X132521428Y-103564571D01*
X132521428Y-103707428D02*
X132449999Y-103636000D01*
X132307142Y-103564571D01*
X132092857Y-103564571D01*
X131949999Y-103636000D01*
X131878571Y-103778857D01*
X131878571Y-104564571D01*
X131878571Y-103778857D02*
X131807142Y-103636000D01*
X131664285Y-103564571D01*
X131449999Y-103564571D01*
X131307142Y-103636000D01*
X131235714Y-103778857D01*
X131235714Y-104564571D01*
X130592857Y-104493142D02*
X130449999Y-104564571D01*
X130164285Y-104564571D01*
X130021428Y-104493142D01*
X129949999Y-104350285D01*
X129949999Y-104278857D01*
X130021428Y-104136000D01*
X130164285Y-104064571D01*
X130378571Y-104064571D01*
X130521428Y-103993142D01*
X130592857Y-103850285D01*
X130592857Y-103778857D01*
X130521428Y-103636000D01*
X130378571Y-103564571D01*
X130164285Y-103564571D01*
X130021428Y-103636000D01*
X129449999Y-104564571D02*
X128664285Y-103564571D01*
X129449999Y-103564571D02*
X128664285Y-104564571D01*
X127449999Y-104493142D02*
X127592857Y-104564571D01*
X127878571Y-104564571D01*
X128021428Y-104493142D01*
X128092857Y-104421714D01*
X128164285Y-104278857D01*
X128164285Y-103850285D01*
X128092857Y-103707428D01*
X128021428Y-103636000D01*
X127878571Y-103564571D01*
X127592857Y-103564571D01*
X127449999Y-103636000D01*
X126164285Y-104564571D02*
X126164285Y-103778857D01*
X126235714Y-103636000D01*
X126378571Y-103564571D01*
X126664285Y-103564571D01*
X126807142Y-103636000D01*
X126164285Y-104493142D02*
X126307142Y-104564571D01*
X126664285Y-104564571D01*
X126807142Y-104493142D01*
X126878571Y-104350285D01*
X126878571Y-104207428D01*
X126807142Y-104064571D01*
X126664285Y-103993142D01*
X126307142Y-103993142D01*
X126164285Y-103921714D01*
X125449999Y-104564571D02*
X125449999Y-103564571D01*
X125449999Y-103850285D02*
X125378571Y-103707428D01*
X125307142Y-103636000D01*
X125164285Y-103564571D01*
X125021428Y-103564571D01*
X124735714Y-103564571D02*
X124164285Y-103564571D01*
X124521428Y-103064571D02*
X124521428Y-104350285D01*
X124449999Y-104493142D01*
X124307142Y-104564571D01*
X124164285Y-104564571D01*
X124021428Y-104707428D02*
X122878571Y-104707428D01*
X122735714Y-103564571D02*
X122164285Y-103564571D01*
X122521428Y-104564571D02*
X122521428Y-103278857D01*
X122449999Y-103136000D01*
X122307142Y-103064571D01*
X122164285Y-103064571D01*
X121449999Y-104564571D02*
X121592857Y-104493142D01*
X121664285Y-104350285D01*
X121664285Y-103064571D01*
X120235714Y-104564571D02*
X120235714Y-103778857D01*
X120307142Y-103636000D01*
X120449999Y-103564571D01*
X120735714Y-103564571D01*
X120878571Y-103636000D01*
X120235714Y-104493142D02*
X120378571Y-104564571D01*
X120735714Y-104564571D01*
X120878571Y-104493142D01*
X120949999Y-104350285D01*
X120949999Y-104207428D01*
X120878571Y-104064571D01*
X120735714Y-103993142D01*
X120378571Y-103993142D01*
X120235714Y-103921714D01*
X119592857Y-104493142D02*
X119449999Y-104564571D01*
X119164285Y-104564571D01*
X119021428Y-104493142D01*
X118949999Y-104350285D01*
X118949999Y-104278857D01*
X119021428Y-104136000D01*
X119164285Y-104064571D01*
X119378571Y-104064571D01*
X119521428Y-103993142D01*
X119592857Y-103850285D01*
X119592857Y-103778857D01*
X119521428Y-103636000D01*
X119378571Y-103564571D01*
X119164285Y-103564571D01*
X119021428Y-103636000D01*
X118307142Y-104564571D02*
X118307142Y-103064571D01*
X117664285Y-104564571D02*
X117664285Y-103778857D01*
X117735714Y-103636000D01*
X117878571Y-103564571D01*
X118092857Y-103564571D01*
X118235714Y-103636000D01*
X118307142Y-103707428D01*
X117092857Y-103064571D02*
X116164285Y-103064571D01*
X116664285Y-103636000D01*
X116449999Y-103636000D01*
X116307142Y-103707428D01*
X116235714Y-103778857D01*
X116164285Y-103921714D01*
X116164285Y-104278857D01*
X116235714Y-104421714D01*
X116307142Y-104493142D01*
X116449999Y-104564571D01*
X116878571Y-104564571D01*
X117021428Y-104493142D01*
X117092857Y-104421714D01*
X115592857Y-103207428D02*
X115521428Y-103136000D01*
X115378571Y-103064571D01*
X115021428Y-103064571D01*
X114878571Y-103136000D01*
X114807142Y-103207428D01*
X114735714Y-103350285D01*
X114735714Y-103493142D01*
X114807142Y-103707428D01*
X115664285Y-104564571D01*
X114735714Y-104564571D01*
X114092857Y-104564571D02*
X114092857Y-103064571D01*
X113949999Y-103993142D02*
X113521428Y-104564571D01*
X113521428Y-103564571D02*
X114092857Y-104136000D01*
G36*
X135928485Y-91663854D02*
G01*
X136009062Y-91722348D01*
X136051517Y-91779956D01*
X136027205Y-91810542D01*
X135999458Y-91831578D01*
X135974666Y-91905667D01*
X135966787Y-91949465D01*
X135921750Y-92004630D01*
X135838119Y-92026205D01*
X135755434Y-92022776D01*
X135720666Y-91990333D01*
X135727831Y-91970859D01*
X135784166Y-91948000D01*
X135813780Y-91940624D01*
X135847666Y-91884500D01*
X135840291Y-91854886D01*
X135784166Y-91821000D01*
X135754955Y-91816224D01*
X135720666Y-91778667D01*
X135727831Y-91759192D01*
X135784166Y-91736333D01*
X135813378Y-91731557D01*
X135847666Y-91694000D01*
X135867437Y-91656720D01*
X135928485Y-91663854D01*
G37*
D11*
X135928485Y-91663854D02*
X136009062Y-91722348D01*
X136051517Y-91779956D01*
X136027205Y-91810542D01*
X135999458Y-91831578D01*
X135974666Y-91905667D01*
X135966787Y-91949465D01*
X135921750Y-92004630D01*
X135838119Y-92026205D01*
X135755434Y-92022776D01*
X135720666Y-91990333D01*
X135727831Y-91970859D01*
X135784166Y-91948000D01*
X135813780Y-91940624D01*
X135847666Y-91884500D01*
X135840291Y-91854886D01*
X135784166Y-91821000D01*
X135754955Y-91816224D01*
X135720666Y-91778667D01*
X135727831Y-91759192D01*
X135784166Y-91736333D01*
X135813378Y-91731557D01*
X135847666Y-91694000D01*
X135867437Y-91656720D01*
X135928485Y-91663854D01*
G36*
X152925118Y-91584214D02*
G01*
X152972201Y-91754579D01*
X153007101Y-91878143D01*
X153024946Y-91937417D01*
X153027105Y-91950271D01*
X152988588Y-91980683D01*
X152873723Y-91990333D01*
X152814903Y-91989481D01*
X152733589Y-91974057D01*
X152685885Y-91921789D01*
X152643277Y-91810417D01*
X152583164Y-91630500D01*
X152527781Y-91799833D01*
X152514448Y-91837849D01*
X152467341Y-91942965D01*
X152425615Y-92000268D01*
X152385717Y-92023336D01*
X152335789Y-92028150D01*
X152246915Y-92007466D01*
X152168874Y-91948747D01*
X152103380Y-91806961D01*
X152049429Y-91630500D01*
X151988353Y-91810417D01*
X151927278Y-91990333D01*
X151449681Y-91990333D01*
X151440759Y-91990332D01*
X151229745Y-91988503D01*
X151083928Y-91981274D01*
X150984538Y-91965768D01*
X150912805Y-91939109D01*
X150849959Y-91898421D01*
X150823745Y-91879164D01*
X150774669Y-91848580D01*
X150780750Y-91864554D01*
X150809584Y-91899420D01*
X150827256Y-91954164D01*
X150775013Y-91982350D01*
X150646049Y-91990333D01*
X150524897Y-91982479D01*
X150440567Y-91945838D01*
X150368000Y-91863333D01*
X150354206Y-91844436D01*
X150289301Y-91767520D01*
X150247245Y-91736333D01*
X150243470Y-91737097D01*
X150199895Y-91778405D01*
X150141901Y-91863333D01*
X150138501Y-91869050D01*
X150078880Y-91947447D01*
X150003717Y-91982366D01*
X149878773Y-91990333D01*
X149824050Y-91988794D01*
X149728488Y-91976143D01*
X149690666Y-91954891D01*
X149690670Y-91954654D01*
X149714224Y-91904016D01*
X149775006Y-91806491D01*
X149860000Y-91682978D01*
X149861157Y-91681361D01*
X149945898Y-91558124D01*
X150006244Y-91461220D01*
X150029198Y-91411503D01*
X150029014Y-91409625D01*
X150026040Y-91403211D01*
X150485170Y-91403211D01*
X150504590Y-91467301D01*
X150570855Y-91564627D01*
X150625745Y-91639322D01*
X150695562Y-91727702D01*
X150732313Y-91753911D01*
X150746594Y-91722255D01*
X150749000Y-91637042D01*
X150749458Y-91633369D01*
X151084188Y-91633369D01*
X151108833Y-91654518D01*
X151160797Y-91667774D01*
X151285840Y-91683618D01*
X151435285Y-91691024D01*
X151677070Y-91694000D01*
X151723817Y-91520393D01*
X151734702Y-91476404D01*
X151751374Y-91374759D01*
X151746616Y-91322838D01*
X151739660Y-91317674D01*
X151722666Y-91340295D01*
X151711043Y-91392258D01*
X151631407Y-91479839D01*
X151487187Y-91548079D01*
X151291243Y-91589548D01*
X151252235Y-91594314D01*
X151129848Y-91614063D01*
X151084188Y-91633369D01*
X150749458Y-91633369D01*
X150764808Y-91510396D01*
X150841972Y-91376820D01*
X150983991Y-91297107D01*
X151191576Y-91270667D01*
X151289187Y-91266810D01*
X151388040Y-91251434D01*
X151426333Y-91228333D01*
X151418588Y-91219168D01*
X151345707Y-91201599D01*
X151206260Y-91190114D01*
X151012805Y-91186000D01*
X150953381Y-91186036D01*
X150782798Y-91187961D01*
X150673530Y-91195988D01*
X150607225Y-91214454D01*
X150565526Y-91247693D01*
X150530079Y-91300043D01*
X150507422Y-91338789D01*
X150485170Y-91403211D01*
X150026040Y-91403211D01*
X150003404Y-91354393D01*
X149942989Y-91251805D01*
X149859861Y-91122500D01*
X149690658Y-90868500D01*
X149869311Y-90855027D01*
X149992427Y-90854802D01*
X150075369Y-90889842D01*
X150159359Y-90978040D01*
X150270753Y-91114526D01*
X150349671Y-90980930D01*
X150428588Y-90847333D01*
X150951410Y-90847333D01*
X151153928Y-90850548D01*
X151342413Y-90860182D01*
X151483959Y-90874833D01*
X151559715Y-90893082D01*
X151580712Y-90907579D01*
X151654574Y-90992017D01*
X151721149Y-91108474D01*
X151774812Y-91228333D01*
X151797101Y-91278118D01*
X151848773Y-91062725D01*
X151875505Y-90959013D01*
X151908872Y-90883021D01*
X151958448Y-90852768D01*
X152043108Y-90847333D01*
X152099039Y-90849023D01*
X152163484Y-90868773D01*
X152205295Y-90928142D01*
X152245948Y-91048417D01*
X152274127Y-91139809D01*
X152300524Y-91202764D01*
X152321694Y-91200838D01*
X152347954Y-91143667D01*
X152377420Y-91059523D01*
X152405827Y-90953167D01*
X152410643Y-90934662D01*
X152460623Y-90879890D01*
X152573132Y-90855787D01*
X152724393Y-90843073D01*
X152865114Y-91363787D01*
X152868081Y-91374759D01*
X152870724Y-91384535D01*
X152925118Y-91584214D01*
G37*
X152925118Y-91584214D02*
X152972201Y-91754579D01*
X153007101Y-91878143D01*
X153024946Y-91937417D01*
X153027105Y-91950271D01*
X152988588Y-91980683D01*
X152873723Y-91990333D01*
X152814903Y-91989481D01*
X152733589Y-91974057D01*
X152685885Y-91921789D01*
X152643277Y-91810417D01*
X152583164Y-91630500D01*
X152527781Y-91799833D01*
X152514448Y-91837849D01*
X152467341Y-91942965D01*
X152425615Y-92000268D01*
X152385717Y-92023336D01*
X152335789Y-92028150D01*
X152246915Y-92007466D01*
X152168874Y-91948747D01*
X152103380Y-91806961D01*
X152049429Y-91630500D01*
X151988353Y-91810417D01*
X151927278Y-91990333D01*
X151449681Y-91990333D01*
X151440759Y-91990332D01*
X151229745Y-91988503D01*
X151083928Y-91981274D01*
X150984538Y-91965768D01*
X150912805Y-91939109D01*
X150849959Y-91898421D01*
X150823745Y-91879164D01*
X150774669Y-91848580D01*
X150780750Y-91864554D01*
X150809584Y-91899420D01*
X150827256Y-91954164D01*
X150775013Y-91982350D01*
X150646049Y-91990333D01*
X150524897Y-91982479D01*
X150440567Y-91945838D01*
X150368000Y-91863333D01*
X150354206Y-91844436D01*
X150289301Y-91767520D01*
X150247245Y-91736333D01*
X150243470Y-91737097D01*
X150199895Y-91778405D01*
X150141901Y-91863333D01*
X150138501Y-91869050D01*
X150078880Y-91947447D01*
X150003717Y-91982366D01*
X149878773Y-91990333D01*
X149824050Y-91988794D01*
X149728488Y-91976143D01*
X149690666Y-91954891D01*
X149690670Y-91954654D01*
X149714224Y-91904016D01*
X149775006Y-91806491D01*
X149860000Y-91682978D01*
X149861157Y-91681361D01*
X149945898Y-91558124D01*
X150006244Y-91461220D01*
X150029198Y-91411503D01*
X150029014Y-91409625D01*
X150026040Y-91403211D01*
X150485170Y-91403211D01*
X150504590Y-91467301D01*
X150570855Y-91564627D01*
X150625745Y-91639322D01*
X150695562Y-91727702D01*
X150732313Y-91753911D01*
X150746594Y-91722255D01*
X150749000Y-91637042D01*
X150749458Y-91633369D01*
X151084188Y-91633369D01*
X151108833Y-91654518D01*
X151160797Y-91667774D01*
X151285840Y-91683618D01*
X151435285Y-91691024D01*
X151677070Y-91694000D01*
X151723817Y-91520393D01*
X151734702Y-91476404D01*
X151751374Y-91374759D01*
X151746616Y-91322838D01*
X151739660Y-91317674D01*
X151722666Y-91340295D01*
X151711043Y-91392258D01*
X151631407Y-91479839D01*
X151487187Y-91548079D01*
X151291243Y-91589548D01*
X151252235Y-91594314D01*
X151129848Y-91614063D01*
X151084188Y-91633369D01*
X150749458Y-91633369D01*
X150764808Y-91510396D01*
X150841972Y-91376820D01*
X150983991Y-91297107D01*
X151191576Y-91270667D01*
X151289187Y-91266810D01*
X151388040Y-91251434D01*
X151426333Y-91228333D01*
X151418588Y-91219168D01*
X151345707Y-91201599D01*
X151206260Y-91190114D01*
X151012805Y-91186000D01*
X150953381Y-91186036D01*
X150782798Y-91187961D01*
X150673530Y-91195988D01*
X150607225Y-91214454D01*
X150565526Y-91247693D01*
X150530079Y-91300043D01*
X150507422Y-91338789D01*
X150485170Y-91403211D01*
X150026040Y-91403211D01*
X150003404Y-91354393D01*
X149942989Y-91251805D01*
X149859861Y-91122500D01*
X149690658Y-90868500D01*
X149869311Y-90855027D01*
X149992427Y-90854802D01*
X150075369Y-90889842D01*
X150159359Y-90978040D01*
X150270753Y-91114526D01*
X150349671Y-90980930D01*
X150428588Y-90847333D01*
X150951410Y-90847333D01*
X151153928Y-90850548D01*
X151342413Y-90860182D01*
X151483959Y-90874833D01*
X151559715Y-90893082D01*
X151580712Y-90907579D01*
X151654574Y-90992017D01*
X151721149Y-91108474D01*
X151774812Y-91228333D01*
X151797101Y-91278118D01*
X151848773Y-91062725D01*
X151875505Y-90959013D01*
X151908872Y-90883021D01*
X151958448Y-90852768D01*
X152043108Y-90847333D01*
X152099039Y-90849023D01*
X152163484Y-90868773D01*
X152205295Y-90928142D01*
X152245948Y-91048417D01*
X152274127Y-91139809D01*
X152300524Y-91202764D01*
X152321694Y-91200838D01*
X152347954Y-91143667D01*
X152377420Y-91059523D01*
X152405827Y-90953167D01*
X152410643Y-90934662D01*
X152460623Y-90879890D01*
X152573132Y-90855787D01*
X152724393Y-90843073D01*
X152865114Y-91363787D01*
X152868081Y-91374759D01*
X152870724Y-91384535D01*
X152925118Y-91584214D01*
G36*
X146751175Y-91392494D02*
G01*
X146720960Y-91445078D01*
X146669557Y-91501280D01*
X146592244Y-91540693D01*
X146469612Y-91572081D01*
X146282255Y-91604204D01*
X146071166Y-91637251D01*
X146317886Y-91670916D01*
X146416921Y-91683014D01*
X146561116Y-91686827D01*
X146662008Y-91655626D01*
X146734236Y-91577344D01*
X146792440Y-91439916D01*
X146851260Y-91231273D01*
X146951372Y-90842960D01*
X147103584Y-90855730D01*
X147138456Y-90859464D01*
X147233901Y-90889755D01*
X147271840Y-90953167D01*
X147291276Y-91029089D01*
X147330984Y-91143667D01*
X147349329Y-91186271D01*
X147371128Y-91210401D01*
X147392234Y-91171129D01*
X147422912Y-91059000D01*
X147438663Y-91000305D01*
X147474670Y-90910981D01*
X147528204Y-90870751D01*
X147622757Y-90855716D01*
X147773774Y-90842931D01*
X147927887Y-91393503D01*
X147942753Y-91446719D01*
X147997356Y-91644181D01*
X148041573Y-91807202D01*
X148071191Y-91920102D01*
X148082000Y-91967204D01*
X148078320Y-91972046D01*
X148020969Y-91985096D01*
X147916194Y-91990333D01*
X147861783Y-91989526D01*
X147780844Y-91974139D01*
X147732639Y-91921847D01*
X147689107Y-91810417D01*
X147627825Y-91630500D01*
X147578114Y-91810417D01*
X147560719Y-91870801D01*
X147524376Y-91952349D01*
X147467832Y-91984623D01*
X147364065Y-91990333D01*
X147349255Y-91990292D01*
X147247606Y-91981432D01*
X147197761Y-91942564D01*
X147170218Y-91852750D01*
X147140937Y-91736529D01*
X147109837Y-91676941D01*
X147078385Y-91698602D01*
X147042528Y-91799833D01*
X146995011Y-91969167D01*
X146513724Y-91981218D01*
X146463398Y-91982433D01*
X146265556Y-91985172D01*
X146129522Y-91980884D01*
X146036433Y-91967092D01*
X145967425Y-91941318D01*
X145903635Y-91901085D01*
X145873577Y-91880157D01*
X145822753Y-91850452D01*
X145827750Y-91865750D01*
X145851734Y-91893552D01*
X145875614Y-91951368D01*
X145828327Y-91981604D01*
X145703833Y-91990333D01*
X145609363Y-91984966D01*
X145508230Y-91947325D01*
X145414500Y-91855578D01*
X145302002Y-91720823D01*
X145202373Y-91855578D01*
X145184514Y-91879196D01*
X145113883Y-91951421D01*
X145030145Y-91983225D01*
X144897758Y-91990333D01*
X144692771Y-91990333D01*
X144884552Y-91710244D01*
X144909940Y-91672929D01*
X144994652Y-91544515D01*
X145053921Y-91448483D01*
X145076198Y-91403328D01*
X145075981Y-91401671D01*
X145074868Y-91399449D01*
X145549425Y-91399449D01*
X145579088Y-91492917D01*
X145634573Y-91583928D01*
X145712300Y-91694000D01*
X145794117Y-91799833D01*
X145795059Y-91639159D01*
X145807772Y-91528331D01*
X145881140Y-91386589D01*
X146017654Y-91299998D01*
X146214911Y-91270667D01*
X146288884Y-91268087D01*
X146397964Y-91252798D01*
X146452166Y-91228333D01*
X146452319Y-91220265D01*
X146397705Y-91201577D01*
X146265200Y-91189981D01*
X146059652Y-91186000D01*
X146008921Y-91186030D01*
X145833784Y-91187867D01*
X145721504Y-91195414D01*
X145654334Y-91212623D01*
X145614526Y-91243446D01*
X145584333Y-91291833D01*
X145578739Y-91302510D01*
X145549425Y-91399449D01*
X145074868Y-91399449D01*
X145050179Y-91350143D01*
X144989804Y-91250450D01*
X144906861Y-91122500D01*
X144737658Y-90868500D01*
X144916311Y-90855027D01*
X145039427Y-90854802D01*
X145122369Y-90889842D01*
X145206359Y-90978040D01*
X145317753Y-91114526D01*
X145396671Y-90980930D01*
X145475588Y-90847333D01*
X146018718Y-90847333D01*
X146219949Y-90847946D01*
X146383753Y-90851662D01*
X146493675Y-90861083D01*
X146566103Y-90878802D01*
X146617427Y-90907417D01*
X146664036Y-90949521D01*
X146757959Y-91072944D01*
X146794309Y-91220265D01*
X146796440Y-91228905D01*
X146751175Y-91392494D01*
G37*
X146751175Y-91392494D02*
X146720960Y-91445078D01*
X146669557Y-91501280D01*
X146592244Y-91540693D01*
X146469612Y-91572081D01*
X146282255Y-91604204D01*
X146071166Y-91637251D01*
X146317886Y-91670916D01*
X146416921Y-91683014D01*
X146561116Y-91686827D01*
X146662008Y-91655626D01*
X146734236Y-91577344D01*
X146792440Y-91439916D01*
X146851260Y-91231273D01*
X146951372Y-90842960D01*
X147103584Y-90855730D01*
X147138456Y-90859464D01*
X147233901Y-90889755D01*
X147271840Y-90953167D01*
X147291276Y-91029089D01*
X147330984Y-91143667D01*
X147349329Y-91186271D01*
X147371128Y-91210401D01*
X147392234Y-91171129D01*
X147422912Y-91059000D01*
X147438663Y-91000305D01*
X147474670Y-90910981D01*
X147528204Y-90870751D01*
X147622757Y-90855716D01*
X147773774Y-90842931D01*
X147927887Y-91393503D01*
X147942753Y-91446719D01*
X147997356Y-91644181D01*
X148041573Y-91807202D01*
X148071191Y-91920102D01*
X148082000Y-91967204D01*
X148078320Y-91972046D01*
X148020969Y-91985096D01*
X147916194Y-91990333D01*
X147861783Y-91989526D01*
X147780844Y-91974139D01*
X147732639Y-91921847D01*
X147689107Y-91810417D01*
X147627825Y-91630500D01*
X147578114Y-91810417D01*
X147560719Y-91870801D01*
X147524376Y-91952349D01*
X147467832Y-91984623D01*
X147364065Y-91990333D01*
X147349255Y-91990292D01*
X147247606Y-91981432D01*
X147197761Y-91942564D01*
X147170218Y-91852750D01*
X147140937Y-91736529D01*
X147109837Y-91676941D01*
X147078385Y-91698602D01*
X147042528Y-91799833D01*
X146995011Y-91969167D01*
X146513724Y-91981218D01*
X146463398Y-91982433D01*
X146265556Y-91985172D01*
X146129522Y-91980884D01*
X146036433Y-91967092D01*
X145967425Y-91941318D01*
X145903635Y-91901085D01*
X145873577Y-91880157D01*
X145822753Y-91850452D01*
X145827750Y-91865750D01*
X145851734Y-91893552D01*
X145875614Y-91951368D01*
X145828327Y-91981604D01*
X145703833Y-91990333D01*
X145609363Y-91984966D01*
X145508230Y-91947325D01*
X145414500Y-91855578D01*
X145302002Y-91720823D01*
X145202373Y-91855578D01*
X145184514Y-91879196D01*
X145113883Y-91951421D01*
X145030145Y-91983225D01*
X144897758Y-91990333D01*
X144692771Y-91990333D01*
X144884552Y-91710244D01*
X144909940Y-91672929D01*
X144994652Y-91544515D01*
X145053921Y-91448483D01*
X145076198Y-91403328D01*
X145075981Y-91401671D01*
X145074868Y-91399449D01*
X145549425Y-91399449D01*
X145579088Y-91492917D01*
X145634573Y-91583928D01*
X145712300Y-91694000D01*
X145794117Y-91799833D01*
X145795059Y-91639159D01*
X145807772Y-91528331D01*
X145881140Y-91386589D01*
X146017654Y-91299998D01*
X146214911Y-91270667D01*
X146288884Y-91268087D01*
X146397964Y-91252798D01*
X146452166Y-91228333D01*
X146452319Y-91220265D01*
X146397705Y-91201577D01*
X146265200Y-91189981D01*
X146059652Y-91186000D01*
X146008921Y-91186030D01*
X145833784Y-91187867D01*
X145721504Y-91195414D01*
X145654334Y-91212623D01*
X145614526Y-91243446D01*
X145584333Y-91291833D01*
X145578739Y-91302510D01*
X145549425Y-91399449D01*
X145074868Y-91399449D01*
X145050179Y-91350143D01*
X144989804Y-91250450D01*
X144906861Y-91122500D01*
X144737658Y-90868500D01*
X144916311Y-90855027D01*
X145039427Y-90854802D01*
X145122369Y-90889842D01*
X145206359Y-90978040D01*
X145317753Y-91114526D01*
X145396671Y-90980930D01*
X145475588Y-90847333D01*
X146018718Y-90847333D01*
X146219949Y-90847946D01*
X146383753Y-90851662D01*
X146493675Y-90861083D01*
X146566103Y-90878802D01*
X146617427Y-90907417D01*
X146664036Y-90949521D01*
X146757959Y-91072944D01*
X146794309Y-91220265D01*
X146796440Y-91228905D01*
X146751175Y-91392494D01*
G36*
X135423509Y-91778487D02*
G01*
X135471174Y-91863555D01*
X135491003Y-91930626D01*
X135500519Y-91930766D01*
X135504780Y-91849646D01*
X135505695Y-91831692D01*
X135526845Y-91756103D01*
X135582597Y-91744299D01*
X135651295Y-91791957D01*
X135671582Y-91879229D01*
X135634312Y-91971200D01*
X135631958Y-91973874D01*
X135553475Y-92015487D01*
X135440316Y-92032667D01*
X135426840Y-92032635D01*
X135338706Y-92023959D01*
X135303630Y-91982108D01*
X135297333Y-91881396D01*
X135299772Y-91815361D01*
X135320211Y-91752332D01*
X135369560Y-91744035D01*
X135423509Y-91778487D01*
G37*
X135423509Y-91778487D02*
X135471174Y-91863555D01*
X135491003Y-91930626D01*
X135500519Y-91930766D01*
X135504780Y-91849646D01*
X135505695Y-91831692D01*
X135526845Y-91756103D01*
X135582597Y-91744299D01*
X135651295Y-91791957D01*
X135671582Y-91879229D01*
X135634312Y-91971200D01*
X135631958Y-91973874D01*
X135553475Y-92015487D01*
X135440316Y-92032667D01*
X135426840Y-92032635D01*
X135338706Y-92023959D01*
X135303630Y-91982108D01*
X135297333Y-91881396D01*
X135299772Y-91815361D01*
X135320211Y-91752332D01*
X135369560Y-91744035D01*
X135423509Y-91778487D01*
G36*
X132249333Y-92117333D02*
G01*
X132249333Y-91776636D01*
X132588000Y-91776636D01*
X132589068Y-91864675D01*
X132599882Y-91948857D01*
X132631245Y-91983557D01*
X132693833Y-91990333D01*
X132736307Y-91988328D01*
X132778724Y-91966958D01*
X132796235Y-91904289D01*
X132799666Y-91778667D01*
X132799666Y-91567000D01*
X132990166Y-91567000D01*
X133073164Y-91567888D01*
X133148247Y-91580683D01*
X133176401Y-91622788D01*
X133180666Y-91711704D01*
X133180677Y-91715905D01*
X133188461Y-91835585D01*
X133206362Y-91923371D01*
X133245008Y-91965357D01*
X133333362Y-91990333D01*
X133434666Y-91990333D01*
X133434666Y-90889667D01*
X133172703Y-90889667D01*
X132955747Y-90909252D01*
X132779088Y-90972656D01*
X132668841Y-91076621D01*
X132630622Y-91217750D01*
X132633248Y-91279869D01*
X132658856Y-91340901D01*
X132725583Y-91356671D01*
X132745901Y-91357048D01*
X132790447Y-91364209D01*
X132777761Y-91393082D01*
X132704416Y-91460474D01*
X132699322Y-91464990D01*
X132628844Y-91543636D01*
X132596053Y-91635797D01*
X132588000Y-91776636D01*
X132249333Y-91776636D01*
X132249333Y-90762667D01*
X133773333Y-90762667D01*
X133773333Y-92117333D01*
X132249333Y-92117333D01*
G37*
X132249333Y-92117333D02*
X132249333Y-91776636D01*
X132588000Y-91776636D01*
X132589068Y-91864675D01*
X132599882Y-91948857D01*
X132631245Y-91983557D01*
X132693833Y-91990333D01*
X132736307Y-91988328D01*
X132778724Y-91966958D01*
X132796235Y-91904289D01*
X132799666Y-91778667D01*
X132799666Y-91567000D01*
X132990166Y-91567000D01*
X133073164Y-91567888D01*
X133148247Y-91580683D01*
X133176401Y-91622788D01*
X133180666Y-91711704D01*
X133180677Y-91715905D01*
X133188461Y-91835585D01*
X133206362Y-91923371D01*
X133245008Y-91965357D01*
X133333362Y-91990333D01*
X133434666Y-91990333D01*
X133434666Y-90889667D01*
X133172703Y-90889667D01*
X132955747Y-90909252D01*
X132779088Y-90972656D01*
X132668841Y-91076621D01*
X132630622Y-91217750D01*
X132633248Y-91279869D01*
X132658856Y-91340901D01*
X132725583Y-91356671D01*
X132745901Y-91357048D01*
X132790447Y-91364209D01*
X132777761Y-91393082D01*
X132704416Y-91460474D01*
X132699322Y-91464990D01*
X132628844Y-91543636D01*
X132596053Y-91635797D01*
X132588000Y-91776636D01*
X132249333Y-91776636D01*
X132249333Y-90762667D01*
X133773333Y-90762667D01*
X133773333Y-92117333D01*
X132249333Y-92117333D01*
G36*
X133119781Y-91148629D02*
G01*
X133169596Y-91177929D01*
X133180666Y-91249500D01*
X133173719Y-91311843D01*
X133132699Y-91347426D01*
X133032500Y-91355333D01*
X132945219Y-91350370D01*
X132895403Y-91321071D01*
X132884333Y-91249500D01*
X132891281Y-91187156D01*
X132932301Y-91151574D01*
X133032500Y-91143667D01*
X133119781Y-91148629D01*
G37*
X133119781Y-91148629D02*
X133169596Y-91177929D01*
X133180666Y-91249500D01*
X133173719Y-91311843D01*
X133132699Y-91347426D01*
X133032500Y-91355333D01*
X132945219Y-91350370D01*
X132895403Y-91321071D01*
X132884333Y-91249500D01*
X132891281Y-91187156D01*
X132932301Y-91151574D01*
X133032500Y-91143667D01*
X133119781Y-91148629D01*
G36*
X135126508Y-91753595D02*
G01*
X135182657Y-91796331D01*
X135204765Y-91895083D01*
X135207113Y-91925721D01*
X135197506Y-92008728D01*
X135151849Y-92032667D01*
X135108453Y-92012880D01*
X135085666Y-91926833D01*
X135073238Y-91857800D01*
X135022166Y-91821000D01*
X134992910Y-91815890D01*
X134958666Y-91775855D01*
X134991126Y-91748394D01*
X135075083Y-91744105D01*
X135126508Y-91753595D01*
G37*
X135126508Y-91753595D02*
X135182657Y-91796331D01*
X135204765Y-91895083D01*
X135207113Y-91925721D01*
X135197506Y-92008728D01*
X135151849Y-92032667D01*
X135108453Y-92012880D01*
X135085666Y-91926833D01*
X135073238Y-91857800D01*
X135022166Y-91821000D01*
X134992910Y-91815890D01*
X134958666Y-91775855D01*
X134991126Y-91748394D01*
X135075083Y-91744105D01*
X135126508Y-91753595D01*
G36*
X140228429Y-82848178D02*
G01*
X140676550Y-82848690D01*
X141210153Y-82850053D01*
X141670578Y-82852581D01*
X142064411Y-82856705D01*
X142398242Y-82862852D01*
X142678657Y-82871453D01*
X142912245Y-82882935D01*
X143105593Y-82897727D01*
X143265291Y-82916259D01*
X143397925Y-82938960D01*
X143510083Y-82966257D01*
X143608355Y-82998581D01*
X143699326Y-83036360D01*
X143789587Y-83080023D01*
X143917290Y-83151185D01*
X144235290Y-83389868D01*
X144504007Y-83684778D01*
X144707396Y-84019491D01*
X144762172Y-84138760D01*
X144800631Y-84240256D01*
X144824551Y-84341655D01*
X144837373Y-84464146D01*
X144842542Y-84628920D01*
X144843500Y-84857167D01*
X144842595Y-85083348D01*
X144837600Y-85247934D01*
X144825111Y-85369328D01*
X144801726Y-85468361D01*
X144764043Y-85565864D01*
X144708659Y-85682667D01*
X144559134Y-85945819D01*
X144323880Y-86235744D01*
X144044920Y-86457999D01*
X143922005Y-86533986D01*
X143785738Y-86611323D01*
X143656910Y-86671367D01*
X143522366Y-86716873D01*
X143368952Y-86750598D01*
X143183513Y-86775297D01*
X142952894Y-86793725D01*
X142663941Y-86808639D01*
X142303500Y-86822793D01*
X142152335Y-86828664D01*
X141882145Y-86840848D01*
X141644543Y-86853723D01*
X141452539Y-86866471D01*
X141319141Y-86878279D01*
X141257361Y-86888332D01*
X141239493Y-86897077D01*
X141169064Y-86977717D01*
X141148565Y-87088973D01*
X141177998Y-87198817D01*
X141257361Y-87275221D01*
X141259377Y-87275986D01*
X141324569Y-87284086D01*
X141463682Y-87292284D01*
X141666917Y-87300290D01*
X141924472Y-87307813D01*
X142226548Y-87314565D01*
X142563346Y-87320253D01*
X142925064Y-87324590D01*
X144520295Y-87339916D01*
X144566412Y-87178041D01*
X144583920Y-87116236D01*
X144630923Y-86948688D01*
X144693185Y-86725348D01*
X144768182Y-86455375D01*
X144853390Y-86147929D01*
X144946285Y-85812168D01*
X145044345Y-85457253D01*
X145145043Y-85092341D01*
X145245857Y-84726592D01*
X145344263Y-84369165D01*
X145437737Y-84029219D01*
X145523755Y-83715913D01*
X145599793Y-83438407D01*
X145663327Y-83205859D01*
X145711833Y-83027428D01*
X145742787Y-82912274D01*
X145753666Y-82869556D01*
X145753668Y-82869483D01*
X145793724Y-82859907D01*
X145901726Y-82853057D01*
X146061113Y-82848806D01*
X146255321Y-82847023D01*
X146467788Y-82847582D01*
X146681953Y-82850352D01*
X146881254Y-82855205D01*
X147049127Y-82862013D01*
X147169012Y-82870648D01*
X147224345Y-82880979D01*
X147248924Y-82929088D01*
X147291664Y-83048102D01*
X147349118Y-83226989D01*
X147417868Y-83454735D01*
X147494496Y-83720326D01*
X147575583Y-84012748D01*
X147605007Y-84120981D01*
X147694654Y-84450951D01*
X147765174Y-84709565D01*
X147819211Y-84904804D01*
X147859409Y-85044651D01*
X147888410Y-85137091D01*
X147908858Y-85190106D01*
X147923397Y-85211679D01*
X147934671Y-85209793D01*
X147945323Y-85192430D01*
X147957996Y-85167576D01*
X147978083Y-85112938D01*
X148017285Y-84986830D01*
X148071829Y-84801519D01*
X148138380Y-84568539D01*
X148213601Y-84299421D01*
X148294156Y-84005697D01*
X148373170Y-83720422D01*
X148449640Y-83455032D01*
X148518315Y-83227279D01*
X148575764Y-83048226D01*
X148618556Y-82928934D01*
X148643257Y-82880466D01*
X148679535Y-82872280D01*
X148791016Y-82863556D01*
X148960699Y-82857797D01*
X149173456Y-82855462D01*
X149414161Y-82857011D01*
X150132489Y-82867500D01*
X150738002Y-85047667D01*
X150900450Y-85633359D01*
X151087776Y-86311101D01*
X151254119Y-86915799D01*
X151399199Y-87446404D01*
X151522732Y-87901872D01*
X151624436Y-88281156D01*
X151704031Y-88583210D01*
X151761233Y-88806988D01*
X151795761Y-88951442D01*
X151807333Y-89015528D01*
X151792531Y-89032624D01*
X151736117Y-89047227D01*
X151629347Y-89057679D01*
X151463649Y-89064501D01*
X151230453Y-89068212D01*
X150921186Y-89069333D01*
X150862743Y-89069320D01*
X150579622Y-89068563D01*
X150368441Y-89066000D01*
X150218391Y-89060751D01*
X150118664Y-89051934D01*
X150058450Y-89038666D01*
X150026940Y-89020065D01*
X150013325Y-88995250D01*
X150003672Y-88961504D01*
X149972681Y-88851978D01*
X149924618Y-88681528D01*
X149862910Y-88462325D01*
X149790985Y-88206537D01*
X149712269Y-87926333D01*
X149679064Y-87808071D01*
X149593178Y-87502384D01*
X149526595Y-87266531D01*
X149476573Y-87091754D01*
X149440370Y-86969295D01*
X149415244Y-86890394D01*
X149398453Y-86846294D01*
X149387256Y-86828237D01*
X149378909Y-86827464D01*
X149370672Y-86835217D01*
X149362521Y-86855242D01*
X149334358Y-86946610D01*
X149290297Y-87100950D01*
X149233573Y-87306633D01*
X149167422Y-87552034D01*
X149095079Y-87825526D01*
X149053170Y-87984982D01*
X148981142Y-88257107D01*
X148915864Y-88501364D01*
X148860979Y-88704235D01*
X148820131Y-88852202D01*
X148796961Y-88931750D01*
X148752767Y-89069333D01*
X147941133Y-89069258D01*
X147129500Y-89069183D01*
X146835931Y-87979175D01*
X146758616Y-87694436D01*
X146685422Y-87429439D01*
X146621355Y-87202111D01*
X146569567Y-87023490D01*
X146533209Y-86904619D01*
X146515434Y-86856537D01*
X146514482Y-86855735D01*
X146492313Y-86887136D01*
X146454369Y-86984939D01*
X146405717Y-87134757D01*
X146351425Y-87322203D01*
X146344278Y-87348159D01*
X146277103Y-87590430D01*
X146197222Y-87876304D01*
X146114030Y-88172246D01*
X146036922Y-88444723D01*
X145859500Y-89068946D01*
X143615833Y-89067832D01*
X143470556Y-89067677D01*
X143035657Y-89066225D01*
X142620423Y-89063413D01*
X142234141Y-89059394D01*
X141886097Y-89054318D01*
X141585575Y-89048334D01*
X141341862Y-89041594D01*
X141164244Y-89034248D01*
X141062006Y-89026446D01*
X140992601Y-89015998D01*
X140638536Y-88914180D01*
X140304233Y-88732646D01*
X139985709Y-88469333D01*
X139959362Y-88443047D01*
X139722033Y-88144203D01*
X139552665Y-87808487D01*
X139451339Y-87448270D01*
X139418132Y-87075926D01*
X139453125Y-86703829D01*
X139556396Y-86344352D01*
X139728024Y-86009868D01*
X139968089Y-85712751D01*
X140102646Y-85583539D01*
X140257866Y-85453809D01*
X140415133Y-85350711D01*
X140586245Y-85270779D01*
X140782999Y-85210546D01*
X141017195Y-85166543D01*
X141300630Y-85135304D01*
X141645103Y-85113361D01*
X142062410Y-85097246D01*
X142248146Y-85091328D01*
X142533624Y-85080959D01*
X142749467Y-85069540D01*
X142905427Y-85054851D01*
X143011258Y-85034673D01*
X143076713Y-85006785D01*
X143111545Y-84968969D01*
X143125507Y-84919005D01*
X143128352Y-84854674D01*
X143117126Y-84787444D01*
X143068942Y-84685341D01*
X143056874Y-84670861D01*
X143034955Y-84654562D01*
X142999544Y-84641004D01*
X142943524Y-84629879D01*
X142859779Y-84620879D01*
X142741189Y-84613697D01*
X142580639Y-84608024D01*
X142371010Y-84603553D01*
X142105185Y-84599976D01*
X141776046Y-84596985D01*
X141376477Y-84594273D01*
X140899359Y-84591532D01*
X138789833Y-84579897D01*
X138425396Y-85099532D01*
X138371205Y-85176906D01*
X138240866Y-85363866D01*
X138127267Y-85527986D01*
X138041079Y-85653807D01*
X137992975Y-85725869D01*
X137983129Y-85741622D01*
X137962784Y-85784721D01*
X137961077Y-85831457D01*
X137983928Y-85895018D01*
X138037259Y-85988592D01*
X138126990Y-86125369D01*
X138259041Y-86318536D01*
X138411990Y-86541337D01*
X138740655Y-87022321D01*
X139037480Y-87459900D01*
X139300347Y-87850851D01*
X139527136Y-88191951D01*
X139715728Y-88479976D01*
X139864006Y-88711701D01*
X139969848Y-88883904D01*
X140031138Y-88993359D01*
X140045755Y-89036845D01*
X140025067Y-89042548D01*
X139929998Y-89050628D01*
X139769867Y-89056639D01*
X139556934Y-89060311D01*
X139303460Y-89061372D01*
X139021707Y-89059549D01*
X138031746Y-89048167D01*
X137765079Y-88669655D01*
X137665148Y-88528732D01*
X137504106Y-88303906D01*
X137333674Y-88067977D01*
X137177344Y-87853568D01*
X136856275Y-87415992D01*
X136728912Y-87575912D01*
X136668562Y-87655605D01*
X136567598Y-87794102D01*
X136438483Y-87974325D01*
X136291486Y-88181932D01*
X136136877Y-88402583D01*
X135672205Y-89069333D01*
X134682934Y-89069333D01*
X134339693Y-89067729D01*
X134050818Y-89062378D01*
X133843226Y-89053194D01*
X133715202Y-89040099D01*
X133665037Y-89023015D01*
X133662620Y-89007895D01*
X133671251Y-88977561D01*
X133694855Y-88927911D01*
X133736716Y-88853887D01*
X133800116Y-88750434D01*
X133888338Y-88612494D01*
X134004663Y-88435010D01*
X134152375Y-88212927D01*
X134334756Y-87941187D01*
X134555088Y-87614733D01*
X134816655Y-87228510D01*
X135122738Y-86777460D01*
X135773512Y-85819087D01*
X135097171Y-84830127D01*
X134985521Y-84666854D01*
X134720367Y-84278820D01*
X134498213Y-83952939D01*
X134315517Y-83683630D01*
X134168737Y-83465315D01*
X134054331Y-83292414D01*
X133968759Y-83159347D01*
X133908477Y-83060535D01*
X133869944Y-82990398D01*
X133849619Y-82943356D01*
X133843959Y-82913830D01*
X133849424Y-82896240D01*
X133862471Y-82885008D01*
X133893599Y-82877506D01*
X134000329Y-82867855D01*
X134165787Y-82859965D01*
X134374528Y-82853939D01*
X134611112Y-82849878D01*
X134860094Y-82847884D01*
X135106032Y-82848061D01*
X135333483Y-82850510D01*
X135527004Y-82855333D01*
X135671154Y-82862632D01*
X135750488Y-82872511D01*
X135776420Y-82887238D01*
X135858800Y-82966953D01*
X135979628Y-83109416D01*
X136134213Y-83308942D01*
X136317864Y-83559850D01*
X136330377Y-83577331D01*
X136477088Y-83782161D01*
X136605772Y-83961588D01*
X136708623Y-84104744D01*
X136777836Y-84200764D01*
X136805603Y-84238782D01*
X136809268Y-84242088D01*
X136837192Y-84236855D01*
X136886496Y-84192691D01*
X136962264Y-84103271D01*
X137069579Y-83962268D01*
X137213525Y-83763358D01*
X137399185Y-83500216D01*
X137857025Y-82846333D01*
X140228429Y-82848178D01*
G37*
X140228429Y-82848178D02*
X140676550Y-82848690D01*
X141210153Y-82850053D01*
X141670578Y-82852581D01*
X142064411Y-82856705D01*
X142398242Y-82862852D01*
X142678657Y-82871453D01*
X142912245Y-82882935D01*
X143105593Y-82897727D01*
X143265291Y-82916259D01*
X143397925Y-82938960D01*
X143510083Y-82966257D01*
X143608355Y-82998581D01*
X143699326Y-83036360D01*
X143789587Y-83080023D01*
X143917290Y-83151185D01*
X144235290Y-83389868D01*
X144504007Y-83684778D01*
X144707396Y-84019491D01*
X144762172Y-84138760D01*
X144800631Y-84240256D01*
X144824551Y-84341655D01*
X144837373Y-84464146D01*
X144842542Y-84628920D01*
X144843500Y-84857167D01*
X144842595Y-85083348D01*
X144837600Y-85247934D01*
X144825111Y-85369328D01*
X144801726Y-85468361D01*
X144764043Y-85565864D01*
X144708659Y-85682667D01*
X144559134Y-85945819D01*
X144323880Y-86235744D01*
X144044920Y-86457999D01*
X143922005Y-86533986D01*
X143785738Y-86611323D01*
X143656910Y-86671367D01*
X143522366Y-86716873D01*
X143368952Y-86750598D01*
X143183513Y-86775297D01*
X142952894Y-86793725D01*
X142663941Y-86808639D01*
X142303500Y-86822793D01*
X142152335Y-86828664D01*
X141882145Y-86840848D01*
X141644543Y-86853723D01*
X141452539Y-86866471D01*
X141319141Y-86878279D01*
X141257361Y-86888332D01*
X141239493Y-86897077D01*
X141169064Y-86977717D01*
X141148565Y-87088973D01*
X141177998Y-87198817D01*
X141257361Y-87275221D01*
X141259377Y-87275986D01*
X141324569Y-87284086D01*
X141463682Y-87292284D01*
X141666917Y-87300290D01*
X141924472Y-87307813D01*
X142226548Y-87314565D01*
X142563346Y-87320253D01*
X142925064Y-87324590D01*
X144520295Y-87339916D01*
X144566412Y-87178041D01*
X144583920Y-87116236D01*
X144630923Y-86948688D01*
X144693185Y-86725348D01*
X144768182Y-86455375D01*
X144853390Y-86147929D01*
X144946285Y-85812168D01*
X145044345Y-85457253D01*
X145145043Y-85092341D01*
X145245857Y-84726592D01*
X145344263Y-84369165D01*
X145437737Y-84029219D01*
X145523755Y-83715913D01*
X145599793Y-83438407D01*
X145663327Y-83205859D01*
X145711833Y-83027428D01*
X145742787Y-82912274D01*
X145753666Y-82869556D01*
X145753668Y-82869483D01*
X145793724Y-82859907D01*
X145901726Y-82853057D01*
X146061113Y-82848806D01*
X146255321Y-82847023D01*
X146467788Y-82847582D01*
X146681953Y-82850352D01*
X146881254Y-82855205D01*
X147049127Y-82862013D01*
X147169012Y-82870648D01*
X147224345Y-82880979D01*
X147248924Y-82929088D01*
X147291664Y-83048102D01*
X147349118Y-83226989D01*
X147417868Y-83454735D01*
X147494496Y-83720326D01*
X147575583Y-84012748D01*
X147605007Y-84120981D01*
X147694654Y-84450951D01*
X147765174Y-84709565D01*
X147819211Y-84904804D01*
X147859409Y-85044651D01*
X147888410Y-85137091D01*
X147908858Y-85190106D01*
X147923397Y-85211679D01*
X147934671Y-85209793D01*
X147945323Y-85192430D01*
X147957996Y-85167576D01*
X147978083Y-85112938D01*
X148017285Y-84986830D01*
X148071829Y-84801519D01*
X148138380Y-84568539D01*
X148213601Y-84299421D01*
X148294156Y-84005697D01*
X148373170Y-83720422D01*
X148449640Y-83455032D01*
X148518315Y-83227279D01*
X148575764Y-83048226D01*
X148618556Y-82928934D01*
X148643257Y-82880466D01*
X148679535Y-82872280D01*
X148791016Y-82863556D01*
X148960699Y-82857797D01*
X149173456Y-82855462D01*
X149414161Y-82857011D01*
X150132489Y-82867500D01*
X150738002Y-85047667D01*
X150900450Y-85633359D01*
X151087776Y-86311101D01*
X151254119Y-86915799D01*
X151399199Y-87446404D01*
X151522732Y-87901872D01*
X151624436Y-88281156D01*
X151704031Y-88583210D01*
X151761233Y-88806988D01*
X151795761Y-88951442D01*
X151807333Y-89015528D01*
X151792531Y-89032624D01*
X151736117Y-89047227D01*
X151629347Y-89057679D01*
X151463649Y-89064501D01*
X151230453Y-89068212D01*
X150921186Y-89069333D01*
X150862743Y-89069320D01*
X150579622Y-89068563D01*
X150368441Y-89066000D01*
X150218391Y-89060751D01*
X150118664Y-89051934D01*
X150058450Y-89038666D01*
X150026940Y-89020065D01*
X150013325Y-88995250D01*
X150003672Y-88961504D01*
X149972681Y-88851978D01*
X149924618Y-88681528D01*
X149862910Y-88462325D01*
X149790985Y-88206537D01*
X149712269Y-87926333D01*
X149679064Y-87808071D01*
X149593178Y-87502384D01*
X149526595Y-87266531D01*
X149476573Y-87091754D01*
X149440370Y-86969295D01*
X149415244Y-86890394D01*
X149398453Y-86846294D01*
X149387256Y-86828237D01*
X149378909Y-86827464D01*
X149370672Y-86835217D01*
X149362521Y-86855242D01*
X149334358Y-86946610D01*
X149290297Y-87100950D01*
X149233573Y-87306633D01*
X149167422Y-87552034D01*
X149095079Y-87825526D01*
X149053170Y-87984982D01*
X148981142Y-88257107D01*
X148915864Y-88501364D01*
X148860979Y-88704235D01*
X148820131Y-88852202D01*
X148796961Y-88931750D01*
X148752767Y-89069333D01*
X147941133Y-89069258D01*
X147129500Y-89069183D01*
X146835931Y-87979175D01*
X146758616Y-87694436D01*
X146685422Y-87429439D01*
X146621355Y-87202111D01*
X146569567Y-87023490D01*
X146533209Y-86904619D01*
X146515434Y-86856537D01*
X146514482Y-86855735D01*
X146492313Y-86887136D01*
X146454369Y-86984939D01*
X146405717Y-87134757D01*
X146351425Y-87322203D01*
X146344278Y-87348159D01*
X146277103Y-87590430D01*
X146197222Y-87876304D01*
X146114030Y-88172246D01*
X146036922Y-88444723D01*
X145859500Y-89068946D01*
X143615833Y-89067832D01*
X143470556Y-89067677D01*
X143035657Y-89066225D01*
X142620423Y-89063413D01*
X142234141Y-89059394D01*
X141886097Y-89054318D01*
X141585575Y-89048334D01*
X141341862Y-89041594D01*
X141164244Y-89034248D01*
X141062006Y-89026446D01*
X140992601Y-89015998D01*
X140638536Y-88914180D01*
X140304233Y-88732646D01*
X139985709Y-88469333D01*
X139959362Y-88443047D01*
X139722033Y-88144203D01*
X139552665Y-87808487D01*
X139451339Y-87448270D01*
X139418132Y-87075926D01*
X139453125Y-86703829D01*
X139556396Y-86344352D01*
X139728024Y-86009868D01*
X139968089Y-85712751D01*
X140102646Y-85583539D01*
X140257866Y-85453809D01*
X140415133Y-85350711D01*
X140586245Y-85270779D01*
X140782999Y-85210546D01*
X141017195Y-85166543D01*
X141300630Y-85135304D01*
X141645103Y-85113361D01*
X142062410Y-85097246D01*
X142248146Y-85091328D01*
X142533624Y-85080959D01*
X142749467Y-85069540D01*
X142905427Y-85054851D01*
X143011258Y-85034673D01*
X143076713Y-85006785D01*
X143111545Y-84968969D01*
X143125507Y-84919005D01*
X143128352Y-84854674D01*
X143117126Y-84787444D01*
X143068942Y-84685341D01*
X143056874Y-84670861D01*
X143034955Y-84654562D01*
X142999544Y-84641004D01*
X142943524Y-84629879D01*
X142859779Y-84620879D01*
X142741189Y-84613697D01*
X142580639Y-84608024D01*
X142371010Y-84603553D01*
X142105185Y-84599976D01*
X141776046Y-84596985D01*
X141376477Y-84594273D01*
X140899359Y-84591532D01*
X138789833Y-84579897D01*
X138425396Y-85099532D01*
X138371205Y-85176906D01*
X138240866Y-85363866D01*
X138127267Y-85527986D01*
X138041079Y-85653807D01*
X137992975Y-85725869D01*
X137983129Y-85741622D01*
X137962784Y-85784721D01*
X137961077Y-85831457D01*
X137983928Y-85895018D01*
X138037259Y-85988592D01*
X138126990Y-86125369D01*
X138259041Y-86318536D01*
X138411990Y-86541337D01*
X138740655Y-87022321D01*
X139037480Y-87459900D01*
X139300347Y-87850851D01*
X139527136Y-88191951D01*
X139715728Y-88479976D01*
X139864006Y-88711701D01*
X139969848Y-88883904D01*
X140031138Y-88993359D01*
X140045755Y-89036845D01*
X140025067Y-89042548D01*
X139929998Y-89050628D01*
X139769867Y-89056639D01*
X139556934Y-89060311D01*
X139303460Y-89061372D01*
X139021707Y-89059549D01*
X138031746Y-89048167D01*
X137765079Y-88669655D01*
X137665148Y-88528732D01*
X137504106Y-88303906D01*
X137333674Y-88067977D01*
X137177344Y-87853568D01*
X136856275Y-87415992D01*
X136728912Y-87575912D01*
X136668562Y-87655605D01*
X136567598Y-87794102D01*
X136438483Y-87974325D01*
X136291486Y-88181932D01*
X136136877Y-88402583D01*
X135672205Y-89069333D01*
X134682934Y-89069333D01*
X134339693Y-89067729D01*
X134050818Y-89062378D01*
X133843226Y-89053194D01*
X133715202Y-89040099D01*
X133665037Y-89023015D01*
X133662620Y-89007895D01*
X133671251Y-88977561D01*
X133694855Y-88927911D01*
X133736716Y-88853887D01*
X133800116Y-88750434D01*
X133888338Y-88612494D01*
X134004663Y-88435010D01*
X134152375Y-88212927D01*
X134334756Y-87941187D01*
X134555088Y-87614733D01*
X134816655Y-87228510D01*
X135122738Y-86777460D01*
X135773512Y-85819087D01*
X135097171Y-84830127D01*
X134985521Y-84666854D01*
X134720367Y-84278820D01*
X134498213Y-83952939D01*
X134315517Y-83683630D01*
X134168737Y-83465315D01*
X134054331Y-83292414D01*
X133968759Y-83159347D01*
X133908477Y-83060535D01*
X133869944Y-82990398D01*
X133849619Y-82943356D01*
X133843959Y-82913830D01*
X133849424Y-82896240D01*
X133862471Y-82885008D01*
X133893599Y-82877506D01*
X134000329Y-82867855D01*
X134165787Y-82859965D01*
X134374528Y-82853939D01*
X134611112Y-82849878D01*
X134860094Y-82847884D01*
X135106032Y-82848061D01*
X135333483Y-82850510D01*
X135527004Y-82855333D01*
X135671154Y-82862632D01*
X135750488Y-82872511D01*
X135776420Y-82887238D01*
X135858800Y-82966953D01*
X135979628Y-83109416D01*
X136134213Y-83308942D01*
X136317864Y-83559850D01*
X136330377Y-83577331D01*
X136477088Y-83782161D01*
X136605772Y-83961588D01*
X136708623Y-84104744D01*
X136777836Y-84200764D01*
X136805603Y-84238782D01*
X136809268Y-84242088D01*
X136837192Y-84236855D01*
X136886496Y-84192691D01*
X136962264Y-84103271D01*
X137069579Y-83962268D01*
X137213525Y-83763358D01*
X137399185Y-83500216D01*
X137857025Y-82846333D01*
X140228429Y-82848178D01*
G36*
X141130810Y-91464286D02*
G01*
X140995121Y-91538976D01*
X140786341Y-91590066D01*
X140525500Y-91634299D01*
X140820822Y-91666309D01*
X140834392Y-91667780D01*
X140979262Y-91680859D01*
X141080114Y-91674651D01*
X141150212Y-91636677D01*
X141202818Y-91554460D01*
X141251196Y-91415522D01*
X141308608Y-91207384D01*
X141405367Y-90847333D01*
X141546907Y-90847333D01*
X141596570Y-90848511D01*
X141663019Y-90866268D01*
X141702629Y-90922939D01*
X141737108Y-91040582D01*
X141774415Y-91156211D01*
X141811170Y-91193435D01*
X141848850Y-91147059D01*
X141890127Y-91016667D01*
X141921304Y-90923276D01*
X141973065Y-90877989D01*
X142073358Y-90868500D01*
X142218833Y-90868500D01*
X142373704Y-91397667D01*
X142383728Y-91431959D01*
X142440719Y-91628693D01*
X142487581Y-91793368D01*
X142519698Y-91909603D01*
X142532454Y-91961017D01*
X142527506Y-91969367D01*
X142467321Y-91982936D01*
X142360006Y-91982184D01*
X142319327Y-91978856D01*
X142224067Y-91959399D01*
X142173403Y-91908153D01*
X142136317Y-91799833D01*
X142106072Y-91709983D01*
X142074109Y-91674967D01*
X142043195Y-91721174D01*
X142009344Y-91850185D01*
X142008184Y-91855369D01*
X141966687Y-91953007D01*
X141909116Y-92004024D01*
X141818419Y-92022412D01*
X141725644Y-92010381D01*
X141660924Y-91940781D01*
X141604561Y-91800445D01*
X141584831Y-91740847D01*
X141557023Y-91674074D01*
X141535990Y-91675569D01*
X141509127Y-91736945D01*
X141488889Y-91790677D01*
X141445079Y-91906638D01*
X141405811Y-91979528D01*
X141353244Y-92017931D01*
X141269536Y-92030431D01*
X141136846Y-92025613D01*
X140937330Y-92012062D01*
X140919666Y-92010934D01*
X140700392Y-91993118D01*
X140545836Y-91970535D01*
X140437320Y-91939459D01*
X140356166Y-91896167D01*
X140328430Y-91877656D01*
X140277010Y-91849477D01*
X140282083Y-91865750D01*
X140309037Y-91897416D01*
X140329226Y-91953082D01*
X140278758Y-91982032D01*
X140151261Y-91990333D01*
X140147808Y-91990330D01*
X140023510Y-91980542D01*
X139941537Y-91937726D01*
X139861226Y-91840938D01*
X139754930Y-91691543D01*
X139653382Y-91840649D01*
X139626532Y-91878968D01*
X139558909Y-91952157D01*
X139478139Y-91983364D01*
X139348611Y-91990044D01*
X139145389Y-91990333D01*
X139338028Y-91720374D01*
X139359399Y-91690196D01*
X139446442Y-91561957D01*
X139507525Y-91463272D01*
X139528410Y-91418051D01*
X139987694Y-91418051D01*
X140015305Y-91487578D01*
X140086910Y-91596757D01*
X140135522Y-91665348D01*
X140198553Y-91746874D01*
X140231200Y-91778667D01*
X140233869Y-91777201D01*
X140245578Y-91727333D01*
X140250333Y-91628576D01*
X140262150Y-91525148D01*
X140335812Y-91386355D01*
X140473024Y-91300235D01*
X140669244Y-91270667D01*
X140743217Y-91268087D01*
X140852297Y-91252798D01*
X140906500Y-91228333D01*
X140906795Y-91220454D01*
X140852995Y-91201667D01*
X140721314Y-91190005D01*
X140516637Y-91186000D01*
X140451888Y-91186043D01*
X140282424Y-91188026D01*
X140173909Y-91196146D01*
X140108054Y-91214711D01*
X140066574Y-91248034D01*
X140031182Y-91300424D01*
X139998610Y-91359111D01*
X139987694Y-91418051D01*
X139528410Y-91418051D01*
X139530532Y-91413457D01*
X139530355Y-91411535D01*
X139504791Y-91355414D01*
X139444366Y-91252130D01*
X139361194Y-91122500D01*
X139191991Y-90868500D01*
X139370645Y-90855027D01*
X139493760Y-90854802D01*
X139576702Y-90889842D01*
X139660692Y-90978040D01*
X139772086Y-91114526D01*
X139851004Y-90980930D01*
X139929921Y-90847333D01*
X140473051Y-90847333D01*
X140680411Y-90847977D01*
X140842078Y-90851772D01*
X140950456Y-90861358D01*
X141021968Y-90879374D01*
X141073039Y-90908456D01*
X141120091Y-90951242D01*
X141197886Y-91063691D01*
X141224000Y-91219848D01*
X141223910Y-91220454D01*
X141203660Y-91357327D01*
X141130810Y-91464286D01*
G37*
X141130810Y-91464286D02*
X140995121Y-91538976D01*
X140786341Y-91590066D01*
X140525500Y-91634299D01*
X140820822Y-91666309D01*
X140834392Y-91667780D01*
X140979262Y-91680859D01*
X141080114Y-91674651D01*
X141150212Y-91636677D01*
X141202818Y-91554460D01*
X141251196Y-91415522D01*
X141308608Y-91207384D01*
X141405367Y-90847333D01*
X141546907Y-90847333D01*
X141596570Y-90848511D01*
X141663019Y-90866268D01*
X141702629Y-90922939D01*
X141737108Y-91040582D01*
X141774415Y-91156211D01*
X141811170Y-91193435D01*
X141848850Y-91147059D01*
X141890127Y-91016667D01*
X141921304Y-90923276D01*
X141973065Y-90877989D01*
X142073358Y-90868500D01*
X142218833Y-90868500D01*
X142373704Y-91397667D01*
X142383728Y-91431959D01*
X142440719Y-91628693D01*
X142487581Y-91793368D01*
X142519698Y-91909603D01*
X142532454Y-91961017D01*
X142527506Y-91969367D01*
X142467321Y-91982936D01*
X142360006Y-91982184D01*
X142319327Y-91978856D01*
X142224067Y-91959399D01*
X142173403Y-91908153D01*
X142136317Y-91799833D01*
X142106072Y-91709983D01*
X142074109Y-91674967D01*
X142043195Y-91721174D01*
X142009344Y-91850185D01*
X142008184Y-91855369D01*
X141966687Y-91953007D01*
X141909116Y-92004024D01*
X141818419Y-92022412D01*
X141725644Y-92010381D01*
X141660924Y-91940781D01*
X141604561Y-91800445D01*
X141584831Y-91740847D01*
X141557023Y-91674074D01*
X141535990Y-91675569D01*
X141509127Y-91736945D01*
X141488889Y-91790677D01*
X141445079Y-91906638D01*
X141405811Y-91979528D01*
X141353244Y-92017931D01*
X141269536Y-92030431D01*
X141136846Y-92025613D01*
X140937330Y-92012062D01*
X140919666Y-92010934D01*
X140700392Y-91993118D01*
X140545836Y-91970535D01*
X140437320Y-91939459D01*
X140356166Y-91896167D01*
X140328430Y-91877656D01*
X140277010Y-91849477D01*
X140282083Y-91865750D01*
X140309037Y-91897416D01*
X140329226Y-91953082D01*
X140278758Y-91982032D01*
X140151261Y-91990333D01*
X140147808Y-91990330D01*
X140023510Y-91980542D01*
X139941537Y-91937726D01*
X139861226Y-91840938D01*
X139754930Y-91691543D01*
X139653382Y-91840649D01*
X139626532Y-91878968D01*
X139558909Y-91952157D01*
X139478139Y-91983364D01*
X139348611Y-91990044D01*
X139145389Y-91990333D01*
X139338028Y-91720374D01*
X139359399Y-91690196D01*
X139446442Y-91561957D01*
X139507525Y-91463272D01*
X139528410Y-91418051D01*
X139987694Y-91418051D01*
X140015305Y-91487578D01*
X140086910Y-91596757D01*
X140135522Y-91665348D01*
X140198553Y-91746874D01*
X140231200Y-91778667D01*
X140233869Y-91777201D01*
X140245578Y-91727333D01*
X140250333Y-91628576D01*
X140262150Y-91525148D01*
X140335812Y-91386355D01*
X140473024Y-91300235D01*
X140669244Y-91270667D01*
X140743217Y-91268087D01*
X140852297Y-91252798D01*
X140906500Y-91228333D01*
X140906795Y-91220454D01*
X140852995Y-91201667D01*
X140721314Y-91190005D01*
X140516637Y-91186000D01*
X140451888Y-91186043D01*
X140282424Y-91188026D01*
X140173909Y-91196146D01*
X140108054Y-91214711D01*
X140066574Y-91248034D01*
X140031182Y-91300424D01*
X139998610Y-91359111D01*
X139987694Y-91418051D01*
X139528410Y-91418051D01*
X139530532Y-91413457D01*
X139530355Y-91411535D01*
X139504791Y-91355414D01*
X139444366Y-91252130D01*
X139361194Y-91122500D01*
X139191991Y-90868500D01*
X139370645Y-90855027D01*
X139493760Y-90854802D01*
X139576702Y-90889842D01*
X139660692Y-90978040D01*
X139772086Y-91114526D01*
X139851004Y-90980930D01*
X139929921Y-90847333D01*
X140473051Y-90847333D01*
X140680411Y-90847977D01*
X140842078Y-90851772D01*
X140950456Y-90861358D01*
X141021968Y-90879374D01*
X141073039Y-90908456D01*
X141120091Y-90951242D01*
X141197886Y-91063691D01*
X141224000Y-91219848D01*
X141223910Y-91220454D01*
X141203660Y-91357327D01*
X141130810Y-91464286D01*
G36*
X134447204Y-91973338D02*
G01*
X134387533Y-92011216D01*
X134284957Y-92024223D01*
X134243493Y-92017031D01*
X134188807Y-91977857D01*
X134175500Y-91884500D01*
X134178114Y-91845431D01*
X134290023Y-91845431D01*
X134290340Y-91911519D01*
X134308858Y-91943402D01*
X134341322Y-91911348D01*
X134355708Y-91864512D01*
X134338803Y-91822601D01*
X134298090Y-91832465D01*
X134290023Y-91845431D01*
X134178114Y-91845431D01*
X134180074Y-91816124D01*
X134215730Y-91764183D01*
X134309465Y-91744504D01*
X134348592Y-91741873D01*
X134431223Y-91757702D01*
X134471712Y-91820619D01*
X134476833Y-91864512D01*
X134478824Y-91881578D01*
X134447204Y-91973338D01*
G37*
X134447204Y-91973338D02*
X134387533Y-92011216D01*
X134284957Y-92024223D01*
X134243493Y-92017031D01*
X134188807Y-91977857D01*
X134175500Y-91884500D01*
X134178114Y-91845431D01*
X134290023Y-91845431D01*
X134290340Y-91911519D01*
X134308858Y-91943402D01*
X134341322Y-91911348D01*
X134355708Y-91864512D01*
X134338803Y-91822601D01*
X134298090Y-91832465D01*
X134290023Y-91845431D01*
X134178114Y-91845431D01*
X134180074Y-91816124D01*
X134215730Y-91764183D01*
X134309465Y-91744504D01*
X134348592Y-91741873D01*
X134431223Y-91757702D01*
X134471712Y-91820619D01*
X134476833Y-91864512D01*
X134478824Y-91881578D01*
X134447204Y-91973338D01*
G36*
X131445000Y-92921667D02*
G01*
X131445000Y-90635667D01*
X132122333Y-90635667D01*
X132122333Y-92244333D01*
X134231944Y-92244333D01*
X134312347Y-92244313D01*
X134722841Y-92243559D01*
X135105876Y-92241798D01*
X135453278Y-92239137D01*
X135756876Y-92235684D01*
X136008498Y-92231547D01*
X136199970Y-92226834D01*
X136323121Y-92221653D01*
X136369778Y-92216111D01*
X136378367Y-92170554D01*
X136386225Y-92053254D01*
X136392442Y-91878434D01*
X136396289Y-91672833D01*
X136906000Y-91672833D01*
X136908005Y-91715307D01*
X136929375Y-91757724D01*
X136992044Y-91775235D01*
X137117666Y-91778667D01*
X137329333Y-91778667D01*
X137329333Y-91990333D01*
X137329695Y-92039291D01*
X137337889Y-92143554D01*
X137363216Y-92190856D01*
X137414000Y-92202000D01*
X138006666Y-92202000D01*
X138733060Y-92202000D01*
X138895666Y-92202000D01*
X142790333Y-92202000D01*
X143637000Y-92202000D01*
X143995505Y-92202000D01*
X144111337Y-92200891D01*
X144250958Y-92193065D01*
X144322881Y-92176342D01*
X144337707Y-92149083D01*
X144320856Y-92086194D01*
X144296288Y-91981312D01*
X144264278Y-91909336D01*
X144183969Y-91794302D01*
X144077260Y-91675290D01*
X143986680Y-91577222D01*
X143920033Y-91485705D01*
X143901265Y-91430311D01*
X143913569Y-91406286D01*
X143970259Y-91367327D01*
X144031603Y-91369336D01*
X144060333Y-91415729D01*
X144061287Y-91427536D01*
X144100956Y-91469635D01*
X144208621Y-91482333D01*
X144356909Y-91482333D01*
X144301112Y-91344750D01*
X144260189Y-91267758D01*
X144150148Y-91163088D01*
X144016856Y-91117216D01*
X143879605Y-91126889D01*
X143757685Y-91188858D01*
X143670386Y-91299871D01*
X143637000Y-91456676D01*
X143649573Y-91533106D01*
X143708940Y-91636662D01*
X143828243Y-91764756D01*
X144019487Y-91948000D01*
X143828243Y-91948000D01*
X143755186Y-91948740D01*
X143674237Y-91960005D01*
X143642487Y-91997015D01*
X143637000Y-92075000D01*
X143637000Y-92202000D01*
X142790333Y-92202000D01*
X142790333Y-90635667D01*
X144441333Y-90635667D01*
X144441333Y-92202000D01*
X148378333Y-92202000D01*
X148378333Y-90635667D01*
X149394333Y-90635667D01*
X149394333Y-92202000D01*
X153289000Y-92202000D01*
X153289000Y-90635667D01*
X149394333Y-90635667D01*
X148378333Y-90635667D01*
X144441333Y-90635667D01*
X142790333Y-90635667D01*
X138895666Y-90635667D01*
X138895666Y-92202000D01*
X138733060Y-92202000D01*
X138703894Y-92064417D01*
X138682257Y-91993203D01*
X138603243Y-91839501D01*
X138496544Y-91699865D01*
X138385946Y-91608412D01*
X138384190Y-91607452D01*
X138326905Y-91545053D01*
X138303226Y-91460944D01*
X138315606Y-91387058D01*
X138366500Y-91355333D01*
X138396113Y-91362709D01*
X138430000Y-91418833D01*
X138430490Y-91426583D01*
X138470308Y-91469095D01*
X138581019Y-91482333D01*
X138678227Y-91476989D01*
X138713845Y-91450384D01*
X138704598Y-91387083D01*
X138679319Y-91328700D01*
X138594394Y-91219929D01*
X138485822Y-91135368D01*
X138383204Y-91101333D01*
X138329466Y-91107451D01*
X138206568Y-91150846D01*
X138095845Y-91219470D01*
X138032963Y-91293730D01*
X138015682Y-91346842D01*
X138008734Y-91483270D01*
X138067391Y-91616620D01*
X138074308Y-91624470D01*
X138197910Y-91764756D01*
X138389153Y-91948000D01*
X138197910Y-91948000D01*
X138124852Y-91948740D01*
X138043904Y-91960005D01*
X138012153Y-91997015D01*
X138006666Y-92075000D01*
X138006666Y-92202000D01*
X137414000Y-92202000D01*
X137432293Y-92201225D01*
X137474798Y-92181322D01*
X137494107Y-92118760D01*
X137498666Y-91992653D01*
X137498666Y-91783305D01*
X137699750Y-91770403D01*
X137723639Y-91768767D01*
X137837622Y-91753427D01*
X137893521Y-91721789D01*
X137914361Y-91662250D01*
X137917578Y-91624470D01*
X137900879Y-91586252D01*
X137839419Y-91570240D01*
X137713277Y-91567000D01*
X137498666Y-91567000D01*
X137498666Y-91334167D01*
X137497763Y-91252482D01*
X137488418Y-91155134D01*
X137462929Y-91111439D01*
X137414000Y-91101333D01*
X137384296Y-91103816D01*
X137348897Y-91129517D01*
X137333008Y-91199613D01*
X137329333Y-91334167D01*
X137329333Y-91567000D01*
X137117666Y-91567000D01*
X137032720Y-91568002D01*
X136947885Y-91578687D01*
X136912862Y-91610022D01*
X136906000Y-91672833D01*
X136396289Y-91672833D01*
X136396529Y-91659981D01*
X136398000Y-91411778D01*
X136398000Y-90635667D01*
X132122333Y-90635667D01*
X131445000Y-90635667D01*
X131445000Y-81661000D01*
X132122333Y-81661000D01*
X132122333Y-90254667D01*
X153289000Y-90254667D01*
X153289000Y-81661000D01*
X132122333Y-81661000D01*
X131445000Y-81661000D01*
X131445000Y-80856667D01*
X154008666Y-80856667D01*
X154008666Y-92921667D01*
X131445000Y-92921667D01*
G37*
X131445000Y-92921667D02*
X131445000Y-90635667D01*
X132122333Y-90635667D01*
X132122333Y-92244333D01*
X134231944Y-92244333D01*
X134312347Y-92244313D01*
X134722841Y-92243559D01*
X135105876Y-92241798D01*
X135453278Y-92239137D01*
X135756876Y-92235684D01*
X136008498Y-92231547D01*
X136199970Y-92226834D01*
X136323121Y-92221653D01*
X136369778Y-92216111D01*
X136378367Y-92170554D01*
X136386225Y-92053254D01*
X136392442Y-91878434D01*
X136396289Y-91672833D01*
X136906000Y-91672833D01*
X136908005Y-91715307D01*
X136929375Y-91757724D01*
X136992044Y-91775235D01*
X137117666Y-91778667D01*
X137329333Y-91778667D01*
X137329333Y-91990333D01*
X137329695Y-92039291D01*
X137337889Y-92143554D01*
X137363216Y-92190856D01*
X137414000Y-92202000D01*
X138006666Y-92202000D01*
X138733060Y-92202000D01*
X138895666Y-92202000D01*
X142790333Y-92202000D01*
X143637000Y-92202000D01*
X143995505Y-92202000D01*
X144111337Y-92200891D01*
X144250958Y-92193065D01*
X144322881Y-92176342D01*
X144337707Y-92149083D01*
X144320856Y-92086194D01*
X144296288Y-91981312D01*
X144264278Y-91909336D01*
X144183969Y-91794302D01*
X144077260Y-91675290D01*
X143986680Y-91577222D01*
X143920033Y-91485705D01*
X143901265Y-91430311D01*
X143913569Y-91406286D01*
X143970259Y-91367327D01*
X144031603Y-91369336D01*
X144060333Y-91415729D01*
X144061287Y-91427536D01*
X144100956Y-91469635D01*
X144208621Y-91482333D01*
X144356909Y-91482333D01*
X144301112Y-91344750D01*
X144260189Y-91267758D01*
X144150148Y-91163088D01*
X144016856Y-91117216D01*
X143879605Y-91126889D01*
X143757685Y-91188858D01*
X143670386Y-91299871D01*
X143637000Y-91456676D01*
X143649573Y-91533106D01*
X143708940Y-91636662D01*
X143828243Y-91764756D01*
X144019487Y-91948000D01*
X143828243Y-91948000D01*
X143755186Y-91948740D01*
X143674237Y-91960005D01*
X143642487Y-91997015D01*
X143637000Y-92075000D01*
X143637000Y-92202000D01*
X142790333Y-92202000D01*
X142790333Y-90635667D01*
X144441333Y-90635667D01*
X144441333Y-92202000D01*
X148378333Y-92202000D01*
X148378333Y-90635667D01*
X149394333Y-90635667D01*
X149394333Y-92202000D01*
X153289000Y-92202000D01*
X153289000Y-90635667D01*
X149394333Y-90635667D01*
X148378333Y-90635667D01*
X144441333Y-90635667D01*
X142790333Y-90635667D01*
X138895666Y-90635667D01*
X138895666Y-92202000D01*
X138733060Y-92202000D01*
X138703894Y-92064417D01*
X138682257Y-91993203D01*
X138603243Y-91839501D01*
X138496544Y-91699865D01*
X138385946Y-91608412D01*
X138384190Y-91607452D01*
X138326905Y-91545053D01*
X138303226Y-91460944D01*
X138315606Y-91387058D01*
X138366500Y-91355333D01*
X138396113Y-91362709D01*
X138430000Y-91418833D01*
X138430490Y-91426583D01*
X138470308Y-91469095D01*
X138581019Y-91482333D01*
X138678227Y-91476989D01*
X138713845Y-91450384D01*
X138704598Y-91387083D01*
X138679319Y-91328700D01*
X138594394Y-91219929D01*
X138485822Y-91135368D01*
X138383204Y-91101333D01*
X138329466Y-91107451D01*
X138206568Y-91150846D01*
X138095845Y-91219470D01*
X138032963Y-91293730D01*
X138015682Y-91346842D01*
X138008734Y-91483270D01*
X138067391Y-91616620D01*
X138074308Y-91624470D01*
X138197910Y-91764756D01*
X138389153Y-91948000D01*
X138197910Y-91948000D01*
X138124852Y-91948740D01*
X138043904Y-91960005D01*
X138012153Y-91997015D01*
X138006666Y-92075000D01*
X138006666Y-92202000D01*
X137414000Y-92202000D01*
X137432293Y-92201225D01*
X137474798Y-92181322D01*
X137494107Y-92118760D01*
X137498666Y-91992653D01*
X137498666Y-91783305D01*
X137699750Y-91770403D01*
X137723639Y-91768767D01*
X137837622Y-91753427D01*
X137893521Y-91721789D01*
X137914361Y-91662250D01*
X137917578Y-91624470D01*
X137900879Y-91586252D01*
X137839419Y-91570240D01*
X137713277Y-91567000D01*
X137498666Y-91567000D01*
X137498666Y-91334167D01*
X137497763Y-91252482D01*
X137488418Y-91155134D01*
X137462929Y-91111439D01*
X137414000Y-91101333D01*
X137384296Y-91103816D01*
X137348897Y-91129517D01*
X137333008Y-91199613D01*
X137329333Y-91334167D01*
X137329333Y-91567000D01*
X137117666Y-91567000D01*
X137032720Y-91568002D01*
X136947885Y-91578687D01*
X136912862Y-91610022D01*
X136906000Y-91672833D01*
X136396289Y-91672833D01*
X136396529Y-91659981D01*
X136398000Y-91411778D01*
X136398000Y-90635667D01*
X132122333Y-90635667D01*
X131445000Y-90635667D01*
X131445000Y-81661000D01*
X132122333Y-81661000D01*
X132122333Y-90254667D01*
X153289000Y-90254667D01*
X153289000Y-81661000D01*
X132122333Y-81661000D01*
X131445000Y-81661000D01*
X131445000Y-80856667D01*
X154008666Y-80856667D01*
X154008666Y-92921667D01*
X131445000Y-92921667D01*
G36*
X134337214Y-90911076D02*
G01*
X134415583Y-90959728D01*
X134453330Y-90991686D01*
X134505908Y-91006553D01*
X134570417Y-90959728D01*
X134587632Y-90946197D01*
X134704074Y-90903430D01*
X134890700Y-90889667D01*
X135068268Y-90898185D01*
X135202765Y-90931909D01*
X135275501Y-90996542D01*
X135297333Y-91097639D01*
X135278938Y-91206319D01*
X135205775Y-91283615D01*
X135064500Y-91324078D01*
X135053881Y-91325651D01*
X134996251Y-91336845D01*
X135014090Y-91343821D01*
X135111995Y-91348990D01*
X135286490Y-91355333D01*
X135348300Y-91133083D01*
X135404622Y-90982084D01*
X135469030Y-90905596D01*
X135537101Y-90910782D01*
X135605980Y-90999125D01*
X135666038Y-91113750D01*
X135694159Y-91001708D01*
X135727661Y-90928451D01*
X135799408Y-90889667D01*
X135826927Y-90895586D01*
X135869412Y-90939595D01*
X135911747Y-91038617D01*
X135961179Y-91206866D01*
X135970430Y-91242161D01*
X136005073Y-91389154D01*
X136024373Y-91497384D01*
X136024356Y-91545533D01*
X135983021Y-91567522D01*
X135908872Y-91550885D01*
X135859933Y-91482333D01*
X135840819Y-91432829D01*
X135805333Y-91397667D01*
X135782148Y-91413755D01*
X135750734Y-91482333D01*
X135734954Y-91521637D01*
X135676253Y-91563683D01*
X135605422Y-91538825D01*
X135545239Y-91450583D01*
X135498908Y-91334167D01*
X135458093Y-91450583D01*
X135454660Y-91460252D01*
X135426228Y-91519624D01*
X135380645Y-91551575D01*
X135295415Y-91564552D01*
X135148039Y-91567000D01*
X135048011Y-91565646D01*
X134932423Y-91554324D01*
X134862222Y-91525706D01*
X134812900Y-91472914D01*
X134769651Y-91398553D01*
X134747000Y-91327771D01*
X134747064Y-91324236D01*
X134787450Y-91237209D01*
X134883303Y-91170375D01*
X135006522Y-91143667D01*
X135008761Y-91143661D01*
X135090499Y-91131500D01*
X135106833Y-91101333D01*
X135069623Y-91075901D01*
X134970130Y-91058896D01*
X134846218Y-91063020D01*
X134731251Y-91086362D01*
X134658588Y-91127012D01*
X134629410Y-91181446D01*
X134640139Y-91249167D01*
X134695738Y-91357649D01*
X134721366Y-91403075D01*
X134770021Y-91495909D01*
X134789333Y-91543637D01*
X134773124Y-91566582D01*
X134709924Y-91566057D01*
X134626908Y-91534465D01*
X134554405Y-91480019D01*
X134475689Y-91393038D01*
X134407122Y-91483939D01*
X134350023Y-91536935D01*
X134245496Y-91560336D01*
X134152436Y-91545833D01*
X134261753Y-91385598D01*
X134371070Y-91225364D01*
X134283868Y-91084268D01*
X134267454Y-91057230D01*
X134216991Y-90966425D01*
X134196666Y-90916420D01*
X134202769Y-90900360D01*
X134255715Y-90889197D01*
X134337214Y-90911076D01*
G37*
X134337214Y-90911076D02*
X134415583Y-90959728D01*
X134453330Y-90991686D01*
X134505908Y-91006553D01*
X134570417Y-90959728D01*
X134587632Y-90946197D01*
X134704074Y-90903430D01*
X134890700Y-90889667D01*
X135068268Y-90898185D01*
X135202765Y-90931909D01*
X135275501Y-90996542D01*
X135297333Y-91097639D01*
X135278938Y-91206319D01*
X135205775Y-91283615D01*
X135064500Y-91324078D01*
X135053881Y-91325651D01*
X134996251Y-91336845D01*
X135014090Y-91343821D01*
X135111995Y-91348990D01*
X135286490Y-91355333D01*
X135348300Y-91133083D01*
X135404622Y-90982084D01*
X135469030Y-90905596D01*
X135537101Y-90910782D01*
X135605980Y-90999125D01*
X135666038Y-91113750D01*
X135694159Y-91001708D01*
X135727661Y-90928451D01*
X135799408Y-90889667D01*
X135826927Y-90895586D01*
X135869412Y-90939595D01*
X135911747Y-91038617D01*
X135961179Y-91206866D01*
X135970430Y-91242161D01*
X136005073Y-91389154D01*
X136024373Y-91497384D01*
X136024356Y-91545533D01*
X135983021Y-91567522D01*
X135908872Y-91550885D01*
X135859933Y-91482333D01*
X135840819Y-91432829D01*
X135805333Y-91397667D01*
X135782148Y-91413755D01*
X135750734Y-91482333D01*
X135734954Y-91521637D01*
X135676253Y-91563683D01*
X135605422Y-91538825D01*
X135545239Y-91450583D01*
X135498908Y-91334167D01*
X135458093Y-91450583D01*
X135454660Y-91460252D01*
X135426228Y-91519624D01*
X135380645Y-91551575D01*
X135295415Y-91564552D01*
X135148039Y-91567000D01*
X135048011Y-91565646D01*
X134932423Y-91554324D01*
X134862222Y-91525706D01*
X134812900Y-91472914D01*
X134769651Y-91398553D01*
X134747000Y-91327771D01*
X134747064Y-91324236D01*
X134787450Y-91237209D01*
X134883303Y-91170375D01*
X135006522Y-91143667D01*
X135008761Y-91143661D01*
X135090499Y-91131500D01*
X135106833Y-91101333D01*
X135069623Y-91075901D01*
X134970130Y-91058896D01*
X134846218Y-91063020D01*
X134731251Y-91086362D01*
X134658588Y-91127012D01*
X134629410Y-91181446D01*
X134640139Y-91249167D01*
X134695738Y-91357649D01*
X134721366Y-91403075D01*
X134770021Y-91495909D01*
X134789333Y-91543637D01*
X134773124Y-91566582D01*
X134709924Y-91566057D01*
X134626908Y-91534465D01*
X134554405Y-91480019D01*
X134475689Y-91393038D01*
X134407122Y-91483939D01*
X134350023Y-91536935D01*
X134245496Y-91560336D01*
X134152436Y-91545833D01*
X134261753Y-91385598D01*
X134371070Y-91225364D01*
X134283868Y-91084268D01*
X134267454Y-91057230D01*
X134216991Y-90966425D01*
X134196666Y-90916420D01*
X134202769Y-90900360D01*
X134255715Y-90889197D01*
X134337214Y-90911076D01*
G36*
X134757583Y-92024639D02*
G01*
X134752649Y-92024225D01*
X134649619Y-92007561D01*
X134603019Y-91965427D01*
X134587586Y-91884500D01*
X134704666Y-91884500D01*
X134709443Y-91913712D01*
X134747000Y-91948000D01*
X134766474Y-91940836D01*
X134789333Y-91884500D01*
X134784557Y-91855288D01*
X134747000Y-91821000D01*
X134727525Y-91828164D01*
X134704666Y-91884500D01*
X134587586Y-91884500D01*
X134585568Y-91873917D01*
X134582302Y-91793042D01*
X134607170Y-91746238D01*
X134680818Y-91736333D01*
X134753025Y-91725533D01*
X134789333Y-91694000D01*
X134796497Y-91674525D01*
X134852833Y-91651667D01*
X134880628Y-91660062D01*
X134908234Y-91718236D01*
X134916333Y-91844722D01*
X134916333Y-92037777D01*
X134757583Y-92024639D01*
G37*
X134757583Y-92024639D02*
X134752649Y-92024225D01*
X134649619Y-92007561D01*
X134603019Y-91965427D01*
X134587586Y-91884500D01*
X134704666Y-91884500D01*
X134709443Y-91913712D01*
X134747000Y-91948000D01*
X134766474Y-91940836D01*
X134789333Y-91884500D01*
X134784557Y-91855288D01*
X134747000Y-91821000D01*
X134727525Y-91828164D01*
X134704666Y-91884500D01*
X134587586Y-91884500D01*
X134585568Y-91873917D01*
X134582302Y-91793042D01*
X134607170Y-91746238D01*
X134680818Y-91736333D01*
X134753025Y-91725533D01*
X134789333Y-91694000D01*
X134796497Y-91674525D01*
X134852833Y-91651667D01*
X134880628Y-91660062D01*
X134908234Y-91718236D01*
X134916333Y-91844722D01*
X134916333Y-92037777D01*
X134757583Y-92024639D01*
M02*
