G04 #@! TF.GenerationSoftware,KiCad,Pcbnew,(5.1.5)-3*
G04 #@! TF.CreationDate,2020-07-01T21:27:05+01:00*
G04 #@! TF.ProjectId,msx_eeprom,6d73785f-6565-4707-926f-6d2e6b696361,rev?*
G04 #@! TF.SameCoordinates,Original*
G04 #@! TF.FileFunction,Profile,NP*
%FSLAX46Y46*%
G04 Gerber Fmt 4.6, Leading zero omitted, Abs format (unit mm)*
G04 Created by KiCad (PCBNEW (5.1.5)-3) date 2020-07-01 21:27:05*
%MOMM*%
%LPD*%
G04 APERTURE LIST*
%ADD10C,0.050000*%
G04 APERTURE END LIST*
D10*
X184810400Y-29362400D02*
X184810400Y-83566000D01*
X82042000Y-29362400D02*
X184810400Y-29362400D01*
X82092800Y-72593200D02*
X82042000Y-29362400D01*
X93573600Y-72593200D02*
X82092800Y-72593200D01*
X93573600Y-83515200D02*
X93573600Y-72593200D01*
X105867200Y-83566000D02*
X93573600Y-83515200D01*
X105867200Y-83616800D02*
X105867200Y-83566000D01*
X105867200Y-93675200D02*
X105867200Y-83616800D01*
X105918000Y-93929200D02*
X105867200Y-93675200D01*
X105918000Y-93980000D02*
X105918000Y-93929200D01*
X106019600Y-94183200D02*
X105918000Y-93980000D01*
X106070400Y-94284800D02*
X106019600Y-94183200D01*
X106121200Y-94335600D02*
X106070400Y-94284800D01*
X106324400Y-94538800D02*
X106121200Y-94335600D01*
X106578400Y-94640400D02*
X106324400Y-94538800D01*
X106781600Y-94691200D02*
X106578400Y-94640400D01*
X170027600Y-94742000D02*
X106781600Y-94691200D01*
X170180000Y-94691200D02*
X170027600Y-94742000D01*
X170383200Y-94640400D02*
X170180000Y-94691200D01*
X170637200Y-94488000D02*
X170383200Y-94640400D01*
X170789600Y-94335600D02*
X170637200Y-94488000D01*
X170891200Y-94234000D02*
X170789600Y-94335600D01*
X170942000Y-94030800D02*
X170891200Y-94234000D01*
X170992800Y-93827600D02*
X170942000Y-94030800D01*
X170992800Y-93675200D02*
X170992800Y-93827600D01*
X170992800Y-83566000D02*
X170992800Y-93675200D01*
X184810400Y-83566000D02*
X170992800Y-83566000D01*
M02*
