%FSLAX45Y45*%
G04 Gerber Fmt 4.5, Leading zero omitted, Abs format (unit mm)*
G04 Created by KiCad (PCBNEW (5.1.5)-3) date 2020-07-01 21:27:15*
%MOMM*%
%LPD*%
G04 APERTURE LIST*
%TA.AperFunction,Profile*%
%ADD10C,0.050000*%
%TD*%
%ADD11C,0.200000*%
%ADD12C,0.300000*%
G04 APERTURE END LIST*
D10*
X18481040Y-2936240D02*
X18481040Y-8356600D01*
X8204200Y-2936240D02*
X18481040Y-2936240D01*
X8209280Y-7259320D02*
X8204200Y-2936240D01*
X9357360Y-7259320D02*
X8209280Y-7259320D01*
X9357360Y-8351520D02*
X9357360Y-7259320D01*
X10586720Y-8356600D02*
X9357360Y-8351520D01*
X10586720Y-8361680D02*
X10586720Y-8356600D01*
X10586720Y-9367520D02*
X10586720Y-8361680D01*
X10591800Y-9392920D02*
X10586720Y-9367520D01*
X10591800Y-9398000D02*
X10591800Y-9392920D01*
X10601960Y-9418320D02*
X10591800Y-9398000D01*
X10607040Y-9428480D02*
X10601960Y-9418320D01*
X10612120Y-9433560D02*
X10607040Y-9428480D01*
X10632440Y-9453880D02*
X10612120Y-9433560D01*
X10657840Y-9464040D02*
X10632440Y-9453880D01*
X10678160Y-9469120D02*
X10657840Y-9464040D01*
X17002760Y-9474200D02*
X10678160Y-9469120D01*
X17018000Y-9469120D02*
X17002760Y-9474200D01*
X17038320Y-9464040D02*
X17018000Y-9469120D01*
X17063720Y-9448800D02*
X17038320Y-9464040D01*
X17078960Y-9433560D02*
X17063720Y-9448800D01*
X17089120Y-9423400D02*
X17078960Y-9433560D01*
X17094200Y-9403080D02*
X17089120Y-9423400D01*
X17099280Y-9382760D02*
X17094200Y-9403080D01*
X17099280Y-9367520D02*
X17099280Y-9382760D01*
X17099280Y-8356600D02*
X17099280Y-9367520D01*
X18481040Y-8356600D02*
X17099280Y-8356600D01*
D11*
X10901426Y-7210552D02*
X11155426Y-7464552D01*
X11155426Y-7210552D02*
X10901426Y-7464552D01*
X16501364Y-7730744D02*
X16755364Y-7984744D01*
X16755364Y-7730744D02*
X16501364Y-7984744D01*
D12*
X8488128Y-9942414D02*
X8488128Y-9642414D01*
X8559557Y-9642414D01*
X8602414Y-9656700D01*
X8630986Y-9685272D01*
X8645271Y-9713843D01*
X8659557Y-9770986D01*
X8659557Y-9813843D01*
X8645271Y-9870986D01*
X8630986Y-9899557D01*
X8602414Y-9928129D01*
X8559557Y-9942414D01*
X8488128Y-9942414D01*
X8788128Y-9942414D02*
X8788128Y-9742414D01*
X8788128Y-9799557D02*
X8802414Y-9770986D01*
X8816700Y-9756700D01*
X8845271Y-9742414D01*
X8873843Y-9742414D01*
X8973843Y-9942414D02*
X8973843Y-9742414D01*
X8973843Y-9642414D02*
X8959557Y-9656700D01*
X8973843Y-9670986D01*
X8988128Y-9656700D01*
X8973843Y-9642414D01*
X8973843Y-9670986D01*
X9159557Y-9942414D02*
X9130986Y-9928129D01*
X9116700Y-9899557D01*
X9116700Y-9642414D01*
X9316700Y-9942414D02*
X9288128Y-9928129D01*
X9273843Y-9899557D01*
X9273843Y-9642414D01*
X9659557Y-9942414D02*
X9659557Y-9642414D01*
X9759557Y-9856700D01*
X9859557Y-9642414D01*
X9859557Y-9942414D01*
X10130986Y-9942414D02*
X10130986Y-9785272D01*
X10116700Y-9756700D01*
X10088128Y-9742414D01*
X10030986Y-9742414D01*
X10002414Y-9756700D01*
X10130986Y-9928129D02*
X10102414Y-9942414D01*
X10030986Y-9942414D01*
X10002414Y-9928129D01*
X9988128Y-9899557D01*
X9988128Y-9870986D01*
X10002414Y-9842414D01*
X10030986Y-9828129D01*
X10102414Y-9828129D01*
X10130986Y-9813843D01*
X10273843Y-9742414D02*
X10273843Y-10042414D01*
X10273843Y-9756700D02*
X10302414Y-9742414D01*
X10359557Y-9742414D01*
X10388128Y-9756700D01*
X10402414Y-9770986D01*
X10416700Y-9799557D01*
X10416700Y-9885272D01*
X10402414Y-9913843D01*
X10388128Y-9928129D01*
X10359557Y-9942414D01*
X10302414Y-9942414D01*
X10273843Y-9928129D01*
X10545271Y-9913843D02*
X10559557Y-9928129D01*
X10545271Y-9942414D01*
X10530986Y-9928129D01*
X10545271Y-9913843D01*
X10545271Y-9942414D01*
X10545271Y-9756700D02*
X10559557Y-9770986D01*
X10545271Y-9785272D01*
X10530986Y-9770986D01*
X10545271Y-9756700D01*
X10545271Y-9785272D01*
X7947700Y-10309700D02*
X8201700Y-10563700D01*
X8201700Y-10309700D02*
X7947700Y-10563700D01*
X8473843Y-10300986D02*
X8488128Y-10286700D01*
X8516700Y-10272414D01*
X8588128Y-10272414D01*
X8616700Y-10286700D01*
X8630986Y-10300986D01*
X8645271Y-10329557D01*
X8645271Y-10358129D01*
X8630986Y-10400986D01*
X8459557Y-10572414D01*
X8645271Y-10572414D01*
X8773843Y-10543843D02*
X8788128Y-10558129D01*
X8773843Y-10572414D01*
X8759557Y-10558129D01*
X8773843Y-10543843D01*
X8773843Y-10572414D01*
X9059557Y-10272414D02*
X8916700Y-10272414D01*
X8902414Y-10415272D01*
X8916700Y-10400986D01*
X8945271Y-10386700D01*
X9016700Y-10386700D01*
X9045271Y-10400986D01*
X9059557Y-10415272D01*
X9073843Y-10443843D01*
X9073843Y-10515272D01*
X9059557Y-10543843D01*
X9045271Y-10558129D01*
X9016700Y-10572414D01*
X8945271Y-10572414D01*
X8916700Y-10558129D01*
X8902414Y-10543843D01*
X9330986Y-10372414D02*
X9330986Y-10572414D01*
X9259557Y-10258129D02*
X9188128Y-10472414D01*
X9373843Y-10472414D01*
X9488128Y-10572414D02*
X9488128Y-10372414D01*
X9488128Y-10400986D02*
X9502414Y-10386700D01*
X9530986Y-10372414D01*
X9573843Y-10372414D01*
X9602414Y-10386700D01*
X9616700Y-10415272D01*
X9616700Y-10572414D01*
X9616700Y-10415272D02*
X9630986Y-10386700D01*
X9659557Y-10372414D01*
X9702414Y-10372414D01*
X9730986Y-10386700D01*
X9745271Y-10415272D01*
X9745271Y-10572414D01*
X9888128Y-10572414D02*
X9888128Y-10372414D01*
X9888128Y-10400986D02*
X9902414Y-10386700D01*
X9930986Y-10372414D01*
X9973843Y-10372414D01*
X10002414Y-10386700D01*
X10016700Y-10415272D01*
X10016700Y-10572414D01*
X10016700Y-10415272D02*
X10030986Y-10386700D01*
X10059557Y-10372414D01*
X10102414Y-10372414D01*
X10130986Y-10386700D01*
X10145271Y-10415272D01*
X10145271Y-10572414D01*
X10730986Y-10258129D02*
X10473843Y-10643843D01*
X11116700Y-10272414D02*
X11145271Y-10272414D01*
X11173843Y-10286700D01*
X11188128Y-10300986D01*
X11202414Y-10329557D01*
X11216700Y-10386700D01*
X11216700Y-10458129D01*
X11202414Y-10515272D01*
X11188128Y-10543843D01*
X11173843Y-10558129D01*
X11145271Y-10572414D01*
X11116700Y-10572414D01*
X11088128Y-10558129D01*
X11073843Y-10543843D01*
X11059557Y-10515272D01*
X11045271Y-10458129D01*
X11045271Y-10386700D01*
X11059557Y-10329557D01*
X11073843Y-10300986D01*
X11088128Y-10286700D01*
X11116700Y-10272414D01*
X11345271Y-10543843D02*
X11359557Y-10558129D01*
X11345271Y-10572414D01*
X11330986Y-10558129D01*
X11345271Y-10543843D01*
X11345271Y-10572414D01*
X11645271Y-10572414D02*
X11473843Y-10572414D01*
X11559557Y-10572414D02*
X11559557Y-10272414D01*
X11530986Y-10315272D01*
X11502414Y-10343843D01*
X11473843Y-10358129D01*
X11830986Y-10272414D02*
X11859557Y-10272414D01*
X11888128Y-10286700D01*
X11902414Y-10300986D01*
X11916700Y-10329557D01*
X11930986Y-10386700D01*
X11930986Y-10458129D01*
X11916700Y-10515272D01*
X11902414Y-10543843D01*
X11888128Y-10558129D01*
X11859557Y-10572414D01*
X11830986Y-10572414D01*
X11802414Y-10558129D01*
X11788128Y-10543843D01*
X11773843Y-10515272D01*
X11759557Y-10458129D01*
X11759557Y-10386700D01*
X11773843Y-10329557D01*
X11788128Y-10300986D01*
X11802414Y-10286700D01*
X11830986Y-10272414D01*
X12116700Y-10272414D02*
X12145271Y-10272414D01*
X12173843Y-10286700D01*
X12188128Y-10300986D01*
X12202414Y-10329557D01*
X12216700Y-10386700D01*
X12216700Y-10458129D01*
X12202414Y-10515272D01*
X12188128Y-10543843D01*
X12173843Y-10558129D01*
X12145271Y-10572414D01*
X12116700Y-10572414D01*
X12088128Y-10558129D01*
X12073843Y-10543843D01*
X12059557Y-10515272D01*
X12045271Y-10458129D01*
X12045271Y-10386700D01*
X12059557Y-10329557D01*
X12073843Y-10300986D01*
X12088128Y-10286700D01*
X12116700Y-10272414D01*
X12330986Y-10272414D02*
X12330986Y-10329557D01*
X12445271Y-10272414D02*
X12445271Y-10329557D01*
X12888128Y-10686700D02*
X12873843Y-10672414D01*
X12845271Y-10629557D01*
X12830986Y-10600986D01*
X12816700Y-10558129D01*
X12802414Y-10486700D01*
X12802414Y-10429557D01*
X12816700Y-10358129D01*
X12830986Y-10315272D01*
X12845271Y-10286700D01*
X12873843Y-10243843D01*
X12888128Y-10229557D01*
X12988128Y-10300986D02*
X13002414Y-10286700D01*
X13030986Y-10272414D01*
X13102414Y-10272414D01*
X13130986Y-10286700D01*
X13145271Y-10300986D01*
X13159557Y-10329557D01*
X13159557Y-10358129D01*
X13145271Y-10400986D01*
X12973843Y-10572414D01*
X13159557Y-10572414D01*
X13516700Y-10572414D02*
X13516700Y-10272414D01*
X13645271Y-10572414D02*
X13645271Y-10415272D01*
X13630986Y-10386700D01*
X13602414Y-10372414D01*
X13559557Y-10372414D01*
X13530986Y-10386700D01*
X13516700Y-10400986D01*
X13830986Y-10572414D02*
X13802414Y-10558129D01*
X13788128Y-10543843D01*
X13773843Y-10515272D01*
X13773843Y-10429557D01*
X13788128Y-10400986D01*
X13802414Y-10386700D01*
X13830986Y-10372414D01*
X13873843Y-10372414D01*
X13902414Y-10386700D01*
X13916700Y-10400986D01*
X13930986Y-10429557D01*
X13930986Y-10515272D01*
X13916700Y-10543843D01*
X13902414Y-10558129D01*
X13873843Y-10572414D01*
X13830986Y-10572414D01*
X14102414Y-10572414D02*
X14073843Y-10558129D01*
X14059557Y-10529557D01*
X14059557Y-10272414D01*
X14330986Y-10558129D02*
X14302414Y-10572414D01*
X14245271Y-10572414D01*
X14216700Y-10558129D01*
X14202414Y-10529557D01*
X14202414Y-10415272D01*
X14216700Y-10386700D01*
X14245271Y-10372414D01*
X14302414Y-10372414D01*
X14330986Y-10386700D01*
X14345271Y-10415272D01*
X14345271Y-10443843D01*
X14202414Y-10472414D01*
X14459557Y-10558129D02*
X14488128Y-10572414D01*
X14545271Y-10572414D01*
X14573843Y-10558129D01*
X14588128Y-10529557D01*
X14588128Y-10515272D01*
X14573843Y-10486700D01*
X14545271Y-10472414D01*
X14502414Y-10472414D01*
X14473843Y-10458129D01*
X14459557Y-10429557D01*
X14459557Y-10415272D01*
X14473843Y-10386700D01*
X14502414Y-10372414D01*
X14545271Y-10372414D01*
X14573843Y-10386700D01*
X14688128Y-10686700D02*
X14702414Y-10672414D01*
X14730986Y-10629557D01*
X14745271Y-10600986D01*
X14759557Y-10558129D01*
X14773843Y-10486700D01*
X14773843Y-10429557D01*
X14759557Y-10358129D01*
X14745271Y-10315272D01*
X14730986Y-10286700D01*
X14702414Y-10243843D01*
X14688128Y-10229557D01*
X15230986Y-10686700D02*
X15216700Y-10672414D01*
X15188128Y-10629557D01*
X15173843Y-10600986D01*
X15159557Y-10558129D01*
X15145271Y-10486700D01*
X15145271Y-10429557D01*
X15159557Y-10358129D01*
X15173843Y-10315272D01*
X15188128Y-10286700D01*
X15216700Y-10243843D01*
X15230986Y-10229557D01*
X15345271Y-10372414D02*
X15345271Y-10572414D01*
X15345271Y-10400986D02*
X15359557Y-10386700D01*
X15388128Y-10372414D01*
X15430986Y-10372414D01*
X15459557Y-10386700D01*
X15473843Y-10415272D01*
X15473843Y-10572414D01*
X15659557Y-10572414D02*
X15630986Y-10558129D01*
X15616700Y-10543843D01*
X15602414Y-10515272D01*
X15602414Y-10429557D01*
X15616700Y-10400986D01*
X15630986Y-10386700D01*
X15659557Y-10372414D01*
X15702414Y-10372414D01*
X15730986Y-10386700D01*
X15745271Y-10400986D01*
X15759557Y-10429557D01*
X15759557Y-10515272D01*
X15745271Y-10543843D01*
X15730986Y-10558129D01*
X15702414Y-10572414D01*
X15659557Y-10572414D01*
X15845271Y-10372414D02*
X15959557Y-10372414D01*
X15888128Y-10272414D02*
X15888128Y-10529557D01*
X15902414Y-10558129D01*
X15930986Y-10572414D01*
X15959557Y-10572414D01*
X16288128Y-10372414D02*
X16288128Y-10672414D01*
X16288128Y-10386700D02*
X16316700Y-10372414D01*
X16373843Y-10372414D01*
X16402414Y-10386700D01*
X16416700Y-10400986D01*
X16430986Y-10429557D01*
X16430986Y-10515272D01*
X16416700Y-10543843D01*
X16402414Y-10558129D01*
X16373843Y-10572414D01*
X16316700Y-10572414D01*
X16288128Y-10558129D01*
X16602414Y-10572414D02*
X16573843Y-10558129D01*
X16559557Y-10529557D01*
X16559557Y-10272414D01*
X16845271Y-10572414D02*
X16845271Y-10415272D01*
X16830986Y-10386700D01*
X16802414Y-10372414D01*
X16745271Y-10372414D01*
X16716700Y-10386700D01*
X16845271Y-10558129D02*
X16816700Y-10572414D01*
X16745271Y-10572414D01*
X16716700Y-10558129D01*
X16702414Y-10529557D01*
X16702414Y-10500986D01*
X16716700Y-10472414D01*
X16745271Y-10458129D01*
X16816700Y-10458129D01*
X16845271Y-10443843D01*
X16945271Y-10372414D02*
X17059557Y-10372414D01*
X16988128Y-10272414D02*
X16988128Y-10529557D01*
X17002414Y-10558129D01*
X17030986Y-10572414D01*
X17059557Y-10572414D01*
X17273843Y-10558129D02*
X17245271Y-10572414D01*
X17188128Y-10572414D01*
X17159557Y-10558129D01*
X17145271Y-10529557D01*
X17145271Y-10415272D01*
X17159557Y-10386700D01*
X17188128Y-10372414D01*
X17245271Y-10372414D01*
X17273843Y-10386700D01*
X17288128Y-10415272D01*
X17288128Y-10443843D01*
X17145271Y-10472414D01*
X17545271Y-10572414D02*
X17545271Y-10272414D01*
X17545271Y-10558129D02*
X17516700Y-10572414D01*
X17459557Y-10572414D01*
X17430986Y-10558129D01*
X17416700Y-10543843D01*
X17402414Y-10515272D01*
X17402414Y-10429557D01*
X17416700Y-10400986D01*
X17430986Y-10386700D01*
X17459557Y-10372414D01*
X17516700Y-10372414D01*
X17545271Y-10386700D01*
X17659557Y-10686700D02*
X17673843Y-10672414D01*
X17702414Y-10629557D01*
X17716700Y-10600986D01*
X17730986Y-10558129D01*
X17745271Y-10486700D01*
X17745271Y-10429557D01*
X17730986Y-10358129D01*
X17716700Y-10315272D01*
X17702414Y-10286700D01*
X17673843Y-10243843D01*
X17659557Y-10229557D01*
M02*
