%FSLAX45Y45*%
G04 Gerber Fmt 4.5, Leading zero omitted, Abs format (unit mm)*
G04 Created by KiCad (PCBNEW (5.1.5)-3) date 2020-07-01 21:27:15*
%MOMM*%
%LPD*%
G04 APERTURE LIST*
%TA.AperFunction,Profile*%
%ADD10C,0.050000*%
%TD*%
%ADD11C,0.200000*%
%ADD12C,0.300000*%
G04 APERTURE END LIST*
D10*
X18481040Y-2936240D02*
X18481040Y-8356600D01*
X8204200Y-2936240D02*
X18481040Y-2936240D01*
X8209280Y-7259320D02*
X8204200Y-2936240D01*
X9357360Y-7259320D02*
X8209280Y-7259320D01*
X9357360Y-8351520D02*
X9357360Y-7259320D01*
X10586720Y-8356600D02*
X9357360Y-8351520D01*
X10586720Y-8361680D02*
X10586720Y-8356600D01*
X10586720Y-9367520D02*
X10586720Y-8361680D01*
X10591800Y-9392920D02*
X10586720Y-9367520D01*
X10591800Y-9398000D02*
X10591800Y-9392920D01*
X10601960Y-9418320D02*
X10591800Y-9398000D01*
X10607040Y-9428480D02*
X10601960Y-9418320D01*
X10612120Y-9433560D02*
X10607040Y-9428480D01*
X10632440Y-9453880D02*
X10612120Y-9433560D01*
X10657840Y-9464040D02*
X10632440Y-9453880D01*
X10678160Y-9469120D02*
X10657840Y-9464040D01*
X17002760Y-9474200D02*
X10678160Y-9469120D01*
X17018000Y-9469120D02*
X17002760Y-9474200D01*
X17038320Y-9464040D02*
X17018000Y-9469120D01*
X17063720Y-9448800D02*
X17038320Y-9464040D01*
X17078960Y-9433560D02*
X17063720Y-9448800D01*
X17089120Y-9423400D02*
X17078960Y-9433560D01*
X17094200Y-9403080D02*
X17089120Y-9423400D01*
X17099280Y-9382760D02*
X17094200Y-9403080D01*
X17099280Y-9367520D02*
X17099280Y-9382760D01*
X17099280Y-8356600D02*
X17099280Y-9367520D01*
X18481040Y-8356600D02*
X17099280Y-8356600D01*
D11*
X11789730Y-8368350D02*
X11829730Y-8408350D01*
X11829730Y-8368350D02*
X11789730Y-8408350D01*
X12017060Y-8443280D02*
X12057060Y-8483280D01*
X12057060Y-8443280D02*
X12017060Y-8483280D01*
X12375200Y-8449630D02*
X12415200Y-8489630D01*
X12415200Y-8449630D02*
X12375200Y-8489630D01*
X12558080Y-7696520D02*
X12598080Y-7736520D01*
X12598080Y-7696520D02*
X12558080Y-7736520D01*
X12558080Y-8179120D02*
X12598080Y-8219120D01*
X12598080Y-8179120D02*
X12558080Y-8219120D01*
X13021630Y-5951540D02*
X13061630Y-5991540D01*
X13061630Y-5951540D02*
X13021630Y-5991540D01*
X13132485Y-8433120D02*
X13172485Y-8473120D01*
X13172485Y-8433120D02*
X13132485Y-8473120D01*
X13394900Y-8425743D02*
X13434900Y-8465743D01*
X13434900Y-8425743D02*
X13394900Y-8465743D01*
X13557739Y-8402809D02*
X13597739Y-8442809D01*
X13597739Y-8402809D02*
X13557739Y-8442809D01*
X13831890Y-8431850D02*
X13871890Y-8471850D01*
X13871890Y-8431850D02*
X13831890Y-8471850D01*
X13908821Y-7985011D02*
X13948821Y-8025011D01*
X13948821Y-7985011D02*
X13908821Y-8025011D01*
X13956350Y-6403660D02*
X13996350Y-6443660D01*
X13996350Y-6403660D02*
X13956350Y-6443660D01*
X14007150Y-7784150D02*
X14047150Y-7824150D01*
X14047150Y-7784150D02*
X14007150Y-7824150D01*
X14139341Y-8365683D02*
X14179341Y-8405683D01*
X14179341Y-8365683D02*
X14139341Y-8405683D01*
X14229734Y-7817595D02*
X14269734Y-7857595D01*
X14269734Y-7817595D02*
X14229734Y-7857595D01*
X14239432Y-8470747D02*
X14279432Y-8510747D01*
X14279432Y-8470747D02*
X14239432Y-8510747D01*
X14318907Y-7906769D02*
X14358907Y-7946769D01*
X14358907Y-7906769D02*
X14318907Y-7946769D01*
X14337350Y-7573330D02*
X14377350Y-7613330D01*
X14377350Y-7573330D02*
X14337350Y-7613330D01*
X14339329Y-8466223D02*
X14379329Y-8506223D01*
X14379329Y-8466223D02*
X14339329Y-8506223D01*
X14457492Y-7311710D02*
X14497492Y-7351710D01*
X14497492Y-7311710D02*
X14457492Y-7351710D01*
X14541989Y-8021471D02*
X14581989Y-8061471D01*
X14581989Y-8021471D02*
X14541989Y-8061471D01*
X14572720Y-8460496D02*
X14612720Y-8500496D01*
X14612720Y-8460496D02*
X14572720Y-8500496D01*
X14654850Y-8031800D02*
X14694850Y-8071800D01*
X14694850Y-8031800D02*
X14654850Y-8071800D01*
X14661200Y-7914960D02*
X14701200Y-7954960D01*
X14701200Y-7914960D02*
X14661200Y-7954960D01*
X14694728Y-6537010D02*
X14734728Y-6577010D01*
X14734728Y-6537010D02*
X14694728Y-6577010D01*
X14694728Y-6848812D02*
X14734728Y-6888812D01*
X14734728Y-6848812D02*
X14694728Y-6888812D01*
X15185345Y-7422188D02*
X15225345Y-7462188D01*
X15225345Y-7422188D02*
X15185345Y-7462188D01*
X15468920Y-6600510D02*
X15508920Y-6640510D01*
X15508920Y-6600510D02*
X15468920Y-6640510D01*
X15632242Y-7304344D02*
X15672242Y-7344344D01*
X15672242Y-7304344D02*
X15632242Y-7344344D01*
X15678470Y-7583998D02*
X15718470Y-7623998D01*
X15718470Y-7583998D02*
X15678470Y-7623998D01*
X15948218Y-6146612D02*
X15988218Y-6186612D01*
X15988218Y-6146612D02*
X15948218Y-6186612D01*
X16947708Y-8423976D02*
X16987708Y-8463976D01*
X16987708Y-8423976D02*
X16947708Y-8463976D01*
X15870550Y-6826440D02*
G75*
G03X15870550Y-6826440I-40000J0D01*
G01*
X15870550Y-7076440D02*
G75*
G03X15870550Y-7076440I-40000J0D01*
G01*
X16641572Y-5516918D02*
X16641572Y-5616918D01*
X16591572Y-5566918D02*
X16691572Y-5566918D01*
X16641572Y-5770918D02*
X16641572Y-5870918D01*
X16591572Y-5820918D02*
X16691572Y-5820918D01*
X16641572Y-6024918D02*
X16641572Y-6124918D01*
X16591572Y-6074918D02*
X16691572Y-6074918D01*
X16641572Y-6278918D02*
X16641572Y-6378918D01*
X16591572Y-6328918D02*
X16691572Y-6328918D01*
X16641572Y-6532918D02*
X16641572Y-6632918D01*
X16591572Y-6582918D02*
X16691572Y-6582918D01*
X16641572Y-6786918D02*
X16641572Y-6886918D01*
X16591572Y-6836918D02*
X16691572Y-6836918D01*
X16641572Y-7040918D02*
X16641572Y-7140918D01*
X16591572Y-7090918D02*
X16691572Y-7090918D01*
X16895572Y-5516918D02*
X16895572Y-5616918D01*
X16845572Y-5566918D02*
X16945572Y-5566918D01*
X16895572Y-5770918D02*
X16895572Y-5870918D01*
X16845572Y-5820918D02*
X16945572Y-5820918D01*
X16895572Y-6024918D02*
X16895572Y-6124918D01*
X16845572Y-6074918D02*
X16945572Y-6074918D01*
X16895572Y-6278918D02*
X16895572Y-6378918D01*
X16845572Y-6328918D02*
X16945572Y-6328918D01*
X16895572Y-6532918D02*
X16895572Y-6632918D01*
X16845572Y-6582918D02*
X16945572Y-6582918D01*
X16895572Y-6786918D02*
X16895572Y-6886918D01*
X16845572Y-6836918D02*
X16945572Y-6836918D01*
X16895572Y-7040918D02*
X16895572Y-7140918D01*
X16845572Y-7090918D02*
X16945572Y-7090918D01*
X12227703Y-5594493D02*
X12227703Y-5515467D01*
X12148676Y-5515467D01*
X12148676Y-5594493D01*
X12227703Y-5594493D01*
X12227703Y-7118493D02*
X12227703Y-7039466D01*
X12148676Y-7039466D01*
X12148676Y-7118493D01*
X12227703Y-7118493D01*
X12481703Y-5594493D02*
X12481703Y-5515467D01*
X12402676Y-5515467D01*
X12402676Y-5594493D01*
X12481703Y-5594493D01*
X12481703Y-7118493D02*
X12481703Y-7039466D01*
X12402676Y-7039466D01*
X12402676Y-7118493D01*
X12481703Y-7118493D01*
X12735703Y-5594493D02*
X12735703Y-5515467D01*
X12656676Y-5515467D01*
X12656676Y-5594493D01*
X12735703Y-5594493D01*
X12735703Y-7118493D02*
X12735703Y-7039466D01*
X12656676Y-7039466D01*
X12656676Y-7118493D01*
X12735703Y-7118493D01*
X12989703Y-5594493D02*
X12989703Y-5515467D01*
X12910676Y-5515467D01*
X12910676Y-5594493D01*
X12989703Y-5594493D01*
X12989703Y-7118493D02*
X12989703Y-7039466D01*
X12910676Y-7039466D01*
X12910676Y-7118493D01*
X12989703Y-7118493D01*
X13243703Y-5594493D02*
X13243703Y-5515467D01*
X13164676Y-5515467D01*
X13164676Y-5594493D01*
X13243703Y-5594493D01*
X13243703Y-7118493D02*
X13243703Y-7039466D01*
X13164676Y-7039466D01*
X13164676Y-7118493D01*
X13243703Y-7118493D01*
X13497703Y-5594493D02*
X13497703Y-5515467D01*
X13418676Y-5515467D01*
X13418676Y-5594493D01*
X13497703Y-5594493D01*
X13497703Y-7118493D02*
X13497703Y-7039466D01*
X13418676Y-7039466D01*
X13418676Y-7118493D01*
X13497703Y-7118493D01*
X13751703Y-5594493D02*
X13751703Y-5515467D01*
X13672676Y-5515467D01*
X13672676Y-5594493D01*
X13751703Y-5594493D01*
X13751703Y-7118493D02*
X13751703Y-7039466D01*
X13672676Y-7039466D01*
X13672676Y-7118493D01*
X13751703Y-7118493D01*
X14005703Y-5594493D02*
X14005703Y-5515467D01*
X13926676Y-5515467D01*
X13926676Y-5594493D01*
X14005703Y-5594493D01*
X14005703Y-7118493D02*
X14005703Y-7039466D01*
X13926676Y-7039466D01*
X13926676Y-7118493D01*
X14005703Y-7118493D01*
X14259703Y-5594493D02*
X14259703Y-5515467D01*
X14180676Y-5515467D01*
X14180676Y-5594493D01*
X14259703Y-5594493D01*
X14259703Y-7118493D02*
X14259703Y-7039466D01*
X14180676Y-7039466D01*
X14180676Y-7118493D01*
X14259703Y-7118493D01*
X14513703Y-5594493D02*
X14513703Y-5515467D01*
X14434676Y-5515467D01*
X14434676Y-5594493D01*
X14513703Y-5594493D01*
X14513703Y-7118493D02*
X14513703Y-7039466D01*
X14434676Y-7039466D01*
X14434676Y-7118493D01*
X14513703Y-7118493D01*
X14767703Y-5594493D02*
X14767703Y-5515467D01*
X14688676Y-5515467D01*
X14688676Y-5594493D01*
X14767703Y-5594493D01*
X14767703Y-7118493D02*
X14767703Y-7039466D01*
X14688676Y-7039466D01*
X14688676Y-7118493D01*
X14767703Y-7118493D01*
X15021703Y-5594493D02*
X15021703Y-5515467D01*
X14942676Y-5515467D01*
X14942676Y-5594493D01*
X15021703Y-5594493D01*
X15021703Y-7118493D02*
X15021703Y-7039466D01*
X14942676Y-7039466D01*
X14942676Y-7118493D01*
X15021703Y-7118493D01*
X15275703Y-5594493D02*
X15275703Y-5515467D01*
X15196676Y-5515467D01*
X15196676Y-5594493D01*
X15275703Y-5594493D01*
X15275703Y-7118493D02*
X15275703Y-7039466D01*
X15196676Y-7039466D01*
X15196676Y-7118493D01*
X15275703Y-7118493D01*
X15529703Y-5594493D02*
X15529703Y-5515467D01*
X15450676Y-5515467D01*
X15450676Y-5594493D01*
X15529703Y-5594493D01*
X15529703Y-7118493D02*
X15529703Y-7039466D01*
X15450676Y-7039466D01*
X15450676Y-7118493D01*
X15529703Y-7118493D01*
X15260828Y-4316024D02*
X15320828Y-4256024D01*
X15260828Y-4196024D01*
X15200828Y-4256024D01*
X15260828Y-4316024D01*
X15260828Y-4570024D02*
X15320828Y-4510024D01*
X15260828Y-4450024D01*
X15200828Y-4510024D01*
X15260828Y-4570024D01*
X15514828Y-4316024D02*
X15574828Y-4256024D01*
X15514828Y-4196024D01*
X15454828Y-4256024D01*
X15514828Y-4316024D01*
X15514828Y-4570024D02*
X15574828Y-4510024D01*
X15514828Y-4450024D01*
X15454828Y-4510024D01*
X15514828Y-4570024D01*
X9691624Y-3800912D02*
X9751624Y-3740912D01*
X9691624Y-3680912D01*
X9631624Y-3740912D01*
X9691624Y-3800912D01*
X9691624Y-4054912D02*
X9751624Y-3994912D01*
X9691624Y-3934912D01*
X9631624Y-3994912D01*
X9691624Y-4054912D01*
X9945624Y-3800912D02*
X10005624Y-3740912D01*
X9945624Y-3680912D01*
X9885624Y-3740912D01*
X9945624Y-3800912D01*
X9945624Y-4054912D02*
X10005624Y-3994912D01*
X9945624Y-3934912D01*
X9885624Y-3994912D01*
X9945624Y-4054912D01*
X9187688Y-4813356D02*
X9247688Y-4753356D01*
X9187688Y-4693356D01*
X9127688Y-4753356D01*
X9187688Y-4813356D01*
X9187688Y-5067356D02*
X9247688Y-5007356D01*
X9187688Y-4947356D01*
X9127688Y-5007356D01*
X9187688Y-5067356D01*
X9441688Y-4813356D02*
X9501688Y-4753356D01*
X9441688Y-4693356D01*
X9381688Y-4753356D01*
X9441688Y-4813356D01*
X9441688Y-5067356D02*
X9501688Y-5007356D01*
X9441688Y-4947356D01*
X9381688Y-5007356D01*
X9441688Y-5067356D01*
X14754352Y-4315516D02*
X14814352Y-4255516D01*
X14754352Y-4195516D01*
X14694352Y-4255516D01*
X14754352Y-4315516D01*
X14754352Y-4569516D02*
X14814352Y-4509516D01*
X14754352Y-4449516D01*
X14694352Y-4509516D01*
X14754352Y-4569516D01*
X15008352Y-4315516D02*
X15068352Y-4255516D01*
X15008352Y-4195516D01*
X14948352Y-4255516D01*
X15008352Y-4315516D01*
X15008352Y-4569516D02*
X15068352Y-4509516D01*
X15008352Y-4449516D01*
X14948352Y-4509516D01*
X15008352Y-4569516D01*
X15763240Y-4822500D02*
X15823240Y-4762500D01*
X15763240Y-4702500D01*
X15703240Y-4762500D01*
X15763240Y-4822500D01*
X15763240Y-5076500D02*
X15823240Y-5016500D01*
X15763240Y-4956500D01*
X15703240Y-5016500D01*
X15763240Y-5076500D01*
X16017240Y-4822500D02*
X16077240Y-4762500D01*
X16017240Y-4702500D01*
X15957240Y-4762500D01*
X16017240Y-4822500D01*
X16017240Y-5076500D02*
X16077240Y-5016500D01*
X16017240Y-4956500D01*
X15957240Y-5016500D01*
X16017240Y-5076500D01*
X13743940Y-4313484D02*
X13803940Y-4253484D01*
X13743940Y-4193484D01*
X13683940Y-4253484D01*
X13743940Y-4313484D01*
X13743940Y-4567484D02*
X13803940Y-4507484D01*
X13743940Y-4447484D01*
X13683940Y-4507484D01*
X13743940Y-4567484D01*
X13997940Y-4313484D02*
X14057940Y-4253484D01*
X13997940Y-4193484D01*
X13937940Y-4253484D01*
X13997940Y-4313484D01*
X13997940Y-4567484D02*
X14057940Y-4507484D01*
X13997940Y-4447484D01*
X13937940Y-4507484D01*
X13997940Y-4567484D01*
X16772636Y-3813104D02*
X16832636Y-3753104D01*
X16772636Y-3693104D01*
X16712636Y-3753104D01*
X16772636Y-3813104D01*
X16772636Y-4067104D02*
X16832636Y-4007104D01*
X16772636Y-3947104D01*
X16712636Y-4007104D01*
X16772636Y-4067104D01*
X17026636Y-3813104D02*
X17086636Y-3753104D01*
X17026636Y-3693104D01*
X16966636Y-3753104D01*
X17026636Y-3813104D01*
X17026636Y-4067104D02*
X17086636Y-4007104D01*
X17026636Y-3947104D01*
X16966636Y-4007104D01*
X17026636Y-4067104D01*
X10705084Y-5317800D02*
X10765084Y-5257800D01*
X10705084Y-5197800D01*
X10645084Y-5257800D01*
X10705084Y-5317800D01*
X10705084Y-5571800D02*
X10765084Y-5511800D01*
X10705084Y-5451800D01*
X10645084Y-5511800D01*
X10705084Y-5571800D01*
X10959084Y-5317800D02*
X11019084Y-5257800D01*
X10959084Y-5197800D01*
X10899084Y-5257800D01*
X10959084Y-5317800D01*
X10959084Y-5571800D02*
X11019084Y-5511800D01*
X10959084Y-5451800D01*
X10899084Y-5511800D01*
X10959084Y-5571800D01*
X9183116Y-5819704D02*
X9243116Y-5759704D01*
X9183116Y-5699704D01*
X9123116Y-5759704D01*
X9183116Y-5819704D01*
X9183116Y-6073704D02*
X9243116Y-6013704D01*
X9183116Y-5953704D01*
X9123116Y-6013704D01*
X9183116Y-6073704D01*
X9437116Y-5819704D02*
X9497116Y-5759704D01*
X9437116Y-5699704D01*
X9377116Y-5759704D01*
X9437116Y-5819704D01*
X9437116Y-6073704D02*
X9497116Y-6013704D01*
X9437116Y-5953704D01*
X9377116Y-6013704D01*
X9437116Y-6073704D01*
X12729972Y-3805484D02*
X12789972Y-3745484D01*
X12729972Y-3685484D01*
X12669972Y-3745484D01*
X12729972Y-3805484D01*
X12729972Y-4059484D02*
X12789972Y-3999484D01*
X12729972Y-3939484D01*
X12669972Y-3999484D01*
X12729972Y-4059484D01*
X12983972Y-3805484D02*
X13043972Y-3745484D01*
X12983972Y-3685484D01*
X12923972Y-3745484D01*
X12983972Y-3805484D01*
X12983972Y-4059484D02*
X13043972Y-3999484D01*
X12983972Y-3939484D01*
X12923972Y-3999484D01*
X12983972Y-4059484D01*
X17785080Y-3308660D02*
X17845080Y-3248660D01*
X17785080Y-3188660D01*
X17725080Y-3248660D01*
X17785080Y-3308660D01*
X17785080Y-3562660D02*
X17845080Y-3502660D01*
X17785080Y-3442660D01*
X17725080Y-3502660D01*
X17785080Y-3562660D01*
X18039080Y-3308660D02*
X18099080Y-3248660D01*
X18039080Y-3188660D01*
X17979080Y-3248660D01*
X18039080Y-3308660D01*
X18039080Y-3562660D02*
X18099080Y-3502660D01*
X18039080Y-3442660D01*
X17979080Y-3502660D01*
X18039080Y-3562660D01*
X10199624Y-3296468D02*
X10259624Y-3236468D01*
X10199624Y-3176468D01*
X10139624Y-3236468D01*
X10199624Y-3296468D01*
X10199624Y-3550468D02*
X10259624Y-3490468D01*
X10199624Y-3430468D01*
X10139624Y-3490468D01*
X10199624Y-3550468D01*
X10453624Y-3296468D02*
X10513624Y-3236468D01*
X10453624Y-3176468D01*
X10393624Y-3236468D01*
X10453624Y-3296468D01*
X10453624Y-3550468D02*
X10513624Y-3490468D01*
X10453624Y-3430468D01*
X10393624Y-3490468D01*
X10453624Y-3550468D01*
X12732004Y-3299008D02*
X12792004Y-3239008D01*
X12732004Y-3179008D01*
X12672004Y-3239008D01*
X12732004Y-3299008D01*
X12732004Y-3553008D02*
X12792004Y-3493008D01*
X12732004Y-3433008D01*
X12672004Y-3493008D01*
X12732004Y-3553008D01*
X12986004Y-3299008D02*
X13046004Y-3239008D01*
X12986004Y-3179008D01*
X12926004Y-3239008D01*
X12986004Y-3299008D01*
X12986004Y-3553008D02*
X13046004Y-3493008D01*
X12986004Y-3433008D01*
X12926004Y-3493008D01*
X12986004Y-3553008D01*
X12226036Y-4817928D02*
X12286036Y-4757928D01*
X12226036Y-4697928D01*
X12166036Y-4757928D01*
X12226036Y-4817928D01*
X12226036Y-5071928D02*
X12286036Y-5011928D01*
X12226036Y-4951928D01*
X12166036Y-5011928D01*
X12226036Y-5071928D01*
X12480036Y-4817928D02*
X12540036Y-4757928D01*
X12480036Y-4697928D01*
X12420036Y-4757928D01*
X12480036Y-4817928D01*
X12480036Y-5071928D02*
X12540036Y-5011928D01*
X12480036Y-4951928D01*
X12420036Y-5011928D01*
X12480036Y-5071928D01*
X11212068Y-4817928D02*
X11272068Y-4757928D01*
X11212068Y-4697928D01*
X11152068Y-4757928D01*
X11212068Y-4817928D01*
X11212068Y-5071928D02*
X11272068Y-5011928D01*
X11212068Y-4951928D01*
X11152068Y-5011928D01*
X11212068Y-5071928D01*
X11466068Y-4817928D02*
X11526068Y-4757928D01*
X11466068Y-4697928D01*
X11406068Y-4757928D01*
X11466068Y-4817928D01*
X11466068Y-5071928D02*
X11526068Y-5011928D01*
X11466068Y-4951928D01*
X11406068Y-5011928D01*
X11466068Y-5071928D01*
X9189720Y-4306880D02*
X9249720Y-4246880D01*
X9189720Y-4186880D01*
X9129720Y-4246880D01*
X9189720Y-4306880D01*
X9189720Y-4560880D02*
X9249720Y-4500880D01*
X9189720Y-4440880D01*
X9129720Y-4500880D01*
X9189720Y-4560880D01*
X9443720Y-4306880D02*
X9503720Y-4246880D01*
X9443720Y-4186880D01*
X9383720Y-4246880D01*
X9443720Y-4306880D01*
X9443720Y-4560880D02*
X9503720Y-4500880D01*
X9443720Y-4440880D01*
X9383720Y-4500880D01*
X9443720Y-4560880D01*
X16268700Y-3812088D02*
X16328700Y-3752088D01*
X16268700Y-3692088D01*
X16208700Y-3752088D01*
X16268700Y-3812088D01*
X16268700Y-4066088D02*
X16328700Y-4006088D01*
X16268700Y-3946088D01*
X16208700Y-4006088D01*
X16268700Y-4066088D01*
X16522700Y-3812088D02*
X16582700Y-3752088D01*
X16522700Y-3692088D01*
X16462700Y-3752088D01*
X16522700Y-3812088D01*
X16522700Y-4066088D02*
X16582700Y-4006088D01*
X16522700Y-3946088D01*
X16462700Y-4006088D01*
X16522700Y-4066088D01*
X8679688Y-4814372D02*
X8739688Y-4754372D01*
X8679688Y-4694372D01*
X8619688Y-4754372D01*
X8679688Y-4814372D01*
X8679688Y-5068372D02*
X8739688Y-5008372D01*
X8679688Y-4948372D01*
X8619688Y-5008372D01*
X8679688Y-5068372D01*
X8933688Y-4814372D02*
X8993688Y-4754372D01*
X8933688Y-4694372D01*
X8873688Y-4754372D01*
X8933688Y-4814372D01*
X8933688Y-5068372D02*
X8993688Y-5008372D01*
X8933688Y-4948372D01*
X8873688Y-5008372D01*
X8933688Y-5068372D01*
X12730480Y-4817928D02*
X12790480Y-4757928D01*
X12730480Y-4697928D01*
X12670480Y-4757928D01*
X12730480Y-4817928D01*
X12730480Y-5071928D02*
X12790480Y-5011928D01*
X12730480Y-4951928D01*
X12670480Y-5011928D01*
X12730480Y-5071928D01*
X12984480Y-4817928D02*
X13044480Y-4757928D01*
X12984480Y-4697928D01*
X12924480Y-4757928D01*
X12984480Y-4817928D01*
X12984480Y-5071928D02*
X13044480Y-5011928D01*
X12984480Y-4951928D01*
X12924480Y-5011928D01*
X12984480Y-5071928D01*
X11717528Y-3807516D02*
X11777528Y-3747516D01*
X11717528Y-3687516D01*
X11657528Y-3747516D01*
X11717528Y-3807516D01*
X11717528Y-4061516D02*
X11777528Y-4001516D01*
X11717528Y-3941516D01*
X11657528Y-4001516D01*
X11717528Y-4061516D01*
X11971528Y-3807516D02*
X12031528Y-3747516D01*
X11971528Y-3687516D01*
X11911528Y-3747516D01*
X11971528Y-3807516D01*
X11971528Y-4061516D02*
X12031528Y-4001516D01*
X11971528Y-3941516D01*
X11911528Y-4001516D01*
X11971528Y-4061516D01*
X9694308Y-7350326D02*
X9754308Y-7290326D01*
X9694308Y-7230326D01*
X9634308Y-7290326D01*
X9694308Y-7350326D01*
X9694308Y-7604326D02*
X9754308Y-7544326D01*
X9694308Y-7484326D01*
X9634308Y-7544326D01*
X9694308Y-7604326D01*
X9948308Y-7350326D02*
X10008308Y-7290326D01*
X9948308Y-7230326D01*
X9888308Y-7290326D01*
X9948308Y-7350326D01*
X9948308Y-7604326D02*
X10008308Y-7544326D01*
X9948308Y-7484326D01*
X9888308Y-7544326D01*
X9948308Y-7604326D01*
X10703052Y-5824276D02*
X10763052Y-5764276D01*
X10703052Y-5704276D01*
X10643052Y-5764276D01*
X10703052Y-5824276D01*
X10703052Y-6078276D02*
X10763052Y-6018276D01*
X10703052Y-5958276D01*
X10643052Y-6018276D01*
X10703052Y-6078276D01*
X10957052Y-5824276D02*
X11017052Y-5764276D01*
X10957052Y-5704276D01*
X10897052Y-5764276D01*
X10957052Y-5824276D01*
X10957052Y-6078276D02*
X11017052Y-6018276D01*
X10957052Y-5958276D01*
X10897052Y-6018276D01*
X10957052Y-6078276D01*
X10195560Y-5315260D02*
X10255560Y-5255260D01*
X10195560Y-5195260D01*
X10135560Y-5255260D01*
X10195560Y-5315260D01*
X10195560Y-5569260D02*
X10255560Y-5509260D01*
X10195560Y-5449260D01*
X10135560Y-5509260D01*
X10195560Y-5569260D01*
X10449560Y-5315260D02*
X10509560Y-5255260D01*
X10449560Y-5195260D01*
X10389560Y-5255260D01*
X10449560Y-5315260D01*
X10449560Y-5569260D02*
X10509560Y-5509260D01*
X10449560Y-5449260D01*
X10389560Y-5509260D01*
X10449560Y-5569260D01*
X13235940Y-3807516D02*
X13295940Y-3747516D01*
X13235940Y-3687516D01*
X13175940Y-3747516D01*
X13235940Y-3807516D01*
X13235940Y-4061516D02*
X13295940Y-4001516D01*
X13235940Y-3941516D01*
X13175940Y-4001516D01*
X13235940Y-4061516D01*
X13489940Y-3807516D02*
X13549940Y-3747516D01*
X13489940Y-3687516D01*
X13429940Y-3747516D01*
X13489940Y-3807516D01*
X13489940Y-4061516D02*
X13549940Y-4001516D01*
X13489940Y-3941516D01*
X13429940Y-4001516D01*
X13489940Y-4061516D01*
X14247876Y-3301040D02*
X14307876Y-3241040D01*
X14247876Y-3181040D01*
X14187876Y-3241040D01*
X14247876Y-3301040D01*
X14247876Y-3555040D02*
X14307876Y-3495040D01*
X14247876Y-3435040D01*
X14187876Y-3495040D01*
X14247876Y-3555040D01*
X14501876Y-3301040D02*
X14561876Y-3241040D01*
X14501876Y-3181040D01*
X14441876Y-3241040D01*
X14501876Y-3301040D01*
X14501876Y-3555040D02*
X14561876Y-3495040D01*
X14501876Y-3435040D01*
X14441876Y-3495040D01*
X14501876Y-3555040D01*
X9690100Y-6325672D02*
X9750100Y-6265672D01*
X9690100Y-6205672D01*
X9630100Y-6265672D01*
X9690100Y-6325672D01*
X9690100Y-6579672D02*
X9750100Y-6519672D01*
X9690100Y-6459672D01*
X9630100Y-6519672D01*
X9690100Y-6579672D01*
X9944100Y-6325672D02*
X10004100Y-6265672D01*
X9944100Y-6205672D01*
X9884100Y-6265672D01*
X9944100Y-6325672D01*
X9944100Y-6579672D02*
X10004100Y-6519672D01*
X9944100Y-6459672D01*
X9884100Y-6519672D01*
X9944100Y-6579672D01*
X10705592Y-6330244D02*
X10765592Y-6270244D01*
X10705592Y-6210244D01*
X10645592Y-6270244D01*
X10705592Y-6330244D01*
X10705592Y-6584244D02*
X10765592Y-6524244D01*
X10705592Y-6464244D01*
X10645592Y-6524244D01*
X10705592Y-6584244D01*
X10959592Y-6330244D02*
X11019592Y-6270244D01*
X10959592Y-6210244D01*
X10899592Y-6270244D01*
X10959592Y-6330244D01*
X10959592Y-6584244D02*
X11019592Y-6524244D01*
X10959592Y-6464244D01*
X10899592Y-6524244D01*
X10959592Y-6584244D01*
X8675116Y-5820720D02*
X8735116Y-5760720D01*
X8675116Y-5700720D01*
X8615116Y-5760720D01*
X8675116Y-5820720D01*
X8675116Y-6074720D02*
X8735116Y-6014720D01*
X8675116Y-5954720D01*
X8615116Y-6014720D01*
X8675116Y-6074720D01*
X8929116Y-5820720D02*
X8989116Y-5760720D01*
X8929116Y-5700720D01*
X8869116Y-5760720D01*
X8929116Y-5820720D01*
X8929116Y-6074720D02*
X8989116Y-6014720D01*
X8929116Y-5954720D01*
X8869116Y-6014720D01*
X8929116Y-6074720D01*
X14752320Y-4821992D02*
X14812320Y-4761992D01*
X14752320Y-4701992D01*
X14692320Y-4761992D01*
X14752320Y-4821992D01*
X14752320Y-5075992D02*
X14812320Y-5015992D01*
X14752320Y-4955992D01*
X14692320Y-5015992D01*
X14752320Y-5075992D01*
X15006320Y-4821992D02*
X15066320Y-4761992D01*
X15006320Y-4701992D01*
X14946320Y-4761992D01*
X15006320Y-4821992D01*
X15006320Y-5075992D02*
X15066320Y-5015992D01*
X15006320Y-4955992D01*
X14946320Y-5015992D01*
X15006320Y-5075992D01*
X10709656Y-4311452D02*
X10769656Y-4251452D01*
X10709656Y-4191452D01*
X10649656Y-4251452D01*
X10709656Y-4311452D01*
X10709656Y-4565452D02*
X10769656Y-4505452D01*
X10709656Y-4445452D01*
X10649656Y-4505452D01*
X10709656Y-4565452D01*
X10963656Y-4311452D02*
X11023656Y-4251452D01*
X10963656Y-4191452D01*
X10903656Y-4251452D01*
X10963656Y-4311452D01*
X10963656Y-4565452D02*
X11023656Y-4505452D01*
X10963656Y-4445452D01*
X10903656Y-4505452D01*
X10963656Y-4565452D01*
X10200132Y-4308912D02*
X10260132Y-4248912D01*
X10200132Y-4188912D01*
X10140132Y-4248912D01*
X10200132Y-4308912D01*
X10200132Y-4562912D02*
X10260132Y-4502912D01*
X10200132Y-4442912D01*
X10140132Y-4502912D01*
X10200132Y-4562912D01*
X10454132Y-4308912D02*
X10514132Y-4248912D01*
X10454132Y-4188912D01*
X10394132Y-4248912D01*
X10454132Y-4308912D01*
X10454132Y-4562912D02*
X10514132Y-4502912D01*
X10454132Y-4442912D01*
X10394132Y-4502912D01*
X10454132Y-4562912D01*
X9694164Y-4306880D02*
X9754164Y-4246880D01*
X9694164Y-4186880D01*
X9634164Y-4246880D01*
X9694164Y-4306880D01*
X9694164Y-4560880D02*
X9754164Y-4500880D01*
X9694164Y-4440880D01*
X9634164Y-4500880D01*
X9694164Y-4560880D01*
X9948164Y-4306880D02*
X10008164Y-4246880D01*
X9948164Y-4186880D01*
X9888164Y-4246880D01*
X9948164Y-4306880D01*
X9948164Y-4560880D02*
X10008164Y-4500880D01*
X9948164Y-4440880D01*
X9888164Y-4500880D01*
X9948164Y-4560880D01*
X13741908Y-4819960D02*
X13801908Y-4759960D01*
X13741908Y-4699960D01*
X13681908Y-4759960D01*
X13741908Y-4819960D01*
X13741908Y-5073960D02*
X13801908Y-5013960D01*
X13741908Y-4953960D01*
X13681908Y-5013960D01*
X13741908Y-5073960D01*
X13995908Y-4819960D02*
X14055908Y-4759960D01*
X13995908Y-4699960D01*
X13935908Y-4759960D01*
X13995908Y-4819960D01*
X13995908Y-5073960D02*
X14055908Y-5013960D01*
X13995908Y-4953960D01*
X13935908Y-5013960D01*
X13995908Y-5073960D01*
X14246352Y-4819960D02*
X14306352Y-4759960D01*
X14246352Y-4699960D01*
X14186352Y-4759960D01*
X14246352Y-4819960D01*
X14246352Y-5073960D02*
X14306352Y-5013960D01*
X14246352Y-4953960D01*
X14186352Y-5013960D01*
X14246352Y-5073960D01*
X14500352Y-4819960D02*
X14560352Y-4759960D01*
X14500352Y-4699960D01*
X14440352Y-4759960D01*
X14500352Y-4819960D01*
X14500352Y-5073960D02*
X14560352Y-5013960D01*
X14500352Y-4953960D01*
X14440352Y-5013960D01*
X14500352Y-5073960D01*
X10707116Y-3805484D02*
X10767116Y-3745484D01*
X10707116Y-3685484D01*
X10647116Y-3745484D01*
X10707116Y-3805484D01*
X10707116Y-4059484D02*
X10767116Y-3999484D01*
X10707116Y-3939484D01*
X10647116Y-3999484D01*
X10707116Y-4059484D01*
X10961116Y-3805484D02*
X11021116Y-3745484D01*
X10961116Y-3685484D01*
X10901116Y-3745484D01*
X10961116Y-3805484D01*
X10961116Y-4059484D02*
X11021116Y-3999484D01*
X10961116Y-3939484D01*
X10901116Y-3999484D01*
X10961116Y-4059484D01*
X10193528Y-5821736D02*
X10253528Y-5761736D01*
X10193528Y-5701736D01*
X10133528Y-5761736D01*
X10193528Y-5821736D01*
X10193528Y-6075736D02*
X10253528Y-6015736D01*
X10193528Y-5955736D01*
X10133528Y-6015736D01*
X10193528Y-6075736D01*
X10447528Y-5821736D02*
X10507528Y-5761736D01*
X10447528Y-5701736D01*
X10387528Y-5761736D01*
X10447528Y-5821736D01*
X10447528Y-6075736D02*
X10507528Y-6015736D01*
X10447528Y-5955736D01*
X10387528Y-6015736D01*
X10447528Y-6075736D01*
X13238480Y-4313484D02*
X13298480Y-4253484D01*
X13238480Y-4193484D01*
X13178480Y-4253484D01*
X13238480Y-4313484D01*
X13238480Y-4567484D02*
X13298480Y-4507484D01*
X13238480Y-4447484D01*
X13178480Y-4507484D01*
X13238480Y-4567484D01*
X13492480Y-4313484D02*
X13552480Y-4253484D01*
X13492480Y-4193484D01*
X13432480Y-4253484D01*
X13492480Y-4313484D01*
X13492480Y-4567484D02*
X13552480Y-4507484D01*
X13492480Y-4447484D01*
X13432480Y-4507484D01*
X13492480Y-4567484D01*
X8681212Y-3295452D02*
X8741212Y-3235452D01*
X8681212Y-3175452D01*
X8621212Y-3235452D01*
X8681212Y-3295452D01*
X8681212Y-3549452D02*
X8741212Y-3489452D01*
X8681212Y-3429452D01*
X8621212Y-3489452D01*
X8681212Y-3549452D01*
X8935212Y-3295452D02*
X8995212Y-3235452D01*
X8935212Y-3175452D01*
X8875212Y-3235452D01*
X8935212Y-3295452D01*
X8935212Y-3549452D02*
X8995212Y-3489452D01*
X8935212Y-3429452D01*
X8875212Y-3489452D01*
X8935212Y-3549452D01*
X9189212Y-3294436D02*
X9249212Y-3234436D01*
X9189212Y-3174436D01*
X9129212Y-3234436D01*
X9189212Y-3294436D01*
X9189212Y-3548436D02*
X9249212Y-3488436D01*
X9189212Y-3428436D01*
X9129212Y-3488436D01*
X9189212Y-3548436D01*
X9443212Y-3294436D02*
X9503212Y-3234436D01*
X9443212Y-3174436D01*
X9383212Y-3234436D01*
X9443212Y-3294436D01*
X9443212Y-3548436D02*
X9503212Y-3488436D01*
X9443212Y-3428436D01*
X9383212Y-3488436D01*
X9443212Y-3548436D01*
X9687560Y-5819704D02*
X9747560Y-5759704D01*
X9687560Y-5699704D01*
X9627560Y-5759704D01*
X9687560Y-5819704D01*
X9687560Y-6073704D02*
X9747560Y-6013704D01*
X9687560Y-5953704D01*
X9627560Y-6013704D01*
X9687560Y-6073704D01*
X9941560Y-5819704D02*
X10001560Y-5759704D01*
X9941560Y-5699704D01*
X9881560Y-5759704D01*
X9941560Y-5819704D01*
X9941560Y-6073704D02*
X10001560Y-6013704D01*
X9941560Y-5953704D01*
X9881560Y-6013704D01*
X9941560Y-6073704D01*
X13741400Y-3807516D02*
X13801400Y-3747516D01*
X13741400Y-3687516D01*
X13681400Y-3747516D01*
X13741400Y-3807516D01*
X13741400Y-4061516D02*
X13801400Y-4001516D01*
X13741400Y-3941516D01*
X13681400Y-4001516D01*
X13741400Y-4061516D01*
X13995400Y-3807516D02*
X14055400Y-3747516D01*
X13995400Y-3687516D01*
X13935400Y-3747516D01*
X13995400Y-3807516D01*
X13995400Y-4061516D02*
X14055400Y-4001516D01*
X13995400Y-3941516D01*
X13935400Y-4001516D01*
X13995400Y-4061516D01*
X15260320Y-3303580D02*
X15320320Y-3243580D01*
X15260320Y-3183580D01*
X15200320Y-3243580D01*
X15260320Y-3303580D01*
X15260320Y-3557580D02*
X15320320Y-3497580D01*
X15260320Y-3437580D01*
X15200320Y-3497580D01*
X15260320Y-3557580D01*
X15514320Y-3303580D02*
X15574320Y-3243580D01*
X15514320Y-3183580D01*
X15454320Y-3243580D01*
X15514320Y-3303580D01*
X15514320Y-3557580D02*
X15574320Y-3497580D01*
X15514320Y-3437580D01*
X15454320Y-3497580D01*
X15514320Y-3557580D01*
X9185656Y-6325672D02*
X9245656Y-6265672D01*
X9185656Y-6205672D01*
X9125656Y-6265672D01*
X9185656Y-6325672D01*
X9185656Y-6579672D02*
X9245656Y-6519672D01*
X9185656Y-6459672D01*
X9125656Y-6519672D01*
X9185656Y-6579672D01*
X9439656Y-6325672D02*
X9499656Y-6265672D01*
X9439656Y-6205672D01*
X9379656Y-6265672D01*
X9439656Y-6325672D01*
X9439656Y-6579672D02*
X9499656Y-6519672D01*
X9439656Y-6459672D01*
X9379656Y-6519672D01*
X9439656Y-6579672D01*
X16269208Y-4824532D02*
X16329208Y-4764532D01*
X16269208Y-4704532D01*
X16209208Y-4764532D01*
X16269208Y-4824532D01*
X16269208Y-5078532D02*
X16329208Y-5018532D01*
X16269208Y-4958532D01*
X16209208Y-5018532D01*
X16269208Y-5078532D01*
X16523208Y-4824532D02*
X16583208Y-4764532D01*
X16523208Y-4704532D01*
X16463208Y-4764532D01*
X16523208Y-4824532D01*
X16523208Y-5078532D02*
X16583208Y-5018532D01*
X16523208Y-4958532D01*
X16463208Y-5018532D01*
X16523208Y-5078532D01*
X9689592Y-5313228D02*
X9749592Y-5253228D01*
X9689592Y-5193228D01*
X9629592Y-5253228D01*
X9689592Y-5313228D01*
X9689592Y-5567228D02*
X9749592Y-5507228D01*
X9689592Y-5447228D01*
X9629592Y-5507228D01*
X9689592Y-5567228D01*
X9943592Y-5313228D02*
X10003592Y-5253228D01*
X9943592Y-5193228D01*
X9883592Y-5253228D01*
X9943592Y-5313228D01*
X9943592Y-5567228D02*
X10003592Y-5507228D01*
X9943592Y-5447228D01*
X9883592Y-5507228D01*
X9943592Y-5567228D01*
X17785588Y-4321104D02*
X17845588Y-4261104D01*
X17785588Y-4201104D01*
X17725588Y-4261104D01*
X17785588Y-4321104D01*
X17785588Y-4575104D02*
X17845588Y-4515104D01*
X17785588Y-4455104D01*
X17725588Y-4515104D01*
X17785588Y-4575104D01*
X18039588Y-4321104D02*
X18099588Y-4261104D01*
X18039588Y-4201104D01*
X17979588Y-4261104D01*
X18039588Y-4321104D01*
X18039588Y-4575104D02*
X18099588Y-4515104D01*
X18039588Y-4455104D01*
X17979588Y-4515104D01*
X18039588Y-4575104D01*
X15765272Y-4316024D02*
X15825272Y-4256024D01*
X15765272Y-4196024D01*
X15705272Y-4256024D01*
X15765272Y-4316024D01*
X15765272Y-4570024D02*
X15825272Y-4510024D01*
X15765272Y-4450024D01*
X15705272Y-4510024D01*
X15765272Y-4570024D01*
X16019272Y-4316024D02*
X16079272Y-4256024D01*
X16019272Y-4196024D01*
X15959272Y-4256024D01*
X16019272Y-4316024D01*
X16019272Y-4570024D02*
X16079272Y-4510024D01*
X16019272Y-4450024D01*
X15959272Y-4510024D01*
X16019272Y-4570024D01*
X13236448Y-4819960D02*
X13296448Y-4759960D01*
X13236448Y-4699960D01*
X13176448Y-4759960D01*
X13236448Y-4819960D01*
X13236448Y-5073960D02*
X13296448Y-5013960D01*
X13236448Y-4953960D01*
X13176448Y-5013960D01*
X13236448Y-5073960D01*
X13490448Y-4819960D02*
X13550448Y-4759960D01*
X13490448Y-4699960D01*
X13430448Y-4759960D01*
X13490448Y-4819960D01*
X13490448Y-5073960D02*
X13550448Y-5013960D01*
X13490448Y-4953960D01*
X13430448Y-5013960D01*
X13490448Y-5073960D01*
X17277588Y-4825548D02*
X17337588Y-4765548D01*
X17277588Y-4705548D01*
X17217588Y-4765548D01*
X17277588Y-4825548D01*
X17277588Y-5079548D02*
X17337588Y-5019548D01*
X17277588Y-4959548D01*
X17217588Y-5019548D01*
X17277588Y-5079548D01*
X17531588Y-4825548D02*
X17591588Y-4765548D01*
X17531588Y-4705548D01*
X17471588Y-4765548D01*
X17531588Y-4825548D01*
X17531588Y-5079548D02*
X17591588Y-5019548D01*
X17531588Y-4959548D01*
X17471588Y-5019548D01*
X17531588Y-5079548D01*
X11211560Y-3805484D02*
X11271560Y-3745484D01*
X11211560Y-3685484D01*
X11151560Y-3745484D01*
X11211560Y-3805484D01*
X11211560Y-4059484D02*
X11271560Y-3999484D01*
X11211560Y-3939484D01*
X11151560Y-3999484D01*
X11211560Y-4059484D01*
X11465560Y-3805484D02*
X11525560Y-3745484D01*
X11465560Y-3685484D01*
X11405560Y-3745484D01*
X11465560Y-3805484D01*
X11465560Y-4059484D02*
X11525560Y-3999484D01*
X11465560Y-3939484D01*
X11405560Y-3999484D01*
X11465560Y-4059484D01*
X9691768Y-6844358D02*
X9751768Y-6784358D01*
X9691768Y-6724358D01*
X9631768Y-6784358D01*
X9691768Y-6844358D01*
X9691768Y-7098358D02*
X9751768Y-7038358D01*
X9691768Y-6978358D01*
X9631768Y-7038358D01*
X9691768Y-7098358D01*
X9945768Y-6844358D02*
X10005768Y-6784358D01*
X9945768Y-6724358D01*
X9885768Y-6784358D01*
X9945768Y-6844358D01*
X9945768Y-7098358D02*
X10005768Y-7038358D01*
X9945768Y-6978358D01*
X9885768Y-7038358D01*
X9945768Y-7098358D01*
X15762732Y-3810056D02*
X15822732Y-3750056D01*
X15762732Y-3690056D01*
X15702732Y-3750056D01*
X15762732Y-3810056D01*
X15762732Y-4064056D02*
X15822732Y-4004056D01*
X15762732Y-3944056D01*
X15702732Y-4004056D01*
X15762732Y-4064056D01*
X16016732Y-3810056D02*
X16076732Y-3750056D01*
X16016732Y-3690056D01*
X15956732Y-3750056D01*
X16016732Y-3810056D01*
X16016732Y-4064056D02*
X16076732Y-4004056D01*
X16016732Y-3944056D01*
X15956732Y-4004056D01*
X16016732Y-4064056D01*
X9185148Y-5313228D02*
X9245148Y-5253228D01*
X9185148Y-5193228D01*
X9125148Y-5253228D01*
X9185148Y-5313228D01*
X9185148Y-5567228D02*
X9245148Y-5507228D01*
X9185148Y-5447228D01*
X9125148Y-5507228D01*
X9185148Y-5567228D01*
X9439148Y-5313228D02*
X9499148Y-5253228D01*
X9439148Y-5193228D01*
X9379148Y-5253228D01*
X9439148Y-5313228D01*
X9439148Y-5567228D02*
X9499148Y-5507228D01*
X9439148Y-5447228D01*
X9379148Y-5507228D01*
X9439148Y-5567228D01*
X12225528Y-3805484D02*
X12285528Y-3745484D01*
X12225528Y-3685484D01*
X12165528Y-3745484D01*
X12225528Y-3805484D01*
X12225528Y-4059484D02*
X12285528Y-3999484D01*
X12225528Y-3939484D01*
X12165528Y-3999484D01*
X12225528Y-4059484D01*
X12479528Y-3805484D02*
X12539528Y-3745484D01*
X12479528Y-3685484D01*
X12419528Y-3745484D01*
X12479528Y-3805484D01*
X12479528Y-4059484D02*
X12539528Y-3999484D01*
X12479528Y-3939484D01*
X12419528Y-3999484D01*
X12479528Y-4059484D01*
X13237972Y-3301040D02*
X13297972Y-3241040D01*
X13237972Y-3181040D01*
X13177972Y-3241040D01*
X13237972Y-3301040D01*
X13237972Y-3555040D02*
X13297972Y-3495040D01*
X13237972Y-3435040D01*
X13177972Y-3495040D01*
X13237972Y-3555040D01*
X13491972Y-3301040D02*
X13551972Y-3241040D01*
X13491972Y-3181040D01*
X13431972Y-3241040D01*
X13491972Y-3301040D01*
X13491972Y-3555040D02*
X13551972Y-3495040D01*
X13491972Y-3435040D01*
X13431972Y-3495040D01*
X13491972Y-3555040D01*
X15764764Y-3303580D02*
X15824764Y-3243580D01*
X15764764Y-3183580D01*
X15704764Y-3243580D01*
X15764764Y-3303580D01*
X15764764Y-3557580D02*
X15824764Y-3497580D01*
X15764764Y-3437580D01*
X15704764Y-3497580D01*
X15764764Y-3557580D01*
X16018764Y-3303580D02*
X16078764Y-3243580D01*
X16018764Y-3183580D01*
X15958764Y-3243580D01*
X16018764Y-3303580D01*
X16018764Y-3557580D02*
X16078764Y-3497580D01*
X16018764Y-3437580D01*
X15958764Y-3497580D01*
X16018764Y-3557580D01*
X15258796Y-4822500D02*
X15318796Y-4762500D01*
X15258796Y-4702500D01*
X15198796Y-4762500D01*
X15258796Y-4822500D01*
X15258796Y-5076500D02*
X15318796Y-5016500D01*
X15258796Y-4956500D01*
X15198796Y-5016500D01*
X15258796Y-5076500D01*
X15512796Y-4822500D02*
X15572796Y-4762500D01*
X15512796Y-4702500D01*
X15452796Y-4762500D01*
X15512796Y-4822500D01*
X15512796Y-5076500D02*
X15572796Y-5016500D01*
X15512796Y-4956500D01*
X15452796Y-5016500D01*
X15512796Y-5076500D01*
X11214100Y-4311452D02*
X11274100Y-4251452D01*
X11214100Y-4191452D01*
X11154100Y-4251452D01*
X11214100Y-4311452D01*
X11214100Y-4565452D02*
X11274100Y-4505452D01*
X11214100Y-4445452D01*
X11154100Y-4505452D01*
X11214100Y-4565452D01*
X11468100Y-4311452D02*
X11528100Y-4251452D01*
X11468100Y-4191452D01*
X11408100Y-4251452D01*
X11468100Y-4311452D01*
X11468100Y-4565452D02*
X11528100Y-4505452D01*
X11468100Y-4445452D01*
X11408100Y-4505452D01*
X11468100Y-4565452D01*
X17279620Y-4319072D02*
X17339620Y-4259072D01*
X17279620Y-4199072D01*
X17219620Y-4259072D01*
X17279620Y-4319072D01*
X17279620Y-4573072D02*
X17339620Y-4513072D01*
X17279620Y-4453072D01*
X17219620Y-4513072D01*
X17279620Y-4573072D01*
X17533620Y-4319072D02*
X17593620Y-4259072D01*
X17533620Y-4199072D01*
X17473620Y-4259072D01*
X17533620Y-4319072D01*
X17533620Y-4573072D02*
X17593620Y-4513072D01*
X17533620Y-4453072D01*
X17473620Y-4513072D01*
X17533620Y-4573072D01*
X16271240Y-4318056D02*
X16331240Y-4258056D01*
X16271240Y-4198056D01*
X16211240Y-4258056D01*
X16271240Y-4318056D01*
X16271240Y-4572056D02*
X16331240Y-4512056D01*
X16271240Y-4452056D01*
X16211240Y-4512056D01*
X16271240Y-4572056D01*
X16525240Y-4318056D02*
X16585240Y-4258056D01*
X16525240Y-4198056D01*
X16465240Y-4258056D01*
X16525240Y-4318056D01*
X16525240Y-4572056D02*
X16585240Y-4512056D01*
X16525240Y-4452056D01*
X16465240Y-4512056D01*
X16525240Y-4572056D01*
X10198100Y-4815388D02*
X10258100Y-4755388D01*
X10198100Y-4695388D01*
X10138100Y-4755388D01*
X10198100Y-4815388D01*
X10198100Y-5069388D02*
X10258100Y-5009388D01*
X10198100Y-4949388D01*
X10138100Y-5009388D01*
X10198100Y-5069388D01*
X10452100Y-4815388D02*
X10512100Y-4755388D01*
X10452100Y-4695388D01*
X10392100Y-4755388D01*
X10452100Y-4815388D01*
X10452100Y-5069388D02*
X10512100Y-5009388D01*
X10452100Y-4949388D01*
X10392100Y-5009388D01*
X10452100Y-5069388D01*
X10202308Y-7349310D02*
X10262308Y-7289310D01*
X10202308Y-7229310D01*
X10142308Y-7289310D01*
X10202308Y-7349310D01*
X10202308Y-7603310D02*
X10262308Y-7543310D01*
X10202308Y-7483310D01*
X10142308Y-7543310D01*
X10202308Y-7603310D01*
X10456308Y-7349310D02*
X10516308Y-7289310D01*
X10456308Y-7229310D01*
X10396308Y-7289310D01*
X10456308Y-7349310D01*
X10456308Y-7603310D02*
X10516308Y-7543310D01*
X10456308Y-7483310D01*
X10396308Y-7543310D01*
X10456308Y-7603310D01*
X10197592Y-3802944D02*
X10257592Y-3742944D01*
X10197592Y-3682944D01*
X10137592Y-3742944D01*
X10197592Y-3802944D01*
X10197592Y-4056944D02*
X10257592Y-3996944D01*
X10197592Y-3936944D01*
X10137592Y-3996944D01*
X10197592Y-4056944D01*
X10451592Y-3802944D02*
X10511592Y-3742944D01*
X10451592Y-3682944D01*
X10391592Y-3742944D01*
X10451592Y-3802944D01*
X10451592Y-4056944D02*
X10511592Y-3996944D01*
X10451592Y-3936944D01*
X10391592Y-3996944D01*
X10451592Y-4056944D01*
X9693656Y-3294436D02*
X9753656Y-3234436D01*
X9693656Y-3174436D01*
X9633656Y-3234436D01*
X9693656Y-3294436D01*
X9693656Y-3548436D02*
X9753656Y-3488436D01*
X9693656Y-3428436D01*
X9633656Y-3488436D01*
X9693656Y-3548436D01*
X9947656Y-3294436D02*
X10007656Y-3234436D01*
X9947656Y-3174436D01*
X9887656Y-3234436D01*
X9947656Y-3294436D01*
X9947656Y-3548436D02*
X10007656Y-3488436D01*
X9947656Y-3428436D01*
X9887656Y-3488436D01*
X9947656Y-3548436D01*
X17279112Y-3306628D02*
X17339112Y-3246628D01*
X17279112Y-3186628D01*
X17219112Y-3246628D01*
X17279112Y-3306628D01*
X17279112Y-3560628D02*
X17339112Y-3500628D01*
X17279112Y-3440628D01*
X17219112Y-3500628D01*
X17279112Y-3560628D01*
X17533112Y-3306628D02*
X17593112Y-3246628D01*
X17533112Y-3186628D01*
X17473112Y-3246628D01*
X17533112Y-3306628D01*
X17533112Y-3560628D02*
X17593112Y-3500628D01*
X17533112Y-3440628D01*
X17473112Y-3500628D01*
X17533112Y-3560628D01*
X16774668Y-3306628D02*
X16834668Y-3246628D01*
X16774668Y-3186628D01*
X16714668Y-3246628D01*
X16774668Y-3306628D01*
X16774668Y-3560628D02*
X16834668Y-3500628D01*
X16774668Y-3440628D01*
X16714668Y-3500628D01*
X16774668Y-3560628D01*
X17028668Y-3306628D02*
X17088668Y-3246628D01*
X17028668Y-3186628D01*
X16968668Y-3246628D01*
X17028668Y-3306628D01*
X17028668Y-3560628D02*
X17088668Y-3500628D01*
X17028668Y-3440628D01*
X16968668Y-3500628D01*
X17028668Y-3560628D01*
X12732512Y-4311452D02*
X12792512Y-4251452D01*
X12732512Y-4191452D01*
X12672512Y-4251452D01*
X12732512Y-4311452D01*
X12732512Y-4565452D02*
X12792512Y-4505452D01*
X12732512Y-4445452D01*
X12672512Y-4505452D01*
X12732512Y-4565452D01*
X12986512Y-4311452D02*
X13046512Y-4251452D01*
X12986512Y-4191452D01*
X12926512Y-4251452D01*
X12986512Y-4311452D01*
X12986512Y-4565452D02*
X13046512Y-4505452D01*
X12986512Y-4445452D01*
X12926512Y-4505452D01*
X12986512Y-4565452D01*
X11719560Y-3301040D02*
X11779560Y-3241040D01*
X11719560Y-3181040D01*
X11659560Y-3241040D01*
X11719560Y-3301040D01*
X11719560Y-3555040D02*
X11779560Y-3495040D01*
X11719560Y-3435040D01*
X11659560Y-3495040D01*
X11719560Y-3555040D01*
X11973560Y-3301040D02*
X12033560Y-3241040D01*
X11973560Y-3181040D01*
X11913560Y-3241040D01*
X11973560Y-3301040D01*
X11973560Y-3555040D02*
X12033560Y-3495040D01*
X11973560Y-3435040D01*
X11913560Y-3495040D01*
X11973560Y-3555040D01*
X16773144Y-4825548D02*
X16833144Y-4765548D01*
X16773144Y-4705548D01*
X16713144Y-4765548D01*
X16773144Y-4825548D01*
X16773144Y-5079548D02*
X16833144Y-5019548D01*
X16773144Y-4959548D01*
X16713144Y-5019548D01*
X16773144Y-5079548D01*
X17027144Y-4825548D02*
X17087144Y-4765548D01*
X17027144Y-4705548D01*
X16967144Y-4765548D01*
X17027144Y-4825548D01*
X17027144Y-5079548D02*
X17087144Y-5019548D01*
X17027144Y-4959548D01*
X16967144Y-5019548D01*
X17027144Y-5079548D01*
X16775176Y-4319072D02*
X16835176Y-4259072D01*
X16775176Y-4199072D01*
X16715176Y-4259072D01*
X16775176Y-4319072D01*
X16775176Y-4573072D02*
X16835176Y-4513072D01*
X16775176Y-4453072D01*
X16715176Y-4513072D01*
X16775176Y-4573072D01*
X17029176Y-4319072D02*
X17089176Y-4259072D01*
X17029176Y-4199072D01*
X16969176Y-4259072D01*
X17029176Y-4319072D01*
X17029176Y-4573072D02*
X17089176Y-4513072D01*
X17029176Y-4453072D01*
X16969176Y-4513072D01*
X17029176Y-4573072D01*
X8679180Y-3801928D02*
X8739180Y-3741928D01*
X8679180Y-3681928D01*
X8619180Y-3741928D01*
X8679180Y-3801928D01*
X8679180Y-4055928D02*
X8739180Y-3995928D01*
X8679180Y-3935928D01*
X8619180Y-3995928D01*
X8679180Y-4055928D01*
X8933180Y-3801928D02*
X8993180Y-3741928D01*
X8933180Y-3681928D01*
X8873180Y-3741928D01*
X8933180Y-3801928D01*
X8933180Y-4055928D02*
X8993180Y-3995928D01*
X8933180Y-3935928D01*
X8873180Y-3995928D01*
X8933180Y-4055928D01*
X14248384Y-4313484D02*
X14308384Y-4253484D01*
X14248384Y-4193484D01*
X14188384Y-4253484D01*
X14248384Y-4313484D01*
X14248384Y-4567484D02*
X14308384Y-4507484D01*
X14248384Y-4447484D01*
X14188384Y-4507484D01*
X14248384Y-4567484D01*
X14502384Y-4313484D02*
X14562384Y-4253484D01*
X14502384Y-4193484D01*
X14442384Y-4253484D01*
X14502384Y-4313484D01*
X14502384Y-4567484D02*
X14562384Y-4507484D01*
X14502384Y-4447484D01*
X14442384Y-4507484D01*
X14502384Y-4567484D01*
X17783556Y-4827580D02*
X17843556Y-4767580D01*
X17783556Y-4707580D01*
X17723556Y-4767580D01*
X17783556Y-4827580D01*
X17783556Y-5081580D02*
X17843556Y-5021580D01*
X17783556Y-4961580D01*
X17723556Y-5021580D01*
X17783556Y-5081580D01*
X18037556Y-4827580D02*
X18097556Y-4767580D01*
X18037556Y-4707580D01*
X17977556Y-4767580D01*
X18037556Y-4827580D01*
X18037556Y-5081580D02*
X18097556Y-5021580D01*
X18037556Y-4961580D01*
X17977556Y-5021580D01*
X18037556Y-5081580D01*
X14245844Y-3807516D02*
X14305844Y-3747516D01*
X14245844Y-3687516D01*
X14185844Y-3747516D01*
X14245844Y-3807516D01*
X14245844Y-4061516D02*
X14305844Y-4001516D01*
X14245844Y-3941516D01*
X14185844Y-4001516D01*
X14245844Y-4061516D01*
X14499844Y-3807516D02*
X14559844Y-3747516D01*
X14499844Y-3687516D01*
X14439844Y-3747516D01*
X14499844Y-3807516D01*
X14499844Y-4061516D02*
X14559844Y-4001516D01*
X14499844Y-3941516D01*
X14439844Y-4001516D01*
X14499844Y-4061516D01*
X15258288Y-3810056D02*
X15318288Y-3750056D01*
X15258288Y-3690056D01*
X15198288Y-3750056D01*
X15258288Y-3810056D01*
X15258288Y-4064056D02*
X15318288Y-4004056D01*
X15258288Y-3944056D01*
X15198288Y-4004056D01*
X15258288Y-4064056D01*
X15512288Y-3810056D02*
X15572288Y-3750056D01*
X15512288Y-3690056D01*
X15452288Y-3750056D01*
X15512288Y-3810056D01*
X15512288Y-4064056D02*
X15572288Y-4004056D01*
X15512288Y-3944056D01*
X15452288Y-4004056D01*
X15512288Y-4064056D01*
X10199768Y-6843342D02*
X10259768Y-6783342D01*
X10199768Y-6723342D01*
X10139768Y-6783342D01*
X10199768Y-6843342D01*
X10199768Y-7097342D02*
X10259768Y-7037342D01*
X10199768Y-6977342D01*
X10139768Y-7037342D01*
X10199768Y-7097342D01*
X10453768Y-6843342D02*
X10513768Y-6783342D01*
X10453768Y-6723342D01*
X10393768Y-6783342D01*
X10453768Y-6843342D01*
X10453768Y-7097342D02*
X10513768Y-7037342D01*
X10453768Y-6977342D01*
X10393768Y-7037342D01*
X10453768Y-7097342D01*
X9187180Y-3800912D02*
X9247180Y-3740912D01*
X9187180Y-3680912D01*
X9127180Y-3740912D01*
X9187180Y-3800912D01*
X9187180Y-4054912D02*
X9247180Y-3994912D01*
X9187180Y-3934912D01*
X9127180Y-3994912D01*
X9187180Y-4054912D01*
X9441180Y-3800912D02*
X9501180Y-3740912D01*
X9441180Y-3680912D01*
X9381180Y-3740912D01*
X9441180Y-3800912D01*
X9441180Y-4054912D02*
X9501180Y-3994912D01*
X9441180Y-3934912D01*
X9381180Y-3994912D01*
X9441180Y-4054912D01*
X12228068Y-4311452D02*
X12288068Y-4251452D01*
X12228068Y-4191452D01*
X12168068Y-4251452D01*
X12228068Y-4311452D01*
X12228068Y-4565452D02*
X12288068Y-4505452D01*
X12228068Y-4445452D01*
X12168068Y-4505452D01*
X12228068Y-4565452D01*
X12482068Y-4311452D02*
X12542068Y-4251452D01*
X12482068Y-4191452D01*
X12422068Y-4251452D01*
X12482068Y-4311452D01*
X12482068Y-4565452D02*
X12542068Y-4505452D01*
X12482068Y-4445452D01*
X12422068Y-4505452D01*
X12482068Y-4565452D01*
X13743432Y-3301040D02*
X13803432Y-3241040D01*
X13743432Y-3181040D01*
X13683432Y-3241040D01*
X13743432Y-3301040D01*
X13743432Y-3555040D02*
X13803432Y-3495040D01*
X13743432Y-3435040D01*
X13683432Y-3495040D01*
X13743432Y-3555040D01*
X13997432Y-3301040D02*
X14057432Y-3241040D01*
X13997432Y-3181040D01*
X13937432Y-3241040D01*
X13997432Y-3301040D01*
X13997432Y-3555040D02*
X14057432Y-3495040D01*
X13997432Y-3435040D01*
X13937432Y-3495040D01*
X13997432Y-3555040D01*
X10196068Y-6327704D02*
X10256068Y-6267704D01*
X10196068Y-6207704D01*
X10136068Y-6267704D01*
X10196068Y-6327704D01*
X10196068Y-6581704D02*
X10256068Y-6521704D01*
X10196068Y-6461704D01*
X10136068Y-6521704D01*
X10196068Y-6581704D01*
X10450068Y-6327704D02*
X10510068Y-6267704D01*
X10450068Y-6207704D01*
X10390068Y-6267704D01*
X10450068Y-6327704D01*
X10450068Y-6581704D02*
X10510068Y-6521704D01*
X10450068Y-6461704D01*
X10390068Y-6521704D01*
X10450068Y-6581704D01*
X12227560Y-3299008D02*
X12287560Y-3239008D01*
X12227560Y-3179008D01*
X12167560Y-3239008D01*
X12227560Y-3299008D01*
X12227560Y-3553008D02*
X12287560Y-3493008D01*
X12227560Y-3433008D01*
X12167560Y-3493008D01*
X12227560Y-3553008D01*
X12481560Y-3299008D02*
X12541560Y-3239008D01*
X12481560Y-3179008D01*
X12421560Y-3239008D01*
X12481560Y-3299008D01*
X12481560Y-3553008D02*
X12541560Y-3493008D01*
X12481560Y-3433008D01*
X12421560Y-3493008D01*
X12481560Y-3553008D01*
X8677656Y-6326688D02*
X8737656Y-6266688D01*
X8677656Y-6206688D01*
X8617656Y-6266688D01*
X8677656Y-6326688D01*
X8677656Y-6580688D02*
X8737656Y-6520688D01*
X8677656Y-6460688D01*
X8617656Y-6520688D01*
X8677656Y-6580688D01*
X8931656Y-6326688D02*
X8991656Y-6266688D01*
X8931656Y-6206688D01*
X8871656Y-6266688D01*
X8931656Y-6326688D01*
X8931656Y-6580688D02*
X8991656Y-6520688D01*
X8931656Y-6460688D01*
X8871656Y-6520688D01*
X8931656Y-6580688D01*
X14753844Y-3303072D02*
X14813844Y-3243072D01*
X14753844Y-3183072D01*
X14693844Y-3243072D01*
X14753844Y-3303072D01*
X14753844Y-3557072D02*
X14813844Y-3497072D01*
X14753844Y-3437072D01*
X14693844Y-3497072D01*
X14753844Y-3557072D01*
X15007844Y-3303072D02*
X15067844Y-3243072D01*
X15007844Y-3183072D01*
X14947844Y-3243072D01*
X15007844Y-3303072D01*
X15007844Y-3557072D02*
X15067844Y-3497072D01*
X15007844Y-3437072D01*
X14947844Y-3497072D01*
X15007844Y-3557072D01*
X8681720Y-4307896D02*
X8741720Y-4247896D01*
X8681720Y-4187896D01*
X8621720Y-4247896D01*
X8681720Y-4307896D01*
X8681720Y-4561896D02*
X8741720Y-4501896D01*
X8681720Y-4441896D01*
X8621720Y-4501896D01*
X8681720Y-4561896D01*
X8935720Y-4307896D02*
X8995720Y-4247896D01*
X8935720Y-4187896D01*
X8875720Y-4247896D01*
X8935720Y-4307896D01*
X8935720Y-4561896D02*
X8995720Y-4501896D01*
X8935720Y-4441896D01*
X8875720Y-4501896D01*
X8935720Y-4561896D01*
X11720068Y-4313484D02*
X11780068Y-4253484D01*
X11720068Y-4193484D01*
X11660068Y-4253484D01*
X11720068Y-4313484D01*
X11720068Y-4567484D02*
X11780068Y-4507484D01*
X11720068Y-4447484D01*
X11660068Y-4507484D01*
X11720068Y-4567484D01*
X11974068Y-4313484D02*
X12034068Y-4253484D01*
X11974068Y-4193484D01*
X11914068Y-4253484D01*
X11974068Y-4313484D01*
X11974068Y-4567484D02*
X12034068Y-4507484D01*
X11974068Y-4447484D01*
X11914068Y-4507484D01*
X11974068Y-4567484D01*
X14751812Y-3809548D02*
X14811812Y-3749548D01*
X14751812Y-3689548D01*
X14691812Y-3749548D01*
X14751812Y-3809548D01*
X14751812Y-4063548D02*
X14811812Y-4003548D01*
X14751812Y-3943548D01*
X14691812Y-4003548D01*
X14751812Y-4063548D01*
X15005812Y-3809548D02*
X15065812Y-3749548D01*
X15005812Y-3689548D01*
X14945812Y-3749548D01*
X15005812Y-3809548D01*
X15005812Y-4063548D02*
X15065812Y-4003548D01*
X15005812Y-3943548D01*
X14945812Y-4003548D01*
X15005812Y-4063548D01*
X10707624Y-4817928D02*
X10767624Y-4757928D01*
X10707624Y-4697928D01*
X10647624Y-4757928D01*
X10707624Y-4817928D01*
X10707624Y-5071928D02*
X10767624Y-5011928D01*
X10707624Y-4951928D01*
X10647624Y-5011928D01*
X10707624Y-5071928D01*
X10961624Y-4817928D02*
X11021624Y-4757928D01*
X10961624Y-4697928D01*
X10901624Y-4757928D01*
X10961624Y-4817928D01*
X10961624Y-5071928D02*
X11021624Y-5011928D01*
X10961624Y-4951928D01*
X10901624Y-5011928D01*
X10961624Y-5071928D01*
X9692132Y-4813356D02*
X9752132Y-4753356D01*
X9692132Y-4693356D01*
X9632132Y-4753356D01*
X9692132Y-4813356D01*
X9692132Y-5067356D02*
X9752132Y-5007356D01*
X9692132Y-4947356D01*
X9632132Y-5007356D01*
X9692132Y-5067356D01*
X9946132Y-4813356D02*
X10006132Y-4753356D01*
X9946132Y-4693356D01*
X9886132Y-4753356D01*
X9946132Y-4813356D01*
X9946132Y-5067356D02*
X10006132Y-5007356D01*
X9946132Y-4947356D01*
X9886132Y-5007356D01*
X9946132Y-5067356D01*
X11718036Y-4819960D02*
X11778036Y-4759960D01*
X11718036Y-4699960D01*
X11658036Y-4759960D01*
X11718036Y-4819960D01*
X11718036Y-5073960D02*
X11778036Y-5013960D01*
X11718036Y-4953960D01*
X11658036Y-5013960D01*
X11718036Y-5073960D01*
X11972036Y-4819960D02*
X12032036Y-4759960D01*
X11972036Y-4699960D01*
X11912036Y-4759960D01*
X11972036Y-4819960D01*
X11972036Y-5073960D02*
X12032036Y-5013960D01*
X11972036Y-4953960D01*
X11912036Y-5013960D01*
X11972036Y-5073960D01*
X17783048Y-3815136D02*
X17843048Y-3755136D01*
X17783048Y-3695136D01*
X17723048Y-3755136D01*
X17783048Y-3815136D01*
X17783048Y-4069136D02*
X17843048Y-4009136D01*
X17783048Y-3949136D01*
X17723048Y-4009136D01*
X17783048Y-4069136D01*
X18037048Y-3815136D02*
X18097048Y-3755136D01*
X18037048Y-3695136D01*
X17977048Y-3755136D01*
X18037048Y-3815136D01*
X18037048Y-4069136D02*
X18097048Y-4009136D01*
X18037048Y-3949136D01*
X17977048Y-4009136D01*
X18037048Y-4069136D01*
X17277080Y-3813104D02*
X17337080Y-3753104D01*
X17277080Y-3693104D01*
X17217080Y-3753104D01*
X17277080Y-3813104D01*
X17277080Y-4067104D02*
X17337080Y-4007104D01*
X17277080Y-3947104D01*
X17217080Y-4007104D01*
X17277080Y-4067104D01*
X17531080Y-3813104D02*
X17591080Y-3753104D01*
X17531080Y-3693104D01*
X17471080Y-3753104D01*
X17531080Y-3813104D01*
X17531080Y-4067104D02*
X17591080Y-4007104D01*
X17531080Y-3947104D01*
X17471080Y-4007104D01*
X17531080Y-4067104D01*
X16270732Y-3305612D02*
X16330732Y-3245612D01*
X16270732Y-3185612D01*
X16210732Y-3245612D01*
X16270732Y-3305612D01*
X16270732Y-3559612D02*
X16330732Y-3499612D01*
X16270732Y-3439612D01*
X16210732Y-3499612D01*
X16270732Y-3559612D01*
X16524732Y-3305612D02*
X16584732Y-3245612D01*
X16524732Y-3185612D01*
X16464732Y-3245612D01*
X16524732Y-3305612D01*
X16524732Y-3559612D02*
X16584732Y-3499612D01*
X16524732Y-3439612D01*
X16464732Y-3499612D01*
X16524732Y-3559612D01*
X11213592Y-3299008D02*
X11273592Y-3239008D01*
X11213592Y-3179008D01*
X11153592Y-3239008D01*
X11213592Y-3299008D01*
X11213592Y-3553008D02*
X11273592Y-3493008D01*
X11213592Y-3433008D01*
X11153592Y-3493008D01*
X11213592Y-3553008D01*
X11467592Y-3299008D02*
X11527592Y-3239008D01*
X11467592Y-3179008D01*
X11407592Y-3239008D01*
X11467592Y-3299008D01*
X11467592Y-3553008D02*
X11527592Y-3493008D01*
X11467592Y-3433008D01*
X11407592Y-3493008D01*
X11467592Y-3553008D01*
X10709148Y-3299008D02*
X10769148Y-3239008D01*
X10709148Y-3179008D01*
X10649148Y-3239008D01*
X10709148Y-3299008D01*
X10709148Y-3553008D02*
X10769148Y-3493008D01*
X10709148Y-3433008D01*
X10649148Y-3493008D01*
X10709148Y-3553008D01*
X10963148Y-3299008D02*
X11023148Y-3239008D01*
X10963148Y-3179008D01*
X10903148Y-3239008D01*
X10963148Y-3299008D01*
X10963148Y-3553008D02*
X11023148Y-3493008D01*
X10963148Y-3433008D01*
X10903148Y-3493008D01*
X10963148Y-3553008D01*
X8677148Y-5314244D02*
X8737148Y-5254244D01*
X8677148Y-5194244D01*
X8617148Y-5254244D01*
X8677148Y-5314244D01*
X8677148Y-5568244D02*
X8737148Y-5508244D01*
X8677148Y-5448244D01*
X8617148Y-5508244D01*
X8677148Y-5568244D01*
X8931148Y-5314244D02*
X8991148Y-5254244D01*
X8931148Y-5194244D01*
X8871148Y-5254244D01*
X8931148Y-5314244D01*
X8931148Y-5568244D02*
X8991148Y-5508244D01*
X8931148Y-5448244D01*
X8871148Y-5508244D01*
X8931148Y-5568244D01*
D12*
X8488128Y-9942414D02*
X8488128Y-9642414D01*
X8559557Y-9642414D01*
X8602414Y-9656700D01*
X8630986Y-9685272D01*
X8645271Y-9713843D01*
X8659557Y-9770986D01*
X8659557Y-9813843D01*
X8645271Y-9870986D01*
X8630986Y-9899557D01*
X8602414Y-9928129D01*
X8559557Y-9942414D01*
X8488128Y-9942414D01*
X8788128Y-9942414D02*
X8788128Y-9742414D01*
X8788128Y-9799557D02*
X8802414Y-9770986D01*
X8816700Y-9756700D01*
X8845271Y-9742414D01*
X8873843Y-9742414D01*
X8973843Y-9942414D02*
X8973843Y-9742414D01*
X8973843Y-9642414D02*
X8959557Y-9656700D01*
X8973843Y-9670986D01*
X8988128Y-9656700D01*
X8973843Y-9642414D01*
X8973843Y-9670986D01*
X9159557Y-9942414D02*
X9130986Y-9928129D01*
X9116700Y-9899557D01*
X9116700Y-9642414D01*
X9316700Y-9942414D02*
X9288128Y-9928129D01*
X9273843Y-9899557D01*
X9273843Y-9642414D01*
X9659557Y-9942414D02*
X9659557Y-9642414D01*
X9759557Y-9856700D01*
X9859557Y-9642414D01*
X9859557Y-9942414D01*
X10130986Y-9942414D02*
X10130986Y-9785272D01*
X10116700Y-9756700D01*
X10088128Y-9742414D01*
X10030986Y-9742414D01*
X10002414Y-9756700D01*
X10130986Y-9928129D02*
X10102414Y-9942414D01*
X10030986Y-9942414D01*
X10002414Y-9928129D01*
X9988128Y-9899557D01*
X9988128Y-9870986D01*
X10002414Y-9842414D01*
X10030986Y-9828129D01*
X10102414Y-9828129D01*
X10130986Y-9813843D01*
X10273843Y-9742414D02*
X10273843Y-10042414D01*
X10273843Y-9756700D02*
X10302414Y-9742414D01*
X10359557Y-9742414D01*
X10388128Y-9756700D01*
X10402414Y-9770986D01*
X10416700Y-9799557D01*
X10416700Y-9885272D01*
X10402414Y-9913843D01*
X10388128Y-9928129D01*
X10359557Y-9942414D01*
X10302414Y-9942414D01*
X10273843Y-9928129D01*
X10545271Y-9913843D02*
X10559557Y-9928129D01*
X10545271Y-9942414D01*
X10530986Y-9928129D01*
X10545271Y-9913843D01*
X10545271Y-9942414D01*
X10545271Y-9756700D02*
X10559557Y-9770986D01*
X10545271Y-9785272D01*
X10530986Y-9770986D01*
X10545271Y-9756700D01*
X10545271Y-9785272D01*
X8161700Y-10416700D02*
X8201700Y-10456700D01*
X8201700Y-10416700D02*
X8161700Y-10456700D01*
X8545271Y-10272414D02*
X8573843Y-10272414D01*
X8602414Y-10286700D01*
X8616700Y-10300986D01*
X8630986Y-10329557D01*
X8645271Y-10386700D01*
X8645271Y-10458129D01*
X8630986Y-10515272D01*
X8616700Y-10543843D01*
X8602414Y-10558129D01*
X8573843Y-10572414D01*
X8545271Y-10572414D01*
X8516700Y-10558129D01*
X8502414Y-10543843D01*
X8488128Y-10515272D01*
X8473843Y-10458129D01*
X8473843Y-10386700D01*
X8488128Y-10329557D01*
X8502414Y-10300986D01*
X8516700Y-10286700D01*
X8545271Y-10272414D01*
X8773843Y-10543843D02*
X8788128Y-10558129D01*
X8773843Y-10572414D01*
X8759557Y-10558129D01*
X8773843Y-10543843D01*
X8773843Y-10572414D01*
X9045271Y-10372414D02*
X9045271Y-10572414D01*
X8973843Y-10258129D02*
X8902414Y-10472414D01*
X9088128Y-10472414D01*
X9259557Y-10272414D02*
X9288128Y-10272414D01*
X9316700Y-10286700D01*
X9330986Y-10300986D01*
X9345271Y-10329557D01*
X9359557Y-10386700D01*
X9359557Y-10458129D01*
X9345271Y-10515272D01*
X9330986Y-10543843D01*
X9316700Y-10558129D01*
X9288128Y-10572414D01*
X9259557Y-10572414D01*
X9230986Y-10558129D01*
X9216700Y-10543843D01*
X9202414Y-10515272D01*
X9188128Y-10458129D01*
X9188128Y-10386700D01*
X9202414Y-10329557D01*
X9216700Y-10300986D01*
X9230986Y-10286700D01*
X9259557Y-10272414D01*
X9488128Y-10572414D02*
X9488128Y-10372414D01*
X9488128Y-10400986D02*
X9502414Y-10386700D01*
X9530986Y-10372414D01*
X9573843Y-10372414D01*
X9602414Y-10386700D01*
X9616700Y-10415272D01*
X9616700Y-10572414D01*
X9616700Y-10415272D02*
X9630986Y-10386700D01*
X9659557Y-10372414D01*
X9702414Y-10372414D01*
X9730986Y-10386700D01*
X9745271Y-10415272D01*
X9745271Y-10572414D01*
X9888128Y-10572414D02*
X9888128Y-10372414D01*
X9888128Y-10400986D02*
X9902414Y-10386700D01*
X9930986Y-10372414D01*
X9973843Y-10372414D01*
X10002414Y-10386700D01*
X10016700Y-10415272D01*
X10016700Y-10572414D01*
X10016700Y-10415272D02*
X10030986Y-10386700D01*
X10059557Y-10372414D01*
X10102414Y-10372414D01*
X10130986Y-10386700D01*
X10145271Y-10415272D01*
X10145271Y-10572414D01*
X10730986Y-10258129D02*
X10473843Y-10643843D01*
X11116700Y-10272414D02*
X11145271Y-10272414D01*
X11173843Y-10286700D01*
X11188128Y-10300986D01*
X11202414Y-10329557D01*
X11216700Y-10386700D01*
X11216700Y-10458129D01*
X11202414Y-10515272D01*
X11188128Y-10543843D01*
X11173843Y-10558129D01*
X11145271Y-10572414D01*
X11116700Y-10572414D01*
X11088128Y-10558129D01*
X11073843Y-10543843D01*
X11059557Y-10515272D01*
X11045271Y-10458129D01*
X11045271Y-10386700D01*
X11059557Y-10329557D01*
X11073843Y-10300986D01*
X11088128Y-10286700D01*
X11116700Y-10272414D01*
X11345271Y-10543843D02*
X11359557Y-10558129D01*
X11345271Y-10572414D01*
X11330986Y-10558129D01*
X11345271Y-10543843D01*
X11345271Y-10572414D01*
X11545271Y-10272414D02*
X11573843Y-10272414D01*
X11602414Y-10286700D01*
X11616700Y-10300986D01*
X11630986Y-10329557D01*
X11645271Y-10386700D01*
X11645271Y-10458129D01*
X11630986Y-10515272D01*
X11616700Y-10543843D01*
X11602414Y-10558129D01*
X11573843Y-10572414D01*
X11545271Y-10572414D01*
X11516700Y-10558129D01*
X11502414Y-10543843D01*
X11488128Y-10515272D01*
X11473843Y-10458129D01*
X11473843Y-10386700D01*
X11488128Y-10329557D01*
X11502414Y-10300986D01*
X11516700Y-10286700D01*
X11545271Y-10272414D01*
X11930986Y-10572414D02*
X11759557Y-10572414D01*
X11845271Y-10572414D02*
X11845271Y-10272414D01*
X11816700Y-10315272D01*
X11788128Y-10343843D01*
X11759557Y-10358129D01*
X12188128Y-10272414D02*
X12130986Y-10272414D01*
X12102414Y-10286700D01*
X12088128Y-10300986D01*
X12059557Y-10343843D01*
X12045271Y-10400986D01*
X12045271Y-10515272D01*
X12059557Y-10543843D01*
X12073843Y-10558129D01*
X12102414Y-10572414D01*
X12159557Y-10572414D01*
X12188128Y-10558129D01*
X12202414Y-10543843D01*
X12216700Y-10515272D01*
X12216700Y-10443843D01*
X12202414Y-10415272D01*
X12188128Y-10400986D01*
X12159557Y-10386700D01*
X12102414Y-10386700D01*
X12073843Y-10400986D01*
X12059557Y-10415272D01*
X12045271Y-10443843D01*
X12330986Y-10272414D02*
X12330986Y-10329557D01*
X12445271Y-10272414D02*
X12445271Y-10329557D01*
X12888128Y-10686700D02*
X12873843Y-10672414D01*
X12845271Y-10629557D01*
X12830986Y-10600986D01*
X12816700Y-10558129D01*
X12802414Y-10486700D01*
X12802414Y-10429557D01*
X12816700Y-10358129D01*
X12830986Y-10315272D01*
X12845271Y-10286700D01*
X12873843Y-10243843D01*
X12888128Y-10229557D01*
X12973843Y-10272414D02*
X13159557Y-10272414D01*
X13059557Y-10386700D01*
X13102414Y-10386700D01*
X13130986Y-10400986D01*
X13145271Y-10415272D01*
X13159557Y-10443843D01*
X13159557Y-10515272D01*
X13145271Y-10543843D01*
X13130986Y-10558129D01*
X13102414Y-10572414D01*
X13016700Y-10572414D01*
X12988128Y-10558129D01*
X12973843Y-10543843D01*
X13273843Y-10300986D02*
X13288128Y-10286700D01*
X13316700Y-10272414D01*
X13388128Y-10272414D01*
X13416700Y-10286700D01*
X13430986Y-10300986D01*
X13445271Y-10329557D01*
X13445271Y-10358129D01*
X13430986Y-10400986D01*
X13259557Y-10572414D01*
X13445271Y-10572414D01*
X13802414Y-10572414D02*
X13802414Y-10272414D01*
X13930986Y-10572414D02*
X13930986Y-10415272D01*
X13916700Y-10386700D01*
X13888128Y-10372414D01*
X13845271Y-10372414D01*
X13816700Y-10386700D01*
X13802414Y-10400986D01*
X14116700Y-10572414D02*
X14088128Y-10558129D01*
X14073843Y-10543843D01*
X14059557Y-10515272D01*
X14059557Y-10429557D01*
X14073843Y-10400986D01*
X14088128Y-10386700D01*
X14116700Y-10372414D01*
X14159557Y-10372414D01*
X14188128Y-10386700D01*
X14202414Y-10400986D01*
X14216700Y-10429557D01*
X14216700Y-10515272D01*
X14202414Y-10543843D01*
X14188128Y-10558129D01*
X14159557Y-10572414D01*
X14116700Y-10572414D01*
X14388128Y-10572414D02*
X14359557Y-10558129D01*
X14345271Y-10529557D01*
X14345271Y-10272414D01*
X14616700Y-10558129D02*
X14588128Y-10572414D01*
X14530986Y-10572414D01*
X14502414Y-10558129D01*
X14488128Y-10529557D01*
X14488128Y-10415272D01*
X14502414Y-10386700D01*
X14530986Y-10372414D01*
X14588128Y-10372414D01*
X14616700Y-10386700D01*
X14630986Y-10415272D01*
X14630986Y-10443843D01*
X14488128Y-10472414D01*
X14745271Y-10558129D02*
X14773843Y-10572414D01*
X14830986Y-10572414D01*
X14859557Y-10558129D01*
X14873843Y-10529557D01*
X14873843Y-10515272D01*
X14859557Y-10486700D01*
X14830986Y-10472414D01*
X14788128Y-10472414D01*
X14759557Y-10458129D01*
X14745271Y-10429557D01*
X14745271Y-10415272D01*
X14759557Y-10386700D01*
X14788128Y-10372414D01*
X14830986Y-10372414D01*
X14859557Y-10386700D01*
X14973843Y-10686700D02*
X14988128Y-10672414D01*
X15016700Y-10629557D01*
X15030986Y-10600986D01*
X15045271Y-10558129D01*
X15059557Y-10486700D01*
X15059557Y-10429557D01*
X15045271Y-10358129D01*
X15030986Y-10315272D01*
X15016700Y-10286700D01*
X14988128Y-10243843D01*
X14973843Y-10229557D01*
X8201700Y-10832700D02*
G75*
G03X8201700Y-10832700I-40000J0D01*
G01*
X8545271Y-10668414D02*
X8573843Y-10668414D01*
X8602414Y-10682700D01*
X8616700Y-10696986D01*
X8630986Y-10725557D01*
X8645271Y-10782700D01*
X8645271Y-10854129D01*
X8630986Y-10911272D01*
X8616700Y-10939843D01*
X8602414Y-10954129D01*
X8573843Y-10968414D01*
X8545271Y-10968414D01*
X8516700Y-10954129D01*
X8502414Y-10939843D01*
X8488128Y-10911272D01*
X8473843Y-10854129D01*
X8473843Y-10782700D01*
X8488128Y-10725557D01*
X8502414Y-10696986D01*
X8516700Y-10682700D01*
X8545271Y-10668414D01*
X8773843Y-10939843D02*
X8788128Y-10954129D01*
X8773843Y-10968414D01*
X8759557Y-10954129D01*
X8773843Y-10939843D01*
X8773843Y-10968414D01*
X8959557Y-10796986D02*
X8930986Y-10782700D01*
X8916700Y-10768414D01*
X8902414Y-10739843D01*
X8902414Y-10725557D01*
X8916700Y-10696986D01*
X8930986Y-10682700D01*
X8959557Y-10668414D01*
X9016700Y-10668414D01*
X9045271Y-10682700D01*
X9059557Y-10696986D01*
X9073843Y-10725557D01*
X9073843Y-10739843D01*
X9059557Y-10768414D01*
X9045271Y-10782700D01*
X9016700Y-10796986D01*
X8959557Y-10796986D01*
X8930986Y-10811272D01*
X8916700Y-10825557D01*
X8902414Y-10854129D01*
X8902414Y-10911272D01*
X8916700Y-10939843D01*
X8930986Y-10954129D01*
X8959557Y-10968414D01*
X9016700Y-10968414D01*
X9045271Y-10954129D01*
X9059557Y-10939843D01*
X9073843Y-10911272D01*
X9073843Y-10854129D01*
X9059557Y-10825557D01*
X9045271Y-10811272D01*
X9016700Y-10796986D01*
X9259557Y-10668414D02*
X9288128Y-10668414D01*
X9316700Y-10682700D01*
X9330986Y-10696986D01*
X9345271Y-10725557D01*
X9359557Y-10782700D01*
X9359557Y-10854129D01*
X9345271Y-10911272D01*
X9330986Y-10939843D01*
X9316700Y-10954129D01*
X9288128Y-10968414D01*
X9259557Y-10968414D01*
X9230986Y-10954129D01*
X9216700Y-10939843D01*
X9202414Y-10911272D01*
X9188128Y-10854129D01*
X9188128Y-10782700D01*
X9202414Y-10725557D01*
X9216700Y-10696986D01*
X9230986Y-10682700D01*
X9259557Y-10668414D01*
X9488128Y-10968414D02*
X9488128Y-10768414D01*
X9488128Y-10796986D02*
X9502414Y-10782700D01*
X9530986Y-10768414D01*
X9573843Y-10768414D01*
X9602414Y-10782700D01*
X9616700Y-10811272D01*
X9616700Y-10968414D01*
X9616700Y-10811272D02*
X9630986Y-10782700D01*
X9659557Y-10768414D01*
X9702414Y-10768414D01*
X9730986Y-10782700D01*
X9745271Y-10811272D01*
X9745271Y-10968414D01*
X9888128Y-10968414D02*
X9888128Y-10768414D01*
X9888128Y-10796986D02*
X9902414Y-10782700D01*
X9930986Y-10768414D01*
X9973843Y-10768414D01*
X10002414Y-10782700D01*
X10016700Y-10811272D01*
X10016700Y-10968414D01*
X10016700Y-10811272D02*
X10030986Y-10782700D01*
X10059557Y-10768414D01*
X10102414Y-10768414D01*
X10130986Y-10782700D01*
X10145271Y-10811272D01*
X10145271Y-10968414D01*
X10730986Y-10654129D02*
X10473843Y-11039843D01*
X11116700Y-10668414D02*
X11145271Y-10668414D01*
X11173843Y-10682700D01*
X11188128Y-10696986D01*
X11202414Y-10725557D01*
X11216700Y-10782700D01*
X11216700Y-10854129D01*
X11202414Y-10911272D01*
X11188128Y-10939843D01*
X11173843Y-10954129D01*
X11145271Y-10968414D01*
X11116700Y-10968414D01*
X11088128Y-10954129D01*
X11073843Y-10939843D01*
X11059557Y-10911272D01*
X11045271Y-10854129D01*
X11045271Y-10782700D01*
X11059557Y-10725557D01*
X11073843Y-10696986D01*
X11088128Y-10682700D01*
X11116700Y-10668414D01*
X11345271Y-10939843D02*
X11359557Y-10954129D01*
X11345271Y-10968414D01*
X11330986Y-10954129D01*
X11345271Y-10939843D01*
X11345271Y-10968414D01*
X11545271Y-10668414D02*
X11573843Y-10668414D01*
X11602414Y-10682700D01*
X11616700Y-10696986D01*
X11630986Y-10725557D01*
X11645271Y-10782700D01*
X11645271Y-10854129D01*
X11630986Y-10911272D01*
X11616700Y-10939843D01*
X11602414Y-10954129D01*
X11573843Y-10968414D01*
X11545271Y-10968414D01*
X11516700Y-10954129D01*
X11502414Y-10939843D01*
X11488128Y-10911272D01*
X11473843Y-10854129D01*
X11473843Y-10782700D01*
X11488128Y-10725557D01*
X11502414Y-10696986D01*
X11516700Y-10682700D01*
X11545271Y-10668414D01*
X11745271Y-10668414D02*
X11930986Y-10668414D01*
X11830986Y-10782700D01*
X11873843Y-10782700D01*
X11902414Y-10796986D01*
X11916700Y-10811272D01*
X11930986Y-10839843D01*
X11930986Y-10911272D01*
X11916700Y-10939843D01*
X11902414Y-10954129D01*
X11873843Y-10968414D01*
X11788128Y-10968414D01*
X11759557Y-10954129D01*
X11745271Y-10939843D01*
X12216700Y-10968414D02*
X12045271Y-10968414D01*
X12130986Y-10968414D02*
X12130986Y-10668414D01*
X12102414Y-10711272D01*
X12073843Y-10739843D01*
X12045271Y-10754129D01*
X12330986Y-10668414D02*
X12330986Y-10725557D01*
X12445271Y-10668414D02*
X12445271Y-10725557D01*
X12888128Y-11082700D02*
X12873843Y-11068414D01*
X12845271Y-11025557D01*
X12830986Y-10996986D01*
X12816700Y-10954129D01*
X12802414Y-10882700D01*
X12802414Y-10825557D01*
X12816700Y-10754129D01*
X12830986Y-10711272D01*
X12845271Y-10682700D01*
X12873843Y-10639843D01*
X12888128Y-10625557D01*
X12988128Y-10696986D02*
X13002414Y-10682700D01*
X13030986Y-10668414D01*
X13102414Y-10668414D01*
X13130986Y-10682700D01*
X13145271Y-10696986D01*
X13159557Y-10725557D01*
X13159557Y-10754129D01*
X13145271Y-10796986D01*
X12973843Y-10968414D01*
X13159557Y-10968414D01*
X13516700Y-10968414D02*
X13516700Y-10668414D01*
X13645271Y-10968414D02*
X13645271Y-10811272D01*
X13630986Y-10782700D01*
X13602414Y-10768414D01*
X13559557Y-10768414D01*
X13530986Y-10782700D01*
X13516700Y-10796986D01*
X13830986Y-10968414D02*
X13802414Y-10954129D01*
X13788128Y-10939843D01*
X13773843Y-10911272D01*
X13773843Y-10825557D01*
X13788128Y-10796986D01*
X13802414Y-10782700D01*
X13830986Y-10768414D01*
X13873843Y-10768414D01*
X13902414Y-10782700D01*
X13916700Y-10796986D01*
X13930986Y-10825557D01*
X13930986Y-10911272D01*
X13916700Y-10939843D01*
X13902414Y-10954129D01*
X13873843Y-10968414D01*
X13830986Y-10968414D01*
X14102414Y-10968414D02*
X14073843Y-10954129D01*
X14059557Y-10925557D01*
X14059557Y-10668414D01*
X14330986Y-10954129D02*
X14302414Y-10968414D01*
X14245271Y-10968414D01*
X14216700Y-10954129D01*
X14202414Y-10925557D01*
X14202414Y-10811272D01*
X14216700Y-10782700D01*
X14245271Y-10768414D01*
X14302414Y-10768414D01*
X14330986Y-10782700D01*
X14345271Y-10811272D01*
X14345271Y-10839843D01*
X14202414Y-10868414D01*
X14459557Y-10954129D02*
X14488128Y-10968414D01*
X14545271Y-10968414D01*
X14573843Y-10954129D01*
X14588128Y-10925557D01*
X14588128Y-10911272D01*
X14573843Y-10882700D01*
X14545271Y-10868414D01*
X14502414Y-10868414D01*
X14473843Y-10854129D01*
X14459557Y-10825557D01*
X14459557Y-10811272D01*
X14473843Y-10782700D01*
X14502414Y-10768414D01*
X14545271Y-10768414D01*
X14573843Y-10782700D01*
X14688128Y-11082700D02*
X14702414Y-11068414D01*
X14730986Y-11025557D01*
X14745271Y-10996986D01*
X14759557Y-10954129D01*
X14773843Y-10882700D01*
X14773843Y-10825557D01*
X14759557Y-10754129D01*
X14745271Y-10711272D01*
X14730986Y-10682700D01*
X14702414Y-10639843D01*
X14688128Y-10625557D01*
X8151700Y-11178700D02*
X8151700Y-11278700D01*
X8101700Y-11228700D02*
X8201700Y-11228700D01*
X8645271Y-11364414D02*
X8473843Y-11364414D01*
X8559557Y-11364414D02*
X8559557Y-11064414D01*
X8530986Y-11107272D01*
X8502414Y-11135843D01*
X8473843Y-11150129D01*
X8773843Y-11335843D02*
X8788128Y-11350129D01*
X8773843Y-11364414D01*
X8759557Y-11350129D01*
X8773843Y-11335843D01*
X8773843Y-11364414D01*
X8973843Y-11064414D02*
X9002414Y-11064414D01*
X9030986Y-11078700D01*
X9045271Y-11092986D01*
X9059557Y-11121557D01*
X9073843Y-11178700D01*
X9073843Y-11250129D01*
X9059557Y-11307271D01*
X9045271Y-11335843D01*
X9030986Y-11350129D01*
X9002414Y-11364414D01*
X8973843Y-11364414D01*
X8945271Y-11350129D01*
X8930986Y-11335843D01*
X8916700Y-11307271D01*
X8902414Y-11250129D01*
X8902414Y-11178700D01*
X8916700Y-11121557D01*
X8930986Y-11092986D01*
X8945271Y-11078700D01*
X8973843Y-11064414D01*
X9259557Y-11064414D02*
X9288128Y-11064414D01*
X9316700Y-11078700D01*
X9330986Y-11092986D01*
X9345271Y-11121557D01*
X9359557Y-11178700D01*
X9359557Y-11250129D01*
X9345271Y-11307271D01*
X9330986Y-11335843D01*
X9316700Y-11350129D01*
X9288128Y-11364414D01*
X9259557Y-11364414D01*
X9230986Y-11350129D01*
X9216700Y-11335843D01*
X9202414Y-11307271D01*
X9188128Y-11250129D01*
X9188128Y-11178700D01*
X9202414Y-11121557D01*
X9216700Y-11092986D01*
X9230986Y-11078700D01*
X9259557Y-11064414D01*
X9488128Y-11364414D02*
X9488128Y-11164414D01*
X9488128Y-11192986D02*
X9502414Y-11178700D01*
X9530986Y-11164414D01*
X9573843Y-11164414D01*
X9602414Y-11178700D01*
X9616700Y-11207271D01*
X9616700Y-11364414D01*
X9616700Y-11207271D02*
X9630986Y-11178700D01*
X9659557Y-11164414D01*
X9702414Y-11164414D01*
X9730986Y-11178700D01*
X9745271Y-11207271D01*
X9745271Y-11364414D01*
X9888128Y-11364414D02*
X9888128Y-11164414D01*
X9888128Y-11192986D02*
X9902414Y-11178700D01*
X9930986Y-11164414D01*
X9973843Y-11164414D01*
X10002414Y-11178700D01*
X10016700Y-11207271D01*
X10016700Y-11364414D01*
X10016700Y-11207271D02*
X10030986Y-11178700D01*
X10059557Y-11164414D01*
X10102414Y-11164414D01*
X10130986Y-11178700D01*
X10145271Y-11207271D01*
X10145271Y-11364414D01*
X10730986Y-11050129D02*
X10473843Y-11435843D01*
X11116700Y-11064414D02*
X11145271Y-11064414D01*
X11173843Y-11078700D01*
X11188128Y-11092986D01*
X11202414Y-11121557D01*
X11216700Y-11178700D01*
X11216700Y-11250129D01*
X11202414Y-11307271D01*
X11188128Y-11335843D01*
X11173843Y-11350129D01*
X11145271Y-11364414D01*
X11116700Y-11364414D01*
X11088128Y-11350129D01*
X11073843Y-11335843D01*
X11059557Y-11307271D01*
X11045271Y-11250129D01*
X11045271Y-11178700D01*
X11059557Y-11121557D01*
X11073843Y-11092986D01*
X11088128Y-11078700D01*
X11116700Y-11064414D01*
X11345271Y-11335843D02*
X11359557Y-11350129D01*
X11345271Y-11364414D01*
X11330986Y-11350129D01*
X11345271Y-11335843D01*
X11345271Y-11364414D01*
X11545271Y-11064414D02*
X11573843Y-11064414D01*
X11602414Y-11078700D01*
X11616700Y-11092986D01*
X11630986Y-11121557D01*
X11645271Y-11178700D01*
X11645271Y-11250129D01*
X11630986Y-11307271D01*
X11616700Y-11335843D01*
X11602414Y-11350129D01*
X11573843Y-11364414D01*
X11545271Y-11364414D01*
X11516700Y-11350129D01*
X11502414Y-11335843D01*
X11488128Y-11307271D01*
X11473843Y-11250129D01*
X11473843Y-11178700D01*
X11488128Y-11121557D01*
X11502414Y-11092986D01*
X11516700Y-11078700D01*
X11545271Y-11064414D01*
X11745271Y-11064414D02*
X11930986Y-11064414D01*
X11830986Y-11178700D01*
X11873843Y-11178700D01*
X11902414Y-11192986D01*
X11916700Y-11207271D01*
X11930986Y-11235843D01*
X11930986Y-11307271D01*
X11916700Y-11335843D01*
X11902414Y-11350129D01*
X11873843Y-11364414D01*
X11788128Y-11364414D01*
X11759557Y-11350129D01*
X11745271Y-11335843D01*
X12073843Y-11364414D02*
X12130986Y-11364414D01*
X12159557Y-11350129D01*
X12173843Y-11335843D01*
X12202414Y-11292986D01*
X12216700Y-11235843D01*
X12216700Y-11121557D01*
X12202414Y-11092986D01*
X12188128Y-11078700D01*
X12159557Y-11064414D01*
X12102414Y-11064414D01*
X12073843Y-11078700D01*
X12059557Y-11092986D01*
X12045271Y-11121557D01*
X12045271Y-11192986D01*
X12059557Y-11221557D01*
X12073843Y-11235843D01*
X12102414Y-11250129D01*
X12159557Y-11250129D01*
X12188128Y-11235843D01*
X12202414Y-11221557D01*
X12216700Y-11192986D01*
X12330986Y-11064414D02*
X12330986Y-11121557D01*
X12445271Y-11064414D02*
X12445271Y-11121557D01*
X12888128Y-11478700D02*
X12873843Y-11464414D01*
X12845271Y-11421557D01*
X12830986Y-11392986D01*
X12816700Y-11350129D01*
X12802414Y-11278700D01*
X12802414Y-11221557D01*
X12816700Y-11150129D01*
X12830986Y-11107272D01*
X12845271Y-11078700D01*
X12873843Y-11035843D01*
X12888128Y-11021557D01*
X13159557Y-11364414D02*
X12988128Y-11364414D01*
X13073843Y-11364414D02*
X13073843Y-11064414D01*
X13045271Y-11107272D01*
X13016700Y-11135843D01*
X12988128Y-11150129D01*
X13416700Y-11164414D02*
X13416700Y-11364414D01*
X13345271Y-11050129D02*
X13273843Y-11264414D01*
X13459557Y-11264414D01*
X13802414Y-11364414D02*
X13802414Y-11064414D01*
X13930986Y-11364414D02*
X13930986Y-11207271D01*
X13916700Y-11178700D01*
X13888128Y-11164414D01*
X13845271Y-11164414D01*
X13816700Y-11178700D01*
X13802414Y-11192986D01*
X14116700Y-11364414D02*
X14088128Y-11350129D01*
X14073843Y-11335843D01*
X14059557Y-11307271D01*
X14059557Y-11221557D01*
X14073843Y-11192986D01*
X14088128Y-11178700D01*
X14116700Y-11164414D01*
X14159557Y-11164414D01*
X14188128Y-11178700D01*
X14202414Y-11192986D01*
X14216700Y-11221557D01*
X14216700Y-11307271D01*
X14202414Y-11335843D01*
X14188128Y-11350129D01*
X14159557Y-11364414D01*
X14116700Y-11364414D01*
X14388128Y-11364414D02*
X14359557Y-11350129D01*
X14345271Y-11321557D01*
X14345271Y-11064414D01*
X14616700Y-11350129D02*
X14588128Y-11364414D01*
X14530986Y-11364414D01*
X14502414Y-11350129D01*
X14488128Y-11321557D01*
X14488128Y-11207271D01*
X14502414Y-11178700D01*
X14530986Y-11164414D01*
X14588128Y-11164414D01*
X14616700Y-11178700D01*
X14630986Y-11207271D01*
X14630986Y-11235843D01*
X14488128Y-11264414D01*
X14745271Y-11350129D02*
X14773843Y-11364414D01*
X14830986Y-11364414D01*
X14859557Y-11350129D01*
X14873843Y-11321557D01*
X14873843Y-11307271D01*
X14859557Y-11278700D01*
X14830986Y-11264414D01*
X14788128Y-11264414D01*
X14759557Y-11250129D01*
X14745271Y-11221557D01*
X14745271Y-11207271D01*
X14759557Y-11178700D01*
X14788128Y-11164414D01*
X14830986Y-11164414D01*
X14859557Y-11178700D01*
X14973843Y-11478700D02*
X14988128Y-11464414D01*
X15016700Y-11421557D01*
X15030986Y-11392986D01*
X15045271Y-11350129D01*
X15059557Y-11278700D01*
X15059557Y-11221557D01*
X15045271Y-11150129D01*
X15030986Y-11107272D01*
X15016700Y-11078700D01*
X14988128Y-11035843D01*
X14973843Y-11021557D01*
X8185333Y-11664214D02*
X8185333Y-11585187D01*
X8106306Y-11585187D01*
X8106306Y-11664214D01*
X8185333Y-11664214D01*
X8645271Y-11760414D02*
X8473843Y-11760414D01*
X8559557Y-11760414D02*
X8559557Y-11460414D01*
X8530986Y-11503271D01*
X8502414Y-11531843D01*
X8473843Y-11546129D01*
X8773843Y-11731843D02*
X8788128Y-11746129D01*
X8773843Y-11760414D01*
X8759557Y-11746129D01*
X8773843Y-11731843D01*
X8773843Y-11760414D01*
X9073843Y-11760414D02*
X8902414Y-11760414D01*
X8988128Y-11760414D02*
X8988128Y-11460414D01*
X8959557Y-11503271D01*
X8930986Y-11531843D01*
X8902414Y-11546129D01*
X9188128Y-11488986D02*
X9202414Y-11474700D01*
X9230986Y-11460414D01*
X9302414Y-11460414D01*
X9330986Y-11474700D01*
X9345271Y-11488986D01*
X9359557Y-11517557D01*
X9359557Y-11546129D01*
X9345271Y-11588986D01*
X9173843Y-11760414D01*
X9359557Y-11760414D01*
X9488128Y-11760414D02*
X9488128Y-11560414D01*
X9488128Y-11588986D02*
X9502414Y-11574700D01*
X9530986Y-11560414D01*
X9573843Y-11560414D01*
X9602414Y-11574700D01*
X9616700Y-11603271D01*
X9616700Y-11760414D01*
X9616700Y-11603271D02*
X9630986Y-11574700D01*
X9659557Y-11560414D01*
X9702414Y-11560414D01*
X9730986Y-11574700D01*
X9745271Y-11603271D01*
X9745271Y-11760414D01*
X9888128Y-11760414D02*
X9888128Y-11560414D01*
X9888128Y-11588986D02*
X9902414Y-11574700D01*
X9930986Y-11560414D01*
X9973843Y-11560414D01*
X10002414Y-11574700D01*
X10016700Y-11603271D01*
X10016700Y-11760414D01*
X10016700Y-11603271D02*
X10030986Y-11574700D01*
X10059557Y-11560414D01*
X10102414Y-11560414D01*
X10130986Y-11574700D01*
X10145271Y-11603271D01*
X10145271Y-11760414D01*
X10730986Y-11446129D02*
X10473843Y-11831843D01*
X11116700Y-11460414D02*
X11145271Y-11460414D01*
X11173843Y-11474700D01*
X11188128Y-11488986D01*
X11202414Y-11517557D01*
X11216700Y-11574700D01*
X11216700Y-11646129D01*
X11202414Y-11703271D01*
X11188128Y-11731843D01*
X11173843Y-11746129D01*
X11145271Y-11760414D01*
X11116700Y-11760414D01*
X11088128Y-11746129D01*
X11073843Y-11731843D01*
X11059557Y-11703271D01*
X11045271Y-11646129D01*
X11045271Y-11574700D01*
X11059557Y-11517557D01*
X11073843Y-11488986D01*
X11088128Y-11474700D01*
X11116700Y-11460414D01*
X11345271Y-11731843D02*
X11359557Y-11746129D01*
X11345271Y-11760414D01*
X11330986Y-11746129D01*
X11345271Y-11731843D01*
X11345271Y-11760414D01*
X11545271Y-11460414D02*
X11573843Y-11460414D01*
X11602414Y-11474700D01*
X11616700Y-11488986D01*
X11630986Y-11517557D01*
X11645271Y-11574700D01*
X11645271Y-11646129D01*
X11630986Y-11703271D01*
X11616700Y-11731843D01*
X11602414Y-11746129D01*
X11573843Y-11760414D01*
X11545271Y-11760414D01*
X11516700Y-11746129D01*
X11502414Y-11731843D01*
X11488128Y-11703271D01*
X11473843Y-11646129D01*
X11473843Y-11574700D01*
X11488128Y-11517557D01*
X11502414Y-11488986D01*
X11516700Y-11474700D01*
X11545271Y-11460414D01*
X11902414Y-11560414D02*
X11902414Y-11760414D01*
X11830986Y-11446129D02*
X11759557Y-11660414D01*
X11945271Y-11660414D01*
X12188128Y-11560414D02*
X12188128Y-11760414D01*
X12116700Y-11446129D02*
X12045271Y-11660414D01*
X12230986Y-11660414D01*
X12330986Y-11460414D02*
X12330986Y-11517557D01*
X12445271Y-11460414D02*
X12445271Y-11517557D01*
X12888128Y-11874700D02*
X12873843Y-11860414D01*
X12845271Y-11817557D01*
X12830986Y-11788986D01*
X12816700Y-11746129D01*
X12802414Y-11674700D01*
X12802414Y-11617557D01*
X12816700Y-11546129D01*
X12830986Y-11503271D01*
X12845271Y-11474700D01*
X12873843Y-11431843D01*
X12888128Y-11417557D01*
X12988128Y-11488986D02*
X13002414Y-11474700D01*
X13030986Y-11460414D01*
X13102414Y-11460414D01*
X13130986Y-11474700D01*
X13145271Y-11488986D01*
X13159557Y-11517557D01*
X13159557Y-11546129D01*
X13145271Y-11588986D01*
X12973843Y-11760414D01*
X13159557Y-11760414D01*
X13330986Y-11588986D02*
X13302414Y-11574700D01*
X13288128Y-11560414D01*
X13273843Y-11531843D01*
X13273843Y-11517557D01*
X13288128Y-11488986D01*
X13302414Y-11474700D01*
X13330986Y-11460414D01*
X13388128Y-11460414D01*
X13416700Y-11474700D01*
X13430986Y-11488986D01*
X13445271Y-11517557D01*
X13445271Y-11531843D01*
X13430986Y-11560414D01*
X13416700Y-11574700D01*
X13388128Y-11588986D01*
X13330986Y-11588986D01*
X13302414Y-11603271D01*
X13288128Y-11617557D01*
X13273843Y-11646129D01*
X13273843Y-11703271D01*
X13288128Y-11731843D01*
X13302414Y-11746129D01*
X13330986Y-11760414D01*
X13388128Y-11760414D01*
X13416700Y-11746129D01*
X13430986Y-11731843D01*
X13445271Y-11703271D01*
X13445271Y-11646129D01*
X13430986Y-11617557D01*
X13416700Y-11603271D01*
X13388128Y-11588986D01*
X13802414Y-11760414D02*
X13802414Y-11460414D01*
X13930986Y-11760414D02*
X13930986Y-11603271D01*
X13916700Y-11574700D01*
X13888128Y-11560414D01*
X13845271Y-11560414D01*
X13816700Y-11574700D01*
X13802414Y-11588986D01*
X14116700Y-11760414D02*
X14088128Y-11746129D01*
X14073843Y-11731843D01*
X14059557Y-11703271D01*
X14059557Y-11617557D01*
X14073843Y-11588986D01*
X14088128Y-11574700D01*
X14116700Y-11560414D01*
X14159557Y-11560414D01*
X14188128Y-11574700D01*
X14202414Y-11588986D01*
X14216700Y-11617557D01*
X14216700Y-11703271D01*
X14202414Y-11731843D01*
X14188128Y-11746129D01*
X14159557Y-11760414D01*
X14116700Y-11760414D01*
X14388128Y-11760414D02*
X14359557Y-11746129D01*
X14345271Y-11717557D01*
X14345271Y-11460414D01*
X14616700Y-11746129D02*
X14588128Y-11760414D01*
X14530986Y-11760414D01*
X14502414Y-11746129D01*
X14488128Y-11717557D01*
X14488128Y-11603271D01*
X14502414Y-11574700D01*
X14530986Y-11560414D01*
X14588128Y-11560414D01*
X14616700Y-11574700D01*
X14630986Y-11603271D01*
X14630986Y-11631843D01*
X14488128Y-11660414D01*
X14745271Y-11746129D02*
X14773843Y-11760414D01*
X14830986Y-11760414D01*
X14859557Y-11746129D01*
X14873843Y-11717557D01*
X14873843Y-11703271D01*
X14859557Y-11674700D01*
X14830986Y-11660414D01*
X14788128Y-11660414D01*
X14759557Y-11646129D01*
X14745271Y-11617557D01*
X14745271Y-11603271D01*
X14759557Y-11574700D01*
X14788128Y-11560414D01*
X14830986Y-11560414D01*
X14859557Y-11574700D01*
X14973843Y-11874700D02*
X14988128Y-11860414D01*
X15016700Y-11817557D01*
X15030986Y-11788986D01*
X15045271Y-11746129D01*
X15059557Y-11674700D01*
X15059557Y-11617557D01*
X15045271Y-11546129D01*
X15030986Y-11503271D01*
X15016700Y-11474700D01*
X14988128Y-11431843D01*
X14973843Y-11417557D01*
X8141700Y-12080700D02*
X8201700Y-12020700D01*
X8141700Y-11960700D01*
X8081700Y-12020700D01*
X8141700Y-12080700D01*
X8645271Y-12156414D02*
X8473843Y-12156414D01*
X8559557Y-12156414D02*
X8559557Y-11856414D01*
X8530986Y-11899271D01*
X8502414Y-11927843D01*
X8473843Y-11942129D01*
X8773843Y-12127843D02*
X8788128Y-12142129D01*
X8773843Y-12156414D01*
X8759557Y-12142129D01*
X8773843Y-12127843D01*
X8773843Y-12156414D01*
X8902414Y-11884986D02*
X8916700Y-11870700D01*
X8945271Y-11856414D01*
X9016700Y-11856414D01*
X9045271Y-11870700D01*
X9059557Y-11884986D01*
X9073843Y-11913557D01*
X9073843Y-11942129D01*
X9059557Y-11984986D01*
X8888128Y-12156414D01*
X9073843Y-12156414D01*
X9259557Y-11856414D02*
X9288128Y-11856414D01*
X9316700Y-11870700D01*
X9330986Y-11884986D01*
X9345271Y-11913557D01*
X9359557Y-11970700D01*
X9359557Y-12042129D01*
X9345271Y-12099271D01*
X9330986Y-12127843D01*
X9316700Y-12142129D01*
X9288128Y-12156414D01*
X9259557Y-12156414D01*
X9230986Y-12142129D01*
X9216700Y-12127843D01*
X9202414Y-12099271D01*
X9188128Y-12042129D01*
X9188128Y-11970700D01*
X9202414Y-11913557D01*
X9216700Y-11884986D01*
X9230986Y-11870700D01*
X9259557Y-11856414D01*
X9488128Y-12156414D02*
X9488128Y-11956414D01*
X9488128Y-11984986D02*
X9502414Y-11970700D01*
X9530986Y-11956414D01*
X9573843Y-11956414D01*
X9602414Y-11970700D01*
X9616700Y-11999271D01*
X9616700Y-12156414D01*
X9616700Y-11999271D02*
X9630986Y-11970700D01*
X9659557Y-11956414D01*
X9702414Y-11956414D01*
X9730986Y-11970700D01*
X9745271Y-11999271D01*
X9745271Y-12156414D01*
X9888128Y-12156414D02*
X9888128Y-11956414D01*
X9888128Y-11984986D02*
X9902414Y-11970700D01*
X9930986Y-11956414D01*
X9973843Y-11956414D01*
X10002414Y-11970700D01*
X10016700Y-11999271D01*
X10016700Y-12156414D01*
X10016700Y-11999271D02*
X10030986Y-11970700D01*
X10059557Y-11956414D01*
X10102414Y-11956414D01*
X10130986Y-11970700D01*
X10145271Y-11999271D01*
X10145271Y-12156414D01*
X10730986Y-11842129D02*
X10473843Y-12227843D01*
X11116700Y-11856414D02*
X11145271Y-11856414D01*
X11173843Y-11870700D01*
X11188128Y-11884986D01*
X11202414Y-11913557D01*
X11216700Y-11970700D01*
X11216700Y-12042129D01*
X11202414Y-12099271D01*
X11188128Y-12127843D01*
X11173843Y-12142129D01*
X11145271Y-12156414D01*
X11116700Y-12156414D01*
X11088128Y-12142129D01*
X11073843Y-12127843D01*
X11059557Y-12099271D01*
X11045271Y-12042129D01*
X11045271Y-11970700D01*
X11059557Y-11913557D01*
X11073843Y-11884986D01*
X11088128Y-11870700D01*
X11116700Y-11856414D01*
X11345271Y-12127843D02*
X11359557Y-12142129D01*
X11345271Y-12156414D01*
X11330986Y-12142129D01*
X11345271Y-12127843D01*
X11345271Y-12156414D01*
X11545271Y-11856414D02*
X11573843Y-11856414D01*
X11602414Y-11870700D01*
X11616700Y-11884986D01*
X11630986Y-11913557D01*
X11645271Y-11970700D01*
X11645271Y-12042129D01*
X11630986Y-12099271D01*
X11616700Y-12127843D01*
X11602414Y-12142129D01*
X11573843Y-12156414D01*
X11545271Y-12156414D01*
X11516700Y-12142129D01*
X11502414Y-12127843D01*
X11488128Y-12099271D01*
X11473843Y-12042129D01*
X11473843Y-11970700D01*
X11488128Y-11913557D01*
X11502414Y-11884986D01*
X11516700Y-11870700D01*
X11545271Y-11856414D01*
X11902414Y-11956414D02*
X11902414Y-12156414D01*
X11830986Y-11842129D02*
X11759557Y-12056414D01*
X11945271Y-12056414D01*
X12030986Y-11856414D02*
X12230986Y-11856414D01*
X12102414Y-12156414D01*
X12330986Y-11856414D02*
X12330986Y-11913557D01*
X12445271Y-11856414D02*
X12445271Y-11913557D01*
X12888128Y-12270700D02*
X12873843Y-12256414D01*
X12845271Y-12213557D01*
X12830986Y-12184986D01*
X12816700Y-12142129D01*
X12802414Y-12070700D01*
X12802414Y-12013557D01*
X12816700Y-11942129D01*
X12830986Y-11899271D01*
X12845271Y-11870700D01*
X12873843Y-11827843D01*
X12888128Y-11813557D01*
X12973843Y-11856414D02*
X13159557Y-11856414D01*
X13059557Y-11970700D01*
X13102414Y-11970700D01*
X13130986Y-11984986D01*
X13145271Y-11999271D01*
X13159557Y-12027843D01*
X13159557Y-12099271D01*
X13145271Y-12127843D01*
X13130986Y-12142129D01*
X13102414Y-12156414D01*
X13016700Y-12156414D01*
X12988128Y-12142129D01*
X12973843Y-12127843D01*
X13330986Y-11984986D02*
X13302414Y-11970700D01*
X13288128Y-11956414D01*
X13273843Y-11927843D01*
X13273843Y-11913557D01*
X13288128Y-11884986D01*
X13302414Y-11870700D01*
X13330986Y-11856414D01*
X13388128Y-11856414D01*
X13416700Y-11870700D01*
X13430986Y-11884986D01*
X13445271Y-11913557D01*
X13445271Y-11927843D01*
X13430986Y-11956414D01*
X13416700Y-11970700D01*
X13388128Y-11984986D01*
X13330986Y-11984986D01*
X13302414Y-11999271D01*
X13288128Y-12013557D01*
X13273843Y-12042129D01*
X13273843Y-12099271D01*
X13288128Y-12127843D01*
X13302414Y-12142129D01*
X13330986Y-12156414D01*
X13388128Y-12156414D01*
X13416700Y-12142129D01*
X13430986Y-12127843D01*
X13445271Y-12099271D01*
X13445271Y-12042129D01*
X13430986Y-12013557D01*
X13416700Y-11999271D01*
X13388128Y-11984986D01*
X13630986Y-11856414D02*
X13659557Y-11856414D01*
X13688128Y-11870700D01*
X13702414Y-11884986D01*
X13716700Y-11913557D01*
X13730986Y-11970700D01*
X13730986Y-12042129D01*
X13716700Y-12099271D01*
X13702414Y-12127843D01*
X13688128Y-12142129D01*
X13659557Y-12156414D01*
X13630986Y-12156414D01*
X13602414Y-12142129D01*
X13588128Y-12127843D01*
X13573843Y-12099271D01*
X13559557Y-12042129D01*
X13559557Y-11970700D01*
X13573843Y-11913557D01*
X13588128Y-11884986D01*
X13602414Y-11870700D01*
X13630986Y-11856414D01*
X14088128Y-12156414D02*
X14088128Y-11856414D01*
X14216700Y-12156414D02*
X14216700Y-11999271D01*
X14202414Y-11970700D01*
X14173843Y-11956414D01*
X14130986Y-11956414D01*
X14102414Y-11970700D01*
X14088128Y-11984986D01*
X14402414Y-12156414D02*
X14373843Y-12142129D01*
X14359557Y-12127843D01*
X14345271Y-12099271D01*
X14345271Y-12013557D01*
X14359557Y-11984986D01*
X14373843Y-11970700D01*
X14402414Y-11956414D01*
X14445271Y-11956414D01*
X14473843Y-11970700D01*
X14488128Y-11984986D01*
X14502414Y-12013557D01*
X14502414Y-12099271D01*
X14488128Y-12127843D01*
X14473843Y-12142129D01*
X14445271Y-12156414D01*
X14402414Y-12156414D01*
X14673843Y-12156414D02*
X14645271Y-12142129D01*
X14630986Y-12113557D01*
X14630986Y-11856414D01*
X14902414Y-12142129D02*
X14873843Y-12156414D01*
X14816700Y-12156414D01*
X14788128Y-12142129D01*
X14773843Y-12113557D01*
X14773843Y-11999271D01*
X14788128Y-11970700D01*
X14816700Y-11956414D01*
X14873843Y-11956414D01*
X14902414Y-11970700D01*
X14916700Y-11999271D01*
X14916700Y-12027843D01*
X14773843Y-12056414D01*
X15030986Y-12142129D02*
X15059557Y-12156414D01*
X15116700Y-12156414D01*
X15145271Y-12142129D01*
X15159557Y-12113557D01*
X15159557Y-12099271D01*
X15145271Y-12070700D01*
X15116700Y-12056414D01*
X15073843Y-12056414D01*
X15045271Y-12042129D01*
X15030986Y-12013557D01*
X15030986Y-11999271D01*
X15045271Y-11970700D01*
X15073843Y-11956414D01*
X15116700Y-11956414D01*
X15145271Y-11970700D01*
X15259557Y-12270700D02*
X15273843Y-12256414D01*
X15302414Y-12213557D01*
X15316700Y-12184986D01*
X15330986Y-12142129D01*
X15345271Y-12070700D01*
X15345271Y-12013557D01*
X15330986Y-11942129D01*
X15316700Y-11899271D01*
X15302414Y-11870700D01*
X15273843Y-11827843D01*
X15259557Y-11813557D01*
M02*
