G04 #@! TF.GenerationSoftware,KiCad,Pcbnew,(6.0.7)*
G04 #@! TF.CreationDate,2023-01-05T13:14:55+00:00*
G04 #@! TF.ProjectId,msx_eeprom,6d73785f-6565-4707-926f-6d2e6b696361,rev?*
G04 #@! TF.SameCoordinates,Original*
G04 #@! TF.FileFunction,Legend,Top*
G04 #@! TF.FilePolarity,Positive*
%FSLAX46Y46*%
G04 Gerber Fmt 4.6, Leading zero omitted, Abs format (unit mm)*
G04 Created by KiCad (PCBNEW (6.0.7)) date 2023-01-05 13:14:55*
%MOMM*%
%LPD*%
G01*
G04 APERTURE LIST*
%ADD10C,0.150000*%
%ADD11C,0.300000*%
%ADD12C,0.250000*%
%ADD13C,0.015000*%
%ADD14C,0.152400*%
%ADD15C,0.010000*%
%ADD16C,0.120000*%
%ADD17C,4.000000*%
G04 APERTURE END LIST*
D10*
X175680761Y-72397809D02*
X176966476Y-73254952D01*
X176633142Y-71493047D02*
X176680761Y-71540666D01*
X176728380Y-71683523D01*
X176728380Y-71778761D01*
X176680761Y-71921619D01*
X176585523Y-72016857D01*
X176490285Y-72064476D01*
X176299809Y-72112095D01*
X176156952Y-72112095D01*
X175966476Y-72064476D01*
X175871238Y-72016857D01*
X175776000Y-71921619D01*
X175728380Y-71778761D01*
X175728380Y-71683523D01*
X175776000Y-71540666D01*
X175823619Y-71493047D01*
X176680761Y-71112095D02*
X176728380Y-70969238D01*
X176728380Y-70731142D01*
X176680761Y-70635904D01*
X176633142Y-70588285D01*
X176537904Y-70540666D01*
X176442666Y-70540666D01*
X176347428Y-70588285D01*
X176299809Y-70635904D01*
X176252190Y-70731142D01*
X176204571Y-70921619D01*
X176156952Y-71016857D01*
X176109333Y-71064476D01*
X176014095Y-71112095D01*
X175918857Y-71112095D01*
X175823619Y-71064476D01*
X175776000Y-71016857D01*
X175728380Y-70921619D01*
X175728380Y-70683523D01*
X175776000Y-70540666D01*
X176728380Y-69588285D02*
X176728380Y-70159714D01*
X176728380Y-69874000D02*
X175728380Y-69874000D01*
X175871238Y-69969238D01*
X175966476Y-70064476D01*
X176014095Y-70159714D01*
X173902666Y-72310476D02*
X173902666Y-71834285D01*
X174188380Y-72405714D02*
X173188380Y-72072380D01*
X174188380Y-71739047D01*
X174188380Y-70881904D02*
X174188380Y-71453333D01*
X174188380Y-71167619D02*
X173188380Y-71167619D01*
X173331238Y-71262857D01*
X173426476Y-71358095D01*
X173474095Y-71453333D01*
X173188380Y-69977142D02*
X173188380Y-70453333D01*
X173664571Y-70500952D01*
X173616952Y-70453333D01*
X173569333Y-70358095D01*
X173569333Y-70120000D01*
X173616952Y-70024761D01*
X173664571Y-69977142D01*
X173759809Y-69929523D01*
X173997904Y-69929523D01*
X174093142Y-69977142D01*
X174140761Y-70024761D01*
X174188380Y-70120000D01*
X174188380Y-70358095D01*
X174140761Y-70453333D01*
X174093142Y-70500952D01*
D11*
X99023634Y-106210491D02*
X98523634Y-105496205D01*
X98166491Y-106210491D02*
X98166491Y-104710491D01*
X98737920Y-104710491D01*
X98880777Y-104781920D01*
X98952205Y-104853348D01*
X99023634Y-104996205D01*
X99023634Y-105210491D01*
X98952205Y-105353348D01*
X98880777Y-105424777D01*
X98737920Y-105496205D01*
X98166491Y-105496205D01*
X100523634Y-106067634D02*
X100452205Y-106139062D01*
X100237920Y-106210491D01*
X100095062Y-106210491D01*
X99880777Y-106139062D01*
X99737920Y-105996205D01*
X99666491Y-105853348D01*
X99595062Y-105567634D01*
X99595062Y-105353348D01*
X99666491Y-105067634D01*
X99737920Y-104924777D01*
X99880777Y-104781920D01*
X100095062Y-104710491D01*
X100237920Y-104710491D01*
X100452205Y-104781920D01*
X100523634Y-104853348D01*
X102237920Y-104853348D02*
X102309348Y-104781920D01*
X102452205Y-104710491D01*
X102809348Y-104710491D01*
X102952205Y-104781920D01*
X103023634Y-104853348D01*
X103095062Y-104996205D01*
X103095062Y-105139062D01*
X103023634Y-105353348D01*
X102166491Y-106210491D01*
X103095062Y-106210491D01*
X104023634Y-104710491D02*
X104166491Y-104710491D01*
X104309348Y-104781920D01*
X104380777Y-104853348D01*
X104452205Y-104996205D01*
X104523634Y-105281920D01*
X104523634Y-105639062D01*
X104452205Y-105924777D01*
X104380777Y-106067634D01*
X104309348Y-106139062D01*
X104166491Y-106210491D01*
X104023634Y-106210491D01*
X103880777Y-106139062D01*
X103809348Y-106067634D01*
X103737920Y-105924777D01*
X103666491Y-105639062D01*
X103666491Y-105281920D01*
X103737920Y-104996205D01*
X103809348Y-104853348D01*
X103880777Y-104781920D01*
X104023634Y-104710491D01*
X105095062Y-104853348D02*
X105166491Y-104781920D01*
X105309348Y-104710491D01*
X105666491Y-104710491D01*
X105809348Y-104781920D01*
X105880777Y-104853348D01*
X105952205Y-104996205D01*
X105952205Y-105139062D01*
X105880777Y-105353348D01*
X105023634Y-106210491D01*
X105952205Y-106210491D01*
X106452205Y-104710491D02*
X107380777Y-104710491D01*
X106880777Y-105281920D01*
X107095062Y-105281920D01*
X107237920Y-105353348D01*
X107309348Y-105424777D01*
X107380777Y-105567634D01*
X107380777Y-105924777D01*
X107309348Y-106067634D01*
X107237920Y-106139062D01*
X107095062Y-106210491D01*
X106666491Y-106210491D01*
X106523634Y-106139062D01*
X106452205Y-106067634D01*
D10*
X178220761Y-72651809D02*
X179506476Y-73508952D01*
X179173142Y-71747047D02*
X179220761Y-71794666D01*
X179268380Y-71937523D01*
X179268380Y-72032761D01*
X179220761Y-72175619D01*
X179125523Y-72270857D01*
X179030285Y-72318476D01*
X178839809Y-72366095D01*
X178696952Y-72366095D01*
X178506476Y-72318476D01*
X178411238Y-72270857D01*
X178316000Y-72175619D01*
X178268380Y-72032761D01*
X178268380Y-71937523D01*
X178316000Y-71794666D01*
X178363619Y-71747047D01*
X179220761Y-71366095D02*
X179268380Y-71223238D01*
X179268380Y-70985142D01*
X179220761Y-70889904D01*
X179173142Y-70842285D01*
X179077904Y-70794666D01*
X178982666Y-70794666D01*
X178887428Y-70842285D01*
X178839809Y-70889904D01*
X178792190Y-70985142D01*
X178744571Y-71175619D01*
X178696952Y-71270857D01*
X178649333Y-71318476D01*
X178554095Y-71366095D01*
X178458857Y-71366095D01*
X178363619Y-71318476D01*
X178316000Y-71270857D01*
X178268380Y-71175619D01*
X178268380Y-70937523D01*
X178316000Y-70794666D01*
X178363619Y-70413714D02*
X178316000Y-70366095D01*
X178268380Y-70270857D01*
X178268380Y-70032761D01*
X178316000Y-69937523D01*
X178363619Y-69889904D01*
X178458857Y-69842285D01*
X178554095Y-69842285D01*
X178696952Y-69889904D01*
X179268380Y-70461333D01*
X179268380Y-69842285D01*
X180760761Y-73382000D02*
X182046476Y-74239142D01*
X181713142Y-72477238D02*
X181760761Y-72524857D01*
X181808380Y-72667714D01*
X181808380Y-72762952D01*
X181760761Y-72905809D01*
X181665523Y-73001047D01*
X181570285Y-73048666D01*
X181379809Y-73096285D01*
X181236952Y-73096285D01*
X181046476Y-73048666D01*
X180951238Y-73001047D01*
X180856000Y-72905809D01*
X180808380Y-72762952D01*
X180808380Y-72667714D01*
X180856000Y-72524857D01*
X180903619Y-72477238D01*
X181760761Y-72096285D02*
X181808380Y-71953428D01*
X181808380Y-71715333D01*
X181760761Y-71620095D01*
X181713142Y-71572476D01*
X181617904Y-71524857D01*
X181522666Y-71524857D01*
X181427428Y-71572476D01*
X181379809Y-71620095D01*
X181332190Y-71715333D01*
X181284571Y-71905809D01*
X181236952Y-72001047D01*
X181189333Y-72048666D01*
X181094095Y-72096285D01*
X180998857Y-72096285D01*
X180903619Y-72048666D01*
X180856000Y-72001047D01*
X180808380Y-71905809D01*
X180808380Y-71667714D01*
X180856000Y-71524857D01*
X181808380Y-70572476D02*
X181808380Y-71143904D01*
X181808380Y-70858190D02*
X180808380Y-70858190D01*
X180951238Y-70953428D01*
X181046476Y-71048666D01*
X181094095Y-71143904D01*
X180903619Y-70191523D02*
X180856000Y-70143904D01*
X180808380Y-70048666D01*
X180808380Y-69810571D01*
X180856000Y-69715333D01*
X180903619Y-69667714D01*
X180998857Y-69620095D01*
X181094095Y-69620095D01*
X181236952Y-69667714D01*
X181808380Y-70239142D01*
X181808380Y-69620095D01*
X183300761Y-71762857D02*
X184586476Y-72620000D01*
X183348380Y-71524761D02*
X184348380Y-71286666D01*
X183634095Y-71096190D01*
X184348380Y-70905714D01*
X183348380Y-70667619D01*
X184348380Y-69715238D02*
X183872190Y-70048571D01*
X184348380Y-70286666D02*
X183348380Y-70286666D01*
X183348380Y-69905714D01*
X183396000Y-69810476D01*
X183443619Y-69762857D01*
X183538857Y-69715238D01*
X183681714Y-69715238D01*
X183776952Y-69762857D01*
X183824571Y-69810476D01*
X183872190Y-69905714D01*
X183872190Y-70286666D01*
D12*
X134825000Y-85808333D02*
X135777380Y-85808333D01*
X134634523Y-86379761D02*
X135301190Y-84379761D01*
X135967857Y-86379761D01*
X136348809Y-84379761D02*
X137491666Y-84379761D01*
X136920238Y-86379761D02*
X136920238Y-84379761D01*
X138063095Y-84570238D02*
X138158333Y-84475000D01*
X138348809Y-84379761D01*
X138825000Y-84379761D01*
X139015476Y-84475000D01*
X139110714Y-84570238D01*
X139205952Y-84760714D01*
X139205952Y-84951190D01*
X139110714Y-85236904D01*
X137967857Y-86379761D01*
X139205952Y-86379761D01*
X140348809Y-85236904D02*
X140158333Y-85141666D01*
X140063095Y-85046428D01*
X139967857Y-84855952D01*
X139967857Y-84760714D01*
X140063095Y-84570238D01*
X140158333Y-84475000D01*
X140348809Y-84379761D01*
X140729761Y-84379761D01*
X140920238Y-84475000D01*
X141015476Y-84570238D01*
X141110714Y-84760714D01*
X141110714Y-84855952D01*
X141015476Y-85046428D01*
X140920238Y-85141666D01*
X140729761Y-85236904D01*
X140348809Y-85236904D01*
X140158333Y-85332142D01*
X140063095Y-85427380D01*
X139967857Y-85617857D01*
X139967857Y-85998809D01*
X140063095Y-86189285D01*
X140158333Y-86284523D01*
X140348809Y-86379761D01*
X140729761Y-86379761D01*
X140920238Y-86284523D01*
X141015476Y-86189285D01*
X141110714Y-85998809D01*
X141110714Y-85617857D01*
X141015476Y-85427380D01*
X140920238Y-85332142D01*
X140729761Y-85236904D01*
X143110714Y-86189285D02*
X143015476Y-86284523D01*
X142729761Y-86379761D01*
X142539285Y-86379761D01*
X142253571Y-86284523D01*
X142063095Y-86094047D01*
X141967857Y-85903571D01*
X141872619Y-85522619D01*
X141872619Y-85236904D01*
X141967857Y-84855952D01*
X142063095Y-84665476D01*
X142253571Y-84475000D01*
X142539285Y-84379761D01*
X142729761Y-84379761D01*
X143015476Y-84475000D01*
X143110714Y-84570238D01*
X143872619Y-84570238D02*
X143967857Y-84475000D01*
X144158333Y-84379761D01*
X144634523Y-84379761D01*
X144825000Y-84475000D01*
X144920238Y-84570238D01*
X145015476Y-84760714D01*
X145015476Y-84951190D01*
X144920238Y-85236904D01*
X143777380Y-86379761D01*
X145015476Y-86379761D01*
X146825000Y-84379761D02*
X145872619Y-84379761D01*
X145777380Y-85332142D01*
X145872619Y-85236904D01*
X146063095Y-85141666D01*
X146539285Y-85141666D01*
X146729761Y-85236904D01*
X146825000Y-85332142D01*
X146920238Y-85522619D01*
X146920238Y-85998809D01*
X146825000Y-86189285D01*
X146729761Y-86284523D01*
X146539285Y-86379761D01*
X146063095Y-86379761D01*
X145872619Y-86284523D01*
X145777380Y-86189285D01*
X148634523Y-84379761D02*
X148253571Y-84379761D01*
X148063095Y-84475000D01*
X147967857Y-84570238D01*
X147777380Y-84855952D01*
X147682142Y-85236904D01*
X147682142Y-85998809D01*
X147777380Y-86189285D01*
X147872619Y-86284523D01*
X148063095Y-86379761D01*
X148444047Y-86379761D01*
X148634523Y-86284523D01*
X148729761Y-86189285D01*
X148825000Y-85998809D01*
X148825000Y-85522619D01*
X148729761Y-85332142D01*
X148634523Y-85236904D01*
X148444047Y-85141666D01*
X148063095Y-85141666D01*
X147872619Y-85236904D01*
X147777380Y-85332142D01*
X147682142Y-85522619D01*
D10*
X168060761Y-73850285D02*
X169346476Y-74707428D01*
X169060761Y-73564571D02*
X169108380Y-73421714D01*
X169108380Y-73183619D01*
X169060761Y-73088380D01*
X169013142Y-73040761D01*
X168917904Y-72993142D01*
X168822666Y-72993142D01*
X168727428Y-73040761D01*
X168679809Y-73088380D01*
X168632190Y-73183619D01*
X168584571Y-73374095D01*
X168536952Y-73469333D01*
X168489333Y-73516952D01*
X168394095Y-73564571D01*
X168298857Y-73564571D01*
X168203619Y-73516952D01*
X168156000Y-73469333D01*
X168108380Y-73374095D01*
X168108380Y-73136000D01*
X168156000Y-72993142D01*
X169108380Y-72088380D02*
X169108380Y-72564571D01*
X168108380Y-72564571D01*
X168108380Y-71897904D02*
X168108380Y-71326476D01*
X169108380Y-71612190D02*
X168108380Y-71612190D01*
X169060761Y-71040761D02*
X169108380Y-70897904D01*
X169108380Y-70659809D01*
X169060761Y-70564571D01*
X169013142Y-70516952D01*
X168917904Y-70469333D01*
X168822666Y-70469333D01*
X168727428Y-70516952D01*
X168679809Y-70564571D01*
X168632190Y-70659809D01*
X168584571Y-70850285D01*
X168536952Y-70945523D01*
X168489333Y-70993142D01*
X168394095Y-71040761D01*
X168298857Y-71040761D01*
X168203619Y-70993142D01*
X168156000Y-70945523D01*
X168108380Y-70850285D01*
X168108380Y-70612190D01*
X168156000Y-70469333D01*
X169108380Y-69564571D02*
X169108380Y-70040761D01*
X168108380Y-70040761D01*
D11*
X180590285Y-106342571D02*
X180090285Y-105628285D01*
X179733142Y-106342571D02*
X179733142Y-104842571D01*
X180304571Y-104842571D01*
X180447428Y-104914000D01*
X180518857Y-104985428D01*
X180590285Y-105128285D01*
X180590285Y-105342571D01*
X180518857Y-105485428D01*
X180447428Y-105556857D01*
X180304571Y-105628285D01*
X179733142Y-105628285D01*
X181804571Y-106271142D02*
X181661714Y-106342571D01*
X181376000Y-106342571D01*
X181233142Y-106271142D01*
X181161714Y-106128285D01*
X181161714Y-105556857D01*
X181233142Y-105414000D01*
X181376000Y-105342571D01*
X181661714Y-105342571D01*
X181804571Y-105414000D01*
X181876000Y-105556857D01*
X181876000Y-105699714D01*
X181161714Y-105842571D01*
X182376000Y-105342571D02*
X182733142Y-106342571D01*
X183090285Y-105342571D01*
X185447428Y-104842571D02*
X185161714Y-104842571D01*
X185018857Y-104914000D01*
X184947428Y-104985428D01*
X184804571Y-105199714D01*
X184733142Y-105485428D01*
X184733142Y-106056857D01*
X184804571Y-106199714D01*
X184876000Y-106271142D01*
X185018857Y-106342571D01*
X185304571Y-106342571D01*
X185447428Y-106271142D01*
X185518857Y-106199714D01*
X185590285Y-106056857D01*
X185590285Y-105699714D01*
X185518857Y-105556857D01*
X185447428Y-105485428D01*
X185304571Y-105414000D01*
X185018857Y-105414000D01*
X184876000Y-105485428D01*
X184804571Y-105556857D01*
X184733142Y-105699714D01*
D10*
X171362666Y-72564476D02*
X171362666Y-72088285D01*
X171648380Y-72659714D02*
X170648380Y-72326380D01*
X171648380Y-71993047D01*
X171648380Y-71135904D02*
X171648380Y-71707333D01*
X171648380Y-71421619D02*
X170648380Y-71421619D01*
X170791238Y-71516857D01*
X170886476Y-71612095D01*
X170934095Y-71707333D01*
X170981714Y-70278761D02*
X171648380Y-70278761D01*
X170600761Y-70516857D02*
X171315047Y-70754952D01*
X171315047Y-70135904D01*
D11*
X98802857Y-102969142D02*
X98660000Y-103040571D01*
X98374285Y-103040571D01*
X98231428Y-102969142D01*
X98160000Y-102897714D01*
X98088571Y-102754857D01*
X98088571Y-102326285D01*
X98160000Y-102183428D01*
X98231428Y-102112000D01*
X98374285Y-102040571D01*
X98660000Y-102040571D01*
X98802857Y-102112000D01*
X100088571Y-103040571D02*
X100088571Y-102254857D01*
X100017142Y-102112000D01*
X99874285Y-102040571D01*
X99588571Y-102040571D01*
X99445714Y-102112000D01*
X100088571Y-102969142D02*
X99945714Y-103040571D01*
X99588571Y-103040571D01*
X99445714Y-102969142D01*
X99374285Y-102826285D01*
X99374285Y-102683428D01*
X99445714Y-102540571D01*
X99588571Y-102469142D01*
X99945714Y-102469142D01*
X100088571Y-102397714D01*
X100802857Y-103040571D02*
X100802857Y-102040571D01*
X100802857Y-102326285D02*
X100874285Y-102183428D01*
X100945714Y-102112000D01*
X101088571Y-102040571D01*
X101231428Y-102040571D01*
X101517142Y-102040571D02*
X102088571Y-102040571D01*
X101731428Y-101540571D02*
X101731428Y-102826285D01*
X101802857Y-102969142D01*
X101945714Y-103040571D01*
X102088571Y-103040571D01*
X102231428Y-103183428D02*
X103374285Y-103183428D01*
X103517142Y-102040571D02*
X104088571Y-102040571D01*
X103731428Y-103040571D02*
X103731428Y-101754857D01*
X103802857Y-101612000D01*
X103945714Y-101540571D01*
X104088571Y-101540571D01*
X104802857Y-103040571D02*
X104660000Y-102969142D01*
X104588571Y-102826285D01*
X104588571Y-101540571D01*
X106017142Y-103040571D02*
X106017142Y-102254857D01*
X105945714Y-102112000D01*
X105802857Y-102040571D01*
X105517142Y-102040571D01*
X105374285Y-102112000D01*
X106017142Y-102969142D02*
X105874285Y-103040571D01*
X105517142Y-103040571D01*
X105374285Y-102969142D01*
X105302857Y-102826285D01*
X105302857Y-102683428D01*
X105374285Y-102540571D01*
X105517142Y-102469142D01*
X105874285Y-102469142D01*
X106017142Y-102397714D01*
X106660000Y-102969142D02*
X106802857Y-103040571D01*
X107088571Y-103040571D01*
X107231428Y-102969142D01*
X107302857Y-102826285D01*
X107302857Y-102754857D01*
X107231428Y-102612000D01*
X107088571Y-102540571D01*
X106874285Y-102540571D01*
X106731428Y-102469142D01*
X106660000Y-102326285D01*
X106660000Y-102254857D01*
X106731428Y-102112000D01*
X106874285Y-102040571D01*
X107088571Y-102040571D01*
X107231428Y-102112000D01*
X107945714Y-103040571D02*
X107945714Y-101540571D01*
X108588571Y-103040571D02*
X108588571Y-102254857D01*
X108517142Y-102112000D01*
X108374285Y-102040571D01*
X108160000Y-102040571D01*
X108017142Y-102112000D01*
X107945714Y-102183428D01*
X109160000Y-101540571D02*
X110088571Y-101540571D01*
X109588571Y-102112000D01*
X109802857Y-102112000D01*
X109945714Y-102183428D01*
X110017142Y-102254857D01*
X110088571Y-102397714D01*
X110088571Y-102754857D01*
X110017142Y-102897714D01*
X109945714Y-102969142D01*
X109802857Y-103040571D01*
X109374285Y-103040571D01*
X109231428Y-102969142D01*
X109160000Y-102897714D01*
X110660000Y-101683428D02*
X110731428Y-101612000D01*
X110874285Y-101540571D01*
X111231428Y-101540571D01*
X111374285Y-101612000D01*
X111445714Y-101683428D01*
X111517142Y-101826285D01*
X111517142Y-101969142D01*
X111445714Y-102183428D01*
X110588571Y-103040571D01*
X111517142Y-103040571D01*
X112160000Y-103040571D02*
X112160000Y-101540571D01*
X112302857Y-102469142D02*
X112731428Y-103040571D01*
X112731428Y-102040571D02*
X112160000Y-102612000D01*
D13*
X156263512Y-88194965D02*
X157592450Y-88194965D01*
X157748796Y-88116792D01*
X157826969Y-88038620D01*
X157905142Y-87882274D01*
X157905142Y-87569582D01*
X157826969Y-87413237D01*
X157748796Y-87335064D01*
X157592450Y-87256891D01*
X156263512Y-87256891D01*
X157905142Y-85615261D02*
X157905142Y-86553335D01*
X157905142Y-86084298D02*
X156263512Y-86084298D01*
X156498030Y-86240644D01*
X156654376Y-86396990D01*
X156732549Y-86553335D01*
D10*
X138247523Y-98496380D02*
X137676095Y-98496380D01*
X137961809Y-98496380D02*
X137961809Y-97496380D01*
X137866571Y-97639238D01*
X137771333Y-97734476D01*
X137676095Y-97782095D01*
X138866571Y-97496380D02*
X138961809Y-97496380D01*
X139057047Y-97544000D01*
X139104666Y-97591619D01*
X139152285Y-97686857D01*
X139199904Y-97877333D01*
X139199904Y-98115428D01*
X139152285Y-98305904D01*
X139104666Y-98401142D01*
X139057047Y-98448761D01*
X138961809Y-98496380D01*
X138866571Y-98496380D01*
X138771333Y-98448761D01*
X138723714Y-98401142D01*
X138676095Y-98305904D01*
X138628476Y-98115428D01*
X138628476Y-97877333D01*
X138676095Y-97686857D01*
X138723714Y-97591619D01*
X138771333Y-97544000D01*
X138866571Y-97496380D01*
X139628476Y-98496380D02*
X139628476Y-97496380D01*
X140199904Y-98496380D02*
X139771333Y-97924952D01*
X140199904Y-97496380D02*
X139628476Y-98067809D01*
X156789523Y-101544380D02*
X156218095Y-101544380D01*
X156503809Y-101544380D02*
X156503809Y-100544380D01*
X156408571Y-100687238D01*
X156313333Y-100782476D01*
X156218095Y-100830095D01*
X157408571Y-100544380D02*
X157503809Y-100544380D01*
X157599047Y-100592000D01*
X157646666Y-100639619D01*
X157694285Y-100734857D01*
X157741904Y-100925333D01*
X157741904Y-101163428D01*
X157694285Y-101353904D01*
X157646666Y-101449142D01*
X157599047Y-101496761D01*
X157503809Y-101544380D01*
X157408571Y-101544380D01*
X157313333Y-101496761D01*
X157265714Y-101449142D01*
X157218095Y-101353904D01*
X157170476Y-101163428D01*
X157170476Y-100925333D01*
X157218095Y-100734857D01*
X157265714Y-100639619D01*
X157313333Y-100592000D01*
X157408571Y-100544380D01*
X158170476Y-101544380D02*
X158170476Y-100544380D01*
X158741904Y-101544380D02*
X158313333Y-100972952D01*
X158741904Y-100544380D02*
X158170476Y-101115809D01*
X117578380Y-88590380D02*
X117006952Y-88590380D01*
X117292666Y-88590380D02*
X117292666Y-87590380D01*
X117197428Y-87733238D01*
X117102190Y-87828476D01*
X117006952Y-87876095D01*
X118197428Y-87590380D02*
X118292666Y-87590380D01*
X118387904Y-87638000D01*
X118435523Y-87685619D01*
X118483142Y-87780857D01*
X118530761Y-87971333D01*
X118530761Y-88209428D01*
X118483142Y-88399904D01*
X118435523Y-88495142D01*
X118387904Y-88542761D01*
X118292666Y-88590380D01*
X118197428Y-88590380D01*
X118102190Y-88542761D01*
X118054571Y-88495142D01*
X118006952Y-88399904D01*
X117959333Y-88209428D01*
X117959333Y-87971333D01*
X118006952Y-87780857D01*
X118054571Y-87685619D01*
X118102190Y-87638000D01*
X118197428Y-87590380D01*
X119149809Y-87590380D02*
X119245047Y-87590380D01*
X119340285Y-87638000D01*
X119387904Y-87685619D01*
X119435523Y-87780857D01*
X119483142Y-87971333D01*
X119483142Y-88209428D01*
X119435523Y-88399904D01*
X119387904Y-88495142D01*
X119340285Y-88542761D01*
X119245047Y-88590380D01*
X119149809Y-88590380D01*
X119054571Y-88542761D01*
X119006952Y-88495142D01*
X118959333Y-88399904D01*
X118911714Y-88209428D01*
X118911714Y-87971333D01*
X118959333Y-87780857D01*
X119006952Y-87685619D01*
X119054571Y-87638000D01*
X119149809Y-87590380D01*
X120340285Y-87923714D02*
X120340285Y-88590380D01*
X119911714Y-87923714D02*
X119911714Y-88447523D01*
X119959333Y-88542761D01*
X120054571Y-88590380D01*
X120197428Y-88590380D01*
X120292666Y-88542761D01*
X120340285Y-88495142D01*
X121149809Y-88066571D02*
X120816476Y-88066571D01*
X120816476Y-88590380D02*
X120816476Y-87590380D01*
X121292666Y-87590380D01*
X156535523Y-98496380D02*
X155964095Y-98496380D01*
X156249809Y-98496380D02*
X156249809Y-97496380D01*
X156154571Y-97639238D01*
X156059333Y-97734476D01*
X155964095Y-97782095D01*
X157154571Y-97496380D02*
X157249809Y-97496380D01*
X157345047Y-97544000D01*
X157392666Y-97591619D01*
X157440285Y-97686857D01*
X157487904Y-97877333D01*
X157487904Y-98115428D01*
X157440285Y-98305904D01*
X157392666Y-98401142D01*
X157345047Y-98448761D01*
X157249809Y-98496380D01*
X157154571Y-98496380D01*
X157059333Y-98448761D01*
X157011714Y-98401142D01*
X156964095Y-98305904D01*
X156916476Y-98115428D01*
X156916476Y-97877333D01*
X156964095Y-97686857D01*
X157011714Y-97591619D01*
X157059333Y-97544000D01*
X157154571Y-97496380D01*
X157916476Y-98496380D02*
X157916476Y-97496380D01*
X158487904Y-98496380D02*
X158059333Y-97924952D01*
X158487904Y-97496380D02*
X157916476Y-98067809D01*
X161012380Y-90876380D02*
X160440952Y-90876380D01*
X160726666Y-90876380D02*
X160726666Y-89876380D01*
X160631428Y-90019238D01*
X160536190Y-90114476D01*
X160440952Y-90162095D01*
X161631428Y-89876380D02*
X161726666Y-89876380D01*
X161821904Y-89924000D01*
X161869523Y-89971619D01*
X161917142Y-90066857D01*
X161964761Y-90257333D01*
X161964761Y-90495428D01*
X161917142Y-90685904D01*
X161869523Y-90781142D01*
X161821904Y-90828761D01*
X161726666Y-90876380D01*
X161631428Y-90876380D01*
X161536190Y-90828761D01*
X161488571Y-90781142D01*
X161440952Y-90685904D01*
X161393333Y-90495428D01*
X161393333Y-90257333D01*
X161440952Y-90066857D01*
X161488571Y-89971619D01*
X161536190Y-89924000D01*
X161631428Y-89876380D01*
X162583809Y-89876380D02*
X162679047Y-89876380D01*
X162774285Y-89924000D01*
X162821904Y-89971619D01*
X162869523Y-90066857D01*
X162917142Y-90257333D01*
X162917142Y-90495428D01*
X162869523Y-90685904D01*
X162821904Y-90781142D01*
X162774285Y-90828761D01*
X162679047Y-90876380D01*
X162583809Y-90876380D01*
X162488571Y-90828761D01*
X162440952Y-90781142D01*
X162393333Y-90685904D01*
X162345714Y-90495428D01*
X162345714Y-90257333D01*
X162393333Y-90066857D01*
X162440952Y-89971619D01*
X162488571Y-89924000D01*
X162583809Y-89876380D01*
X163345714Y-90209714D02*
X163345714Y-90876380D01*
X163345714Y-90304952D02*
X163393333Y-90257333D01*
X163488571Y-90209714D01*
X163631428Y-90209714D01*
X163726666Y-90257333D01*
X163774285Y-90352571D01*
X163774285Y-90876380D01*
X164583809Y-90352571D02*
X164250476Y-90352571D01*
X164250476Y-90876380D02*
X164250476Y-89876380D01*
X164726666Y-89876380D01*
X165838380Y-62496333D02*
X166552666Y-62496333D01*
X166695523Y-62543952D01*
X166790761Y-62639190D01*
X166838380Y-62782047D01*
X166838380Y-62877285D01*
X166838380Y-61496333D02*
X166838380Y-62067761D01*
X166838380Y-61782047D02*
X165838380Y-61782047D01*
X165981238Y-61877285D01*
X166076476Y-61972523D01*
X166124095Y-62067761D01*
D14*
X122770900Y-94030800D02*
X123786900Y-94030800D01*
X160108900Y-86741000D02*
X160108900Y-80060800D01*
X160108900Y-87350600D02*
X160108900Y-86741000D01*
X123786900Y-80060800D02*
X122770900Y-80060800D01*
X122770900Y-80060800D02*
X122770900Y-94030800D01*
X160108900Y-80060800D02*
X159270700Y-80060800D01*
X159092900Y-94030800D02*
X160108900Y-94030800D01*
X160108900Y-94030800D02*
X160108900Y-87350600D01*
X160108900Y-86741000D02*
G75*
G03*
X160108900Y-87350600I0J-304800D01*
G01*
G36*
X186182000Y-98856800D02*
G01*
X186182000Y-102362000D01*
X177596800Y-102362000D01*
X177596800Y-101801776D01*
X178206400Y-101801776D01*
X178253810Y-101829552D01*
X178382901Y-101847921D01*
X178558395Y-101854000D01*
X178910390Y-101854000D01*
X178986971Y-101587300D01*
X179037686Y-101406795D01*
X179081562Y-101244091D01*
X179097804Y-101180420D01*
X179141053Y-101053758D01*
X179185195Y-101027613D01*
X179231415Y-101102343D01*
X179270028Y-101232330D01*
X179318233Y-101424986D01*
X179366597Y-101614173D01*
X179379458Y-101663500D01*
X179429516Y-101854000D01*
X180078790Y-101854000D01*
X180155371Y-101587300D01*
X180206086Y-101406795D01*
X180249962Y-101244091D01*
X180266204Y-101180420D01*
X180302796Y-101065835D01*
X180340332Y-101032954D01*
X180383213Y-101086566D01*
X180435842Y-101231458D01*
X180489879Y-101423710D01*
X180603550Y-101854000D01*
X181632662Y-101854000D01*
X181982438Y-101853480D01*
X182245903Y-101850949D01*
X182438347Y-101844947D01*
X182575058Y-101834014D01*
X182671324Y-101816689D01*
X182742434Y-101791513D01*
X182803677Y-101757027D01*
X182829716Y-101739700D01*
X183047211Y-101549139D01*
X183175355Y-101327244D01*
X183221820Y-101108484D01*
X183199649Y-100849400D01*
X183081301Y-100619653D01*
X182865718Y-100417300D01*
X182833178Y-100394708D01*
X182732655Y-100336985D01*
X182622301Y-100302080D01*
X182473234Y-100284634D01*
X182256572Y-100279290D01*
X182210493Y-100279200D01*
X181984092Y-100275628D01*
X181840576Y-100262903D01*
X181761417Y-100238007D01*
X181729129Y-100200809D01*
X181714291Y-100120923D01*
X181721277Y-100100189D01*
X181776892Y-100090990D01*
X181916964Y-100079491D01*
X182124408Y-100066770D01*
X182382137Y-100053902D01*
X182603853Y-100044582D01*
X183464200Y-100011204D01*
X183637766Y-100254196D01*
X183731595Y-100394915D01*
X183794620Y-100507356D01*
X183811333Y-100555757D01*
X183783525Y-100616505D01*
X183707148Y-100743280D01*
X183592771Y-100919494D01*
X183450961Y-101128560D01*
X183396466Y-101206906D01*
X183248062Y-101420694D01*
X183123139Y-101604110D01*
X183032143Y-101741551D01*
X182985515Y-101817412D01*
X182981600Y-101826743D01*
X183028365Y-101839464D01*
X183152544Y-101849015D01*
X183329962Y-101853757D01*
X183383540Y-101854000D01*
X183785481Y-101854000D01*
X184026825Y-101515787D01*
X184137648Y-101359169D01*
X184215696Y-101265425D01*
X184279531Y-101237905D01*
X184347713Y-101279958D01*
X184438803Y-101394935D01*
X184571361Y-101586184D01*
X184593453Y-101618039D01*
X184757506Y-101854000D01*
X185164953Y-101854000D01*
X185353959Y-101850869D01*
X185496380Y-101842549D01*
X185568204Y-101830646D01*
X185572400Y-101826743D01*
X185544805Y-101777577D01*
X185468982Y-101661068D01*
X185355376Y-101492818D01*
X185214430Y-101288433D01*
X185157533Y-101206906D01*
X185008625Y-100990463D01*
X184883409Y-100801312D01*
X184792442Y-100655957D01*
X184746283Y-100570905D01*
X184742666Y-100558361D01*
X184770203Y-100498015D01*
X184845666Y-100371734D01*
X184958336Y-100196546D01*
X185097493Y-99989481D01*
X185135948Y-99933598D01*
X185529229Y-99364800D01*
X185106314Y-99364898D01*
X184683400Y-99364996D01*
X184508088Y-99622210D01*
X184409309Y-99762103D01*
X184330353Y-99864869D01*
X184293968Y-99903411D01*
X184248775Y-99876769D01*
X184167459Y-99783896D01*
X184067550Y-99644836D01*
X184066694Y-99643549D01*
X183878230Y-99359702D01*
X182696903Y-99374951D01*
X182298891Y-99380686D01*
X181988579Y-99388523D01*
X181752074Y-99401700D01*
X181575482Y-99423455D01*
X181444911Y-99457024D01*
X181346467Y-99505646D01*
X181266255Y-99572558D01*
X181190384Y-99660998D01*
X181130538Y-99739964D01*
X181049958Y-99919375D01*
X181021735Y-100143155D01*
X181045871Y-100368601D01*
X181122365Y-100553012D01*
X181130538Y-100564435D01*
X181258498Y-100716793D01*
X181389604Y-100819811D01*
X181549365Y-100884413D01*
X181763288Y-100921522D01*
X182006585Y-100939600D01*
X182237757Y-100954045D01*
X182385922Y-100971372D01*
X182469665Y-100995811D01*
X182507569Y-101031590D01*
X182515198Y-101055359D01*
X182515022Y-101091316D01*
X182488224Y-101115663D01*
X182419591Y-101130106D01*
X182293911Y-101136348D01*
X182095969Y-101136096D01*
X181835271Y-101131559D01*
X181138132Y-101117400D01*
X180965454Y-100507800D01*
X180890551Y-100243333D01*
X180817861Y-99986607D01*
X180756175Y-99768673D01*
X180717369Y-99631500D01*
X180641961Y-99364800D01*
X180049317Y-99364800D01*
X179932838Y-99783900D01*
X179875783Y-99979428D01*
X179824769Y-100136975D01*
X179788259Y-100230983D01*
X179780352Y-100244287D01*
X179752484Y-100217474D01*
X179707473Y-100111374D01*
X179652826Y-99945262D01*
X179622086Y-99837887D01*
X179499828Y-99390200D01*
X179190222Y-99375255D01*
X178880615Y-99360310D01*
X178543507Y-100554931D01*
X178449947Y-100888542D01*
X178366362Y-101190531D01*
X178296540Y-101446889D01*
X178244268Y-101643606D01*
X178213333Y-101766673D01*
X178206400Y-101801776D01*
X177596800Y-101801776D01*
X177596800Y-98856800D01*
X186182000Y-98856800D01*
G37*
D15*
X186182000Y-98856800D02*
X186182000Y-102362000D01*
X177596800Y-102362000D01*
X177596800Y-101801776D01*
X178206400Y-101801776D01*
X178253810Y-101829552D01*
X178382901Y-101847921D01*
X178558395Y-101854000D01*
X178910390Y-101854000D01*
X178986971Y-101587300D01*
X179037686Y-101406795D01*
X179081562Y-101244091D01*
X179097804Y-101180420D01*
X179141053Y-101053758D01*
X179185195Y-101027613D01*
X179231415Y-101102343D01*
X179270028Y-101232330D01*
X179318233Y-101424986D01*
X179366597Y-101614173D01*
X179379458Y-101663500D01*
X179429516Y-101854000D01*
X180078790Y-101854000D01*
X180155371Y-101587300D01*
X180206086Y-101406795D01*
X180249962Y-101244091D01*
X180266204Y-101180420D01*
X180302796Y-101065835D01*
X180340332Y-101032954D01*
X180383213Y-101086566D01*
X180435842Y-101231458D01*
X180489879Y-101423710D01*
X180603550Y-101854000D01*
X181632662Y-101854000D01*
X181982438Y-101853480D01*
X182245903Y-101850949D01*
X182438347Y-101844947D01*
X182575058Y-101834014D01*
X182671324Y-101816689D01*
X182742434Y-101791513D01*
X182803677Y-101757027D01*
X182829716Y-101739700D01*
X183047211Y-101549139D01*
X183175355Y-101327244D01*
X183221820Y-101108484D01*
X183199649Y-100849400D01*
X183081301Y-100619653D01*
X182865718Y-100417300D01*
X182833178Y-100394708D01*
X182732655Y-100336985D01*
X182622301Y-100302080D01*
X182473234Y-100284634D01*
X182256572Y-100279290D01*
X182210493Y-100279200D01*
X181984092Y-100275628D01*
X181840576Y-100262903D01*
X181761417Y-100238007D01*
X181729129Y-100200809D01*
X181714291Y-100120923D01*
X181721277Y-100100189D01*
X181776892Y-100090990D01*
X181916964Y-100079491D01*
X182124408Y-100066770D01*
X182382137Y-100053902D01*
X182603853Y-100044582D01*
X183464200Y-100011204D01*
X183637766Y-100254196D01*
X183731595Y-100394915D01*
X183794620Y-100507356D01*
X183811333Y-100555757D01*
X183783525Y-100616505D01*
X183707148Y-100743280D01*
X183592771Y-100919494D01*
X183450961Y-101128560D01*
X183396466Y-101206906D01*
X183248062Y-101420694D01*
X183123139Y-101604110D01*
X183032143Y-101741551D01*
X182985515Y-101817412D01*
X182981600Y-101826743D01*
X183028365Y-101839464D01*
X183152544Y-101849015D01*
X183329962Y-101853757D01*
X183383540Y-101854000D01*
X183785481Y-101854000D01*
X184026825Y-101515787D01*
X184137648Y-101359169D01*
X184215696Y-101265425D01*
X184279531Y-101237905D01*
X184347713Y-101279958D01*
X184438803Y-101394935D01*
X184571361Y-101586184D01*
X184593453Y-101618039D01*
X184757506Y-101854000D01*
X185164953Y-101854000D01*
X185353959Y-101850869D01*
X185496380Y-101842549D01*
X185568204Y-101830646D01*
X185572400Y-101826743D01*
X185544805Y-101777577D01*
X185468982Y-101661068D01*
X185355376Y-101492818D01*
X185214430Y-101288433D01*
X185157533Y-101206906D01*
X185008625Y-100990463D01*
X184883409Y-100801312D01*
X184792442Y-100655957D01*
X184746283Y-100570905D01*
X184742666Y-100558361D01*
X184770203Y-100498015D01*
X184845666Y-100371734D01*
X184958336Y-100196546D01*
X185097493Y-99989481D01*
X185135948Y-99933598D01*
X185529229Y-99364800D01*
X185106314Y-99364898D01*
X184683400Y-99364996D01*
X184508088Y-99622210D01*
X184409309Y-99762103D01*
X184330353Y-99864869D01*
X184293968Y-99903411D01*
X184248775Y-99876769D01*
X184167459Y-99783896D01*
X184067550Y-99644836D01*
X184066694Y-99643549D01*
X183878230Y-99359702D01*
X182696903Y-99374951D01*
X182298891Y-99380686D01*
X181988579Y-99388523D01*
X181752074Y-99401700D01*
X181575482Y-99423455D01*
X181444911Y-99457024D01*
X181346467Y-99505646D01*
X181266255Y-99572558D01*
X181190384Y-99660998D01*
X181130538Y-99739964D01*
X181049958Y-99919375D01*
X181021735Y-100143155D01*
X181045871Y-100368601D01*
X181122365Y-100553012D01*
X181130538Y-100564435D01*
X181258498Y-100716793D01*
X181389604Y-100819811D01*
X181549365Y-100884413D01*
X181763288Y-100921522D01*
X182006585Y-100939600D01*
X182237757Y-100954045D01*
X182385922Y-100971372D01*
X182469665Y-100995811D01*
X182507569Y-101031590D01*
X182515198Y-101055359D01*
X182515022Y-101091316D01*
X182488224Y-101115663D01*
X182419591Y-101130106D01*
X182293911Y-101136348D01*
X182095969Y-101136096D01*
X181835271Y-101131559D01*
X181138132Y-101117400D01*
X180965454Y-100507800D01*
X180890551Y-100243333D01*
X180817861Y-99986607D01*
X180756175Y-99768673D01*
X180717369Y-99631500D01*
X180641961Y-99364800D01*
X180049317Y-99364800D01*
X179932838Y-99783900D01*
X179875783Y-99979428D01*
X179824769Y-100136975D01*
X179788259Y-100230983D01*
X179780352Y-100244287D01*
X179752484Y-100217474D01*
X179707473Y-100111374D01*
X179652826Y-99945262D01*
X179622086Y-99837887D01*
X179499828Y-99390200D01*
X179190222Y-99375255D01*
X178880615Y-99360310D01*
X178543507Y-100554931D01*
X178449947Y-100888542D01*
X178366362Y-101190531D01*
X178296540Y-101446889D01*
X178244268Y-101643606D01*
X178213333Y-101766673D01*
X178206400Y-101801776D01*
X177596800Y-101801776D01*
X177596800Y-98856800D01*
X186182000Y-98856800D01*
D16*
X135668000Y-99414000D02*
X142208000Y-99414000D01*
X142208000Y-99414000D02*
X142208000Y-99084000D01*
X135668000Y-96674000D02*
X142208000Y-96674000D01*
X135668000Y-99084000D02*
X135668000Y-99414000D01*
X135668000Y-97004000D02*
X135668000Y-96674000D01*
X142208000Y-96674000D02*
X142208000Y-97004000D01*
X160750000Y-102462000D02*
X154210000Y-102462000D01*
X154210000Y-99722000D02*
X154210000Y-100052000D01*
X154210000Y-102462000D02*
X154210000Y-102132000D01*
X160750000Y-100052000D02*
X160750000Y-99722000D01*
X160750000Y-102132000D02*
X160750000Y-102462000D01*
X160750000Y-99722000D02*
X154210000Y-99722000D01*
X121446775Y-93165000D02*
X121446775Y-92665000D01*
X117571000Y-93664000D02*
X117571000Y-92480000D01*
X117811000Y-93788000D02*
X117811000Y-92480000D01*
X118252000Y-90400000D02*
X118252000Y-88939000D01*
X117771000Y-93769000D02*
X117771000Y-92480000D01*
X116291000Y-91724000D02*
X116291000Y-91156000D01*
X116491000Y-92451000D02*
X116491000Y-90429000D01*
X118011000Y-93868000D02*
X118011000Y-92480000D01*
X117851000Y-90400000D02*
X117851000Y-89075000D01*
X117131000Y-90400000D02*
X117131000Y-89539000D01*
X118492000Y-93990000D02*
X118492000Y-92480000D01*
X118372000Y-90400000D02*
X118372000Y-88912000D01*
X117371000Y-90400000D02*
X117371000Y-89345000D01*
X116691000Y-92823000D02*
X116691000Y-92480000D01*
X116771000Y-90400000D02*
X116771000Y-89940000D01*
X117571000Y-90400000D02*
X117571000Y-89216000D01*
X116771000Y-92940000D02*
X116771000Y-92480000D01*
X118652000Y-90400000D02*
X118652000Y-88871000D01*
X118532000Y-93996000D02*
X118532000Y-92480000D01*
X117731000Y-90400000D02*
X117731000Y-89130000D01*
X116971000Y-93183000D02*
X116971000Y-92480000D01*
X117371000Y-93535000D02*
X117371000Y-92480000D01*
X117451000Y-93589000D02*
X117451000Y-92480000D01*
X118572000Y-90400000D02*
X118572000Y-88879000D01*
X117251000Y-93444000D02*
X117251000Y-92480000D01*
X118612000Y-94005000D02*
X118612000Y-92480000D01*
X116811000Y-92994000D02*
X116811000Y-92480000D01*
X118372000Y-93968000D02*
X118372000Y-92480000D01*
X118011000Y-90400000D02*
X118011000Y-89012000D01*
X118532000Y-90400000D02*
X118532000Y-88884000D01*
X118412000Y-93976000D02*
X118412000Y-92480000D01*
X116411000Y-92245000D02*
X116411000Y-90635000D01*
X118892000Y-94020000D02*
X118892000Y-88860000D01*
X118091000Y-93895000D02*
X118091000Y-92480000D01*
X117411000Y-93562000D02*
X117411000Y-92480000D01*
X116851000Y-90400000D02*
X116851000Y-89835000D01*
X116731000Y-92883000D02*
X116731000Y-92480000D01*
X116451000Y-92355000D02*
X116451000Y-90525000D01*
X118732000Y-94016000D02*
X118732000Y-88864000D01*
X116651000Y-92759000D02*
X116651000Y-92480000D01*
X117691000Y-90400000D02*
X117691000Y-89150000D01*
X118452000Y-93983000D02*
X118452000Y-92480000D01*
X117211000Y-90400000D02*
X117211000Y-89469000D01*
X118212000Y-90400000D02*
X118212000Y-88949000D01*
X118131000Y-93908000D02*
X118131000Y-92480000D01*
X116851000Y-93045000D02*
X116851000Y-92480000D01*
X117531000Y-93640000D02*
X117531000Y-92480000D01*
X116611000Y-92691000D02*
X116611000Y-92480000D01*
X117931000Y-93838000D02*
X117931000Y-92480000D01*
X118452000Y-90400000D02*
X118452000Y-88897000D01*
X117011000Y-90400000D02*
X117011000Y-89655000D01*
X118292000Y-93951000D02*
X118292000Y-92480000D01*
X118252000Y-93941000D02*
X118252000Y-92480000D01*
X117531000Y-90400000D02*
X117531000Y-89240000D01*
X117091000Y-90400000D02*
X117091000Y-89576000D01*
X116931000Y-93139000D02*
X116931000Y-92480000D01*
X117691000Y-93730000D02*
X117691000Y-92480000D01*
X116611000Y-90400000D02*
X116611000Y-90189000D01*
X116651000Y-90400000D02*
X116651000Y-90121000D01*
X117011000Y-93225000D02*
X117011000Y-92480000D01*
X117491000Y-90400000D02*
X117491000Y-89265000D01*
X117971000Y-90400000D02*
X117971000Y-89026000D01*
X116891000Y-93093000D02*
X116891000Y-92480000D01*
X117091000Y-93304000D02*
X117091000Y-92480000D01*
X117251000Y-90400000D02*
X117251000Y-89436000D01*
X116371000Y-92117000D02*
X116371000Y-90763000D01*
X118091000Y-90400000D02*
X118091000Y-88985000D01*
X118051000Y-93882000D02*
X118051000Y-92480000D01*
X117891000Y-90400000D02*
X117891000Y-89058000D01*
X117331000Y-93505000D02*
X117331000Y-92480000D01*
X116971000Y-90400000D02*
X116971000Y-89697000D01*
X118131000Y-90400000D02*
X118131000Y-88972000D01*
X117611000Y-93687000D02*
X117611000Y-92480000D01*
X117331000Y-90400000D02*
X117331000Y-89375000D01*
X117051000Y-93266000D02*
X117051000Y-92480000D01*
X117491000Y-93615000D02*
X117491000Y-92480000D01*
X118412000Y-90400000D02*
X118412000Y-88904000D01*
X118332000Y-93960000D02*
X118332000Y-92480000D01*
X116691000Y-90400000D02*
X116691000Y-90057000D01*
X117891000Y-93822000D02*
X117891000Y-92480000D01*
X118572000Y-94001000D02*
X118572000Y-92480000D01*
X121696775Y-92915000D02*
X121196775Y-92915000D01*
X117451000Y-90400000D02*
X117451000Y-89291000D01*
X116731000Y-90400000D02*
X116731000Y-89997000D01*
X117731000Y-93750000D02*
X117731000Y-92480000D01*
X117931000Y-90400000D02*
X117931000Y-89042000D01*
X118212000Y-93931000D02*
X118212000Y-92480000D01*
X118332000Y-90400000D02*
X118332000Y-88920000D01*
X117971000Y-93854000D02*
X117971000Y-92480000D01*
X118171000Y-93920000D02*
X118171000Y-92480000D01*
X118051000Y-90400000D02*
X118051000Y-88998000D01*
X117811000Y-90400000D02*
X117811000Y-89092000D01*
X117051000Y-90400000D02*
X117051000Y-89614000D01*
X117211000Y-93411000D02*
X117211000Y-92480000D01*
X117771000Y-90400000D02*
X117771000Y-89111000D01*
X118652000Y-94009000D02*
X118652000Y-92480000D01*
X118852000Y-94020000D02*
X118852000Y-88860000D01*
X116571000Y-92618000D02*
X116571000Y-90262000D01*
X118171000Y-90400000D02*
X118171000Y-88960000D01*
X118492000Y-90400000D02*
X118492000Y-88890000D01*
X116811000Y-90400000D02*
X116811000Y-89886000D01*
X117851000Y-93805000D02*
X117851000Y-92480000D01*
X118812000Y-94019000D02*
X118812000Y-88861000D01*
X118292000Y-90400000D02*
X118292000Y-88929000D01*
X116891000Y-90400000D02*
X116891000Y-89787000D01*
X116531000Y-92538000D02*
X116531000Y-90342000D01*
X117131000Y-93341000D02*
X117131000Y-92480000D01*
X116331000Y-91958000D02*
X116331000Y-90922000D01*
X118612000Y-90400000D02*
X118612000Y-88875000D01*
X117291000Y-90400000D02*
X117291000Y-89405000D01*
X117651000Y-90400000D02*
X117651000Y-89172000D01*
X118772000Y-94018000D02*
X118772000Y-88862000D01*
X117611000Y-90400000D02*
X117611000Y-89193000D01*
X117291000Y-93475000D02*
X117291000Y-92480000D01*
X118692000Y-94013000D02*
X118692000Y-88867000D01*
X117171000Y-90400000D02*
X117171000Y-89503000D01*
X116931000Y-90400000D02*
X116931000Y-89741000D01*
X117171000Y-93377000D02*
X117171000Y-92480000D01*
X117411000Y-90400000D02*
X117411000Y-89318000D01*
X117651000Y-93708000D02*
X117651000Y-92480000D01*
X121512000Y-91440000D02*
G75*
G03*
X121512000Y-91440000I-2620000J0D01*
G01*
X160750000Y-98830000D02*
X160750000Y-99160000D01*
X160750000Y-96750000D02*
X160750000Y-96420000D01*
X154210000Y-96420000D02*
X154210000Y-96750000D01*
X154210000Y-99160000D02*
X154210000Y-98830000D01*
X160750000Y-99160000D02*
X154210000Y-99160000D01*
X160750000Y-96420000D02*
X154210000Y-96420000D01*
X160433500Y-94019400D02*
X160433500Y-92761400D01*
X162273500Y-94019400D02*
X162273500Y-92761400D01*
X183516000Y-55178000D02*
X184276000Y-55178000D01*
X173356000Y-64235071D02*
X173356000Y-63838000D01*
X176656000Y-66775071D02*
X176656000Y-66320929D01*
X168276000Y-55178000D02*
X169036000Y-55178000D01*
X175896000Y-55178000D02*
X176656000Y-55178000D01*
X180086000Y-63838000D02*
X180086000Y-61178000D01*
X168276000Y-66708000D02*
X168276000Y-66320929D01*
X180976000Y-66775071D02*
X180976000Y-66320929D01*
X168456000Y-61178000D02*
X168456000Y-55178000D01*
X168276000Y-61178000D02*
X168276000Y-55178000D01*
X179196000Y-64235071D02*
X179196000Y-63838000D01*
X181736000Y-55178000D02*
X181736000Y-61178000D01*
X170816000Y-55178000D02*
X171576000Y-55178000D01*
X169036000Y-66708000D02*
X169036000Y-66320929D01*
X169926000Y-63838000D02*
X169926000Y-61178000D01*
X171576000Y-55178000D02*
X171576000Y-61178000D01*
X170816000Y-64235071D02*
X170816000Y-63838000D01*
X185226000Y-61178000D02*
X167326000Y-61178000D01*
X168336000Y-61178000D02*
X168336000Y-55178000D01*
X178436000Y-61178000D02*
X178436000Y-55178000D01*
X185226000Y-63838000D02*
X185226000Y-61178000D01*
X168816000Y-61178000D02*
X168816000Y-55178000D01*
X174116000Y-55178000D02*
X174116000Y-61178000D01*
X168656000Y-69088000D02*
X167386000Y-69088000D01*
X172466000Y-63838000D02*
X172466000Y-61178000D01*
X168936000Y-61178000D02*
X168936000Y-55178000D01*
X180976000Y-64235071D02*
X180976000Y-63838000D01*
X179196000Y-55178000D02*
X179196000Y-61178000D01*
X178436000Y-66775071D02*
X178436000Y-66320929D01*
X181736000Y-66775071D02*
X181736000Y-66320929D01*
X183516000Y-61178000D02*
X183516000Y-55178000D01*
X168276000Y-64235071D02*
X168276000Y-63838000D01*
X180976000Y-61178000D02*
X180976000Y-55178000D01*
X170816000Y-61178000D02*
X170816000Y-55178000D01*
X169036000Y-55178000D02*
X169036000Y-61178000D01*
X175896000Y-64235071D02*
X175896000Y-63838000D01*
X170816000Y-66775071D02*
X170816000Y-66320929D01*
X184276000Y-64235071D02*
X184276000Y-63838000D01*
X181736000Y-64235071D02*
X181736000Y-63838000D01*
X177546000Y-63838000D02*
X177546000Y-61178000D01*
X178436000Y-55178000D02*
X179196000Y-55178000D01*
X173356000Y-66775071D02*
X173356000Y-66320929D01*
X183516000Y-66775071D02*
X183516000Y-66320929D01*
X171576000Y-66775071D02*
X171576000Y-66320929D01*
X180976000Y-55178000D02*
X181736000Y-55178000D01*
X171576000Y-64235071D02*
X171576000Y-63838000D01*
X173356000Y-61178000D02*
X173356000Y-55178000D01*
X184276000Y-55178000D02*
X184276000Y-61178000D01*
X175006000Y-63838000D02*
X175006000Y-61178000D01*
X167326000Y-63838000D02*
X185226000Y-63838000D01*
X174116000Y-66775071D02*
X174116000Y-66320929D01*
X169036000Y-64235071D02*
X169036000Y-63838000D01*
X179196000Y-66775071D02*
X179196000Y-66320929D01*
X183516000Y-64235071D02*
X183516000Y-63838000D01*
X182626000Y-63838000D02*
X182626000Y-61178000D01*
X176656000Y-64235071D02*
X176656000Y-63838000D01*
X168576000Y-61178000D02*
X168576000Y-55178000D01*
X167326000Y-61178000D02*
X167326000Y-63838000D01*
X178436000Y-64235071D02*
X178436000Y-63838000D01*
X175896000Y-66775071D02*
X175896000Y-66320929D01*
X174116000Y-64235071D02*
X174116000Y-63838000D01*
X176656000Y-55178000D02*
X176656000Y-61178000D01*
X184276000Y-66775071D02*
X184276000Y-66320929D01*
X168696000Y-61178000D02*
X168696000Y-55178000D01*
X175896000Y-61178000D02*
X175896000Y-55178000D01*
X167386000Y-69088000D02*
X167386000Y-67818000D01*
X173356000Y-55178000D02*
X174116000Y-55178000D01*
D17*
X113132260Y-96451520D03*
X169331640Y-101046000D03*
M02*
