G04 #@! TF.GenerationSoftware,KiCad,Pcbnew,(5.1.5)-3*
G04 #@! TF.CreationDate,2020-07-01T21:27:05+01:00*
G04 #@! TF.ProjectId,msx_eeprom,6d73785f-6565-4707-926f-6d2e6b696361,rev?*
G04 #@! TF.SameCoordinates,Original*
G04 #@! TF.FileFunction,Legend,Top*
G04 #@! TF.FilePolarity,Positive*
%FSLAX46Y46*%
G04 Gerber Fmt 4.6, Leading zero omitted, Abs format (unit mm)*
G04 Created by KiCad (PCBNEW (5.1.5)-3) date 2020-07-01 21:27:05*
%MOMM*%
%LPD*%
G04 APERTURE LIST*
%ADD10C,0.150000*%
%ADD11C,0.250000*%
%ADD12C,0.120000*%
%ADD13C,0.010000*%
%ADD14C,0.152400*%
%ADD15C,0.015000*%
G04 APERTURE END LIST*
D10*
X160639974Y-70438401D02*
X159782831Y-71724116D01*
X160925688Y-71438401D02*
X161068545Y-71486020D01*
X161306640Y-71486020D01*
X161401879Y-71438401D01*
X161449498Y-71390782D01*
X161497117Y-71295544D01*
X161497117Y-71200306D01*
X161449498Y-71105068D01*
X161401879Y-71057449D01*
X161306640Y-71009830D01*
X161116164Y-70962211D01*
X161020926Y-70914592D01*
X160973307Y-70866973D01*
X160925688Y-70771735D01*
X160925688Y-70676497D01*
X160973307Y-70581259D01*
X161020926Y-70533640D01*
X161116164Y-70486020D01*
X161354260Y-70486020D01*
X161497117Y-70533640D01*
X162401879Y-71486020D02*
X161925688Y-71486020D01*
X161925688Y-70486020D01*
X162592355Y-70486020D02*
X163163783Y-70486020D01*
X162878069Y-71486020D02*
X162878069Y-70486020D01*
X163449498Y-71438401D02*
X163592355Y-71486020D01*
X163830450Y-71486020D01*
X163925688Y-71438401D01*
X163973307Y-71390782D01*
X164020926Y-71295544D01*
X164020926Y-71200306D01*
X163973307Y-71105068D01*
X163925688Y-71057449D01*
X163830450Y-71009830D01*
X163639974Y-70962211D01*
X163544736Y-70914592D01*
X163497117Y-70866973D01*
X163449498Y-70771735D01*
X163449498Y-70676497D01*
X163497117Y-70581259D01*
X163544736Y-70533640D01*
X163639974Y-70486020D01*
X163878069Y-70486020D01*
X164020926Y-70533640D01*
X164925688Y-71486020D02*
X164449498Y-71486020D01*
X164449498Y-70486020D01*
X161966423Y-68518066D02*
X162442614Y-68518066D01*
X161871185Y-68803780D02*
X162204519Y-67803780D01*
X162537852Y-68803780D01*
X163394995Y-68803780D02*
X162823566Y-68803780D01*
X163109280Y-68803780D02*
X163109280Y-67803780D01*
X163014042Y-67946638D01*
X162918804Y-68041876D01*
X162823566Y-68089495D01*
X164299757Y-67803780D02*
X163823566Y-67803780D01*
X163775947Y-68279971D01*
X163823566Y-68232352D01*
X163918804Y-68184733D01*
X164156900Y-68184733D01*
X164252138Y-68232352D01*
X164299757Y-68279971D01*
X164347376Y-68375209D01*
X164347376Y-68613304D01*
X164299757Y-68708542D01*
X164252138Y-68756161D01*
X164156900Y-68803780D01*
X163918804Y-68803780D01*
X163823566Y-68756161D01*
X163775947Y-68708542D01*
X162004523Y-66105066D02*
X162480714Y-66105066D01*
X161909285Y-66390780D02*
X162242619Y-65390780D01*
X162575952Y-66390780D01*
X163433095Y-66390780D02*
X162861666Y-66390780D01*
X163147380Y-66390780D02*
X163147380Y-65390780D01*
X163052142Y-65533638D01*
X162956904Y-65628876D01*
X162861666Y-65676495D01*
X164290238Y-65724114D02*
X164290238Y-66390780D01*
X164052142Y-65343161D02*
X163814047Y-66057447D01*
X164433095Y-66057447D01*
D11*
X131130280Y-63828253D02*
X132082660Y-63828253D01*
X130939803Y-64399681D02*
X131606470Y-62399681D01*
X132273137Y-64399681D01*
X132654089Y-62399681D02*
X133796946Y-62399681D01*
X133225518Y-64399681D02*
X133225518Y-62399681D01*
X134368375Y-62590158D02*
X134463613Y-62494920D01*
X134654089Y-62399681D01*
X135130280Y-62399681D01*
X135320756Y-62494920D01*
X135415994Y-62590158D01*
X135511232Y-62780634D01*
X135511232Y-62971110D01*
X135415994Y-63256824D01*
X134273137Y-64399681D01*
X135511232Y-64399681D01*
X136654089Y-63256824D02*
X136463613Y-63161586D01*
X136368375Y-63066348D01*
X136273137Y-62875872D01*
X136273137Y-62780634D01*
X136368375Y-62590158D01*
X136463613Y-62494920D01*
X136654089Y-62399681D01*
X137035041Y-62399681D01*
X137225518Y-62494920D01*
X137320756Y-62590158D01*
X137415994Y-62780634D01*
X137415994Y-62875872D01*
X137320756Y-63066348D01*
X137225518Y-63161586D01*
X137035041Y-63256824D01*
X136654089Y-63256824D01*
X136463613Y-63352062D01*
X136368375Y-63447300D01*
X136273137Y-63637777D01*
X136273137Y-64018729D01*
X136368375Y-64209205D01*
X136463613Y-64304443D01*
X136654089Y-64399681D01*
X137035041Y-64399681D01*
X137225518Y-64304443D01*
X137320756Y-64209205D01*
X137415994Y-64018729D01*
X137415994Y-63637777D01*
X137320756Y-63447300D01*
X137225518Y-63352062D01*
X137035041Y-63256824D01*
X139415994Y-64209205D02*
X139320756Y-64304443D01*
X139035041Y-64399681D01*
X138844565Y-64399681D01*
X138558851Y-64304443D01*
X138368375Y-64113967D01*
X138273137Y-63923491D01*
X138177899Y-63542539D01*
X138177899Y-63256824D01*
X138273137Y-62875872D01*
X138368375Y-62685396D01*
X138558851Y-62494920D01*
X138844565Y-62399681D01*
X139035041Y-62399681D01*
X139320756Y-62494920D01*
X139415994Y-62590158D01*
X140177899Y-62590158D02*
X140273137Y-62494920D01*
X140463613Y-62399681D01*
X140939803Y-62399681D01*
X141130280Y-62494920D01*
X141225518Y-62590158D01*
X141320756Y-62780634D01*
X141320756Y-62971110D01*
X141225518Y-63256824D01*
X140082660Y-64399681D01*
X141320756Y-64399681D01*
X143130280Y-62399681D02*
X142177899Y-62399681D01*
X142082660Y-63352062D01*
X142177899Y-63256824D01*
X142368375Y-63161586D01*
X142844565Y-63161586D01*
X143035041Y-63256824D01*
X143130280Y-63352062D01*
X143225518Y-63542539D01*
X143225518Y-64018729D01*
X143130280Y-64209205D01*
X143035041Y-64304443D01*
X142844565Y-64399681D01*
X142368375Y-64399681D01*
X142177899Y-64304443D01*
X142082660Y-64209205D01*
X144939803Y-62399681D02*
X144558851Y-62399681D01*
X144368375Y-62494920D01*
X144273137Y-62590158D01*
X144082660Y-62875872D01*
X143987422Y-63256824D01*
X143987422Y-64018729D01*
X144082660Y-64209205D01*
X144177899Y-64304443D01*
X144368375Y-64399681D01*
X144749327Y-64399681D01*
X144939803Y-64304443D01*
X145035041Y-64209205D01*
X145130280Y-64018729D01*
X145130280Y-63542539D01*
X145035041Y-63352062D01*
X144939803Y-63256824D01*
X144749327Y-63161586D01*
X144368375Y-63161586D01*
X144177899Y-63256824D01*
X144082660Y-63352062D01*
X143987422Y-63542539D01*
D10*
X162475942Y-62775221D02*
X161618800Y-64060936D01*
X162714038Y-62822840D02*
X162952133Y-63822840D01*
X163142609Y-63108555D01*
X163333085Y-63822840D01*
X163571180Y-62822840D01*
X164523561Y-63822840D02*
X164190228Y-63346650D01*
X163952133Y-63822840D02*
X163952133Y-62822840D01*
X164333085Y-62822840D01*
X164428323Y-62870460D01*
X164475942Y-62918079D01*
X164523561Y-63013317D01*
X164523561Y-63156174D01*
X164475942Y-63251412D01*
X164428323Y-63299031D01*
X164333085Y-63346650D01*
X163952133Y-63346650D01*
X160737420Y-60283481D02*
X159880277Y-61569196D01*
X161642181Y-61235862D02*
X161594562Y-61283481D01*
X161451705Y-61331100D01*
X161356467Y-61331100D01*
X161213610Y-61283481D01*
X161118372Y-61188243D01*
X161070753Y-61093005D01*
X161023134Y-60902529D01*
X161023134Y-60759672D01*
X161070753Y-60569196D01*
X161118372Y-60473958D01*
X161213610Y-60378720D01*
X161356467Y-60331100D01*
X161451705Y-60331100D01*
X161594562Y-60378720D01*
X161642181Y-60426339D01*
X162023134Y-61283481D02*
X162165991Y-61331100D01*
X162404086Y-61331100D01*
X162499324Y-61283481D01*
X162546943Y-61235862D01*
X162594562Y-61140624D01*
X162594562Y-61045386D01*
X162546943Y-60950148D01*
X162499324Y-60902529D01*
X162404086Y-60854910D01*
X162213610Y-60807291D01*
X162118372Y-60759672D01*
X162070753Y-60712053D01*
X162023134Y-60616815D01*
X162023134Y-60521577D01*
X162070753Y-60426339D01*
X162118372Y-60378720D01*
X162213610Y-60331100D01*
X162451705Y-60331100D01*
X162594562Y-60378720D01*
X163546943Y-61331100D02*
X162975515Y-61331100D01*
X163261229Y-61331100D02*
X163261229Y-60331100D01*
X163165991Y-60473958D01*
X163070753Y-60569196D01*
X162975515Y-60616815D01*
X163927896Y-60426339D02*
X163975515Y-60378720D01*
X164070753Y-60331100D01*
X164308848Y-60331100D01*
X164404086Y-60378720D01*
X164451705Y-60426339D01*
X164499324Y-60521577D01*
X164499324Y-60616815D01*
X164451705Y-60759672D01*
X163880277Y-61331100D01*
X164499324Y-61331100D01*
X161520950Y-57718081D02*
X160663807Y-59003796D01*
X162425712Y-58670462D02*
X162378093Y-58718081D01*
X162235236Y-58765700D01*
X162139998Y-58765700D01*
X161997140Y-58718081D01*
X161901902Y-58622843D01*
X161854283Y-58527605D01*
X161806664Y-58337129D01*
X161806664Y-58194272D01*
X161854283Y-58003796D01*
X161901902Y-57908558D01*
X161997140Y-57813320D01*
X162139998Y-57765700D01*
X162235236Y-57765700D01*
X162378093Y-57813320D01*
X162425712Y-57860939D01*
X162806664Y-58718081D02*
X162949521Y-58765700D01*
X163187617Y-58765700D01*
X163282855Y-58718081D01*
X163330474Y-58670462D01*
X163378093Y-58575224D01*
X163378093Y-58479986D01*
X163330474Y-58384748D01*
X163282855Y-58337129D01*
X163187617Y-58289510D01*
X162997140Y-58241891D01*
X162901902Y-58194272D01*
X162854283Y-58146653D01*
X162806664Y-58051415D01*
X162806664Y-57956177D01*
X162854283Y-57860939D01*
X162901902Y-57813320D01*
X162997140Y-57765700D01*
X163235236Y-57765700D01*
X163378093Y-57813320D01*
X163759045Y-57860939D02*
X163806664Y-57813320D01*
X163901902Y-57765700D01*
X164139998Y-57765700D01*
X164235236Y-57813320D01*
X164282855Y-57860939D01*
X164330474Y-57956177D01*
X164330474Y-58051415D01*
X164282855Y-58194272D01*
X163711426Y-58765700D01*
X164330474Y-58765700D01*
X161597150Y-55150141D02*
X160740007Y-56435856D01*
X162501912Y-56102522D02*
X162454293Y-56150141D01*
X162311436Y-56197760D01*
X162216198Y-56197760D01*
X162073340Y-56150141D01*
X161978102Y-56054903D01*
X161930483Y-55959665D01*
X161882864Y-55769189D01*
X161882864Y-55626332D01*
X161930483Y-55435856D01*
X161978102Y-55340618D01*
X162073340Y-55245380D01*
X162216198Y-55197760D01*
X162311436Y-55197760D01*
X162454293Y-55245380D01*
X162501912Y-55292999D01*
X162882864Y-56150141D02*
X163025721Y-56197760D01*
X163263817Y-56197760D01*
X163359055Y-56150141D01*
X163406674Y-56102522D01*
X163454293Y-56007284D01*
X163454293Y-55912046D01*
X163406674Y-55816808D01*
X163359055Y-55769189D01*
X163263817Y-55721570D01*
X163073340Y-55673951D01*
X162978102Y-55626332D01*
X162930483Y-55578713D01*
X162882864Y-55483475D01*
X162882864Y-55388237D01*
X162930483Y-55292999D01*
X162978102Y-55245380D01*
X163073340Y-55197760D01*
X163311436Y-55197760D01*
X163454293Y-55245380D01*
X164406674Y-56197760D02*
X163835245Y-56197760D01*
X164120960Y-56197760D02*
X164120960Y-55197760D01*
X164025721Y-55340618D01*
X163930483Y-55435856D01*
X163835245Y-55483475D01*
D12*
X165145720Y-54399180D02*
X166415720Y-54399180D01*
X165145720Y-55669180D02*
X165145720Y-54399180D01*
X167458649Y-71289180D02*
X167912791Y-71289180D01*
X167458649Y-70529180D02*
X167912791Y-70529180D01*
X169998649Y-71289180D02*
X170395720Y-71289180D01*
X169998649Y-70529180D02*
X170395720Y-70529180D01*
X179055720Y-71289180D02*
X173055720Y-71289180D01*
X179055720Y-70529180D02*
X179055720Y-71289180D01*
X173055720Y-70529180D02*
X179055720Y-70529180D01*
X170395720Y-69639180D02*
X173055720Y-69639180D01*
X167458649Y-68749180D02*
X167912791Y-68749180D01*
X167458649Y-67989180D02*
X167912791Y-67989180D01*
X169998649Y-68749180D02*
X170395720Y-68749180D01*
X169998649Y-67989180D02*
X170395720Y-67989180D01*
X179055720Y-68749180D02*
X173055720Y-68749180D01*
X179055720Y-67989180D02*
X179055720Y-68749180D01*
X173055720Y-67989180D02*
X179055720Y-67989180D01*
X170395720Y-67099180D02*
X173055720Y-67099180D01*
X167458649Y-66209180D02*
X167912791Y-66209180D01*
X167458649Y-65449180D02*
X167912791Y-65449180D01*
X169998649Y-66209180D02*
X170395720Y-66209180D01*
X169998649Y-65449180D02*
X170395720Y-65449180D01*
X179055720Y-66209180D02*
X173055720Y-66209180D01*
X179055720Y-65449180D02*
X179055720Y-66209180D01*
X173055720Y-65449180D02*
X179055720Y-65449180D01*
X170395720Y-64559180D02*
X173055720Y-64559180D01*
X167458649Y-63669180D02*
X167912791Y-63669180D01*
X167458649Y-62909180D02*
X167912791Y-62909180D01*
X169998649Y-63669180D02*
X170395720Y-63669180D01*
X169998649Y-62909180D02*
X170395720Y-62909180D01*
X179055720Y-63669180D02*
X173055720Y-63669180D01*
X179055720Y-62909180D02*
X179055720Y-63669180D01*
X173055720Y-62909180D02*
X179055720Y-62909180D01*
X170395720Y-62019180D02*
X173055720Y-62019180D01*
X167458649Y-61129180D02*
X167912791Y-61129180D01*
X167458649Y-60369180D02*
X167912791Y-60369180D01*
X169998649Y-61129180D02*
X170395720Y-61129180D01*
X169998649Y-60369180D02*
X170395720Y-60369180D01*
X179055720Y-61129180D02*
X173055720Y-61129180D01*
X179055720Y-60369180D02*
X179055720Y-61129180D01*
X173055720Y-60369180D02*
X179055720Y-60369180D01*
X170395720Y-59479180D02*
X173055720Y-59479180D01*
X167458649Y-58589180D02*
X167912791Y-58589180D01*
X167458649Y-57829180D02*
X167912791Y-57829180D01*
X169998649Y-58589180D02*
X170395720Y-58589180D01*
X169998649Y-57829180D02*
X170395720Y-57829180D01*
X179055720Y-58589180D02*
X173055720Y-58589180D01*
X179055720Y-57829180D02*
X179055720Y-58589180D01*
X173055720Y-57829180D02*
X179055720Y-57829180D01*
X170395720Y-56939180D02*
X173055720Y-56939180D01*
X167525720Y-56049180D02*
X167912791Y-56049180D01*
X167525720Y-55289180D02*
X167912791Y-55289180D01*
X169998649Y-56049180D02*
X170395720Y-56049180D01*
X169998649Y-55289180D02*
X170395720Y-55289180D01*
X173055720Y-55949180D02*
X179055720Y-55949180D01*
X173055720Y-55829180D02*
X179055720Y-55829180D01*
X173055720Y-55709180D02*
X179055720Y-55709180D01*
X173055720Y-55589180D02*
X179055720Y-55589180D01*
X173055720Y-55469180D02*
X179055720Y-55469180D01*
X173055720Y-55349180D02*
X179055720Y-55349180D01*
X179055720Y-56049180D02*
X173055720Y-56049180D01*
X179055720Y-55289180D02*
X179055720Y-56049180D01*
X173055720Y-55289180D02*
X179055720Y-55289180D01*
X173055720Y-54339180D02*
X170395720Y-54339180D01*
X173055720Y-72239180D02*
X173055720Y-54339180D01*
X170395720Y-72239180D02*
X173055720Y-72239180D01*
X170395720Y-54339180D02*
X170395720Y-72239180D01*
D13*
G36*
X136800826Y-74690676D02*
G01*
X136844920Y-74849070D01*
X136928649Y-75148213D01*
X137045769Y-75565856D01*
X137190033Y-76079750D01*
X137355198Y-76667645D01*
X137535018Y-77307290D01*
X137639284Y-77678000D01*
X138389536Y-80345000D01*
X140436510Y-80367678D01*
X141171141Y-80371851D01*
X141768303Y-80366793D01*
X142219934Y-80352745D01*
X142517973Y-80329949D01*
X142650075Y-80301199D01*
X142769021Y-80154199D01*
X142818502Y-79926061D01*
X142791865Y-79692899D01*
X142715067Y-79557600D01*
X142596559Y-79512988D01*
X142337726Y-79481562D01*
X141929326Y-79462656D01*
X141362116Y-79455606D01*
X141296900Y-79455527D01*
X140814553Y-79449759D01*
X140367780Y-79434195D01*
X139995253Y-79410922D01*
X139735642Y-79382025D01*
X139664972Y-79367471D01*
X139187207Y-79149303D01*
X138759707Y-78782320D01*
X138401997Y-78284227D01*
X138336866Y-78163243D01*
X138177536Y-77825882D01*
X138089456Y-77549070D01*
X138052452Y-77250824D01*
X138046126Y-76981664D01*
X138113521Y-76322756D01*
X138322324Y-75753785D01*
X138675796Y-75269802D01*
X139177198Y-74865863D01*
X139589173Y-74641443D01*
X140065000Y-74418333D01*
X143451667Y-74396027D01*
X146838334Y-74373722D01*
X147600334Y-75436296D01*
X148362334Y-76498869D01*
X148547513Y-76268216D01*
X148669790Y-76106747D01*
X148860781Y-75843982D01*
X149093064Y-75518019D01*
X149309513Y-75209633D01*
X149886334Y-74381703D01*
X151135167Y-74378851D01*
X151573192Y-74380788D01*
X151944077Y-74388027D01*
X152218310Y-74399549D01*
X152366380Y-74414334D01*
X152384000Y-74421993D01*
X152336861Y-74500304D01*
X152203816Y-74698284D01*
X151997425Y-74997841D01*
X151730247Y-75380882D01*
X151414843Y-75829315D01*
X151063771Y-76325046D01*
X151028042Y-76375320D01*
X150649838Y-76913731D01*
X150323284Y-77391385D01*
X150058378Y-77792812D01*
X149865121Y-78102540D01*
X149753511Y-78305097D01*
X149730823Y-78382494D01*
X149793303Y-78475317D01*
X149940535Y-78687804D01*
X150159504Y-79001361D01*
X150437193Y-79397398D01*
X150760584Y-79857321D01*
X151116660Y-80362539D01*
X151171448Y-80440176D01*
X151528100Y-80947277D01*
X151850605Y-81409285D01*
X152126602Y-81808213D01*
X152343731Y-82126075D01*
X152489631Y-82344884D01*
X152551943Y-82446655D01*
X152553334Y-82451009D01*
X152473647Y-82469798D01*
X152254491Y-82485655D01*
X151925722Y-82497286D01*
X151517197Y-82503393D01*
X151333099Y-82504000D01*
X150112864Y-82503999D01*
X149708537Y-81932500D01*
X149454915Y-81576931D01*
X149159341Y-81166843D01*
X148880638Y-80783802D01*
X148848343Y-80739742D01*
X148392475Y-80118485D01*
X147578693Y-81311242D01*
X146764910Y-82504000D01*
X145510455Y-82504000D01*
X145071377Y-82501115D01*
X144699373Y-82493171D01*
X144423892Y-82481232D01*
X144274380Y-82466364D01*
X144256000Y-82458626D01*
X144302608Y-82380149D01*
X144434204Y-82181184D01*
X144638442Y-81879812D01*
X144902978Y-81494109D01*
X145215470Y-81042156D01*
X145563572Y-80542031D01*
X145611756Y-80473047D01*
X145966658Y-79963269D01*
X146290170Y-79494986D01*
X146569366Y-79087195D01*
X146791321Y-78758893D01*
X146943110Y-78529077D01*
X147011808Y-78416745D01*
X147013703Y-78412468D01*
X146985697Y-78299560D01*
X146874814Y-78078493D01*
X146697297Y-77778400D01*
X146469392Y-77428410D01*
X146444860Y-77392381D01*
X145829826Y-76492666D01*
X143101627Y-76492666D01*
X142311373Y-76493271D01*
X141674018Y-76496764D01*
X141173126Y-76505662D01*
X140792264Y-76522482D01*
X140514997Y-76549742D01*
X140324890Y-76589957D01*
X140205508Y-76645645D01*
X140140418Y-76719324D01*
X140113185Y-76813510D01*
X140107373Y-76930721D01*
X140107333Y-76951258D01*
X140125667Y-77118616D01*
X140195112Y-77241834D01*
X140337333Y-77327398D01*
X140573993Y-77381794D01*
X140926759Y-77411508D01*
X141417293Y-77423025D01*
X141686418Y-77423999D01*
X142315503Y-77432383D01*
X142807731Y-77462794D01*
X143194988Y-77523121D01*
X143509161Y-77621255D01*
X143782134Y-77765084D01*
X144045793Y-77962498D01*
X144119550Y-78026036D01*
X144552758Y-78511396D01*
X144834164Y-79071548D01*
X144964137Y-79707330D01*
X144973915Y-79964000D01*
X144895152Y-80632126D01*
X144668710Y-81228073D01*
X144303575Y-81737189D01*
X143808731Y-82144825D01*
X143546924Y-82290860D01*
X143106996Y-82506097D01*
X139938980Y-82483882D01*
X136770963Y-82461666D01*
X136304775Y-80708429D01*
X136166458Y-80194692D01*
X136041620Y-79743229D01*
X135936939Y-79377199D01*
X135859094Y-79119764D01*
X135814762Y-78994083D01*
X135808040Y-78985737D01*
X135780839Y-79069428D01*
X135718011Y-79287538D01*
X135627491Y-79610853D01*
X135517213Y-80010161D01*
X135395112Y-80456246D01*
X135269123Y-80919895D01*
X135147182Y-81371893D01*
X135037222Y-81783026D01*
X134947179Y-82124080D01*
X134884987Y-82365841D01*
X134858582Y-82479094D01*
X134858192Y-82482833D01*
X134779154Y-82491356D01*
X134565044Y-82498238D01*
X134250123Y-82502698D01*
X133930667Y-82504000D01*
X133003334Y-82504000D01*
X132845372Y-81974833D01*
X132763965Y-81695248D01*
X132651603Y-81300015D01*
X132521744Y-80836895D01*
X132387843Y-80353646D01*
X132356377Y-80239166D01*
X132237442Y-79816042D01*
X132131360Y-79457917D01*
X132046999Y-79193280D01*
X131993229Y-79050621D01*
X131981172Y-79033803D01*
X131949116Y-79112545D01*
X131884580Y-79332024D01*
X131793989Y-79668174D01*
X131683768Y-80096928D01*
X131560343Y-80594219D01*
X131517760Y-80769470D01*
X131098520Y-82504000D01*
X130005868Y-82504000D01*
X129538543Y-82500142D01*
X129220633Y-82487247D01*
X129032365Y-82463331D01*
X128953969Y-82426410D01*
X128951082Y-82398166D01*
X128978862Y-82297096D01*
X129043872Y-82048234D01*
X129141922Y-81667979D01*
X129268818Y-81172729D01*
X129420368Y-80578880D01*
X129592382Y-79902832D01*
X129780666Y-79160981D01*
X129981029Y-78369726D01*
X129990023Y-78334166D01*
X130991099Y-74376000D01*
X131945177Y-74376000D01*
X132364503Y-74378913D01*
X132644170Y-74390588D01*
X132813797Y-74415428D01*
X132903001Y-74457835D01*
X132941401Y-74522211D01*
X132941974Y-74524166D01*
X132977179Y-74649099D01*
X133049958Y-74909404D01*
X133152562Y-75277297D01*
X133277244Y-75724993D01*
X133416256Y-76224710D01*
X133429883Y-76273724D01*
X133567616Y-76755842D01*
X133692482Y-77167833D01*
X133797098Y-77487358D01*
X133874087Y-77692078D01*
X133916066Y-77759653D01*
X133919386Y-77755390D01*
X133955970Y-77640047D01*
X134031841Y-77389068D01*
X134138976Y-77029407D01*
X134269351Y-76588018D01*
X134414943Y-76091854D01*
X134433907Y-76027000D01*
X134904114Y-74418333D01*
X135808367Y-74394343D01*
X136712619Y-74370352D01*
X136800826Y-74690676D01*
G37*
X136800826Y-74690676D02*
X136844920Y-74849070D01*
X136928649Y-75148213D01*
X137045769Y-75565856D01*
X137190033Y-76079750D01*
X137355198Y-76667645D01*
X137535018Y-77307290D01*
X137639284Y-77678000D01*
X138389536Y-80345000D01*
X140436510Y-80367678D01*
X141171141Y-80371851D01*
X141768303Y-80366793D01*
X142219934Y-80352745D01*
X142517973Y-80329949D01*
X142650075Y-80301199D01*
X142769021Y-80154199D01*
X142818502Y-79926061D01*
X142791865Y-79692899D01*
X142715067Y-79557600D01*
X142596559Y-79512988D01*
X142337726Y-79481562D01*
X141929326Y-79462656D01*
X141362116Y-79455606D01*
X141296900Y-79455527D01*
X140814553Y-79449759D01*
X140367780Y-79434195D01*
X139995253Y-79410922D01*
X139735642Y-79382025D01*
X139664972Y-79367471D01*
X139187207Y-79149303D01*
X138759707Y-78782320D01*
X138401997Y-78284227D01*
X138336866Y-78163243D01*
X138177536Y-77825882D01*
X138089456Y-77549070D01*
X138052452Y-77250824D01*
X138046126Y-76981664D01*
X138113521Y-76322756D01*
X138322324Y-75753785D01*
X138675796Y-75269802D01*
X139177198Y-74865863D01*
X139589173Y-74641443D01*
X140065000Y-74418333D01*
X143451667Y-74396027D01*
X146838334Y-74373722D01*
X147600334Y-75436296D01*
X148362334Y-76498869D01*
X148547513Y-76268216D01*
X148669790Y-76106747D01*
X148860781Y-75843982D01*
X149093064Y-75518019D01*
X149309513Y-75209633D01*
X149886334Y-74381703D01*
X151135167Y-74378851D01*
X151573192Y-74380788D01*
X151944077Y-74388027D01*
X152218310Y-74399549D01*
X152366380Y-74414334D01*
X152384000Y-74421993D01*
X152336861Y-74500304D01*
X152203816Y-74698284D01*
X151997425Y-74997841D01*
X151730247Y-75380882D01*
X151414843Y-75829315D01*
X151063771Y-76325046D01*
X151028042Y-76375320D01*
X150649838Y-76913731D01*
X150323284Y-77391385D01*
X150058378Y-77792812D01*
X149865121Y-78102540D01*
X149753511Y-78305097D01*
X149730823Y-78382494D01*
X149793303Y-78475317D01*
X149940535Y-78687804D01*
X150159504Y-79001361D01*
X150437193Y-79397398D01*
X150760584Y-79857321D01*
X151116660Y-80362539D01*
X151171448Y-80440176D01*
X151528100Y-80947277D01*
X151850605Y-81409285D01*
X152126602Y-81808213D01*
X152343731Y-82126075D01*
X152489631Y-82344884D01*
X152551943Y-82446655D01*
X152553334Y-82451009D01*
X152473647Y-82469798D01*
X152254491Y-82485655D01*
X151925722Y-82497286D01*
X151517197Y-82503393D01*
X151333099Y-82504000D01*
X150112864Y-82503999D01*
X149708537Y-81932500D01*
X149454915Y-81576931D01*
X149159341Y-81166843D01*
X148880638Y-80783802D01*
X148848343Y-80739742D01*
X148392475Y-80118485D01*
X147578693Y-81311242D01*
X146764910Y-82504000D01*
X145510455Y-82504000D01*
X145071377Y-82501115D01*
X144699373Y-82493171D01*
X144423892Y-82481232D01*
X144274380Y-82466364D01*
X144256000Y-82458626D01*
X144302608Y-82380149D01*
X144434204Y-82181184D01*
X144638442Y-81879812D01*
X144902978Y-81494109D01*
X145215470Y-81042156D01*
X145563572Y-80542031D01*
X145611756Y-80473047D01*
X145966658Y-79963269D01*
X146290170Y-79494986D01*
X146569366Y-79087195D01*
X146791321Y-78758893D01*
X146943110Y-78529077D01*
X147011808Y-78416745D01*
X147013703Y-78412468D01*
X146985697Y-78299560D01*
X146874814Y-78078493D01*
X146697297Y-77778400D01*
X146469392Y-77428410D01*
X146444860Y-77392381D01*
X145829826Y-76492666D01*
X143101627Y-76492666D01*
X142311373Y-76493271D01*
X141674018Y-76496764D01*
X141173126Y-76505662D01*
X140792264Y-76522482D01*
X140514997Y-76549742D01*
X140324890Y-76589957D01*
X140205508Y-76645645D01*
X140140418Y-76719324D01*
X140113185Y-76813510D01*
X140107373Y-76930721D01*
X140107333Y-76951258D01*
X140125667Y-77118616D01*
X140195112Y-77241834D01*
X140337333Y-77327398D01*
X140573993Y-77381794D01*
X140926759Y-77411508D01*
X141417293Y-77423025D01*
X141686418Y-77423999D01*
X142315503Y-77432383D01*
X142807731Y-77462794D01*
X143194988Y-77523121D01*
X143509161Y-77621255D01*
X143782134Y-77765084D01*
X144045793Y-77962498D01*
X144119550Y-78026036D01*
X144552758Y-78511396D01*
X144834164Y-79071548D01*
X144964137Y-79707330D01*
X144973915Y-79964000D01*
X144895152Y-80632126D01*
X144668710Y-81228073D01*
X144303575Y-81737189D01*
X143808731Y-82144825D01*
X143546924Y-82290860D01*
X143106996Y-82506097D01*
X139938980Y-82483882D01*
X136770963Y-82461666D01*
X136304775Y-80708429D01*
X136166458Y-80194692D01*
X136041620Y-79743229D01*
X135936939Y-79377199D01*
X135859094Y-79119764D01*
X135814762Y-78994083D01*
X135808040Y-78985737D01*
X135780839Y-79069428D01*
X135718011Y-79287538D01*
X135627491Y-79610853D01*
X135517213Y-80010161D01*
X135395112Y-80456246D01*
X135269123Y-80919895D01*
X135147182Y-81371893D01*
X135037222Y-81783026D01*
X134947179Y-82124080D01*
X134884987Y-82365841D01*
X134858582Y-82479094D01*
X134858192Y-82482833D01*
X134779154Y-82491356D01*
X134565044Y-82498238D01*
X134250123Y-82502698D01*
X133930667Y-82504000D01*
X133003334Y-82504000D01*
X132845372Y-81974833D01*
X132763965Y-81695248D01*
X132651603Y-81300015D01*
X132521744Y-80836895D01*
X132387843Y-80353646D01*
X132356377Y-80239166D01*
X132237442Y-79816042D01*
X132131360Y-79457917D01*
X132046999Y-79193280D01*
X131993229Y-79050621D01*
X131981172Y-79033803D01*
X131949116Y-79112545D01*
X131884580Y-79332024D01*
X131793989Y-79668174D01*
X131683768Y-80096928D01*
X131560343Y-80594219D01*
X131517760Y-80769470D01*
X131098520Y-82504000D01*
X130005868Y-82504000D01*
X129538543Y-82500142D01*
X129220633Y-82487247D01*
X129032365Y-82463331D01*
X128953969Y-82426410D01*
X128951082Y-82398166D01*
X128978862Y-82297096D01*
X129043872Y-82048234D01*
X129141922Y-81667979D01*
X129268818Y-81172729D01*
X129420368Y-80578880D01*
X129592382Y-79902832D01*
X129780666Y-79160981D01*
X129981029Y-78369726D01*
X129990023Y-78334166D01*
X130991099Y-74376000D01*
X131945177Y-74376000D01*
X132364503Y-74378913D01*
X132644170Y-74390588D01*
X132813797Y-74415428D01*
X132903001Y-74457835D01*
X132941401Y-74522211D01*
X132941974Y-74524166D01*
X132977179Y-74649099D01*
X133049958Y-74909404D01*
X133152562Y-75277297D01*
X133277244Y-75724993D01*
X133416256Y-76224710D01*
X133429883Y-76273724D01*
X133567616Y-76755842D01*
X133692482Y-77167833D01*
X133797098Y-77487358D01*
X133874087Y-77692078D01*
X133916066Y-77759653D01*
X133919386Y-77755390D01*
X133955970Y-77640047D01*
X134031841Y-77389068D01*
X134138976Y-77029407D01*
X134269351Y-76588018D01*
X134414943Y-76091854D01*
X134433907Y-76027000D01*
X134904114Y-74418333D01*
X135808367Y-74394343D01*
X136712619Y-74370352D01*
X136800826Y-74690676D01*
D14*
X156044900Y-70154800D02*
X157060900Y-70154800D01*
X119722900Y-56184800D02*
X119722900Y-70154800D01*
X119722900Y-70154800D02*
X120738900Y-70154800D01*
X157060900Y-70154800D02*
X157060900Y-63474600D01*
X157060900Y-63474600D02*
X157060900Y-62865000D01*
X157060900Y-62865000D02*
X157060900Y-56184800D01*
X157060900Y-56184800D02*
X156222700Y-56184800D01*
X120738900Y-56184800D02*
X119722900Y-56184800D01*
X157060900Y-63474600D02*
G75*
G02X157060900Y-62865000I0J304800D01*
G01*
D12*
X159225500Y-70143400D02*
X159225500Y-68885400D01*
X157385500Y-70143400D02*
X157385500Y-68885400D01*
D10*
X171737386Y-52851560D02*
X171737386Y-53565846D01*
X171689767Y-53708703D01*
X171594529Y-53803941D01*
X171451672Y-53851560D01*
X171356434Y-53851560D01*
X172737386Y-53851560D02*
X172165958Y-53851560D01*
X172451672Y-53851560D02*
X172451672Y-52851560D01*
X172356434Y-52994418D01*
X172261196Y-53089656D01*
X172165958Y-53137275D01*
X97166647Y-66943399D02*
X97928552Y-66943399D01*
X102246647Y-66933239D02*
X103008552Y-66933239D01*
X102272047Y-71992919D02*
X103033952Y-71992919D01*
X97192047Y-72003079D02*
X97953952Y-72003079D01*
X107299807Y-51677819D02*
X108061712Y-51677819D01*
X92100447Y-51632099D02*
X92862352Y-51632099D01*
X107279487Y-56742579D02*
X108041392Y-56742579D01*
X92080127Y-56696859D02*
X92842032Y-56696859D01*
X87020447Y-51642259D02*
X87782352Y-51642259D01*
X87000127Y-56707019D02*
X87762032Y-56707019D01*
X107304887Y-61802259D02*
X108066792Y-61802259D01*
X92105527Y-61756539D02*
X92867432Y-61756539D01*
X87025527Y-61766699D02*
X87787432Y-61766699D01*
X107340447Y-31489899D02*
X108102352Y-31489899D01*
X122524567Y-31489899D02*
X123286472Y-31489899D01*
X92141087Y-31444179D02*
X92902992Y-31444179D01*
X167995647Y-31566099D02*
X168757552Y-31566099D01*
X137683287Y-31510219D02*
X138445192Y-31510219D01*
X122504247Y-36554659D02*
X123266152Y-36554659D01*
X87061087Y-31454339D02*
X87822992Y-31454339D01*
X152852167Y-31535619D02*
X153614072Y-31535619D01*
X92120767Y-36508939D02*
X92882672Y-36508939D01*
X107320127Y-36554659D02*
X108082032Y-36554659D01*
X167975327Y-36630859D02*
X168737232Y-36630859D01*
X152831847Y-36600379D02*
X153593752Y-36600379D01*
X137662967Y-36574979D02*
X138424872Y-36574979D01*
X87040767Y-36519099D02*
X87802672Y-36519099D01*
X122529647Y-41614339D02*
X123291552Y-41614339D01*
X92146167Y-41568619D02*
X92908072Y-41568619D01*
X107345527Y-41614339D02*
X108107432Y-41614339D01*
X168000727Y-41690539D02*
X168762632Y-41690539D01*
X152857247Y-41660059D02*
X153619152Y-41660059D01*
X137688367Y-41634659D02*
X138450272Y-41634659D01*
X87066167Y-41578779D02*
X87828072Y-41578779D01*
X87045847Y-46643539D02*
X87807752Y-46643539D01*
X92125847Y-46633379D02*
X92887752Y-46633379D01*
X107325207Y-46679099D02*
X108087112Y-46679099D01*
X167980407Y-46755299D02*
X168742312Y-46755299D01*
X152836927Y-46724819D02*
X153598832Y-46724819D01*
X137668047Y-46699419D02*
X138429952Y-46699419D01*
X122509327Y-46679099D02*
X123271232Y-46679099D01*
X137681744Y-87149820D02*
X137681744Y-86149820D01*
X138062697Y-86149820D01*
X138157935Y-86197440D01*
X138205554Y-86245059D01*
X138253173Y-86340297D01*
X138253173Y-86483154D01*
X138205554Y-86578392D01*
X138157935Y-86626011D01*
X138062697Y-86673630D01*
X137681744Y-86673630D01*
X139205554Y-87149820D02*
X138634125Y-87149820D01*
X138919840Y-87149820D02*
X138919840Y-86149820D01*
X138824601Y-86292678D01*
X138729363Y-86387916D01*
X138634125Y-86435535D01*
D15*
X153215512Y-64318965D02*
X154544450Y-64318965D01*
X154700796Y-64240792D01*
X154778969Y-64162620D01*
X154857142Y-64006274D01*
X154857142Y-63693582D01*
X154778969Y-63537237D01*
X154700796Y-63459064D01*
X154544450Y-63380891D01*
X153215512Y-63380891D01*
X154857142Y-61739261D02*
X154857142Y-62677335D01*
X154857142Y-62208298D02*
X153215512Y-62208298D01*
X153450030Y-62364644D01*
X153606376Y-62520990D01*
X153684549Y-62677335D01*
D10*
X158011833Y-73135762D02*
X157964214Y-73183381D01*
X157821357Y-73231000D01*
X157726119Y-73231000D01*
X157583261Y-73183381D01*
X157488023Y-73088143D01*
X157440404Y-72992905D01*
X157392785Y-72802429D01*
X157392785Y-72659572D01*
X157440404Y-72469096D01*
X157488023Y-72373858D01*
X157583261Y-72278620D01*
X157726119Y-72231000D01*
X157821357Y-72231000D01*
X157964214Y-72278620D01*
X158011833Y-72326239D01*
X158964214Y-73231000D02*
X158392785Y-73231000D01*
X158678500Y-73231000D02*
X158678500Y-72231000D01*
X158583261Y-72373858D01*
X158488023Y-72469096D01*
X158392785Y-72516715D01*
M02*
