G04 #@! TF.GenerationSoftware,KiCad,Pcbnew,(5.1.5)-3*
G04 #@! TF.CreationDate,2020-07-01T21:27:05+01:00*
G04 #@! TF.ProjectId,msx_eeprom,6d73785f-6565-4707-926f-6d2e6b696361,rev?*
G04 #@! TF.SameCoordinates,Original*
G04 #@! TF.FileFunction,Soldermask,Top*
G04 #@! TF.FilePolarity,Negative*
%FSLAX46Y46*%
G04 Gerber Fmt 4.6, Leading zero omitted, Abs format (unit mm)*
G04 Created by KiCad (PCBNEW (5.1.5)-3) date 2020-07-01 21:27:05*
%MOMM*%
%LPD*%
G04 APERTURE LIST*
%ADD10C,0.100000*%
G04 APERTURE END LIST*
D10*
G36*
X167310840Y-93558440D02*
G01*
X165408840Y-93558440D01*
X165408840Y-85456440D01*
X167310840Y-85456440D01*
X167310840Y-93558440D01*
G37*
G36*
X136830840Y-93558440D02*
G01*
X134928840Y-93558440D01*
X134928840Y-85456440D01*
X136830840Y-85456440D01*
X136830840Y-93558440D01*
G37*
G36*
X108890840Y-93558440D02*
G01*
X106988840Y-93558440D01*
X106988840Y-85456440D01*
X108890840Y-85456440D01*
X108890840Y-93558440D01*
G37*
G36*
X111430840Y-93558440D02*
G01*
X109528840Y-93558440D01*
X109528840Y-85456440D01*
X111430840Y-85456440D01*
X111430840Y-93558440D01*
G37*
G36*
X113970840Y-93558440D02*
G01*
X112068840Y-93558440D01*
X112068840Y-85456440D01*
X113970840Y-85456440D01*
X113970840Y-93558440D01*
G37*
G36*
X119050840Y-93558440D02*
G01*
X117148840Y-93558440D01*
X117148840Y-85456440D01*
X119050840Y-85456440D01*
X119050840Y-93558440D01*
G37*
G36*
X121590840Y-93558440D02*
G01*
X119688840Y-93558440D01*
X119688840Y-85456440D01*
X121590840Y-85456440D01*
X121590840Y-93558440D01*
G37*
G36*
X124130840Y-93558440D02*
G01*
X122228840Y-93558440D01*
X122228840Y-85456440D01*
X124130840Y-85456440D01*
X124130840Y-93558440D01*
G37*
G36*
X126670840Y-93558440D02*
G01*
X124768840Y-93558440D01*
X124768840Y-85456440D01*
X126670840Y-85456440D01*
X126670840Y-93558440D01*
G37*
G36*
X129210840Y-93558440D02*
G01*
X127308840Y-93558440D01*
X127308840Y-85456440D01*
X129210840Y-85456440D01*
X129210840Y-93558440D01*
G37*
G36*
X131750840Y-93558440D02*
G01*
X129848840Y-93558440D01*
X129848840Y-85456440D01*
X131750840Y-85456440D01*
X131750840Y-93558440D01*
G37*
G36*
X134290840Y-93558440D02*
G01*
X132388840Y-93558440D01*
X132388840Y-85456440D01*
X134290840Y-85456440D01*
X134290840Y-93558440D01*
G37*
G36*
X169850840Y-93558440D02*
G01*
X167948840Y-93558440D01*
X167948840Y-85456440D01*
X169850840Y-85456440D01*
X169850840Y-93558440D01*
G37*
G36*
X141910840Y-93558440D02*
G01*
X140008840Y-93558440D01*
X140008840Y-85456440D01*
X141910840Y-85456440D01*
X141910840Y-93558440D01*
G37*
G36*
X139370840Y-93558440D02*
G01*
X137468840Y-93558440D01*
X137468840Y-85456440D01*
X139370840Y-85456440D01*
X139370840Y-93558440D01*
G37*
G36*
X164770840Y-93558440D02*
G01*
X162868840Y-93558440D01*
X162868840Y-85456440D01*
X164770840Y-85456440D01*
X164770840Y-93558440D01*
G37*
G36*
X162230840Y-93558440D02*
G01*
X160328840Y-93558440D01*
X160328840Y-85456440D01*
X162230840Y-85456440D01*
X162230840Y-93558440D01*
G37*
G36*
X159690840Y-93558440D02*
G01*
X157788840Y-93558440D01*
X157788840Y-85456440D01*
X159690840Y-85456440D01*
X159690840Y-93558440D01*
G37*
G36*
X157150840Y-93558440D02*
G01*
X155248840Y-93558440D01*
X155248840Y-85456440D01*
X157150840Y-85456440D01*
X157150840Y-93558440D01*
G37*
G36*
X152070840Y-93558440D02*
G01*
X150168840Y-93558440D01*
X150168840Y-85456440D01*
X152070840Y-85456440D01*
X152070840Y-93558440D01*
G37*
G36*
X149530840Y-93558440D02*
G01*
X147628840Y-93558440D01*
X147628840Y-85456440D01*
X149530840Y-85456440D01*
X149530840Y-93558440D01*
G37*
G36*
X146990840Y-93558440D02*
G01*
X145088840Y-93558440D01*
X145088840Y-85456440D01*
X146990840Y-85456440D01*
X146990840Y-93558440D01*
G37*
G36*
X144450840Y-93558440D02*
G01*
X142548840Y-93558440D01*
X142548840Y-85456440D01*
X144450840Y-85456440D01*
X144450840Y-93558440D01*
G37*
G36*
X154610840Y-93558440D02*
G01*
X152708840Y-93558440D01*
X152708840Y-85456440D01*
X154610840Y-85456440D01*
X154610840Y-93558440D01*
G37*
G36*
X116505760Y-92565680D02*
G01*
X114603760Y-92565680D01*
X114603760Y-85463680D01*
X116505760Y-85463680D01*
X116505760Y-92565680D01*
G37*
G36*
X166541354Y-77281822D02*
G01*
X166668962Y-77307205D01*
X166809788Y-77365537D01*
X166909367Y-77406784D01*
X166909368Y-77406785D01*
X167125729Y-77551352D01*
X167309728Y-77735351D01*
X167406325Y-77879919D01*
X167454296Y-77951713D01*
X167495543Y-78051292D01*
X167553875Y-78192118D01*
X167604640Y-78447333D01*
X167604640Y-78707547D01*
X167553875Y-78962762D01*
X167495543Y-79103588D01*
X167454296Y-79203167D01*
X167454295Y-79203168D01*
X167309728Y-79419529D01*
X167125729Y-79603528D01*
X166981161Y-79700125D01*
X166909367Y-79748096D01*
X166809788Y-79789343D01*
X166668962Y-79847675D01*
X166541354Y-79873058D01*
X166413749Y-79898440D01*
X166153531Y-79898440D01*
X166025926Y-79873058D01*
X165898318Y-79847675D01*
X165757492Y-79789343D01*
X165657913Y-79748096D01*
X165586119Y-79700125D01*
X165441551Y-79603528D01*
X165257552Y-79419529D01*
X165112985Y-79203168D01*
X165112984Y-79203167D01*
X165071737Y-79103588D01*
X165013405Y-78962762D01*
X164962640Y-78707547D01*
X164962640Y-78447333D01*
X165013405Y-78192118D01*
X165071737Y-78051292D01*
X165112984Y-77951713D01*
X165160955Y-77879919D01*
X165257552Y-77735351D01*
X165441551Y-77551352D01*
X165657912Y-77406785D01*
X165657913Y-77406784D01*
X165757492Y-77365537D01*
X165898318Y-77307205D01*
X166025925Y-77281823D01*
X166153531Y-77256440D01*
X166413749Y-77256440D01*
X166541354Y-77281822D01*
G37*
G36*
X100533570Y-76493750D02*
G01*
X98432590Y-76493750D01*
X98432590Y-74392770D01*
X100533570Y-74392770D01*
X100533570Y-76493750D01*
G37*
G36*
X97993570Y-76493750D02*
G01*
X95892590Y-76493750D01*
X95892590Y-74392770D01*
X97993570Y-74392770D01*
X97993570Y-76493750D01*
G37*
G36*
X103073570Y-76483590D02*
G01*
X100972590Y-76483590D01*
X100972590Y-74382610D01*
X103073570Y-74382610D01*
X103073570Y-76483590D01*
G37*
G36*
X105613570Y-76483590D02*
G01*
X103512590Y-76483590D01*
X103512590Y-74382610D01*
X105613570Y-74382610D01*
X105613570Y-76483590D01*
G37*
G36*
X110541975Y-72079903D02*
G01*
X110669582Y-72105285D01*
X110810408Y-72163617D01*
X110909987Y-72204864D01*
X110909988Y-72204865D01*
X111126349Y-72349432D01*
X111310348Y-72533431D01*
X111406945Y-72677999D01*
X111454916Y-72749793D01*
X111496163Y-72849372D01*
X111554495Y-72990198D01*
X111605260Y-73245413D01*
X111605260Y-73505627D01*
X111554495Y-73760842D01*
X111496163Y-73901668D01*
X111454916Y-74001247D01*
X111454915Y-74001248D01*
X111310348Y-74217609D01*
X111126349Y-74401608D01*
X110981781Y-74498205D01*
X110909987Y-74546176D01*
X110810408Y-74587423D01*
X110669582Y-74645755D01*
X110541975Y-74671137D01*
X110414369Y-74696520D01*
X110154151Y-74696520D01*
X110026545Y-74671137D01*
X109898938Y-74645755D01*
X109758112Y-74587423D01*
X109658533Y-74546176D01*
X109586739Y-74498205D01*
X109442171Y-74401608D01*
X109258172Y-74217609D01*
X109113605Y-74001248D01*
X109113604Y-74001247D01*
X109072357Y-73901668D01*
X109014025Y-73760842D01*
X108963260Y-73505627D01*
X108963260Y-73245413D01*
X109014025Y-72990198D01*
X109072357Y-72849372D01*
X109113604Y-72749793D01*
X109161575Y-72677999D01*
X109258172Y-72533431D01*
X109442171Y-72349432D01*
X109658532Y-72204865D01*
X109658533Y-72204864D01*
X109758112Y-72163617D01*
X109898938Y-72105285D01*
X110026545Y-72079903D01*
X110154151Y-72054520D01*
X110414369Y-72054520D01*
X110541975Y-72079903D01*
G37*
G36*
X100533570Y-73953750D02*
G01*
X98432590Y-73953750D01*
X98432590Y-71852770D01*
X100533570Y-71852770D01*
X100533570Y-73953750D01*
G37*
G36*
X97993570Y-73953750D02*
G01*
X95892590Y-73953750D01*
X95892590Y-71852770D01*
X97993570Y-71852770D01*
X97993570Y-73953750D01*
G37*
G36*
X105613570Y-73943590D02*
G01*
X103512590Y-73943590D01*
X103512590Y-71842610D01*
X105613570Y-71842610D01*
X105613570Y-73943590D01*
G37*
G36*
X103073570Y-73943590D02*
G01*
X100972590Y-73943590D01*
X100972590Y-71842610D01*
X103073570Y-71842610D01*
X103073570Y-73943590D01*
G37*
G36*
X169069232Y-70013107D02*
G01*
X169218532Y-70042804D01*
X169382504Y-70110724D01*
X169530074Y-70209327D01*
X169655573Y-70334826D01*
X169754176Y-70482396D01*
X169822096Y-70646368D01*
X169851793Y-70795668D01*
X169856720Y-70820438D01*
X169856720Y-70997922D01*
X169851793Y-71022692D01*
X169822096Y-71171992D01*
X169754176Y-71335964D01*
X169655573Y-71483534D01*
X169530074Y-71609033D01*
X169382504Y-71707636D01*
X169218532Y-71775556D01*
X169069232Y-71805253D01*
X169044462Y-71810180D01*
X168866978Y-71810180D01*
X168842208Y-71805253D01*
X168692908Y-71775556D01*
X168528936Y-71707636D01*
X168381366Y-71609033D01*
X168255867Y-71483534D01*
X168157264Y-71335964D01*
X168089344Y-71171992D01*
X168059647Y-71022692D01*
X168054720Y-70997922D01*
X168054720Y-70820438D01*
X168059647Y-70795668D01*
X168089344Y-70646368D01*
X168157264Y-70482396D01*
X168255867Y-70334826D01*
X168381366Y-70209327D01*
X168528936Y-70110724D01*
X168692908Y-70042804D01*
X168842208Y-70013107D01*
X168866978Y-70008180D01*
X169044462Y-70008180D01*
X169069232Y-70013107D01*
G37*
G36*
X166529232Y-70013107D02*
G01*
X166678532Y-70042804D01*
X166842504Y-70110724D01*
X166990074Y-70209327D01*
X167115573Y-70334826D01*
X167214176Y-70482396D01*
X167282096Y-70646368D01*
X167311793Y-70795668D01*
X167316720Y-70820438D01*
X167316720Y-70997922D01*
X167311793Y-71022692D01*
X167282096Y-71171992D01*
X167214176Y-71335964D01*
X167115573Y-71483534D01*
X166990074Y-71609033D01*
X166842504Y-71707636D01*
X166678532Y-71775556D01*
X166529232Y-71805253D01*
X166504462Y-71810180D01*
X166326978Y-71810180D01*
X166302208Y-71805253D01*
X166152908Y-71775556D01*
X165988936Y-71707636D01*
X165841366Y-71609033D01*
X165715867Y-71483534D01*
X165617264Y-71335964D01*
X165549344Y-71171992D01*
X165519647Y-71022692D01*
X165514720Y-70997922D01*
X165514720Y-70820438D01*
X165519647Y-70795668D01*
X165549344Y-70646368D01*
X165617264Y-70482396D01*
X165715867Y-70334826D01*
X165841366Y-70209327D01*
X165988936Y-70110724D01*
X166152908Y-70042804D01*
X166302208Y-70013107D01*
X166326978Y-70008180D01*
X166504462Y-70008180D01*
X166529232Y-70013107D01*
G37*
G36*
X122141269Y-69934771D02*
G01*
X122303095Y-70001802D01*
X122448729Y-70099111D01*
X122572589Y-70222971D01*
X122669898Y-70368605D01*
X122736929Y-70530431D01*
X122771100Y-70702220D01*
X122771100Y-70877380D01*
X122736929Y-71049169D01*
X122669898Y-71210995D01*
X122572589Y-71356629D01*
X122448729Y-71480489D01*
X122303095Y-71577798D01*
X122141269Y-71644829D01*
X121969480Y-71679000D01*
X121794320Y-71679000D01*
X121622531Y-71644829D01*
X121460705Y-71577798D01*
X121315071Y-71480489D01*
X121191211Y-71356629D01*
X121093902Y-71210995D01*
X121026871Y-71049169D01*
X120992700Y-70877380D01*
X120992700Y-70702220D01*
X121026871Y-70530431D01*
X121093902Y-70368605D01*
X121191211Y-70222971D01*
X121315071Y-70099111D01*
X121460705Y-70001802D01*
X121622531Y-69934771D01*
X121794320Y-69900600D01*
X121969480Y-69900600D01*
X122141269Y-69934771D01*
G37*
G36*
X155161269Y-69934771D02*
G01*
X155323095Y-70001802D01*
X155468729Y-70099111D01*
X155592589Y-70222971D01*
X155689898Y-70368605D01*
X155756929Y-70530431D01*
X155791100Y-70702220D01*
X155791100Y-70877380D01*
X155756929Y-71049169D01*
X155689898Y-71210995D01*
X155592589Y-71356629D01*
X155468729Y-71480489D01*
X155323095Y-71577798D01*
X155161269Y-71644829D01*
X154989480Y-71679000D01*
X154814320Y-71679000D01*
X154642531Y-71644829D01*
X154480705Y-71577798D01*
X154335071Y-71480489D01*
X154211211Y-71356629D01*
X154113902Y-71210995D01*
X154046871Y-71049169D01*
X154012700Y-70877380D01*
X154012700Y-70702220D01*
X154046871Y-70530431D01*
X154113902Y-70368605D01*
X154211211Y-70222971D01*
X154335071Y-70099111D01*
X154480705Y-70001802D01*
X154642531Y-69934771D01*
X154814320Y-69900600D01*
X154989480Y-69900600D01*
X155161269Y-69934771D01*
G37*
G36*
X152621269Y-69934771D02*
G01*
X152783095Y-70001802D01*
X152928729Y-70099111D01*
X153052589Y-70222971D01*
X153149898Y-70368605D01*
X153216929Y-70530431D01*
X153251100Y-70702220D01*
X153251100Y-70877380D01*
X153216929Y-71049169D01*
X153149898Y-71210995D01*
X153052589Y-71356629D01*
X152928729Y-71480489D01*
X152783095Y-71577798D01*
X152621269Y-71644829D01*
X152449480Y-71679000D01*
X152274320Y-71679000D01*
X152102531Y-71644829D01*
X151940705Y-71577798D01*
X151795071Y-71480489D01*
X151671211Y-71356629D01*
X151573902Y-71210995D01*
X151506871Y-71049169D01*
X151472700Y-70877380D01*
X151472700Y-70702220D01*
X151506871Y-70530431D01*
X151573902Y-70368605D01*
X151671211Y-70222971D01*
X151795071Y-70099111D01*
X151940705Y-70001802D01*
X152102531Y-69934771D01*
X152274320Y-69900600D01*
X152449480Y-69900600D01*
X152621269Y-69934771D01*
G37*
G36*
X150081269Y-69934771D02*
G01*
X150243095Y-70001802D01*
X150388729Y-70099111D01*
X150512589Y-70222971D01*
X150609898Y-70368605D01*
X150676929Y-70530431D01*
X150711100Y-70702220D01*
X150711100Y-70877380D01*
X150676929Y-71049169D01*
X150609898Y-71210995D01*
X150512589Y-71356629D01*
X150388729Y-71480489D01*
X150243095Y-71577798D01*
X150081269Y-71644829D01*
X149909480Y-71679000D01*
X149734320Y-71679000D01*
X149562531Y-71644829D01*
X149400705Y-71577798D01*
X149255071Y-71480489D01*
X149131211Y-71356629D01*
X149033902Y-71210995D01*
X148966871Y-71049169D01*
X148932700Y-70877380D01*
X148932700Y-70702220D01*
X148966871Y-70530431D01*
X149033902Y-70368605D01*
X149131211Y-70222971D01*
X149255071Y-70099111D01*
X149400705Y-70001802D01*
X149562531Y-69934771D01*
X149734320Y-69900600D01*
X149909480Y-69900600D01*
X150081269Y-69934771D01*
G37*
G36*
X147541269Y-69934771D02*
G01*
X147703095Y-70001802D01*
X147848729Y-70099111D01*
X147972589Y-70222971D01*
X148069898Y-70368605D01*
X148136929Y-70530431D01*
X148171100Y-70702220D01*
X148171100Y-70877380D01*
X148136929Y-71049169D01*
X148069898Y-71210995D01*
X147972589Y-71356629D01*
X147848729Y-71480489D01*
X147703095Y-71577798D01*
X147541269Y-71644829D01*
X147369480Y-71679000D01*
X147194320Y-71679000D01*
X147022531Y-71644829D01*
X146860705Y-71577798D01*
X146715071Y-71480489D01*
X146591211Y-71356629D01*
X146493902Y-71210995D01*
X146426871Y-71049169D01*
X146392700Y-70877380D01*
X146392700Y-70702220D01*
X146426871Y-70530431D01*
X146493902Y-70368605D01*
X146591211Y-70222971D01*
X146715071Y-70099111D01*
X146860705Y-70001802D01*
X147022531Y-69934771D01*
X147194320Y-69900600D01*
X147369480Y-69900600D01*
X147541269Y-69934771D01*
G37*
G36*
X145001269Y-69934771D02*
G01*
X145163095Y-70001802D01*
X145308729Y-70099111D01*
X145432589Y-70222971D01*
X145529898Y-70368605D01*
X145596929Y-70530431D01*
X145631100Y-70702220D01*
X145631100Y-70877380D01*
X145596929Y-71049169D01*
X145529898Y-71210995D01*
X145432589Y-71356629D01*
X145308729Y-71480489D01*
X145163095Y-71577798D01*
X145001269Y-71644829D01*
X144829480Y-71679000D01*
X144654320Y-71679000D01*
X144482531Y-71644829D01*
X144320705Y-71577798D01*
X144175071Y-71480489D01*
X144051211Y-71356629D01*
X143953902Y-71210995D01*
X143886871Y-71049169D01*
X143852700Y-70877380D01*
X143852700Y-70702220D01*
X143886871Y-70530431D01*
X143953902Y-70368605D01*
X144051211Y-70222971D01*
X144175071Y-70099111D01*
X144320705Y-70001802D01*
X144482531Y-69934771D01*
X144654320Y-69900600D01*
X144829480Y-69900600D01*
X145001269Y-69934771D01*
G37*
G36*
X142461269Y-69934771D02*
G01*
X142623095Y-70001802D01*
X142768729Y-70099111D01*
X142892589Y-70222971D01*
X142989898Y-70368605D01*
X143056929Y-70530431D01*
X143091100Y-70702220D01*
X143091100Y-70877380D01*
X143056929Y-71049169D01*
X142989898Y-71210995D01*
X142892589Y-71356629D01*
X142768729Y-71480489D01*
X142623095Y-71577798D01*
X142461269Y-71644829D01*
X142289480Y-71679000D01*
X142114320Y-71679000D01*
X141942531Y-71644829D01*
X141780705Y-71577798D01*
X141635071Y-71480489D01*
X141511211Y-71356629D01*
X141413902Y-71210995D01*
X141346871Y-71049169D01*
X141312700Y-70877380D01*
X141312700Y-70702220D01*
X141346871Y-70530431D01*
X141413902Y-70368605D01*
X141511211Y-70222971D01*
X141635071Y-70099111D01*
X141780705Y-70001802D01*
X141942531Y-69934771D01*
X142114320Y-69900600D01*
X142289480Y-69900600D01*
X142461269Y-69934771D01*
G37*
G36*
X139921269Y-69934771D02*
G01*
X140083095Y-70001802D01*
X140228729Y-70099111D01*
X140352589Y-70222971D01*
X140449898Y-70368605D01*
X140516929Y-70530431D01*
X140551100Y-70702220D01*
X140551100Y-70877380D01*
X140516929Y-71049169D01*
X140449898Y-71210995D01*
X140352589Y-71356629D01*
X140228729Y-71480489D01*
X140083095Y-71577798D01*
X139921269Y-71644829D01*
X139749480Y-71679000D01*
X139574320Y-71679000D01*
X139402531Y-71644829D01*
X139240705Y-71577798D01*
X139095071Y-71480489D01*
X138971211Y-71356629D01*
X138873902Y-71210995D01*
X138806871Y-71049169D01*
X138772700Y-70877380D01*
X138772700Y-70702220D01*
X138806871Y-70530431D01*
X138873902Y-70368605D01*
X138971211Y-70222971D01*
X139095071Y-70099111D01*
X139240705Y-70001802D01*
X139402531Y-69934771D01*
X139574320Y-69900600D01*
X139749480Y-69900600D01*
X139921269Y-69934771D01*
G37*
G36*
X137381269Y-69934771D02*
G01*
X137543095Y-70001802D01*
X137688729Y-70099111D01*
X137812589Y-70222971D01*
X137909898Y-70368605D01*
X137976929Y-70530431D01*
X138011100Y-70702220D01*
X138011100Y-70877380D01*
X137976929Y-71049169D01*
X137909898Y-71210995D01*
X137812589Y-71356629D01*
X137688729Y-71480489D01*
X137543095Y-71577798D01*
X137381269Y-71644829D01*
X137209480Y-71679000D01*
X137034320Y-71679000D01*
X136862531Y-71644829D01*
X136700705Y-71577798D01*
X136555071Y-71480489D01*
X136431211Y-71356629D01*
X136333902Y-71210995D01*
X136266871Y-71049169D01*
X136232700Y-70877380D01*
X136232700Y-70702220D01*
X136266871Y-70530431D01*
X136333902Y-70368605D01*
X136431211Y-70222971D01*
X136555071Y-70099111D01*
X136700705Y-70001802D01*
X136862531Y-69934771D01*
X137034320Y-69900600D01*
X137209480Y-69900600D01*
X137381269Y-69934771D01*
G37*
G36*
X134841269Y-69934771D02*
G01*
X135003095Y-70001802D01*
X135148729Y-70099111D01*
X135272589Y-70222971D01*
X135369898Y-70368605D01*
X135436929Y-70530431D01*
X135471100Y-70702220D01*
X135471100Y-70877380D01*
X135436929Y-71049169D01*
X135369898Y-71210995D01*
X135272589Y-71356629D01*
X135148729Y-71480489D01*
X135003095Y-71577798D01*
X134841269Y-71644829D01*
X134669480Y-71679000D01*
X134494320Y-71679000D01*
X134322531Y-71644829D01*
X134160705Y-71577798D01*
X134015071Y-71480489D01*
X133891211Y-71356629D01*
X133793902Y-71210995D01*
X133726871Y-71049169D01*
X133692700Y-70877380D01*
X133692700Y-70702220D01*
X133726871Y-70530431D01*
X133793902Y-70368605D01*
X133891211Y-70222971D01*
X134015071Y-70099111D01*
X134160705Y-70001802D01*
X134322531Y-69934771D01*
X134494320Y-69900600D01*
X134669480Y-69900600D01*
X134841269Y-69934771D01*
G37*
G36*
X132301269Y-69934771D02*
G01*
X132463095Y-70001802D01*
X132608729Y-70099111D01*
X132732589Y-70222971D01*
X132829898Y-70368605D01*
X132896929Y-70530431D01*
X132931100Y-70702220D01*
X132931100Y-70877380D01*
X132896929Y-71049169D01*
X132829898Y-71210995D01*
X132732589Y-71356629D01*
X132608729Y-71480489D01*
X132463095Y-71577798D01*
X132301269Y-71644829D01*
X132129480Y-71679000D01*
X131954320Y-71679000D01*
X131782531Y-71644829D01*
X131620705Y-71577798D01*
X131475071Y-71480489D01*
X131351211Y-71356629D01*
X131253902Y-71210995D01*
X131186871Y-71049169D01*
X131152700Y-70877380D01*
X131152700Y-70702220D01*
X131186871Y-70530431D01*
X131253902Y-70368605D01*
X131351211Y-70222971D01*
X131475071Y-70099111D01*
X131620705Y-70001802D01*
X131782531Y-69934771D01*
X131954320Y-69900600D01*
X132129480Y-69900600D01*
X132301269Y-69934771D01*
G37*
G36*
X129761269Y-69934771D02*
G01*
X129923095Y-70001802D01*
X130068729Y-70099111D01*
X130192589Y-70222971D01*
X130289898Y-70368605D01*
X130356929Y-70530431D01*
X130391100Y-70702220D01*
X130391100Y-70877380D01*
X130356929Y-71049169D01*
X130289898Y-71210995D01*
X130192589Y-71356629D01*
X130068729Y-71480489D01*
X129923095Y-71577798D01*
X129761269Y-71644829D01*
X129589480Y-71679000D01*
X129414320Y-71679000D01*
X129242531Y-71644829D01*
X129080705Y-71577798D01*
X128935071Y-71480489D01*
X128811211Y-71356629D01*
X128713902Y-71210995D01*
X128646871Y-71049169D01*
X128612700Y-70877380D01*
X128612700Y-70702220D01*
X128646871Y-70530431D01*
X128713902Y-70368605D01*
X128811211Y-70222971D01*
X128935071Y-70099111D01*
X129080705Y-70001802D01*
X129242531Y-69934771D01*
X129414320Y-69900600D01*
X129589480Y-69900600D01*
X129761269Y-69934771D01*
G37*
G36*
X127221269Y-69934771D02*
G01*
X127383095Y-70001802D01*
X127528729Y-70099111D01*
X127652589Y-70222971D01*
X127749898Y-70368605D01*
X127816929Y-70530431D01*
X127851100Y-70702220D01*
X127851100Y-70877380D01*
X127816929Y-71049169D01*
X127749898Y-71210995D01*
X127652589Y-71356629D01*
X127528729Y-71480489D01*
X127383095Y-71577798D01*
X127221269Y-71644829D01*
X127049480Y-71679000D01*
X126874320Y-71679000D01*
X126702531Y-71644829D01*
X126540705Y-71577798D01*
X126395071Y-71480489D01*
X126271211Y-71356629D01*
X126173902Y-71210995D01*
X126106871Y-71049169D01*
X126072700Y-70877380D01*
X126072700Y-70702220D01*
X126106871Y-70530431D01*
X126173902Y-70368605D01*
X126271211Y-70222971D01*
X126395071Y-70099111D01*
X126540705Y-70001802D01*
X126702531Y-69934771D01*
X126874320Y-69900600D01*
X127049480Y-69900600D01*
X127221269Y-69934771D01*
G37*
G36*
X124681269Y-69934771D02*
G01*
X124843095Y-70001802D01*
X124988729Y-70099111D01*
X125112589Y-70222971D01*
X125209898Y-70368605D01*
X125276929Y-70530431D01*
X125311100Y-70702220D01*
X125311100Y-70877380D01*
X125276929Y-71049169D01*
X125209898Y-71210995D01*
X125112589Y-71356629D01*
X124988729Y-71480489D01*
X124843095Y-71577798D01*
X124681269Y-71644829D01*
X124509480Y-71679000D01*
X124334320Y-71679000D01*
X124162531Y-71644829D01*
X124000705Y-71577798D01*
X123855071Y-71480489D01*
X123731211Y-71356629D01*
X123633902Y-71210995D01*
X123566871Y-71049169D01*
X123532700Y-70877380D01*
X123532700Y-70702220D01*
X123566871Y-70530431D01*
X123633902Y-70368605D01*
X123731211Y-70222971D01*
X123855071Y-70099111D01*
X124000705Y-70001802D01*
X124162531Y-69934771D01*
X124334320Y-69900600D01*
X124509480Y-69900600D01*
X124681269Y-69934771D01*
G37*
G36*
X158553728Y-69946103D02*
G01*
X158708600Y-70010253D01*
X158847981Y-70103385D01*
X158966515Y-70221919D01*
X159059647Y-70361300D01*
X159123797Y-70516172D01*
X159156500Y-70680584D01*
X159156500Y-70848216D01*
X159123797Y-71012628D01*
X159059647Y-71167500D01*
X158966515Y-71306881D01*
X158847981Y-71425415D01*
X158708600Y-71518547D01*
X158553728Y-71582697D01*
X158389316Y-71615400D01*
X158221684Y-71615400D01*
X158057272Y-71582697D01*
X157902400Y-71518547D01*
X157763019Y-71425415D01*
X157644485Y-71306881D01*
X157551353Y-71167500D01*
X157487203Y-71012628D01*
X157454500Y-70848216D01*
X157454500Y-70680584D01*
X157487203Y-70516172D01*
X157551353Y-70361300D01*
X157644485Y-70221919D01*
X157763019Y-70103385D01*
X157902400Y-70010253D01*
X158057272Y-69946103D01*
X158221684Y-69913400D01*
X158389316Y-69913400D01*
X158553728Y-69946103D01*
G37*
G36*
X100508170Y-71434070D02*
G01*
X98407190Y-71434070D01*
X98407190Y-69333090D01*
X100508170Y-69333090D01*
X100508170Y-71434070D01*
G37*
G36*
X97968170Y-71434070D02*
G01*
X95867190Y-71434070D01*
X95867190Y-69333090D01*
X97968170Y-69333090D01*
X97968170Y-71434070D01*
G37*
G36*
X105588170Y-71423910D02*
G01*
X103487190Y-71423910D01*
X103487190Y-69322930D01*
X105588170Y-69322930D01*
X105588170Y-71423910D01*
G37*
G36*
X103048170Y-71423910D02*
G01*
X100947190Y-71423910D01*
X100947190Y-69322930D01*
X103048170Y-69322930D01*
X103048170Y-71423910D01*
G37*
G36*
X169069232Y-67473107D02*
G01*
X169218532Y-67502804D01*
X169382504Y-67570724D01*
X169530074Y-67669327D01*
X169655573Y-67794826D01*
X169754176Y-67942396D01*
X169822096Y-68106368D01*
X169856720Y-68280439D01*
X169856720Y-68457921D01*
X169822096Y-68631992D01*
X169754176Y-68795964D01*
X169655573Y-68943534D01*
X169530074Y-69069033D01*
X169382504Y-69167636D01*
X169218532Y-69235556D01*
X169069232Y-69265253D01*
X169044462Y-69270180D01*
X168866978Y-69270180D01*
X168842208Y-69265253D01*
X168692908Y-69235556D01*
X168528936Y-69167636D01*
X168381366Y-69069033D01*
X168255867Y-68943534D01*
X168157264Y-68795964D01*
X168089344Y-68631992D01*
X168054720Y-68457921D01*
X168054720Y-68280439D01*
X168089344Y-68106368D01*
X168157264Y-67942396D01*
X168255867Y-67794826D01*
X168381366Y-67669327D01*
X168528936Y-67570724D01*
X168692908Y-67502804D01*
X168842208Y-67473107D01*
X168866978Y-67468180D01*
X169044462Y-67468180D01*
X169069232Y-67473107D01*
G37*
G36*
X166529232Y-67473107D02*
G01*
X166678532Y-67502804D01*
X166842504Y-67570724D01*
X166990074Y-67669327D01*
X167115573Y-67794826D01*
X167214176Y-67942396D01*
X167282096Y-68106368D01*
X167316720Y-68280439D01*
X167316720Y-68457921D01*
X167282096Y-68631992D01*
X167214176Y-68795964D01*
X167115573Y-68943534D01*
X166990074Y-69069033D01*
X166842504Y-69167636D01*
X166678532Y-69235556D01*
X166529232Y-69265253D01*
X166504462Y-69270180D01*
X166326978Y-69270180D01*
X166302208Y-69265253D01*
X166152908Y-69235556D01*
X165988936Y-69167636D01*
X165841366Y-69069033D01*
X165715867Y-68943534D01*
X165617264Y-68795964D01*
X165549344Y-68631992D01*
X165514720Y-68457921D01*
X165514720Y-68280439D01*
X165549344Y-68106368D01*
X165617264Y-67942396D01*
X165715867Y-67794826D01*
X165841366Y-67669327D01*
X165988936Y-67570724D01*
X166152908Y-67502804D01*
X166302208Y-67473107D01*
X166326978Y-67468180D01*
X166504462Y-67468180D01*
X166529232Y-67473107D01*
G37*
G36*
X158553728Y-67446103D02*
G01*
X158708600Y-67510253D01*
X158847981Y-67603385D01*
X158966515Y-67721919D01*
X159059647Y-67861300D01*
X159123797Y-68016172D01*
X159156500Y-68180584D01*
X159156500Y-68348216D01*
X159123797Y-68512628D01*
X159059647Y-68667500D01*
X158966515Y-68806881D01*
X158847981Y-68925415D01*
X158708600Y-69018547D01*
X158553728Y-69082697D01*
X158389316Y-69115400D01*
X158221684Y-69115400D01*
X158057272Y-69082697D01*
X157902400Y-69018547D01*
X157763019Y-68925415D01*
X157644485Y-68806881D01*
X157551353Y-68667500D01*
X157487203Y-68512628D01*
X157454500Y-68348216D01*
X157454500Y-68180584D01*
X157487203Y-68016172D01*
X157551353Y-67861300D01*
X157644485Y-67721919D01*
X157763019Y-67603385D01*
X157902400Y-67510253D01*
X158057272Y-67446103D01*
X158221684Y-67413400D01*
X158389316Y-67413400D01*
X158553728Y-67446103D01*
G37*
G36*
X100508170Y-68894070D02*
G01*
X98407190Y-68894070D01*
X98407190Y-66793090D01*
X100508170Y-66793090D01*
X100508170Y-68894070D01*
G37*
G36*
X97968170Y-68894070D02*
G01*
X95867190Y-68894070D01*
X95867190Y-66793090D01*
X97968170Y-66793090D01*
X97968170Y-68894070D01*
G37*
G36*
X105588170Y-68883910D02*
G01*
X103487190Y-68883910D01*
X103487190Y-66782930D01*
X105588170Y-66782930D01*
X105588170Y-68883910D01*
G37*
G36*
X103048170Y-68883910D02*
G01*
X100947190Y-68883910D01*
X100947190Y-66782930D01*
X103048170Y-66782930D01*
X103048170Y-68883910D01*
G37*
G36*
X169069232Y-64933107D02*
G01*
X169218532Y-64962804D01*
X169382504Y-65030724D01*
X169530074Y-65129327D01*
X169655573Y-65254826D01*
X169754176Y-65402396D01*
X169822096Y-65566368D01*
X169856720Y-65740439D01*
X169856720Y-65917921D01*
X169822096Y-66091992D01*
X169754176Y-66255964D01*
X169655573Y-66403534D01*
X169530074Y-66529033D01*
X169382504Y-66627636D01*
X169218532Y-66695556D01*
X169069232Y-66725253D01*
X169044462Y-66730180D01*
X168866978Y-66730180D01*
X168842208Y-66725253D01*
X168692908Y-66695556D01*
X168528936Y-66627636D01*
X168381366Y-66529033D01*
X168255867Y-66403534D01*
X168157264Y-66255964D01*
X168089344Y-66091992D01*
X168054720Y-65917921D01*
X168054720Y-65740439D01*
X168089344Y-65566368D01*
X168157264Y-65402396D01*
X168255867Y-65254826D01*
X168381366Y-65129327D01*
X168528936Y-65030724D01*
X168692908Y-64962804D01*
X168842208Y-64933107D01*
X168866978Y-64928180D01*
X169044462Y-64928180D01*
X169069232Y-64933107D01*
G37*
G36*
X166529232Y-64933107D02*
G01*
X166678532Y-64962804D01*
X166842504Y-65030724D01*
X166990074Y-65129327D01*
X167115573Y-65254826D01*
X167214176Y-65402396D01*
X167282096Y-65566368D01*
X167316720Y-65740439D01*
X167316720Y-65917921D01*
X167282096Y-66091992D01*
X167214176Y-66255964D01*
X167115573Y-66403534D01*
X166990074Y-66529033D01*
X166842504Y-66627636D01*
X166678532Y-66695556D01*
X166529232Y-66725253D01*
X166504462Y-66730180D01*
X166326978Y-66730180D01*
X166302208Y-66725253D01*
X166152908Y-66695556D01*
X165988936Y-66627636D01*
X165841366Y-66529033D01*
X165715867Y-66403534D01*
X165617264Y-66255964D01*
X165549344Y-66091992D01*
X165514720Y-65917921D01*
X165514720Y-65740439D01*
X165549344Y-65566368D01*
X165617264Y-65402396D01*
X165715867Y-65254826D01*
X165841366Y-65129327D01*
X165988936Y-65030724D01*
X166152908Y-64962804D01*
X166302208Y-64933107D01*
X166326978Y-64928180D01*
X166504462Y-64928180D01*
X166529232Y-64933107D01*
G37*
G36*
X110646410Y-66292930D02*
G01*
X108545430Y-66292930D01*
X108545430Y-64191950D01*
X110646410Y-64191950D01*
X110646410Y-66292930D01*
G37*
G36*
X108106410Y-66292930D02*
G01*
X106005430Y-66292930D01*
X106005430Y-64191950D01*
X108106410Y-64191950D01*
X108106410Y-66292930D01*
G37*
G36*
X105551170Y-66267530D02*
G01*
X103450190Y-66267530D01*
X103450190Y-64166550D01*
X105551170Y-64166550D01*
X105551170Y-66267530D01*
G37*
G36*
X103011170Y-66267530D02*
G01*
X100910190Y-66267530D01*
X100910190Y-64166550D01*
X103011170Y-64166550D01*
X103011170Y-66267530D01*
G37*
G36*
X87827050Y-66257370D02*
G01*
X85726070Y-66257370D01*
X85726070Y-64156390D01*
X87827050Y-64156390D01*
X87827050Y-66257370D01*
G37*
G36*
X90367050Y-66257370D02*
G01*
X88266070Y-66257370D01*
X88266070Y-64156390D01*
X90367050Y-64156390D01*
X90367050Y-66257370D01*
G37*
G36*
X92907050Y-66247210D02*
G01*
X90806070Y-66247210D01*
X90806070Y-64146230D01*
X92907050Y-64146230D01*
X92907050Y-66247210D01*
G37*
G36*
X95447050Y-66247210D02*
G01*
X93346070Y-66247210D01*
X93346070Y-64146230D01*
X95447050Y-64146230D01*
X95447050Y-66247210D01*
G37*
G36*
X100491490Y-66247210D02*
G01*
X98390510Y-66247210D01*
X98390510Y-64146230D01*
X100491490Y-64146230D01*
X100491490Y-66247210D01*
G37*
G36*
X97951490Y-66247210D02*
G01*
X95850510Y-66247210D01*
X95850510Y-64146230D01*
X97951490Y-64146230D01*
X97951490Y-66247210D01*
G37*
G36*
X166529232Y-62393107D02*
G01*
X166678532Y-62422804D01*
X166842504Y-62490724D01*
X166990074Y-62589327D01*
X167115573Y-62714826D01*
X167214176Y-62862396D01*
X167282096Y-63026368D01*
X167316720Y-63200439D01*
X167316720Y-63377921D01*
X167282096Y-63551992D01*
X167214176Y-63715964D01*
X167115573Y-63863534D01*
X166990074Y-63989033D01*
X166842504Y-64087636D01*
X166678532Y-64155556D01*
X166529232Y-64185253D01*
X166504462Y-64190180D01*
X166326978Y-64190180D01*
X166302208Y-64185253D01*
X166152908Y-64155556D01*
X165988936Y-64087636D01*
X165841366Y-63989033D01*
X165715867Y-63863534D01*
X165617264Y-63715964D01*
X165549344Y-63551992D01*
X165514720Y-63377921D01*
X165514720Y-63200439D01*
X165549344Y-63026368D01*
X165617264Y-62862396D01*
X165715867Y-62714826D01*
X165841366Y-62589327D01*
X165988936Y-62490724D01*
X166152908Y-62422804D01*
X166302208Y-62393107D01*
X166326978Y-62388180D01*
X166504462Y-62388180D01*
X166529232Y-62393107D01*
G37*
G36*
X169069232Y-62393107D02*
G01*
X169218532Y-62422804D01*
X169382504Y-62490724D01*
X169530074Y-62589327D01*
X169655573Y-62714826D01*
X169754176Y-62862396D01*
X169822096Y-63026368D01*
X169856720Y-63200439D01*
X169856720Y-63377921D01*
X169822096Y-63551992D01*
X169754176Y-63715964D01*
X169655573Y-63863534D01*
X169530074Y-63989033D01*
X169382504Y-64087636D01*
X169218532Y-64155556D01*
X169069232Y-64185253D01*
X169044462Y-64190180D01*
X168866978Y-64190180D01*
X168842208Y-64185253D01*
X168692908Y-64155556D01*
X168528936Y-64087636D01*
X168381366Y-63989033D01*
X168255867Y-63863534D01*
X168157264Y-63715964D01*
X168089344Y-63551992D01*
X168054720Y-63377921D01*
X168054720Y-63200439D01*
X168089344Y-63026368D01*
X168157264Y-62862396D01*
X168255867Y-62714826D01*
X168381366Y-62589327D01*
X168528936Y-62490724D01*
X168692908Y-62422804D01*
X168842208Y-62393107D01*
X168866978Y-62388180D01*
X169044462Y-62388180D01*
X169069232Y-62393107D01*
G37*
G36*
X110646410Y-63752930D02*
G01*
X108545430Y-63752930D01*
X108545430Y-61651950D01*
X110646410Y-61651950D01*
X110646410Y-63752930D01*
G37*
G36*
X108106410Y-63752930D02*
G01*
X106005430Y-63752930D01*
X106005430Y-61651950D01*
X108106410Y-61651950D01*
X108106410Y-63752930D01*
G37*
G36*
X103011170Y-63727530D02*
G01*
X100910190Y-63727530D01*
X100910190Y-61626550D01*
X103011170Y-61626550D01*
X103011170Y-63727530D01*
G37*
G36*
X105551170Y-63727530D02*
G01*
X103450190Y-63727530D01*
X103450190Y-61626550D01*
X105551170Y-61626550D01*
X105551170Y-63727530D01*
G37*
G36*
X87827050Y-63717370D02*
G01*
X85726070Y-63717370D01*
X85726070Y-61616390D01*
X87827050Y-61616390D01*
X87827050Y-63717370D01*
G37*
G36*
X90367050Y-63717370D02*
G01*
X88266070Y-63717370D01*
X88266070Y-61616390D01*
X90367050Y-61616390D01*
X90367050Y-63717370D01*
G37*
G36*
X92907050Y-63707210D02*
G01*
X90806070Y-63707210D01*
X90806070Y-61606230D01*
X92907050Y-61606230D01*
X92907050Y-63707210D01*
G37*
G36*
X95447050Y-63707210D02*
G01*
X93346070Y-63707210D01*
X93346070Y-61606230D01*
X95447050Y-61606230D01*
X95447050Y-63707210D01*
G37*
G36*
X97951490Y-63707210D02*
G01*
X95850510Y-63707210D01*
X95850510Y-61606230D01*
X97951490Y-61606230D01*
X97951490Y-63707210D01*
G37*
G36*
X100491490Y-63707210D02*
G01*
X98390510Y-63707210D01*
X98390510Y-61606230D01*
X100491490Y-61606230D01*
X100491490Y-63707210D01*
G37*
G36*
X166529232Y-59853107D02*
G01*
X166678532Y-59882804D01*
X166842504Y-59950724D01*
X166990074Y-60049327D01*
X167115573Y-60174826D01*
X167214176Y-60322396D01*
X167282096Y-60486368D01*
X167316720Y-60660439D01*
X167316720Y-60837921D01*
X167282096Y-61011992D01*
X167214176Y-61175964D01*
X167115573Y-61323534D01*
X166990074Y-61449033D01*
X166842504Y-61547636D01*
X166678532Y-61615556D01*
X166529232Y-61645253D01*
X166504462Y-61650180D01*
X166326978Y-61650180D01*
X166302208Y-61645253D01*
X166152908Y-61615556D01*
X165988936Y-61547636D01*
X165841366Y-61449033D01*
X165715867Y-61323534D01*
X165617264Y-61175964D01*
X165549344Y-61011992D01*
X165514720Y-60837921D01*
X165514720Y-60660439D01*
X165549344Y-60486368D01*
X165617264Y-60322396D01*
X165715867Y-60174826D01*
X165841366Y-60049327D01*
X165988936Y-59950724D01*
X166152908Y-59882804D01*
X166302208Y-59853107D01*
X166326978Y-59848180D01*
X166504462Y-59848180D01*
X166529232Y-59853107D01*
G37*
G36*
X169069232Y-59853107D02*
G01*
X169218532Y-59882804D01*
X169382504Y-59950724D01*
X169530074Y-60049327D01*
X169655573Y-60174826D01*
X169754176Y-60322396D01*
X169822096Y-60486368D01*
X169856720Y-60660439D01*
X169856720Y-60837921D01*
X169822096Y-61011992D01*
X169754176Y-61175964D01*
X169655573Y-61323534D01*
X169530074Y-61449033D01*
X169382504Y-61547636D01*
X169218532Y-61615556D01*
X169069232Y-61645253D01*
X169044462Y-61650180D01*
X168866978Y-61650180D01*
X168842208Y-61645253D01*
X168692908Y-61615556D01*
X168528936Y-61547636D01*
X168381366Y-61449033D01*
X168255867Y-61323534D01*
X168157264Y-61175964D01*
X168089344Y-61011992D01*
X168054720Y-60837921D01*
X168054720Y-60660439D01*
X168089344Y-60486368D01*
X168157264Y-60322396D01*
X168255867Y-60174826D01*
X168381366Y-60049327D01*
X168528936Y-59950724D01*
X168692908Y-59882804D01*
X168842208Y-59853107D01*
X168866978Y-59848180D01*
X169044462Y-59848180D01*
X169069232Y-59853107D01*
G37*
G36*
X110621010Y-61233250D02*
G01*
X108520030Y-61233250D01*
X108520030Y-59132270D01*
X110621010Y-59132270D01*
X110621010Y-61233250D01*
G37*
G36*
X108081010Y-61233250D02*
G01*
X105980030Y-61233250D01*
X105980030Y-59132270D01*
X108081010Y-59132270D01*
X108081010Y-61233250D01*
G37*
G36*
X105525770Y-61207850D02*
G01*
X103424790Y-61207850D01*
X103424790Y-59106870D01*
X105525770Y-59106870D01*
X105525770Y-61207850D01*
G37*
G36*
X102985770Y-61207850D02*
G01*
X100884790Y-61207850D01*
X100884790Y-59106870D01*
X102985770Y-59106870D01*
X102985770Y-61207850D01*
G37*
G36*
X87801650Y-61197690D02*
G01*
X85700670Y-61197690D01*
X85700670Y-59096710D01*
X87801650Y-59096710D01*
X87801650Y-61197690D01*
G37*
G36*
X90341650Y-61197690D02*
G01*
X88240670Y-61197690D01*
X88240670Y-59096710D01*
X90341650Y-59096710D01*
X90341650Y-61197690D01*
G37*
G36*
X100466090Y-61187530D02*
G01*
X98365110Y-61187530D01*
X98365110Y-59086550D01*
X100466090Y-59086550D01*
X100466090Y-61187530D01*
G37*
G36*
X97926090Y-61187530D02*
G01*
X95825110Y-61187530D01*
X95825110Y-59086550D01*
X97926090Y-59086550D01*
X97926090Y-61187530D01*
G37*
G36*
X95421650Y-61187530D02*
G01*
X93320670Y-61187530D01*
X93320670Y-59086550D01*
X95421650Y-59086550D01*
X95421650Y-61187530D01*
G37*
G36*
X92881650Y-61187530D02*
G01*
X90780670Y-61187530D01*
X90780670Y-59086550D01*
X92881650Y-59086550D01*
X92881650Y-61187530D01*
G37*
G36*
X166529232Y-57313107D02*
G01*
X166678532Y-57342804D01*
X166842504Y-57410724D01*
X166990074Y-57509327D01*
X167115573Y-57634826D01*
X167214176Y-57782396D01*
X167282096Y-57946368D01*
X167316720Y-58120439D01*
X167316720Y-58297921D01*
X167282096Y-58471992D01*
X167214176Y-58635964D01*
X167115573Y-58783534D01*
X166990074Y-58909033D01*
X166842504Y-59007636D01*
X166678532Y-59075556D01*
X166529232Y-59105253D01*
X166504462Y-59110180D01*
X166326978Y-59110180D01*
X166302208Y-59105253D01*
X166152908Y-59075556D01*
X165988936Y-59007636D01*
X165841366Y-58909033D01*
X165715867Y-58783534D01*
X165617264Y-58635964D01*
X165549344Y-58471992D01*
X165514720Y-58297921D01*
X165514720Y-58120439D01*
X165549344Y-57946368D01*
X165617264Y-57782396D01*
X165715867Y-57634826D01*
X165841366Y-57509327D01*
X165988936Y-57410724D01*
X166152908Y-57342804D01*
X166302208Y-57313107D01*
X166326978Y-57308180D01*
X166504462Y-57308180D01*
X166529232Y-57313107D01*
G37*
G36*
X169069232Y-57313107D02*
G01*
X169218532Y-57342804D01*
X169382504Y-57410724D01*
X169530074Y-57509327D01*
X169655573Y-57634826D01*
X169754176Y-57782396D01*
X169822096Y-57946368D01*
X169856720Y-58120439D01*
X169856720Y-58297921D01*
X169822096Y-58471992D01*
X169754176Y-58635964D01*
X169655573Y-58783534D01*
X169530074Y-58909033D01*
X169382504Y-59007636D01*
X169218532Y-59075556D01*
X169069232Y-59105253D01*
X169044462Y-59110180D01*
X168866978Y-59110180D01*
X168842208Y-59105253D01*
X168692908Y-59075556D01*
X168528936Y-59007636D01*
X168381366Y-58909033D01*
X168255867Y-58783534D01*
X168157264Y-58635964D01*
X168089344Y-58471992D01*
X168054720Y-58297921D01*
X168054720Y-58120439D01*
X168089344Y-57946368D01*
X168157264Y-57782396D01*
X168255867Y-57634826D01*
X168381366Y-57509327D01*
X168528936Y-57410724D01*
X168692908Y-57342804D01*
X168842208Y-57313107D01*
X168866978Y-57308180D01*
X169044462Y-57308180D01*
X169069232Y-57313107D01*
G37*
G36*
X108081010Y-58693250D02*
G01*
X105980030Y-58693250D01*
X105980030Y-56592270D01*
X108081010Y-56592270D01*
X108081010Y-58693250D01*
G37*
G36*
X110621010Y-58693250D02*
G01*
X108520030Y-58693250D01*
X108520030Y-56592270D01*
X110621010Y-56592270D01*
X110621010Y-58693250D01*
G37*
G36*
X102985770Y-58667850D02*
G01*
X100884790Y-58667850D01*
X100884790Y-56566870D01*
X102985770Y-56566870D01*
X102985770Y-58667850D01*
G37*
G36*
X105525770Y-58667850D02*
G01*
X103424790Y-58667850D01*
X103424790Y-56566870D01*
X105525770Y-56566870D01*
X105525770Y-58667850D01*
G37*
G36*
X87801650Y-58657690D02*
G01*
X85700670Y-58657690D01*
X85700670Y-56556710D01*
X87801650Y-56556710D01*
X87801650Y-58657690D01*
G37*
G36*
X90341650Y-58657690D02*
G01*
X88240670Y-58657690D01*
X88240670Y-56556710D01*
X90341650Y-56556710D01*
X90341650Y-58657690D01*
G37*
G36*
X95421650Y-58647530D02*
G01*
X93320670Y-58647530D01*
X93320670Y-56546550D01*
X95421650Y-56546550D01*
X95421650Y-58647530D01*
G37*
G36*
X92881650Y-58647530D02*
G01*
X90780670Y-58647530D01*
X90780670Y-56546550D01*
X92881650Y-56546550D01*
X92881650Y-58647530D01*
G37*
G36*
X100466090Y-58647530D02*
G01*
X98365110Y-58647530D01*
X98365110Y-56546550D01*
X100466090Y-56546550D01*
X100466090Y-58647530D01*
G37*
G36*
X97926090Y-58647530D02*
G01*
X95825110Y-58647530D01*
X95825110Y-56546550D01*
X97926090Y-56546550D01*
X97926090Y-58647530D01*
G37*
G36*
X167316720Y-56570180D02*
G01*
X165514720Y-56570180D01*
X165514720Y-54768180D01*
X167316720Y-54768180D01*
X167316720Y-56570180D01*
G37*
G36*
X169069232Y-54773107D02*
G01*
X169218532Y-54802804D01*
X169382504Y-54870724D01*
X169530074Y-54969327D01*
X169655573Y-55094826D01*
X169754176Y-55242396D01*
X169822096Y-55406368D01*
X169856720Y-55580439D01*
X169856720Y-55757921D01*
X169822096Y-55931992D01*
X169754176Y-56095964D01*
X169655573Y-56243534D01*
X169530074Y-56369033D01*
X169382504Y-56467636D01*
X169218532Y-56535556D01*
X169069232Y-56565253D01*
X169044462Y-56570180D01*
X168866978Y-56570180D01*
X168842208Y-56565253D01*
X168692908Y-56535556D01*
X168528936Y-56467636D01*
X168381366Y-56369033D01*
X168255867Y-56243534D01*
X168157264Y-56095964D01*
X168089344Y-55931992D01*
X168054720Y-55757921D01*
X168054720Y-55580439D01*
X168089344Y-55406368D01*
X168157264Y-55242396D01*
X168255867Y-55094826D01*
X168381366Y-54969327D01*
X168528936Y-54870724D01*
X168692908Y-54802804D01*
X168842208Y-54773107D01*
X168866978Y-54768180D01*
X169044462Y-54768180D01*
X169069232Y-54773107D01*
G37*
G36*
X129761269Y-54694771D02*
G01*
X129923095Y-54761802D01*
X130068729Y-54859111D01*
X130192589Y-54982971D01*
X130289898Y-55128605D01*
X130356929Y-55290431D01*
X130391100Y-55462220D01*
X130391100Y-55637380D01*
X130356929Y-55809169D01*
X130289898Y-55970995D01*
X130192589Y-56116629D01*
X130068729Y-56240489D01*
X129923095Y-56337798D01*
X129761269Y-56404829D01*
X129589480Y-56439000D01*
X129414320Y-56439000D01*
X129242531Y-56404829D01*
X129080705Y-56337798D01*
X128935071Y-56240489D01*
X128811211Y-56116629D01*
X128713902Y-55970995D01*
X128646871Y-55809169D01*
X128612700Y-55637380D01*
X128612700Y-55462220D01*
X128646871Y-55290431D01*
X128713902Y-55128605D01*
X128811211Y-54982971D01*
X128935071Y-54859111D01*
X129080705Y-54761802D01*
X129242531Y-54694771D01*
X129414320Y-54660600D01*
X129589480Y-54660600D01*
X129761269Y-54694771D01*
G37*
G36*
X155791100Y-56439000D02*
G01*
X154012700Y-56439000D01*
X154012700Y-54660600D01*
X155791100Y-54660600D01*
X155791100Y-56439000D01*
G37*
G36*
X150081269Y-54694771D02*
G01*
X150243095Y-54761802D01*
X150388729Y-54859111D01*
X150512589Y-54982971D01*
X150609898Y-55128605D01*
X150676929Y-55290431D01*
X150711100Y-55462220D01*
X150711100Y-55637380D01*
X150676929Y-55809169D01*
X150609898Y-55970995D01*
X150512589Y-56116629D01*
X150388729Y-56240489D01*
X150243095Y-56337798D01*
X150081269Y-56404829D01*
X149909480Y-56439000D01*
X149734320Y-56439000D01*
X149562531Y-56404829D01*
X149400705Y-56337798D01*
X149255071Y-56240489D01*
X149131211Y-56116629D01*
X149033902Y-55970995D01*
X148966871Y-55809169D01*
X148932700Y-55637380D01*
X148932700Y-55462220D01*
X148966871Y-55290431D01*
X149033902Y-55128605D01*
X149131211Y-54982971D01*
X149255071Y-54859111D01*
X149400705Y-54761802D01*
X149562531Y-54694771D01*
X149734320Y-54660600D01*
X149909480Y-54660600D01*
X150081269Y-54694771D01*
G37*
G36*
X147541269Y-54694771D02*
G01*
X147703095Y-54761802D01*
X147848729Y-54859111D01*
X147972589Y-54982971D01*
X148069898Y-55128605D01*
X148136929Y-55290431D01*
X148171100Y-55462220D01*
X148171100Y-55637380D01*
X148136929Y-55809169D01*
X148069898Y-55970995D01*
X147972589Y-56116629D01*
X147848729Y-56240489D01*
X147703095Y-56337798D01*
X147541269Y-56404829D01*
X147369480Y-56439000D01*
X147194320Y-56439000D01*
X147022531Y-56404829D01*
X146860705Y-56337798D01*
X146715071Y-56240489D01*
X146591211Y-56116629D01*
X146493902Y-55970995D01*
X146426871Y-55809169D01*
X146392700Y-55637380D01*
X146392700Y-55462220D01*
X146426871Y-55290431D01*
X146493902Y-55128605D01*
X146591211Y-54982971D01*
X146715071Y-54859111D01*
X146860705Y-54761802D01*
X147022531Y-54694771D01*
X147194320Y-54660600D01*
X147369480Y-54660600D01*
X147541269Y-54694771D01*
G37*
G36*
X145001269Y-54694771D02*
G01*
X145163095Y-54761802D01*
X145308729Y-54859111D01*
X145432589Y-54982971D01*
X145529898Y-55128605D01*
X145596929Y-55290431D01*
X145631100Y-55462220D01*
X145631100Y-55637380D01*
X145596929Y-55809169D01*
X145529898Y-55970995D01*
X145432589Y-56116629D01*
X145308729Y-56240489D01*
X145163095Y-56337798D01*
X145001269Y-56404829D01*
X144829480Y-56439000D01*
X144654320Y-56439000D01*
X144482531Y-56404829D01*
X144320705Y-56337798D01*
X144175071Y-56240489D01*
X144051211Y-56116629D01*
X143953902Y-55970995D01*
X143886871Y-55809169D01*
X143852700Y-55637380D01*
X143852700Y-55462220D01*
X143886871Y-55290431D01*
X143953902Y-55128605D01*
X144051211Y-54982971D01*
X144175071Y-54859111D01*
X144320705Y-54761802D01*
X144482531Y-54694771D01*
X144654320Y-54660600D01*
X144829480Y-54660600D01*
X145001269Y-54694771D01*
G37*
G36*
X142461269Y-54694771D02*
G01*
X142623095Y-54761802D01*
X142768729Y-54859111D01*
X142892589Y-54982971D01*
X142989898Y-55128605D01*
X143056929Y-55290431D01*
X143091100Y-55462220D01*
X143091100Y-55637380D01*
X143056929Y-55809169D01*
X142989898Y-55970995D01*
X142892589Y-56116629D01*
X142768729Y-56240489D01*
X142623095Y-56337798D01*
X142461269Y-56404829D01*
X142289480Y-56439000D01*
X142114320Y-56439000D01*
X141942531Y-56404829D01*
X141780705Y-56337798D01*
X141635071Y-56240489D01*
X141511211Y-56116629D01*
X141413902Y-55970995D01*
X141346871Y-55809169D01*
X141312700Y-55637380D01*
X141312700Y-55462220D01*
X141346871Y-55290431D01*
X141413902Y-55128605D01*
X141511211Y-54982971D01*
X141635071Y-54859111D01*
X141780705Y-54761802D01*
X141942531Y-54694771D01*
X142114320Y-54660600D01*
X142289480Y-54660600D01*
X142461269Y-54694771D01*
G37*
G36*
X139921269Y-54694771D02*
G01*
X140083095Y-54761802D01*
X140228729Y-54859111D01*
X140352589Y-54982971D01*
X140449898Y-55128605D01*
X140516929Y-55290431D01*
X140551100Y-55462220D01*
X140551100Y-55637380D01*
X140516929Y-55809169D01*
X140449898Y-55970995D01*
X140352589Y-56116629D01*
X140228729Y-56240489D01*
X140083095Y-56337798D01*
X139921269Y-56404829D01*
X139749480Y-56439000D01*
X139574320Y-56439000D01*
X139402531Y-56404829D01*
X139240705Y-56337798D01*
X139095071Y-56240489D01*
X138971211Y-56116629D01*
X138873902Y-55970995D01*
X138806871Y-55809169D01*
X138772700Y-55637380D01*
X138772700Y-55462220D01*
X138806871Y-55290431D01*
X138873902Y-55128605D01*
X138971211Y-54982971D01*
X139095071Y-54859111D01*
X139240705Y-54761802D01*
X139402531Y-54694771D01*
X139574320Y-54660600D01*
X139749480Y-54660600D01*
X139921269Y-54694771D01*
G37*
G36*
X134841269Y-54694771D02*
G01*
X135003095Y-54761802D01*
X135148729Y-54859111D01*
X135272589Y-54982971D01*
X135369898Y-55128605D01*
X135436929Y-55290431D01*
X135471100Y-55462220D01*
X135471100Y-55637380D01*
X135436929Y-55809169D01*
X135369898Y-55970995D01*
X135272589Y-56116629D01*
X135148729Y-56240489D01*
X135003095Y-56337798D01*
X134841269Y-56404829D01*
X134669480Y-56439000D01*
X134494320Y-56439000D01*
X134322531Y-56404829D01*
X134160705Y-56337798D01*
X134015071Y-56240489D01*
X133891211Y-56116629D01*
X133793902Y-55970995D01*
X133726871Y-55809169D01*
X133692700Y-55637380D01*
X133692700Y-55462220D01*
X133726871Y-55290431D01*
X133793902Y-55128605D01*
X133891211Y-54982971D01*
X134015071Y-54859111D01*
X134160705Y-54761802D01*
X134322531Y-54694771D01*
X134494320Y-54660600D01*
X134669480Y-54660600D01*
X134841269Y-54694771D01*
G37*
G36*
X137381269Y-54694771D02*
G01*
X137543095Y-54761802D01*
X137688729Y-54859111D01*
X137812589Y-54982971D01*
X137909898Y-55128605D01*
X137976929Y-55290431D01*
X138011100Y-55462220D01*
X138011100Y-55637380D01*
X137976929Y-55809169D01*
X137909898Y-55970995D01*
X137812589Y-56116629D01*
X137688729Y-56240489D01*
X137543095Y-56337798D01*
X137381269Y-56404829D01*
X137209480Y-56439000D01*
X137034320Y-56439000D01*
X136862531Y-56404829D01*
X136700705Y-56337798D01*
X136555071Y-56240489D01*
X136431211Y-56116629D01*
X136333902Y-55970995D01*
X136266871Y-55809169D01*
X136232700Y-55637380D01*
X136232700Y-55462220D01*
X136266871Y-55290431D01*
X136333902Y-55128605D01*
X136431211Y-54982971D01*
X136555071Y-54859111D01*
X136700705Y-54761802D01*
X136862531Y-54694771D01*
X137034320Y-54660600D01*
X137209480Y-54660600D01*
X137381269Y-54694771D01*
G37*
G36*
X122141269Y-54694771D02*
G01*
X122303095Y-54761802D01*
X122448729Y-54859111D01*
X122572589Y-54982971D01*
X122669898Y-55128605D01*
X122736929Y-55290431D01*
X122771100Y-55462220D01*
X122771100Y-55637380D01*
X122736929Y-55809169D01*
X122669898Y-55970995D01*
X122572589Y-56116629D01*
X122448729Y-56240489D01*
X122303095Y-56337798D01*
X122141269Y-56404829D01*
X121969480Y-56439000D01*
X121794320Y-56439000D01*
X121622531Y-56404829D01*
X121460705Y-56337798D01*
X121315071Y-56240489D01*
X121191211Y-56116629D01*
X121093902Y-55970995D01*
X121026871Y-55809169D01*
X120992700Y-55637380D01*
X120992700Y-55462220D01*
X121026871Y-55290431D01*
X121093902Y-55128605D01*
X121191211Y-54982971D01*
X121315071Y-54859111D01*
X121460705Y-54761802D01*
X121622531Y-54694771D01*
X121794320Y-54660600D01*
X121969480Y-54660600D01*
X122141269Y-54694771D01*
G37*
G36*
X152621269Y-54694771D02*
G01*
X152783095Y-54761802D01*
X152928729Y-54859111D01*
X153052589Y-54982971D01*
X153149898Y-55128605D01*
X153216929Y-55290431D01*
X153251100Y-55462220D01*
X153251100Y-55637380D01*
X153216929Y-55809169D01*
X153149898Y-55970995D01*
X153052589Y-56116629D01*
X152928729Y-56240489D01*
X152783095Y-56337798D01*
X152621269Y-56404829D01*
X152449480Y-56439000D01*
X152274320Y-56439000D01*
X152102531Y-56404829D01*
X151940705Y-56337798D01*
X151795071Y-56240489D01*
X151671211Y-56116629D01*
X151573902Y-55970995D01*
X151506871Y-55809169D01*
X151472700Y-55637380D01*
X151472700Y-55462220D01*
X151506871Y-55290431D01*
X151573902Y-55128605D01*
X151671211Y-54982971D01*
X151795071Y-54859111D01*
X151940705Y-54761802D01*
X152102531Y-54694771D01*
X152274320Y-54660600D01*
X152449480Y-54660600D01*
X152621269Y-54694771D01*
G37*
G36*
X127221269Y-54694771D02*
G01*
X127383095Y-54761802D01*
X127528729Y-54859111D01*
X127652589Y-54982971D01*
X127749898Y-55128605D01*
X127816929Y-55290431D01*
X127851100Y-55462220D01*
X127851100Y-55637380D01*
X127816929Y-55809169D01*
X127749898Y-55970995D01*
X127652589Y-56116629D01*
X127528729Y-56240489D01*
X127383095Y-56337798D01*
X127221269Y-56404829D01*
X127049480Y-56439000D01*
X126874320Y-56439000D01*
X126702531Y-56404829D01*
X126540705Y-56337798D01*
X126395071Y-56240489D01*
X126271211Y-56116629D01*
X126173902Y-55970995D01*
X126106871Y-55809169D01*
X126072700Y-55637380D01*
X126072700Y-55462220D01*
X126106871Y-55290431D01*
X126173902Y-55128605D01*
X126271211Y-54982971D01*
X126395071Y-54859111D01*
X126540705Y-54761802D01*
X126702531Y-54694771D01*
X126874320Y-54660600D01*
X127049480Y-54660600D01*
X127221269Y-54694771D01*
G37*
G36*
X124681269Y-54694771D02*
G01*
X124843095Y-54761802D01*
X124988729Y-54859111D01*
X125112589Y-54982971D01*
X125209898Y-55128605D01*
X125276929Y-55290431D01*
X125311100Y-55462220D01*
X125311100Y-55637380D01*
X125276929Y-55809169D01*
X125209898Y-55970995D01*
X125112589Y-56116629D01*
X124988729Y-56240489D01*
X124843095Y-56337798D01*
X124681269Y-56404829D01*
X124509480Y-56439000D01*
X124334320Y-56439000D01*
X124162531Y-56404829D01*
X124000705Y-56337798D01*
X123855071Y-56240489D01*
X123731211Y-56116629D01*
X123633902Y-55970995D01*
X123566871Y-55809169D01*
X123532700Y-55637380D01*
X123532700Y-55462220D01*
X123566871Y-55290431D01*
X123633902Y-55128605D01*
X123731211Y-54982971D01*
X123855071Y-54859111D01*
X124000705Y-54761802D01*
X124162531Y-54694771D01*
X124334320Y-54660600D01*
X124509480Y-54660600D01*
X124681269Y-54694771D01*
G37*
G36*
X132301269Y-54694771D02*
G01*
X132463095Y-54761802D01*
X132608729Y-54859111D01*
X132732589Y-54982971D01*
X132829898Y-55128605D01*
X132896929Y-55290431D01*
X132931100Y-55462220D01*
X132931100Y-55637380D01*
X132896929Y-55809169D01*
X132829898Y-55970995D01*
X132732589Y-56116629D01*
X132608729Y-56240489D01*
X132463095Y-56337798D01*
X132301269Y-56404829D01*
X132129480Y-56439000D01*
X131954320Y-56439000D01*
X131782531Y-56404829D01*
X131620705Y-56337798D01*
X131475071Y-56240489D01*
X131351211Y-56116629D01*
X131253902Y-55970995D01*
X131186871Y-55809169D01*
X131152700Y-55637380D01*
X131152700Y-55462220D01*
X131186871Y-55290431D01*
X131253902Y-55128605D01*
X131351211Y-54982971D01*
X131475071Y-54859111D01*
X131620705Y-54761802D01*
X131782531Y-54694771D01*
X131954320Y-54660600D01*
X132129480Y-54660600D01*
X132301269Y-54694771D01*
G37*
G36*
X110641330Y-56168490D02*
G01*
X108540350Y-56168490D01*
X108540350Y-54067510D01*
X110641330Y-54067510D01*
X110641330Y-56168490D01*
G37*
G36*
X108101330Y-56168490D02*
G01*
X106000350Y-56168490D01*
X106000350Y-54067510D01*
X108101330Y-54067510D01*
X108101330Y-56168490D01*
G37*
G36*
X105546090Y-56143090D02*
G01*
X103445110Y-56143090D01*
X103445110Y-54042110D01*
X105546090Y-54042110D01*
X105546090Y-56143090D01*
G37*
G36*
X103006090Y-56143090D02*
G01*
X100905110Y-56143090D01*
X100905110Y-54042110D01*
X103006090Y-54042110D01*
X103006090Y-56143090D01*
G37*
G36*
X87821970Y-56132930D02*
G01*
X85720990Y-56132930D01*
X85720990Y-54031950D01*
X87821970Y-54031950D01*
X87821970Y-56132930D01*
G37*
G36*
X90361970Y-56132930D02*
G01*
X88260990Y-56132930D01*
X88260990Y-54031950D01*
X90361970Y-54031950D01*
X90361970Y-56132930D01*
G37*
G36*
X100486410Y-56122770D02*
G01*
X98385430Y-56122770D01*
X98385430Y-54021790D01*
X100486410Y-54021790D01*
X100486410Y-56122770D01*
G37*
G36*
X97946410Y-56122770D02*
G01*
X95845430Y-56122770D01*
X95845430Y-54021790D01*
X97946410Y-54021790D01*
X97946410Y-56122770D01*
G37*
G36*
X95441970Y-56122770D02*
G01*
X93340990Y-56122770D01*
X93340990Y-54021790D01*
X95441970Y-54021790D01*
X95441970Y-56122770D01*
G37*
G36*
X92901970Y-56122770D02*
G01*
X90800990Y-56122770D01*
X90800990Y-54021790D01*
X92901970Y-54021790D01*
X92901970Y-56122770D01*
G37*
G36*
X108101330Y-53628490D02*
G01*
X106000350Y-53628490D01*
X106000350Y-51527510D01*
X108101330Y-51527510D01*
X108101330Y-53628490D01*
G37*
G36*
X110641330Y-53628490D02*
G01*
X108540350Y-53628490D01*
X108540350Y-51527510D01*
X110641330Y-51527510D01*
X110641330Y-53628490D01*
G37*
G36*
X105546090Y-53603090D02*
G01*
X103445110Y-53603090D01*
X103445110Y-51502110D01*
X105546090Y-51502110D01*
X105546090Y-53603090D01*
G37*
G36*
X103006090Y-53603090D02*
G01*
X100905110Y-53603090D01*
X100905110Y-51502110D01*
X103006090Y-51502110D01*
X103006090Y-53603090D01*
G37*
G36*
X90361970Y-53592930D02*
G01*
X88260990Y-53592930D01*
X88260990Y-51491950D01*
X90361970Y-51491950D01*
X90361970Y-53592930D01*
G37*
G36*
X87821970Y-53592930D02*
G01*
X85720990Y-53592930D01*
X85720990Y-51491950D01*
X87821970Y-51491950D01*
X87821970Y-53592930D01*
G37*
G36*
X92901970Y-53582770D02*
G01*
X90800990Y-53582770D01*
X90800990Y-51481790D01*
X92901970Y-51481790D01*
X92901970Y-53582770D01*
G37*
G36*
X100486410Y-53582770D02*
G01*
X98385430Y-53582770D01*
X98385430Y-51481790D01*
X100486410Y-51481790D01*
X100486410Y-53582770D01*
G37*
G36*
X97946410Y-53582770D02*
G01*
X95845430Y-53582770D01*
X95845430Y-51481790D01*
X97946410Y-51481790D01*
X97946410Y-53582770D01*
G37*
G36*
X95441970Y-53582770D02*
G01*
X93340990Y-53582770D01*
X93340990Y-51481790D01*
X95441970Y-51481790D01*
X95441970Y-53582770D01*
G37*
G36*
X178886050Y-51266290D02*
G01*
X176785070Y-51266290D01*
X176785070Y-49165310D01*
X178886050Y-49165310D01*
X178886050Y-51266290D01*
G37*
G36*
X181426050Y-51266290D02*
G01*
X179325070Y-51266290D01*
X179325070Y-49165310D01*
X181426050Y-49165310D01*
X181426050Y-51266290D01*
G37*
G36*
X173826370Y-51245970D02*
G01*
X171725390Y-51245970D01*
X171725390Y-49144990D01*
X173826370Y-49144990D01*
X173826370Y-51245970D01*
G37*
G36*
X176366370Y-51245970D02*
G01*
X174265390Y-51245970D01*
X174265390Y-49144990D01*
X176366370Y-49144990D01*
X176366370Y-51245970D01*
G37*
G36*
X168781930Y-51245970D02*
G01*
X166680950Y-51245970D01*
X166680950Y-49144990D01*
X168781930Y-49144990D01*
X168781930Y-51245970D01*
G37*
G36*
X171321930Y-51245970D02*
G01*
X169220950Y-51245970D01*
X169220950Y-49144990D01*
X171321930Y-49144990D01*
X171321930Y-51245970D01*
G37*
G36*
X163742570Y-51235810D02*
G01*
X161641590Y-51235810D01*
X161641590Y-49134830D01*
X163742570Y-49134830D01*
X163742570Y-51235810D01*
G37*
G36*
X166282570Y-51235810D02*
G01*
X164181590Y-51235810D01*
X164181590Y-49134830D01*
X166282570Y-49134830D01*
X166282570Y-51235810D01*
G37*
G36*
X161222890Y-51215490D02*
G01*
X159121910Y-51215490D01*
X159121910Y-49114510D01*
X161222890Y-49114510D01*
X161222890Y-51215490D01*
G37*
G36*
X158682890Y-51215490D02*
G01*
X156581910Y-51215490D01*
X156581910Y-49114510D01*
X158682890Y-49114510D01*
X158682890Y-51215490D01*
G37*
G36*
X156178450Y-51215490D02*
G01*
X154077470Y-51215490D01*
X154077470Y-49114510D01*
X156178450Y-49114510D01*
X156178450Y-51215490D01*
G37*
G36*
X153638450Y-51215490D02*
G01*
X151537470Y-51215490D01*
X151537470Y-49114510D01*
X153638450Y-49114510D01*
X153638450Y-51215490D01*
G37*
G36*
X148573690Y-51210410D02*
G01*
X146472710Y-51210410D01*
X146472710Y-49109430D01*
X148573690Y-49109430D01*
X148573690Y-51210410D01*
G37*
G36*
X151113690Y-51210410D02*
G01*
X149012710Y-51210410D01*
X149012710Y-49109430D01*
X151113690Y-49109430D01*
X151113690Y-51210410D01*
G37*
G36*
X138469570Y-51190090D02*
G01*
X136368590Y-51190090D01*
X136368590Y-49089110D01*
X138469570Y-49089110D01*
X138469570Y-51190090D01*
G37*
G36*
X141009570Y-51190090D02*
G01*
X138908590Y-51190090D01*
X138908590Y-49089110D01*
X141009570Y-49089110D01*
X141009570Y-51190090D01*
G37*
G36*
X118230850Y-51190090D02*
G01*
X116129870Y-51190090D01*
X116129870Y-49089110D01*
X118230850Y-49089110D01*
X118230850Y-51190090D01*
G37*
G36*
X120770850Y-51190090D02*
G01*
X118669870Y-51190090D01*
X118669870Y-49089110D01*
X120770850Y-49089110D01*
X120770850Y-51190090D01*
G37*
G36*
X135954970Y-51190090D02*
G01*
X133853990Y-51190090D01*
X133853990Y-49089110D01*
X135954970Y-49089110D01*
X135954970Y-51190090D01*
G37*
G36*
X146054010Y-51190090D02*
G01*
X143953030Y-51190090D01*
X143953030Y-49089110D01*
X146054010Y-49089110D01*
X146054010Y-51190090D01*
G37*
G36*
X143514010Y-51190090D02*
G01*
X141413030Y-51190090D01*
X141413030Y-49089110D01*
X143514010Y-49089110D01*
X143514010Y-51190090D01*
G37*
G36*
X133414970Y-51190090D02*
G01*
X131313990Y-51190090D01*
X131313990Y-49089110D01*
X133414970Y-49089110D01*
X133414970Y-51190090D01*
G37*
G36*
X128355290Y-51169770D02*
G01*
X126254310Y-51169770D01*
X126254310Y-49068790D01*
X128355290Y-49068790D01*
X128355290Y-51169770D01*
G37*
G36*
X130895290Y-51169770D02*
G01*
X128794310Y-51169770D01*
X128794310Y-49068790D01*
X130895290Y-49068790D01*
X130895290Y-51169770D01*
G37*
G36*
X125850850Y-51169770D02*
G01*
X123749870Y-51169770D01*
X123749870Y-49068790D01*
X125850850Y-49068790D01*
X125850850Y-51169770D01*
G37*
G36*
X123310850Y-51169770D02*
G01*
X121209870Y-51169770D01*
X121209870Y-49068790D01*
X123310850Y-49068790D01*
X123310850Y-51169770D01*
G37*
G36*
X110666730Y-51169770D02*
G01*
X108565750Y-51169770D01*
X108565750Y-49068790D01*
X110666730Y-49068790D01*
X110666730Y-51169770D01*
G37*
G36*
X115711170Y-51169770D02*
G01*
X113610190Y-51169770D01*
X113610190Y-49068790D01*
X115711170Y-49068790D01*
X115711170Y-51169770D01*
G37*
G36*
X113171170Y-51169770D02*
G01*
X111070190Y-51169770D01*
X111070190Y-49068790D01*
X113171170Y-49068790D01*
X113171170Y-51169770D01*
G37*
G36*
X108126730Y-51169770D02*
G01*
X106025750Y-51169770D01*
X106025750Y-49068790D01*
X108126730Y-49068790D01*
X108126730Y-51169770D01*
G37*
G36*
X103031490Y-51144370D02*
G01*
X100930510Y-51144370D01*
X100930510Y-49043390D01*
X103031490Y-49043390D01*
X103031490Y-51144370D01*
G37*
G36*
X105571490Y-51144370D02*
G01*
X103470510Y-51144370D01*
X103470510Y-49043390D01*
X105571490Y-49043390D01*
X105571490Y-51144370D01*
G37*
G36*
X90387370Y-51134210D02*
G01*
X88286390Y-51134210D01*
X88286390Y-49033230D01*
X90387370Y-49033230D01*
X90387370Y-51134210D01*
G37*
G36*
X87847370Y-51134210D02*
G01*
X85746390Y-51134210D01*
X85746390Y-49033230D01*
X87847370Y-49033230D01*
X87847370Y-51134210D01*
G37*
G36*
X100511810Y-51124050D02*
G01*
X98410830Y-51124050D01*
X98410830Y-49023070D01*
X100511810Y-49023070D01*
X100511810Y-51124050D01*
G37*
G36*
X97971810Y-51124050D02*
G01*
X95870830Y-51124050D01*
X95870830Y-49023070D01*
X97971810Y-49023070D01*
X97971810Y-51124050D01*
G37*
G36*
X95467370Y-51124050D02*
G01*
X93366390Y-51124050D01*
X93366390Y-49023070D01*
X95467370Y-49023070D01*
X95467370Y-51124050D01*
G37*
G36*
X92927370Y-51124050D02*
G01*
X90826390Y-51124050D01*
X90826390Y-49023070D01*
X92927370Y-49023070D01*
X92927370Y-51124050D01*
G37*
G36*
X181426050Y-48726290D02*
G01*
X179325070Y-48726290D01*
X179325070Y-46625310D01*
X181426050Y-46625310D01*
X181426050Y-48726290D01*
G37*
G36*
X178886050Y-48726290D02*
G01*
X176785070Y-48726290D01*
X176785070Y-46625310D01*
X178886050Y-46625310D01*
X178886050Y-48726290D01*
G37*
G36*
X171321930Y-48705970D02*
G01*
X169220950Y-48705970D01*
X169220950Y-46604990D01*
X171321930Y-46604990D01*
X171321930Y-48705970D01*
G37*
G36*
X168781930Y-48705970D02*
G01*
X166680950Y-48705970D01*
X166680950Y-46604990D01*
X168781930Y-46604990D01*
X168781930Y-48705970D01*
G37*
G36*
X176366370Y-48705970D02*
G01*
X174265390Y-48705970D01*
X174265390Y-46604990D01*
X176366370Y-46604990D01*
X176366370Y-48705970D01*
G37*
G36*
X173826370Y-48705970D02*
G01*
X171725390Y-48705970D01*
X171725390Y-46604990D01*
X173826370Y-46604990D01*
X173826370Y-48705970D01*
G37*
G36*
X166282570Y-48695810D02*
G01*
X164181590Y-48695810D01*
X164181590Y-46594830D01*
X166282570Y-46594830D01*
X166282570Y-48695810D01*
G37*
G36*
X163742570Y-48695810D02*
G01*
X161641590Y-48695810D01*
X161641590Y-46594830D01*
X163742570Y-46594830D01*
X163742570Y-48695810D01*
G37*
G36*
X153638450Y-48675490D02*
G01*
X151537470Y-48675490D01*
X151537470Y-46574510D01*
X153638450Y-46574510D01*
X153638450Y-48675490D01*
G37*
G36*
X156178450Y-48675490D02*
G01*
X154077470Y-48675490D01*
X154077470Y-46574510D01*
X156178450Y-46574510D01*
X156178450Y-48675490D01*
G37*
G36*
X161222890Y-48675490D02*
G01*
X159121910Y-48675490D01*
X159121910Y-46574510D01*
X161222890Y-46574510D01*
X161222890Y-48675490D01*
G37*
G36*
X158682890Y-48675490D02*
G01*
X156581910Y-48675490D01*
X156581910Y-46574510D01*
X158682890Y-46574510D01*
X158682890Y-48675490D01*
G37*
G36*
X151113690Y-48670410D02*
G01*
X149012710Y-48670410D01*
X149012710Y-46569430D01*
X151113690Y-46569430D01*
X151113690Y-48670410D01*
G37*
G36*
X148573690Y-48670410D02*
G01*
X146472710Y-48670410D01*
X146472710Y-46569430D01*
X148573690Y-46569430D01*
X148573690Y-48670410D01*
G37*
G36*
X118230850Y-48650090D02*
G01*
X116129870Y-48650090D01*
X116129870Y-46549110D01*
X118230850Y-46549110D01*
X118230850Y-48650090D01*
G37*
G36*
X120770850Y-48650090D02*
G01*
X118669870Y-48650090D01*
X118669870Y-46549110D01*
X120770850Y-46549110D01*
X120770850Y-48650090D01*
G37*
G36*
X138469570Y-48650090D02*
G01*
X136368590Y-48650090D01*
X136368590Y-46549110D01*
X138469570Y-46549110D01*
X138469570Y-48650090D01*
G37*
G36*
X141009570Y-48650090D02*
G01*
X138908590Y-48650090D01*
X138908590Y-46549110D01*
X141009570Y-46549110D01*
X141009570Y-48650090D01*
G37*
G36*
X135954970Y-48650090D02*
G01*
X133853990Y-48650090D01*
X133853990Y-46549110D01*
X135954970Y-46549110D01*
X135954970Y-48650090D01*
G37*
G36*
X133414970Y-48650090D02*
G01*
X131313990Y-48650090D01*
X131313990Y-46549110D01*
X133414970Y-46549110D01*
X133414970Y-48650090D01*
G37*
G36*
X146054010Y-48650090D02*
G01*
X143953030Y-48650090D01*
X143953030Y-46549110D01*
X146054010Y-46549110D01*
X146054010Y-48650090D01*
G37*
G36*
X143514010Y-48650090D02*
G01*
X141413030Y-48650090D01*
X141413030Y-46549110D01*
X143514010Y-46549110D01*
X143514010Y-48650090D01*
G37*
G36*
X130895290Y-48629770D02*
G01*
X128794310Y-48629770D01*
X128794310Y-46528790D01*
X130895290Y-46528790D01*
X130895290Y-48629770D01*
G37*
G36*
X125850850Y-48629770D02*
G01*
X123749870Y-48629770D01*
X123749870Y-46528790D01*
X125850850Y-46528790D01*
X125850850Y-48629770D01*
G37*
G36*
X123310850Y-48629770D02*
G01*
X121209870Y-48629770D01*
X121209870Y-46528790D01*
X123310850Y-46528790D01*
X123310850Y-48629770D01*
G37*
G36*
X128355290Y-48629770D02*
G01*
X126254310Y-48629770D01*
X126254310Y-46528790D01*
X128355290Y-46528790D01*
X128355290Y-48629770D01*
G37*
G36*
X115711170Y-48629770D02*
G01*
X113610190Y-48629770D01*
X113610190Y-46528790D01*
X115711170Y-46528790D01*
X115711170Y-48629770D01*
G37*
G36*
X113171170Y-48629770D02*
G01*
X111070190Y-48629770D01*
X111070190Y-46528790D01*
X113171170Y-46528790D01*
X113171170Y-48629770D01*
G37*
G36*
X110666730Y-48629770D02*
G01*
X108565750Y-48629770D01*
X108565750Y-46528790D01*
X110666730Y-46528790D01*
X110666730Y-48629770D01*
G37*
G36*
X108126730Y-48629770D02*
G01*
X106025750Y-48629770D01*
X106025750Y-46528790D01*
X108126730Y-46528790D01*
X108126730Y-48629770D01*
G37*
G36*
X103031490Y-48604370D02*
G01*
X100930510Y-48604370D01*
X100930510Y-46503390D01*
X103031490Y-46503390D01*
X103031490Y-48604370D01*
G37*
G36*
X105571490Y-48604370D02*
G01*
X103470510Y-48604370D01*
X103470510Y-46503390D01*
X105571490Y-46503390D01*
X105571490Y-48604370D01*
G37*
G36*
X90387370Y-48594210D02*
G01*
X88286390Y-48594210D01*
X88286390Y-46493230D01*
X90387370Y-46493230D01*
X90387370Y-48594210D01*
G37*
G36*
X87847370Y-48594210D02*
G01*
X85746390Y-48594210D01*
X85746390Y-46493230D01*
X87847370Y-46493230D01*
X87847370Y-48594210D01*
G37*
G36*
X100511810Y-48584050D02*
G01*
X98410830Y-48584050D01*
X98410830Y-46483070D01*
X100511810Y-46483070D01*
X100511810Y-48584050D01*
G37*
G36*
X97971810Y-48584050D02*
G01*
X95870830Y-48584050D01*
X95870830Y-46483070D01*
X97971810Y-46483070D01*
X97971810Y-48584050D01*
G37*
G36*
X95467370Y-48584050D02*
G01*
X93366390Y-48584050D01*
X93366390Y-46483070D01*
X95467370Y-46483070D01*
X95467370Y-48584050D01*
G37*
G36*
X92927370Y-48584050D02*
G01*
X90826390Y-48584050D01*
X90826390Y-46483070D01*
X92927370Y-46483070D01*
X92927370Y-48584050D01*
G37*
G36*
X181446370Y-46201530D02*
G01*
X179345390Y-46201530D01*
X179345390Y-44100550D01*
X181446370Y-44100550D01*
X181446370Y-46201530D01*
G37*
G36*
X178906370Y-46201530D02*
G01*
X176805390Y-46201530D01*
X176805390Y-44100550D01*
X178906370Y-44100550D01*
X178906370Y-46201530D01*
G37*
G36*
X176386690Y-46181210D02*
G01*
X174285710Y-46181210D01*
X174285710Y-44080230D01*
X176386690Y-44080230D01*
X176386690Y-46181210D01*
G37*
G36*
X173846690Y-46181210D02*
G01*
X171745710Y-46181210D01*
X171745710Y-44080230D01*
X173846690Y-44080230D01*
X173846690Y-46181210D01*
G37*
G36*
X168802250Y-46181210D02*
G01*
X166701270Y-46181210D01*
X166701270Y-44080230D01*
X168802250Y-44080230D01*
X168802250Y-46181210D01*
G37*
G36*
X171342250Y-46181210D02*
G01*
X169241270Y-46181210D01*
X169241270Y-44080230D01*
X171342250Y-44080230D01*
X171342250Y-46181210D01*
G37*
G36*
X166302890Y-46171050D02*
G01*
X164201910Y-46171050D01*
X164201910Y-44070070D01*
X166302890Y-44070070D01*
X166302890Y-46171050D01*
G37*
G36*
X163762890Y-46171050D02*
G01*
X161661910Y-46171050D01*
X161661910Y-44070070D01*
X163762890Y-44070070D01*
X163762890Y-46171050D01*
G37*
G36*
X161243210Y-46150730D02*
G01*
X159142230Y-46150730D01*
X159142230Y-44049750D01*
X161243210Y-44049750D01*
X161243210Y-46150730D01*
G37*
G36*
X156198770Y-46150730D02*
G01*
X154097790Y-46150730D01*
X154097790Y-44049750D01*
X156198770Y-44049750D01*
X156198770Y-46150730D01*
G37*
G36*
X153658770Y-46150730D02*
G01*
X151557790Y-46150730D01*
X151557790Y-44049750D01*
X153658770Y-44049750D01*
X153658770Y-46150730D01*
G37*
G36*
X158703210Y-46150730D02*
G01*
X156602230Y-46150730D01*
X156602230Y-44049750D01*
X158703210Y-44049750D01*
X158703210Y-46150730D01*
G37*
G36*
X148594010Y-46145650D02*
G01*
X146493030Y-46145650D01*
X146493030Y-44044670D01*
X148594010Y-44044670D01*
X148594010Y-46145650D01*
G37*
G36*
X151134010Y-46145650D02*
G01*
X149033030Y-46145650D01*
X149033030Y-44044670D01*
X151134010Y-44044670D01*
X151134010Y-46145650D01*
G37*
G36*
X133435290Y-46125330D02*
G01*
X131334310Y-46125330D01*
X131334310Y-44024350D01*
X133435290Y-44024350D01*
X133435290Y-46125330D01*
G37*
G36*
X135975290Y-46125330D02*
G01*
X133874310Y-46125330D01*
X133874310Y-44024350D01*
X135975290Y-44024350D01*
X135975290Y-46125330D01*
G37*
G36*
X141029890Y-46125330D02*
G01*
X138928910Y-46125330D01*
X138928910Y-44024350D01*
X141029890Y-44024350D01*
X141029890Y-46125330D01*
G37*
G36*
X118251170Y-46125330D02*
G01*
X116150190Y-46125330D01*
X116150190Y-44024350D01*
X118251170Y-44024350D01*
X118251170Y-46125330D01*
G37*
G36*
X143534330Y-46125330D02*
G01*
X141433350Y-46125330D01*
X141433350Y-44024350D01*
X143534330Y-44024350D01*
X143534330Y-46125330D01*
G37*
G36*
X138489890Y-46125330D02*
G01*
X136388910Y-46125330D01*
X136388910Y-44024350D01*
X138489890Y-44024350D01*
X138489890Y-46125330D01*
G37*
G36*
X146074330Y-46125330D02*
G01*
X143973350Y-46125330D01*
X143973350Y-44024350D01*
X146074330Y-44024350D01*
X146074330Y-46125330D01*
G37*
G36*
X120791170Y-46125330D02*
G01*
X118690190Y-46125330D01*
X118690190Y-44024350D01*
X120791170Y-44024350D01*
X120791170Y-46125330D01*
G37*
G36*
X110687050Y-46105010D02*
G01*
X108586070Y-46105010D01*
X108586070Y-44004030D01*
X110687050Y-44004030D01*
X110687050Y-46105010D01*
G37*
G36*
X113191490Y-46105010D02*
G01*
X111090510Y-46105010D01*
X111090510Y-44004030D01*
X113191490Y-44004030D01*
X113191490Y-46105010D01*
G37*
G36*
X108147050Y-46105010D02*
G01*
X106046070Y-46105010D01*
X106046070Y-44004030D01*
X108147050Y-44004030D01*
X108147050Y-46105010D01*
G37*
G36*
X128375610Y-46105010D02*
G01*
X126274630Y-46105010D01*
X126274630Y-44004030D01*
X128375610Y-44004030D01*
X128375610Y-46105010D01*
G37*
G36*
X125871170Y-46105010D02*
G01*
X123770190Y-46105010D01*
X123770190Y-44004030D01*
X125871170Y-44004030D01*
X125871170Y-46105010D01*
G37*
G36*
X123331170Y-46105010D02*
G01*
X121230190Y-46105010D01*
X121230190Y-44004030D01*
X123331170Y-44004030D01*
X123331170Y-46105010D01*
G37*
G36*
X130915610Y-46105010D02*
G01*
X128814630Y-46105010D01*
X128814630Y-44004030D01*
X130915610Y-44004030D01*
X130915610Y-46105010D01*
G37*
G36*
X115731490Y-46105010D02*
G01*
X113630510Y-46105010D01*
X113630510Y-44004030D01*
X115731490Y-44004030D01*
X115731490Y-46105010D01*
G37*
G36*
X105591810Y-46079610D02*
G01*
X103490830Y-46079610D01*
X103490830Y-43978630D01*
X105591810Y-43978630D01*
X105591810Y-46079610D01*
G37*
G36*
X103051810Y-46079610D02*
G01*
X100950830Y-46079610D01*
X100950830Y-43978630D01*
X103051810Y-43978630D01*
X103051810Y-46079610D01*
G37*
G36*
X90407690Y-46069450D02*
G01*
X88306710Y-46069450D01*
X88306710Y-43968470D01*
X90407690Y-43968470D01*
X90407690Y-46069450D01*
G37*
G36*
X87867690Y-46069450D02*
G01*
X85766710Y-46069450D01*
X85766710Y-43968470D01*
X87867690Y-43968470D01*
X87867690Y-46069450D01*
G37*
G36*
X100532130Y-46059290D02*
G01*
X98431150Y-46059290D01*
X98431150Y-43958310D01*
X100532130Y-43958310D01*
X100532130Y-46059290D01*
G37*
G36*
X92947690Y-46059290D02*
G01*
X90846710Y-46059290D01*
X90846710Y-43958310D01*
X92947690Y-43958310D01*
X92947690Y-46059290D01*
G37*
G36*
X97992130Y-46059290D02*
G01*
X95891150Y-46059290D01*
X95891150Y-43958310D01*
X97992130Y-43958310D01*
X97992130Y-46059290D01*
G37*
G36*
X95487690Y-46059290D02*
G01*
X93386710Y-46059290D01*
X93386710Y-43958310D01*
X95487690Y-43958310D01*
X95487690Y-46059290D01*
G37*
G36*
X181446370Y-43661530D02*
G01*
X179345390Y-43661530D01*
X179345390Y-41560550D01*
X181446370Y-41560550D01*
X181446370Y-43661530D01*
G37*
G36*
X178906370Y-43661530D02*
G01*
X176805390Y-43661530D01*
X176805390Y-41560550D01*
X178906370Y-41560550D01*
X178906370Y-43661530D01*
G37*
G36*
X176386690Y-43641210D02*
G01*
X174285710Y-43641210D01*
X174285710Y-41540230D01*
X176386690Y-41540230D01*
X176386690Y-43641210D01*
G37*
G36*
X173846690Y-43641210D02*
G01*
X171745710Y-43641210D01*
X171745710Y-41540230D01*
X173846690Y-41540230D01*
X173846690Y-43641210D01*
G37*
G36*
X171342250Y-43641210D02*
G01*
X169241270Y-43641210D01*
X169241270Y-41540230D01*
X171342250Y-41540230D01*
X171342250Y-43641210D01*
G37*
G36*
X168802250Y-43641210D02*
G01*
X166701270Y-43641210D01*
X166701270Y-41540230D01*
X168802250Y-41540230D01*
X168802250Y-43641210D01*
G37*
G36*
X166302890Y-43631050D02*
G01*
X164201910Y-43631050D01*
X164201910Y-41530070D01*
X166302890Y-41530070D01*
X166302890Y-43631050D01*
G37*
G36*
X163762890Y-43631050D02*
G01*
X161661910Y-43631050D01*
X161661910Y-41530070D01*
X163762890Y-41530070D01*
X163762890Y-43631050D01*
G37*
G36*
X153658770Y-43610730D02*
G01*
X151557790Y-43610730D01*
X151557790Y-41509750D01*
X153658770Y-41509750D01*
X153658770Y-43610730D01*
G37*
G36*
X156198770Y-43610730D02*
G01*
X154097790Y-43610730D01*
X154097790Y-41509750D01*
X156198770Y-41509750D01*
X156198770Y-43610730D01*
G37*
G36*
X158703210Y-43610730D02*
G01*
X156602230Y-43610730D01*
X156602230Y-41509750D01*
X158703210Y-41509750D01*
X158703210Y-43610730D01*
G37*
G36*
X161243210Y-43610730D02*
G01*
X159142230Y-43610730D01*
X159142230Y-41509750D01*
X161243210Y-41509750D01*
X161243210Y-43610730D01*
G37*
G36*
X151134010Y-43605650D02*
G01*
X149033030Y-43605650D01*
X149033030Y-41504670D01*
X151134010Y-41504670D01*
X151134010Y-43605650D01*
G37*
G36*
X148594010Y-43605650D02*
G01*
X146493030Y-43605650D01*
X146493030Y-41504670D01*
X148594010Y-41504670D01*
X148594010Y-43605650D01*
G37*
G36*
X143534330Y-43585330D02*
G01*
X141433350Y-43585330D01*
X141433350Y-41484350D01*
X143534330Y-41484350D01*
X143534330Y-43585330D01*
G37*
G36*
X133435290Y-43585330D02*
G01*
X131334310Y-43585330D01*
X131334310Y-41484350D01*
X133435290Y-41484350D01*
X133435290Y-43585330D01*
G37*
G36*
X141029890Y-43585330D02*
G01*
X138928910Y-43585330D01*
X138928910Y-41484350D01*
X141029890Y-41484350D01*
X141029890Y-43585330D01*
G37*
G36*
X138489890Y-43585330D02*
G01*
X136388910Y-43585330D01*
X136388910Y-41484350D01*
X138489890Y-41484350D01*
X138489890Y-43585330D01*
G37*
G36*
X120791170Y-43585330D02*
G01*
X118690190Y-43585330D01*
X118690190Y-41484350D01*
X120791170Y-41484350D01*
X120791170Y-43585330D01*
G37*
G36*
X135975290Y-43585330D02*
G01*
X133874310Y-43585330D01*
X133874310Y-41484350D01*
X135975290Y-41484350D01*
X135975290Y-43585330D01*
G37*
G36*
X118251170Y-43585330D02*
G01*
X116150190Y-43585330D01*
X116150190Y-41484350D01*
X118251170Y-41484350D01*
X118251170Y-43585330D01*
G37*
G36*
X146074330Y-43585330D02*
G01*
X143973350Y-43585330D01*
X143973350Y-41484350D01*
X146074330Y-41484350D01*
X146074330Y-43585330D01*
G37*
G36*
X108147050Y-43565010D02*
G01*
X106046070Y-43565010D01*
X106046070Y-41464030D01*
X108147050Y-41464030D01*
X108147050Y-43565010D01*
G37*
G36*
X128375610Y-43565010D02*
G01*
X126274630Y-43565010D01*
X126274630Y-41464030D01*
X128375610Y-41464030D01*
X128375610Y-43565010D01*
G37*
G36*
X130915610Y-43565010D02*
G01*
X128814630Y-43565010D01*
X128814630Y-41464030D01*
X130915610Y-41464030D01*
X130915610Y-43565010D01*
G37*
G36*
X125871170Y-43565010D02*
G01*
X123770190Y-43565010D01*
X123770190Y-41464030D01*
X125871170Y-41464030D01*
X125871170Y-43565010D01*
G37*
G36*
X113191490Y-43565010D02*
G01*
X111090510Y-43565010D01*
X111090510Y-41464030D01*
X113191490Y-41464030D01*
X113191490Y-43565010D01*
G37*
G36*
X110687050Y-43565010D02*
G01*
X108586070Y-43565010D01*
X108586070Y-41464030D01*
X110687050Y-41464030D01*
X110687050Y-43565010D01*
G37*
G36*
X123331170Y-43565010D02*
G01*
X121230190Y-43565010D01*
X121230190Y-41464030D01*
X123331170Y-41464030D01*
X123331170Y-43565010D01*
G37*
G36*
X115731490Y-43565010D02*
G01*
X113630510Y-43565010D01*
X113630510Y-41464030D01*
X115731490Y-41464030D01*
X115731490Y-43565010D01*
G37*
G36*
X105591810Y-43539610D02*
G01*
X103490830Y-43539610D01*
X103490830Y-41438630D01*
X105591810Y-41438630D01*
X105591810Y-43539610D01*
G37*
G36*
X103051810Y-43539610D02*
G01*
X100950830Y-43539610D01*
X100950830Y-41438630D01*
X103051810Y-41438630D01*
X103051810Y-43539610D01*
G37*
G36*
X87867690Y-43529450D02*
G01*
X85766710Y-43529450D01*
X85766710Y-41428470D01*
X87867690Y-41428470D01*
X87867690Y-43529450D01*
G37*
G36*
X90407690Y-43529450D02*
G01*
X88306710Y-43529450D01*
X88306710Y-41428470D01*
X90407690Y-41428470D01*
X90407690Y-43529450D01*
G37*
G36*
X100532130Y-43519290D02*
G01*
X98431150Y-43519290D01*
X98431150Y-41418310D01*
X100532130Y-41418310D01*
X100532130Y-43519290D01*
G37*
G36*
X92947690Y-43519290D02*
G01*
X90846710Y-43519290D01*
X90846710Y-41418310D01*
X92947690Y-41418310D01*
X92947690Y-43519290D01*
G37*
G36*
X95487690Y-43519290D02*
G01*
X93386710Y-43519290D01*
X93386710Y-41418310D01*
X95487690Y-41418310D01*
X95487690Y-43519290D01*
G37*
G36*
X97992130Y-43519290D02*
G01*
X95891150Y-43519290D01*
X95891150Y-41418310D01*
X97992130Y-41418310D01*
X97992130Y-43519290D01*
G37*
G36*
X178880970Y-41141850D02*
G01*
X176779990Y-41141850D01*
X176779990Y-39040870D01*
X178880970Y-39040870D01*
X178880970Y-41141850D01*
G37*
G36*
X181420970Y-41141850D02*
G01*
X179319990Y-41141850D01*
X179319990Y-39040870D01*
X181420970Y-39040870D01*
X181420970Y-41141850D01*
G37*
G36*
X171316850Y-41121530D02*
G01*
X169215870Y-41121530D01*
X169215870Y-39020550D01*
X171316850Y-39020550D01*
X171316850Y-41121530D01*
G37*
G36*
X168776850Y-41121530D02*
G01*
X166675870Y-41121530D01*
X166675870Y-39020550D01*
X168776850Y-39020550D01*
X168776850Y-41121530D01*
G37*
G36*
X176361290Y-41121530D02*
G01*
X174260310Y-41121530D01*
X174260310Y-39020550D01*
X176361290Y-39020550D01*
X176361290Y-41121530D01*
G37*
G36*
X173821290Y-41121530D02*
G01*
X171720310Y-41121530D01*
X171720310Y-39020550D01*
X173821290Y-39020550D01*
X173821290Y-41121530D01*
G37*
G36*
X163737490Y-41111370D02*
G01*
X161636510Y-41111370D01*
X161636510Y-39010390D01*
X163737490Y-39010390D01*
X163737490Y-41111370D01*
G37*
G36*
X166277490Y-41111370D02*
G01*
X164176510Y-41111370D01*
X164176510Y-39010390D01*
X166277490Y-39010390D01*
X166277490Y-41111370D01*
G37*
G36*
X156173370Y-41091050D02*
G01*
X154072390Y-41091050D01*
X154072390Y-38990070D01*
X156173370Y-38990070D01*
X156173370Y-41091050D01*
G37*
G36*
X161217810Y-41091050D02*
G01*
X159116830Y-41091050D01*
X159116830Y-38990070D01*
X161217810Y-38990070D01*
X161217810Y-41091050D01*
G37*
G36*
X158677810Y-41091050D02*
G01*
X156576830Y-41091050D01*
X156576830Y-38990070D01*
X158677810Y-38990070D01*
X158677810Y-41091050D01*
G37*
G36*
X153633370Y-41091050D02*
G01*
X151532390Y-41091050D01*
X151532390Y-38990070D01*
X153633370Y-38990070D01*
X153633370Y-41091050D01*
G37*
G36*
X151108610Y-41085970D02*
G01*
X149007630Y-41085970D01*
X149007630Y-38984990D01*
X151108610Y-38984990D01*
X151108610Y-41085970D01*
G37*
G36*
X148568610Y-41085970D02*
G01*
X146467630Y-41085970D01*
X146467630Y-38984990D01*
X148568610Y-38984990D01*
X148568610Y-41085970D01*
G37*
G36*
X120765770Y-41065650D02*
G01*
X118664790Y-41065650D01*
X118664790Y-38964670D01*
X120765770Y-38964670D01*
X120765770Y-41065650D01*
G37*
G36*
X146048930Y-41065650D02*
G01*
X143947950Y-41065650D01*
X143947950Y-38964670D01*
X146048930Y-38964670D01*
X146048930Y-41065650D01*
G37*
G36*
X143508930Y-41065650D02*
G01*
X141407950Y-41065650D01*
X141407950Y-38964670D01*
X143508930Y-38964670D01*
X143508930Y-41065650D01*
G37*
G36*
X141004490Y-41065650D02*
G01*
X138903510Y-41065650D01*
X138903510Y-38964670D01*
X141004490Y-38964670D01*
X141004490Y-41065650D01*
G37*
G36*
X135949890Y-41065650D02*
G01*
X133848910Y-41065650D01*
X133848910Y-38964670D01*
X135949890Y-38964670D01*
X135949890Y-41065650D01*
G37*
G36*
X118225770Y-41065650D02*
G01*
X116124790Y-41065650D01*
X116124790Y-38964670D01*
X118225770Y-38964670D01*
X118225770Y-41065650D01*
G37*
G36*
X138464490Y-41065650D02*
G01*
X136363510Y-41065650D01*
X136363510Y-38964670D01*
X138464490Y-38964670D01*
X138464490Y-41065650D01*
G37*
G36*
X133409890Y-41065650D02*
G01*
X131308910Y-41065650D01*
X131308910Y-38964670D01*
X133409890Y-38964670D01*
X133409890Y-41065650D01*
G37*
G36*
X110661650Y-41045330D02*
G01*
X108560670Y-41045330D01*
X108560670Y-38944350D01*
X110661650Y-38944350D01*
X110661650Y-41045330D01*
G37*
G36*
X123305770Y-41045330D02*
G01*
X121204790Y-41045330D01*
X121204790Y-38944350D01*
X123305770Y-38944350D01*
X123305770Y-41045330D01*
G37*
G36*
X108121650Y-41045330D02*
G01*
X106020670Y-41045330D01*
X106020670Y-38944350D01*
X108121650Y-38944350D01*
X108121650Y-41045330D01*
G37*
G36*
X130890210Y-41045330D02*
G01*
X128789230Y-41045330D01*
X128789230Y-38944350D01*
X130890210Y-38944350D01*
X130890210Y-41045330D01*
G37*
G36*
X128350210Y-41045330D02*
G01*
X126249230Y-41045330D01*
X126249230Y-38944350D01*
X128350210Y-38944350D01*
X128350210Y-41045330D01*
G37*
G36*
X113166090Y-41045330D02*
G01*
X111065110Y-41045330D01*
X111065110Y-38944350D01*
X113166090Y-38944350D01*
X113166090Y-41045330D01*
G37*
G36*
X115706090Y-41045330D02*
G01*
X113605110Y-41045330D01*
X113605110Y-38944350D01*
X115706090Y-38944350D01*
X115706090Y-41045330D01*
G37*
G36*
X125845770Y-41045330D02*
G01*
X123744790Y-41045330D01*
X123744790Y-38944350D01*
X125845770Y-38944350D01*
X125845770Y-41045330D01*
G37*
G36*
X103026410Y-41019930D02*
G01*
X100925430Y-41019930D01*
X100925430Y-38918950D01*
X103026410Y-38918950D01*
X103026410Y-41019930D01*
G37*
G36*
X105566410Y-41019930D02*
G01*
X103465430Y-41019930D01*
X103465430Y-38918950D01*
X105566410Y-38918950D01*
X105566410Y-41019930D01*
G37*
G36*
X87842290Y-41009770D02*
G01*
X85741310Y-41009770D01*
X85741310Y-38908790D01*
X87842290Y-38908790D01*
X87842290Y-41009770D01*
G37*
G36*
X90382290Y-41009770D02*
G01*
X88281310Y-41009770D01*
X88281310Y-38908790D01*
X90382290Y-38908790D01*
X90382290Y-41009770D01*
G37*
G36*
X97966730Y-40999610D02*
G01*
X95865750Y-40999610D01*
X95865750Y-38898630D01*
X97966730Y-38898630D01*
X97966730Y-40999610D01*
G37*
G36*
X100506730Y-40999610D02*
G01*
X98405750Y-40999610D01*
X98405750Y-38898630D01*
X100506730Y-38898630D01*
X100506730Y-40999610D01*
G37*
G36*
X95462290Y-40999610D02*
G01*
X93361310Y-40999610D01*
X93361310Y-38898630D01*
X95462290Y-38898630D01*
X95462290Y-40999610D01*
G37*
G36*
X92922290Y-40999610D02*
G01*
X90821310Y-40999610D01*
X90821310Y-38898630D01*
X92922290Y-38898630D01*
X92922290Y-40999610D01*
G37*
G36*
X181420970Y-38601850D02*
G01*
X179319990Y-38601850D01*
X179319990Y-36500870D01*
X181420970Y-36500870D01*
X181420970Y-38601850D01*
G37*
G36*
X178880970Y-38601850D02*
G01*
X176779990Y-38601850D01*
X176779990Y-36500870D01*
X178880970Y-36500870D01*
X178880970Y-38601850D01*
G37*
G36*
X171316850Y-38581530D02*
G01*
X169215870Y-38581530D01*
X169215870Y-36480550D01*
X171316850Y-36480550D01*
X171316850Y-38581530D01*
G37*
G36*
X176361290Y-38581530D02*
G01*
X174260310Y-38581530D01*
X174260310Y-36480550D01*
X176361290Y-36480550D01*
X176361290Y-38581530D01*
G37*
G36*
X168776850Y-38581530D02*
G01*
X166675870Y-38581530D01*
X166675870Y-36480550D01*
X168776850Y-36480550D01*
X168776850Y-38581530D01*
G37*
G36*
X173821290Y-38581530D02*
G01*
X171720310Y-38581530D01*
X171720310Y-36480550D01*
X173821290Y-36480550D01*
X173821290Y-38581530D01*
G37*
G36*
X163737490Y-38571370D02*
G01*
X161636510Y-38571370D01*
X161636510Y-36470390D01*
X163737490Y-36470390D01*
X163737490Y-38571370D01*
G37*
G36*
X166277490Y-38571370D02*
G01*
X164176510Y-38571370D01*
X164176510Y-36470390D01*
X166277490Y-36470390D01*
X166277490Y-38571370D01*
G37*
G36*
X153633370Y-38551050D02*
G01*
X151532390Y-38551050D01*
X151532390Y-36450070D01*
X153633370Y-36450070D01*
X153633370Y-38551050D01*
G37*
G36*
X161217810Y-38551050D02*
G01*
X159116830Y-38551050D01*
X159116830Y-36450070D01*
X161217810Y-36450070D01*
X161217810Y-38551050D01*
G37*
G36*
X156173370Y-38551050D02*
G01*
X154072390Y-38551050D01*
X154072390Y-36450070D01*
X156173370Y-36450070D01*
X156173370Y-38551050D01*
G37*
G36*
X158677810Y-38551050D02*
G01*
X156576830Y-38551050D01*
X156576830Y-36450070D01*
X158677810Y-36450070D01*
X158677810Y-38551050D01*
G37*
G36*
X148568610Y-38545970D02*
G01*
X146467630Y-38545970D01*
X146467630Y-36444990D01*
X148568610Y-36444990D01*
X148568610Y-38545970D01*
G37*
G36*
X151108610Y-38545970D02*
G01*
X149007630Y-38545970D01*
X149007630Y-36444990D01*
X151108610Y-36444990D01*
X151108610Y-38545970D01*
G37*
G36*
X120765770Y-38525650D02*
G01*
X118664790Y-38525650D01*
X118664790Y-36424670D01*
X120765770Y-36424670D01*
X120765770Y-38525650D01*
G37*
G36*
X133409890Y-38525650D02*
G01*
X131308910Y-38525650D01*
X131308910Y-36424670D01*
X133409890Y-36424670D01*
X133409890Y-38525650D01*
G37*
G36*
X135949890Y-38525650D02*
G01*
X133848910Y-38525650D01*
X133848910Y-36424670D01*
X135949890Y-36424670D01*
X135949890Y-38525650D01*
G37*
G36*
X118225770Y-38525650D02*
G01*
X116124790Y-38525650D01*
X116124790Y-36424670D01*
X118225770Y-36424670D01*
X118225770Y-38525650D01*
G37*
G36*
X138464490Y-38525650D02*
G01*
X136363510Y-38525650D01*
X136363510Y-36424670D01*
X138464490Y-36424670D01*
X138464490Y-38525650D01*
G37*
G36*
X143508930Y-38525650D02*
G01*
X141407950Y-38525650D01*
X141407950Y-36424670D01*
X143508930Y-36424670D01*
X143508930Y-38525650D01*
G37*
G36*
X146048930Y-38525650D02*
G01*
X143947950Y-38525650D01*
X143947950Y-36424670D01*
X146048930Y-36424670D01*
X146048930Y-38525650D01*
G37*
G36*
X141004490Y-38525650D02*
G01*
X138903510Y-38525650D01*
X138903510Y-36424670D01*
X141004490Y-36424670D01*
X141004490Y-38525650D01*
G37*
G36*
X123305770Y-38505330D02*
G01*
X121204790Y-38505330D01*
X121204790Y-36404350D01*
X123305770Y-36404350D01*
X123305770Y-38505330D01*
G37*
G36*
X115706090Y-38505330D02*
G01*
X113605110Y-38505330D01*
X113605110Y-36404350D01*
X115706090Y-36404350D01*
X115706090Y-38505330D01*
G37*
G36*
X113166090Y-38505330D02*
G01*
X111065110Y-38505330D01*
X111065110Y-36404350D01*
X113166090Y-36404350D01*
X113166090Y-38505330D01*
G37*
G36*
X130890210Y-38505330D02*
G01*
X128789230Y-38505330D01*
X128789230Y-36404350D01*
X130890210Y-36404350D01*
X130890210Y-38505330D01*
G37*
G36*
X128350210Y-38505330D02*
G01*
X126249230Y-38505330D01*
X126249230Y-36404350D01*
X128350210Y-36404350D01*
X128350210Y-38505330D01*
G37*
G36*
X110661650Y-38505330D02*
G01*
X108560670Y-38505330D01*
X108560670Y-36404350D01*
X110661650Y-36404350D01*
X110661650Y-38505330D01*
G37*
G36*
X125845770Y-38505330D02*
G01*
X123744790Y-38505330D01*
X123744790Y-36404350D01*
X125845770Y-36404350D01*
X125845770Y-38505330D01*
G37*
G36*
X108121650Y-38505330D02*
G01*
X106020670Y-38505330D01*
X106020670Y-36404350D01*
X108121650Y-36404350D01*
X108121650Y-38505330D01*
G37*
G36*
X103026410Y-38479930D02*
G01*
X100925430Y-38479930D01*
X100925430Y-36378950D01*
X103026410Y-36378950D01*
X103026410Y-38479930D01*
G37*
G36*
X105566410Y-38479930D02*
G01*
X103465430Y-38479930D01*
X103465430Y-36378950D01*
X105566410Y-36378950D01*
X105566410Y-38479930D01*
G37*
G36*
X87842290Y-38469770D02*
G01*
X85741310Y-38469770D01*
X85741310Y-36368790D01*
X87842290Y-36368790D01*
X87842290Y-38469770D01*
G37*
G36*
X90382290Y-38469770D02*
G01*
X88281310Y-38469770D01*
X88281310Y-36368790D01*
X90382290Y-36368790D01*
X90382290Y-38469770D01*
G37*
G36*
X97966730Y-38459610D02*
G01*
X95865750Y-38459610D01*
X95865750Y-36358630D01*
X97966730Y-36358630D01*
X97966730Y-38459610D01*
G37*
G36*
X95462290Y-38459610D02*
G01*
X93361310Y-38459610D01*
X93361310Y-36358630D01*
X95462290Y-36358630D01*
X95462290Y-38459610D01*
G37*
G36*
X100506730Y-38459610D02*
G01*
X98405750Y-38459610D01*
X98405750Y-36358630D01*
X100506730Y-36358630D01*
X100506730Y-38459610D01*
G37*
G36*
X92922290Y-38459610D02*
G01*
X90821310Y-38459610D01*
X90821310Y-36358630D01*
X92922290Y-36358630D01*
X92922290Y-38459610D01*
G37*
G36*
X181441290Y-36077090D02*
G01*
X179340310Y-36077090D01*
X179340310Y-33976110D01*
X181441290Y-33976110D01*
X181441290Y-36077090D01*
G37*
G36*
X178901290Y-36077090D02*
G01*
X176800310Y-36077090D01*
X176800310Y-33976110D01*
X178901290Y-33976110D01*
X178901290Y-36077090D01*
G37*
G36*
X168797170Y-36056770D02*
G01*
X166696190Y-36056770D01*
X166696190Y-33955790D01*
X168797170Y-33955790D01*
X168797170Y-36056770D01*
G37*
G36*
X171337170Y-36056770D02*
G01*
X169236190Y-36056770D01*
X169236190Y-33955790D01*
X171337170Y-33955790D01*
X171337170Y-36056770D01*
G37*
G36*
X176381610Y-36056770D02*
G01*
X174280630Y-36056770D01*
X174280630Y-33955790D01*
X176381610Y-33955790D01*
X176381610Y-36056770D01*
G37*
G36*
X173841610Y-36056770D02*
G01*
X171740630Y-36056770D01*
X171740630Y-33955790D01*
X173841610Y-33955790D01*
X173841610Y-36056770D01*
G37*
G36*
X166297810Y-36046610D02*
G01*
X164196830Y-36046610D01*
X164196830Y-33945630D01*
X166297810Y-33945630D01*
X166297810Y-36046610D01*
G37*
G36*
X163757810Y-36046610D02*
G01*
X161656830Y-36046610D01*
X161656830Y-33945630D01*
X163757810Y-33945630D01*
X163757810Y-36046610D01*
G37*
G36*
X153653690Y-36026290D02*
G01*
X151552710Y-36026290D01*
X151552710Y-33925310D01*
X153653690Y-33925310D01*
X153653690Y-36026290D01*
G37*
G36*
X156193690Y-36026290D02*
G01*
X154092710Y-36026290D01*
X154092710Y-33925310D01*
X156193690Y-33925310D01*
X156193690Y-36026290D01*
G37*
G36*
X158698130Y-36026290D02*
G01*
X156597150Y-36026290D01*
X156597150Y-33925310D01*
X158698130Y-33925310D01*
X158698130Y-36026290D01*
G37*
G36*
X161238130Y-36026290D02*
G01*
X159137150Y-36026290D01*
X159137150Y-33925310D01*
X161238130Y-33925310D01*
X161238130Y-36026290D01*
G37*
G36*
X151128930Y-36021210D02*
G01*
X149027950Y-36021210D01*
X149027950Y-33920230D01*
X151128930Y-33920230D01*
X151128930Y-36021210D01*
G37*
G36*
X148588930Y-36021210D02*
G01*
X146487950Y-36021210D01*
X146487950Y-33920230D01*
X148588930Y-33920230D01*
X148588930Y-36021210D01*
G37*
G36*
X120786090Y-36000890D02*
G01*
X118685110Y-36000890D01*
X118685110Y-33899910D01*
X120786090Y-33899910D01*
X120786090Y-36000890D01*
G37*
G36*
X118246090Y-36000890D02*
G01*
X116145110Y-36000890D01*
X116145110Y-33899910D01*
X118246090Y-33899910D01*
X118246090Y-36000890D01*
G37*
G36*
X143529250Y-36000890D02*
G01*
X141428270Y-36000890D01*
X141428270Y-33899910D01*
X143529250Y-33899910D01*
X143529250Y-36000890D01*
G37*
G36*
X141024810Y-36000890D02*
G01*
X138923830Y-36000890D01*
X138923830Y-33899910D01*
X141024810Y-33899910D01*
X141024810Y-36000890D01*
G37*
G36*
X133430210Y-36000890D02*
G01*
X131329230Y-36000890D01*
X131329230Y-33899910D01*
X133430210Y-33899910D01*
X133430210Y-36000890D01*
G37*
G36*
X135970210Y-36000890D02*
G01*
X133869230Y-36000890D01*
X133869230Y-33899910D01*
X135970210Y-33899910D01*
X135970210Y-36000890D01*
G37*
G36*
X138484810Y-36000890D02*
G01*
X136383830Y-36000890D01*
X136383830Y-33899910D01*
X138484810Y-33899910D01*
X138484810Y-36000890D01*
G37*
G36*
X146069250Y-36000890D02*
G01*
X143968270Y-36000890D01*
X143968270Y-33899910D01*
X146069250Y-33899910D01*
X146069250Y-36000890D01*
G37*
G36*
X128370530Y-35980570D02*
G01*
X126269550Y-35980570D01*
X126269550Y-33879590D01*
X128370530Y-33879590D01*
X128370530Y-35980570D01*
G37*
G36*
X113186410Y-35980570D02*
G01*
X111085430Y-35980570D01*
X111085430Y-33879590D01*
X113186410Y-33879590D01*
X113186410Y-35980570D01*
G37*
G36*
X123326090Y-35980570D02*
G01*
X121225110Y-35980570D01*
X121225110Y-33879590D01*
X123326090Y-33879590D01*
X123326090Y-35980570D01*
G37*
G36*
X115726410Y-35980570D02*
G01*
X113625430Y-35980570D01*
X113625430Y-33879590D01*
X115726410Y-33879590D01*
X115726410Y-35980570D01*
G37*
G36*
X125866090Y-35980570D02*
G01*
X123765110Y-35980570D01*
X123765110Y-33879590D01*
X125866090Y-33879590D01*
X125866090Y-35980570D01*
G37*
G36*
X108141970Y-35980570D02*
G01*
X106040990Y-35980570D01*
X106040990Y-33879590D01*
X108141970Y-33879590D01*
X108141970Y-35980570D01*
G37*
G36*
X110681970Y-35980570D02*
G01*
X108580990Y-35980570D01*
X108580990Y-33879590D01*
X110681970Y-33879590D01*
X110681970Y-35980570D01*
G37*
G36*
X130910530Y-35980570D02*
G01*
X128809550Y-35980570D01*
X128809550Y-33879590D01*
X130910530Y-33879590D01*
X130910530Y-35980570D01*
G37*
G36*
X105586730Y-35955170D02*
G01*
X103485750Y-35955170D01*
X103485750Y-33854190D01*
X105586730Y-33854190D01*
X105586730Y-35955170D01*
G37*
G36*
X103046730Y-35955170D02*
G01*
X100945750Y-35955170D01*
X100945750Y-33854190D01*
X103046730Y-33854190D01*
X103046730Y-35955170D01*
G37*
G36*
X90402610Y-35945010D02*
G01*
X88301630Y-35945010D01*
X88301630Y-33844030D01*
X90402610Y-33844030D01*
X90402610Y-35945010D01*
G37*
G36*
X87862610Y-35945010D02*
G01*
X85761630Y-35945010D01*
X85761630Y-33844030D01*
X87862610Y-33844030D01*
X87862610Y-35945010D01*
G37*
G36*
X97987050Y-35934850D02*
G01*
X95886070Y-35934850D01*
X95886070Y-33833870D01*
X97987050Y-33833870D01*
X97987050Y-35934850D01*
G37*
G36*
X95482610Y-35934850D02*
G01*
X93381630Y-35934850D01*
X93381630Y-33833870D01*
X95482610Y-33833870D01*
X95482610Y-35934850D01*
G37*
G36*
X92942610Y-35934850D02*
G01*
X90841630Y-35934850D01*
X90841630Y-33833870D01*
X92942610Y-33833870D01*
X92942610Y-35934850D01*
G37*
G36*
X100527050Y-35934850D02*
G01*
X98426070Y-35934850D01*
X98426070Y-33833870D01*
X100527050Y-33833870D01*
X100527050Y-35934850D01*
G37*
G36*
X181441290Y-33537090D02*
G01*
X179340310Y-33537090D01*
X179340310Y-31436110D01*
X181441290Y-31436110D01*
X181441290Y-33537090D01*
G37*
G36*
X178901290Y-33537090D02*
G01*
X176800310Y-33537090D01*
X176800310Y-31436110D01*
X178901290Y-31436110D01*
X178901290Y-33537090D01*
G37*
G36*
X176381610Y-33516770D02*
G01*
X174280630Y-33516770D01*
X174280630Y-31415790D01*
X176381610Y-31415790D01*
X176381610Y-33516770D01*
G37*
G36*
X168797170Y-33516770D02*
G01*
X166696190Y-33516770D01*
X166696190Y-31415790D01*
X168797170Y-31415790D01*
X168797170Y-33516770D01*
G37*
G36*
X171337170Y-33516770D02*
G01*
X169236190Y-33516770D01*
X169236190Y-31415790D01*
X171337170Y-31415790D01*
X171337170Y-33516770D01*
G37*
G36*
X173841610Y-33516770D02*
G01*
X171740630Y-33516770D01*
X171740630Y-31415790D01*
X173841610Y-31415790D01*
X173841610Y-33516770D01*
G37*
G36*
X166297810Y-33506610D02*
G01*
X164196830Y-33506610D01*
X164196830Y-31405630D01*
X166297810Y-31405630D01*
X166297810Y-33506610D01*
G37*
G36*
X163757810Y-33506610D02*
G01*
X161656830Y-33506610D01*
X161656830Y-31405630D01*
X163757810Y-31405630D01*
X163757810Y-33506610D01*
G37*
G36*
X161238130Y-33486290D02*
G01*
X159137150Y-33486290D01*
X159137150Y-31385310D01*
X161238130Y-31385310D01*
X161238130Y-33486290D01*
G37*
G36*
X153653690Y-33486290D02*
G01*
X151552710Y-33486290D01*
X151552710Y-31385310D01*
X153653690Y-31385310D01*
X153653690Y-33486290D01*
G37*
G36*
X156193690Y-33486290D02*
G01*
X154092710Y-33486290D01*
X154092710Y-31385310D01*
X156193690Y-31385310D01*
X156193690Y-33486290D01*
G37*
G36*
X158698130Y-33486290D02*
G01*
X156597150Y-33486290D01*
X156597150Y-31385310D01*
X158698130Y-31385310D01*
X158698130Y-33486290D01*
G37*
G36*
X148588930Y-33481210D02*
G01*
X146487950Y-33481210D01*
X146487950Y-31380230D01*
X148588930Y-31380230D01*
X148588930Y-33481210D01*
G37*
G36*
X151128930Y-33481210D02*
G01*
X149027950Y-33481210D01*
X149027950Y-31380230D01*
X151128930Y-31380230D01*
X151128930Y-33481210D01*
G37*
G36*
X143529250Y-33460890D02*
G01*
X141428270Y-33460890D01*
X141428270Y-31359910D01*
X143529250Y-31359910D01*
X143529250Y-33460890D01*
G37*
G36*
X118246090Y-33460890D02*
G01*
X116145110Y-33460890D01*
X116145110Y-31359910D01*
X118246090Y-31359910D01*
X118246090Y-33460890D01*
G37*
G36*
X135970210Y-33460890D02*
G01*
X133869230Y-33460890D01*
X133869230Y-31359910D01*
X135970210Y-31359910D01*
X135970210Y-33460890D01*
G37*
G36*
X133430210Y-33460890D02*
G01*
X131329230Y-33460890D01*
X131329230Y-31359910D01*
X133430210Y-31359910D01*
X133430210Y-33460890D01*
G37*
G36*
X120786090Y-33460890D02*
G01*
X118685110Y-33460890D01*
X118685110Y-31359910D01*
X120786090Y-31359910D01*
X120786090Y-33460890D01*
G37*
G36*
X146069250Y-33460890D02*
G01*
X143968270Y-33460890D01*
X143968270Y-31359910D01*
X146069250Y-31359910D01*
X146069250Y-33460890D01*
G37*
G36*
X141024810Y-33460890D02*
G01*
X138923830Y-33460890D01*
X138923830Y-31359910D01*
X141024810Y-31359910D01*
X141024810Y-33460890D01*
G37*
G36*
X138484810Y-33460890D02*
G01*
X136383830Y-33460890D01*
X136383830Y-31359910D01*
X138484810Y-31359910D01*
X138484810Y-33460890D01*
G37*
G36*
X130910530Y-33440570D02*
G01*
X128809550Y-33440570D01*
X128809550Y-31339590D01*
X130910530Y-31339590D01*
X130910530Y-33440570D01*
G37*
G36*
X113186410Y-33440570D02*
G01*
X111085430Y-33440570D01*
X111085430Y-31339590D01*
X113186410Y-31339590D01*
X113186410Y-33440570D01*
G37*
G36*
X115726410Y-33440570D02*
G01*
X113625430Y-33440570D01*
X113625430Y-31339590D01*
X115726410Y-31339590D01*
X115726410Y-33440570D01*
G37*
G36*
X123326090Y-33440570D02*
G01*
X121225110Y-33440570D01*
X121225110Y-31339590D01*
X123326090Y-31339590D01*
X123326090Y-33440570D01*
G37*
G36*
X108141970Y-33440570D02*
G01*
X106040990Y-33440570D01*
X106040990Y-31339590D01*
X108141970Y-31339590D01*
X108141970Y-33440570D01*
G37*
G36*
X110681970Y-33440570D02*
G01*
X108580990Y-33440570D01*
X108580990Y-31339590D01*
X110681970Y-31339590D01*
X110681970Y-33440570D01*
G37*
G36*
X128370530Y-33440570D02*
G01*
X126269550Y-33440570D01*
X126269550Y-31339590D01*
X128370530Y-31339590D01*
X128370530Y-33440570D01*
G37*
G36*
X125866090Y-33440570D02*
G01*
X123765110Y-33440570D01*
X123765110Y-31339590D01*
X125866090Y-31339590D01*
X125866090Y-33440570D01*
G37*
G36*
X103046730Y-33415170D02*
G01*
X100945750Y-33415170D01*
X100945750Y-31314190D01*
X103046730Y-31314190D01*
X103046730Y-33415170D01*
G37*
G36*
X105586730Y-33415170D02*
G01*
X103485750Y-33415170D01*
X103485750Y-31314190D01*
X105586730Y-31314190D01*
X105586730Y-33415170D01*
G37*
G36*
X90402610Y-33405010D02*
G01*
X88301630Y-33405010D01*
X88301630Y-31304030D01*
X90402610Y-31304030D01*
X90402610Y-33405010D01*
G37*
G36*
X87862610Y-33405010D02*
G01*
X85761630Y-33405010D01*
X85761630Y-31304030D01*
X87862610Y-31304030D01*
X87862610Y-33405010D01*
G37*
G36*
X100527050Y-33394850D02*
G01*
X98426070Y-33394850D01*
X98426070Y-31293870D01*
X100527050Y-31293870D01*
X100527050Y-33394850D01*
G37*
G36*
X97987050Y-33394850D02*
G01*
X95886070Y-33394850D01*
X95886070Y-31293870D01*
X97987050Y-31293870D01*
X97987050Y-33394850D01*
G37*
G36*
X95482610Y-33394850D02*
G01*
X93381630Y-33394850D01*
X93381630Y-31293870D01*
X95482610Y-31293870D01*
X95482610Y-33394850D01*
G37*
G36*
X92942610Y-33394850D02*
G01*
X90841630Y-33394850D01*
X90841630Y-31293870D01*
X92942610Y-31293870D01*
X92942610Y-33394850D01*
G37*
M02*
