G04 #@! TF.GenerationSoftware,KiCad,Pcbnew,(6.0.7)*
G04 #@! TF.CreationDate,2023-01-05T13:14:55+00:00*
G04 #@! TF.ProjectId,msx_eeprom,6d73785f-6565-4707-926f-6d2e6b696361,rev?*
G04 #@! TF.SameCoordinates,Original*
G04 #@! TF.FileFunction,Soldermask,Bot*
G04 #@! TF.FilePolarity,Negative*
%FSLAX46Y46*%
G04 Gerber Fmt 4.6, Leading zero omitted, Abs format (unit mm)*
G04 Created by KiCad (PCBNEW (6.0.7)) date 2023-01-05 13:14:55*
%MOMM*%
%LPD*%
G01*
G04 APERTURE LIST*
G04 Aperture macros list*
%AMRoundRect*
0 Rectangle with rounded corners*
0 $1 Rounding radius*
0 $2 $3 $4 $5 $6 $7 $8 $9 X,Y pos of 4 corners*
0 Add a 4 corners polygon primitive as box body*
4,1,4,$2,$3,$4,$5,$6,$7,$8,$9,$2,$3,0*
0 Add four circle primitives for the rounded corners*
1,1,$1+$1,$2,$3*
1,1,$1+$1,$4,$5*
1,1,$1+$1,$6,$7*
1,1,$1+$1,$8,$9*
0 Add four rect primitives between the rounded corners*
20,1,$1+$1,$2,$3,$4,$5,0*
20,1,$1+$1,$4,$5,$6,$7,0*
20,1,$1+$1,$6,$7,$8,$9,0*
20,1,$1+$1,$8,$9,$2,$3,0*%
G04 Aperture macros list end*
%ADD10RoundRect,0.051000X-0.999490X-0.999490X0.999490X-0.999490X0.999490X0.999490X-0.999490X0.999490X0*%
%ADD11RoundRect,0.051000X-0.838200X0.838200X-0.838200X-0.838200X0.838200X-0.838200X0.838200X0.838200X0*%
%ADD12C,1.778400*%
%ADD13C,1.702000*%
%ADD14O,1.702000X1.702000*%
%ADD15RoundRect,0.051000X0.800000X0.800000X-0.800000X0.800000X-0.800000X-0.800000X0.800000X-0.800000X0*%
%ADD16C,4.102000*%
%ADD17RoundRect,0.051000X-0.900000X-4.000000X0.900000X-4.000000X0.900000X4.000000X-0.900000X4.000000X0*%
%ADD18RoundRect,0.051000X0.850000X-0.850000X0.850000X0.850000X-0.850000X0.850000X-0.850000X-0.850000X0*%
%ADD19O,1.802000X1.802000*%
G04 APERTURE END LIST*
D10*
X130347720Y-61330840D03*
X132887720Y-61330840D03*
X130347720Y-63870840D03*
X132887720Y-63870840D03*
X115183920Y-56266080D03*
X117723920Y-56266080D03*
X115183920Y-58806080D03*
X117723920Y-58806080D03*
X89860120Y-56230520D03*
X92400120Y-56230520D03*
X89860120Y-58770520D03*
X92400120Y-58770520D03*
X125303280Y-61330840D03*
X127843280Y-61330840D03*
X125303280Y-63870840D03*
X127843280Y-63870840D03*
X115163600Y-61330840D03*
X117703600Y-61330840D03*
X115163600Y-63870840D03*
X117703600Y-63870840D03*
X120223280Y-61351160D03*
X122763280Y-61351160D03*
X120223280Y-63891160D03*
X122763280Y-63891160D03*
X110119160Y-61330840D03*
X112659160Y-61330840D03*
X110119160Y-63870840D03*
X112659160Y-63870840D03*
X105023920Y-61305440D03*
X107563920Y-61305440D03*
X105023920Y-63845440D03*
X107563920Y-63845440D03*
X94919800Y-61285120D03*
X97459800Y-61285120D03*
X94919800Y-63825120D03*
X97459800Y-63825120D03*
X99984560Y-56220360D03*
X102524560Y-56220360D03*
X99984560Y-58760360D03*
X102524560Y-58760360D03*
X135407400Y-61351160D03*
X137947400Y-61351160D03*
X135407400Y-63891160D03*
X137947400Y-63891160D03*
X140482320Y-56286400D03*
X143022320Y-56286400D03*
X140482320Y-58826400D03*
X143022320Y-58826400D03*
X105003600Y-76428600D03*
X107543600Y-76428600D03*
X105003600Y-78968600D03*
X107543600Y-78968600D03*
X94899480Y-76408280D03*
X97439480Y-76408280D03*
X94899480Y-78948280D03*
X97439480Y-78948280D03*
X99991080Y-96779260D03*
X102531080Y-96779260D03*
X99991080Y-99319260D03*
X102531080Y-99319260D03*
X105045680Y-91709420D03*
X107585680Y-91709420D03*
X105045680Y-94249420D03*
X107585680Y-94249420D03*
D11*
X157949900Y-79425800D03*
D12*
X155409900Y-79425800D03*
X152869900Y-79425800D03*
X150329900Y-79425800D03*
X147789900Y-79425800D03*
X145249900Y-79425800D03*
X142709900Y-79425800D03*
X140169900Y-79425800D03*
X137629900Y-79425800D03*
X135089900Y-79425800D03*
X132549900Y-79425800D03*
X130009900Y-79425800D03*
X127469900Y-79425800D03*
X124929900Y-79425800D03*
X124929900Y-94665800D03*
X127469900Y-94665800D03*
X130009900Y-94665800D03*
X132549900Y-94665800D03*
X135089900Y-94665800D03*
X137629900Y-94665800D03*
X140169900Y-94665800D03*
X142709900Y-94665800D03*
X145249900Y-94665800D03*
X147789900Y-94665800D03*
X150329900Y-94665800D03*
X152869900Y-94665800D03*
X155409900Y-94665800D03*
X157949900Y-94665800D03*
D10*
X99965680Y-91719580D03*
X102505680Y-91719580D03*
X99965680Y-94259580D03*
X102505680Y-94259580D03*
X105071080Y-96769100D03*
X107611080Y-96769100D03*
X105071080Y-99309100D03*
X107611080Y-99309100D03*
D13*
X135128000Y-98044000D03*
D14*
X142748000Y-98044000D03*
D10*
X125328680Y-66390520D03*
X127868680Y-66390520D03*
X125328680Y-68930520D03*
X127868680Y-68930520D03*
X140462000Y-61351160D03*
X143002000Y-61351160D03*
X140462000Y-63891160D03*
X143002000Y-63891160D03*
X99964240Y-61285120D03*
X102504240Y-61285120D03*
X99964240Y-63825120D03*
X102504240Y-63825120D03*
X110144560Y-66390520D03*
X112684560Y-66390520D03*
X110144560Y-68930520D03*
X112684560Y-68930520D03*
X115189000Y-66390520D03*
X117729000Y-66390520D03*
X115189000Y-68930520D03*
X117729000Y-68930520D03*
X89839800Y-61295280D03*
X92379800Y-61295280D03*
X89839800Y-63835280D03*
X92379800Y-63835280D03*
X105049320Y-66365120D03*
X107589320Y-66365120D03*
X105049320Y-68905120D03*
X107589320Y-68905120D03*
X94945200Y-66344800D03*
X97485200Y-66344800D03*
X94945200Y-68884800D03*
X97485200Y-68884800D03*
X130373120Y-66390520D03*
X132913120Y-66390520D03*
X130373120Y-68930520D03*
X132913120Y-68930520D03*
X135432800Y-66410840D03*
X137972800Y-66410840D03*
X135432800Y-68950840D03*
X137972800Y-68950840D03*
X140467080Y-71475600D03*
X143007080Y-71475600D03*
X140467080Y-74015600D03*
X143007080Y-74015600D03*
X125308360Y-71455280D03*
X127848360Y-71455280D03*
X125308360Y-73995280D03*
X127848360Y-73995280D03*
X130352800Y-71455280D03*
X132892800Y-71455280D03*
X130352800Y-73995280D03*
X132892800Y-73995280D03*
X135412480Y-71475600D03*
X137952480Y-71475600D03*
X135412480Y-74015600D03*
X137952480Y-74015600D03*
D13*
X161290000Y-101092000D03*
D14*
X153670000Y-101092000D03*
D15*
X120142000Y-91440000D03*
D13*
X117642000Y-91440000D03*
X161290000Y-97790000D03*
D14*
X153670000Y-97790000D03*
D13*
X161353500Y-94640400D03*
X161353500Y-92140400D03*
D16*
X113132260Y-96451520D03*
X169331640Y-101046000D03*
D17*
X171947840Y-113383440D03*
X169407840Y-113383440D03*
X166867840Y-113383440D03*
X164327840Y-113383440D03*
X161787840Y-113383440D03*
X159247840Y-113383440D03*
X156707840Y-113383440D03*
X154167840Y-113383440D03*
X151627840Y-113383440D03*
X149087840Y-113383440D03*
X146547840Y-113383440D03*
X144007840Y-113383440D03*
X141467840Y-113383440D03*
X138927840Y-113383440D03*
X136387840Y-113383440D03*
X133847840Y-113383440D03*
X131307840Y-113383440D03*
X128767840Y-113383440D03*
X126227840Y-113383440D03*
X123687840Y-113383440D03*
X121147840Y-113383440D03*
X118607840Y-113383440D03*
X116067840Y-113383440D03*
X113527840Y-113383440D03*
X110987840Y-113383440D03*
D10*
X94940120Y-56220360D03*
X97480120Y-56220360D03*
X94940120Y-58760360D03*
X97480120Y-58760360D03*
X110139480Y-56266080D03*
X112679480Y-56266080D03*
X110139480Y-58806080D03*
X112679480Y-58806080D03*
X99923600Y-81473040D03*
X102463600Y-81473040D03*
X99923600Y-84013040D03*
X102463600Y-84013040D03*
X89824560Y-86542880D03*
X92364560Y-86542880D03*
X89824560Y-89082880D03*
X92364560Y-89082880D03*
X94904560Y-86532720D03*
X97444560Y-86532720D03*
X94904560Y-89072720D03*
X97444560Y-89072720D03*
X89799160Y-81483200D03*
X92339160Y-81483200D03*
X89799160Y-84023200D03*
X92339160Y-84023200D03*
X105008680Y-86553040D03*
X107548680Y-86553040D03*
X105008680Y-89093040D03*
X107548680Y-89093040D03*
X89819480Y-76418440D03*
X92359480Y-76418440D03*
X89819480Y-78958440D03*
X92359480Y-78958440D03*
X135427720Y-56286400D03*
X137967720Y-56286400D03*
X135427720Y-58826400D03*
X137967720Y-58826400D03*
X120243600Y-56286400D03*
X122783600Y-56286400D03*
X120243600Y-58826400D03*
X122783600Y-58826400D03*
X99943920Y-76408280D03*
X102483920Y-76408280D03*
X99943920Y-78948280D03*
X102483920Y-78948280D03*
X125323600Y-56266080D03*
X127863600Y-56266080D03*
X125323600Y-58806080D03*
X127863600Y-58806080D03*
X130368040Y-56266080D03*
X132908040Y-56266080D03*
X130368040Y-58806080D03*
X132908040Y-58806080D03*
X99949000Y-86532720D03*
X102489000Y-86532720D03*
X99949000Y-89072720D03*
X102489000Y-89072720D03*
X105044240Y-56240680D03*
X107584240Y-56240680D03*
X105044240Y-58780680D03*
X107584240Y-58780680D03*
X140487400Y-66410840D03*
X143027400Y-66410840D03*
X140487400Y-68950840D03*
X143027400Y-68950840D03*
X94924880Y-71409560D03*
X97464880Y-71409560D03*
X94924880Y-73949560D03*
X97464880Y-73949560D03*
X99969320Y-71409560D03*
X102509320Y-71409560D03*
X99969320Y-73949560D03*
X102509320Y-73949560D03*
X120248680Y-66410840D03*
X122788680Y-66410840D03*
X120248680Y-68950840D03*
X122788680Y-68950840D03*
X99989640Y-66344800D03*
X102529640Y-66344800D03*
X99989640Y-68884800D03*
X102529640Y-68884800D03*
X110124240Y-71455280D03*
X112664240Y-71455280D03*
X110124240Y-73995280D03*
X112664240Y-73995280D03*
X115168680Y-71455280D03*
X117708680Y-71455280D03*
X115168680Y-73995280D03*
X117708680Y-73995280D03*
X120228360Y-71475600D03*
X122768360Y-71475600D03*
X120228360Y-74015600D03*
X122768360Y-74015600D03*
X89844880Y-71419720D03*
X92384880Y-71419720D03*
X89844880Y-73959720D03*
X92384880Y-73959720D03*
X105029000Y-71429880D03*
X107569000Y-71429880D03*
X105029000Y-73969880D03*
X107569000Y-73969880D03*
X89865200Y-66354960D03*
X92405200Y-66354960D03*
X89865200Y-68894960D03*
X92405200Y-68894960D03*
X94879160Y-81473040D03*
X97419160Y-81473040D03*
X94879160Y-84013040D03*
X97419160Y-84013040D03*
X104983280Y-81493360D03*
X107523280Y-81493360D03*
X104983280Y-84033360D03*
X107523280Y-84033360D03*
X150571200Y-71495920D03*
X153111200Y-71495920D03*
X150571200Y-74035920D03*
X153111200Y-74035920D03*
X150591520Y-66431160D03*
X153131520Y-66431160D03*
X150591520Y-68971160D03*
X153131520Y-68971160D03*
X155635960Y-71501000D03*
X158175960Y-71501000D03*
X155635960Y-74041000D03*
X158175960Y-74041000D03*
X160680400Y-71501000D03*
X163220400Y-71501000D03*
X160680400Y-74041000D03*
X163220400Y-74041000D03*
X150586440Y-56306720D03*
X153126440Y-56306720D03*
X150586440Y-58846720D03*
X153126440Y-58846720D03*
X145526760Y-56286400D03*
X148066760Y-56286400D03*
X145526760Y-58826400D03*
X148066760Y-58826400D03*
X145511520Y-71475600D03*
X148051520Y-71475600D03*
X145511520Y-74015600D03*
X148051520Y-74015600D03*
X155656280Y-66436240D03*
X158196280Y-66436240D03*
X155656280Y-68976240D03*
X158196280Y-68976240D03*
X145531840Y-66410840D03*
X148071840Y-66410840D03*
X145531840Y-68950840D03*
X148071840Y-68950840D03*
X160700720Y-66436240D03*
X163240720Y-66436240D03*
X160700720Y-68976240D03*
X163240720Y-68976240D03*
X155630880Y-61376560D03*
X158170880Y-61376560D03*
X155630880Y-63916560D03*
X158170880Y-63916560D03*
X150566120Y-61371480D03*
X153106120Y-61371480D03*
X150566120Y-63911480D03*
X153106120Y-63911480D03*
X160675320Y-61376560D03*
X163215320Y-61376560D03*
X160675320Y-63916560D03*
X163215320Y-63916560D03*
X155651200Y-56311800D03*
X158191200Y-56311800D03*
X155651200Y-58851800D03*
X158191200Y-58851800D03*
X145506440Y-61351160D03*
X148046440Y-61351160D03*
X145506440Y-63891160D03*
X148046440Y-63891160D03*
D18*
X168656000Y-67818000D03*
D19*
X168656000Y-65278000D03*
X171196000Y-67818000D03*
X171196000Y-65278000D03*
X173736000Y-67818000D03*
X173736000Y-65278000D03*
X176276000Y-67818000D03*
X176276000Y-65278000D03*
X178816000Y-67818000D03*
X178816000Y-65278000D03*
X181356000Y-67818000D03*
X181356000Y-65278000D03*
X183896000Y-67818000D03*
X183896000Y-65278000D03*
D10*
X160695640Y-56311800D03*
X163235640Y-56311800D03*
X160695640Y-58851800D03*
X163235640Y-58851800D03*
X177292000Y-86868000D03*
X179832000Y-86868000D03*
X177292000Y-89408000D03*
X179832000Y-89408000D03*
X109982000Y-86614000D03*
X112522000Y-86614000D03*
X109982000Y-89154000D03*
X112522000Y-89154000D03*
X177292000Y-76454000D03*
X179832000Y-76454000D03*
X177292000Y-78994000D03*
X179832000Y-78994000D03*
X182372000Y-91948000D03*
X184912000Y-91948000D03*
X182372000Y-94488000D03*
X184912000Y-94488000D03*
X172212000Y-91948000D03*
X174752000Y-91948000D03*
X172212000Y-94488000D03*
X174752000Y-94488000D03*
X115316000Y-81534000D03*
X117856000Y-81534000D03*
X115316000Y-84074000D03*
X117856000Y-84074000D03*
X182285640Y-81711800D03*
X184825640Y-81711800D03*
X182285640Y-84251800D03*
X184825640Y-84251800D03*
X172212000Y-76454000D03*
X174752000Y-76454000D03*
X172212000Y-78994000D03*
X174752000Y-78994000D03*
X109982000Y-81534000D03*
X112522000Y-81534000D03*
X109982000Y-84074000D03*
X112522000Y-84074000D03*
X109982000Y-76454000D03*
X112522000Y-76454000D03*
X109982000Y-78994000D03*
X112522000Y-78994000D03*
X115316000Y-76454000D03*
X117856000Y-76454000D03*
X115316000Y-78994000D03*
X117856000Y-78994000D03*
X177292000Y-91948000D03*
X179832000Y-91948000D03*
X177292000Y-94488000D03*
X179832000Y-94488000D03*
X177292000Y-81788000D03*
X179832000Y-81788000D03*
X177292000Y-84328000D03*
X179832000Y-84328000D03*
X172212000Y-81788000D03*
X174752000Y-81788000D03*
X172212000Y-84328000D03*
X174752000Y-84328000D03*
X182372000Y-76454000D03*
X184912000Y-76454000D03*
X182372000Y-78994000D03*
X184912000Y-78994000D03*
X172212000Y-87122000D03*
X174752000Y-87122000D03*
X172212000Y-89662000D03*
X174752000Y-89662000D03*
X182285640Y-86868000D03*
X184825640Y-86868000D03*
X182285640Y-89408000D03*
X184825640Y-89408000D03*
G36*
X173234498Y-90707478D02*
G01*
X173234037Y-90708892D01*
X173194714Y-90755946D01*
X173186083Y-90824661D01*
X173216048Y-90887292D01*
X173230058Y-90899432D01*
X173230712Y-90901322D01*
X173229402Y-90902833D01*
X173228358Y-90902905D01*
X173211291Y-90899510D01*
X171212709Y-90899510D01*
X171193772Y-90903277D01*
X171192609Y-90904054D01*
X171190613Y-90904185D01*
X171189502Y-90902522D01*
X171189963Y-90901108D01*
X171229286Y-90854054D01*
X171237917Y-90785339D01*
X171207952Y-90722708D01*
X171193942Y-90710568D01*
X171193288Y-90708678D01*
X171194598Y-90707167D01*
X171195642Y-90707095D01*
X171212709Y-90710490D01*
X173211291Y-90710490D01*
X173230228Y-90706723D01*
X173231391Y-90705946D01*
X173233387Y-90705815D01*
X173234498Y-90707478D01*
G37*
G36*
X175774498Y-90707478D02*
G01*
X175774037Y-90708892D01*
X175734714Y-90755946D01*
X175726083Y-90824661D01*
X175756048Y-90887292D01*
X175770058Y-90899432D01*
X175770712Y-90901322D01*
X175769402Y-90902833D01*
X175768358Y-90902905D01*
X175751291Y-90899510D01*
X173752709Y-90899510D01*
X173733772Y-90903277D01*
X173732609Y-90904054D01*
X173730613Y-90904185D01*
X173729502Y-90902522D01*
X173729963Y-90901108D01*
X173769286Y-90854054D01*
X173777917Y-90785339D01*
X173747952Y-90722708D01*
X173733942Y-90710568D01*
X173733288Y-90708678D01*
X173734598Y-90707167D01*
X173735642Y-90707095D01*
X173752709Y-90710490D01*
X175751291Y-90710490D01*
X175770228Y-90706723D01*
X175771391Y-90705946D01*
X175773387Y-90705815D01*
X175774498Y-90707478D01*
G37*
M02*
