G04 #@! TF.GenerationSoftware,KiCad,Pcbnew,(6.0.7)*
G04 #@! TF.CreationDate,2023-01-05T13:14:55+00:00*
G04 #@! TF.ProjectId,msx_eeprom,6d73785f-6565-4707-926f-6d2e6b696361,rev?*
G04 #@! TF.SameCoordinates,Original*
G04 #@! TF.FileFunction,Copper,L1,Top*
G04 #@! TF.FilePolarity,Positive*
%FSLAX46Y46*%
G04 Gerber Fmt 4.6, Leading zero omitted, Abs format (unit mm)*
G04 Created by KiCad (PCBNEW (6.0.7)) date 2023-01-05 13:14:55*
%MOMM*%
%LPD*%
G01*
G04 APERTURE LIST*
%ADD10C,0.300000*%
G04 #@! TA.AperFunction,NonConductor*
%ADD11C,0.300000*%
G04 #@! TD*
G04 #@! TA.AperFunction,ComponentPad*
%ADD12R,1.998980X1.998980*%
G04 #@! TD*
G04 #@! TA.AperFunction,ComponentPad*
%ADD13R,1.676400X1.676400*%
G04 #@! TD*
G04 #@! TA.AperFunction,ComponentPad*
%ADD14C,1.676400*%
G04 #@! TD*
G04 #@! TA.AperFunction,ComponentPad*
%ADD15C,1.600000*%
G04 #@! TD*
G04 #@! TA.AperFunction,ComponentPad*
%ADD16O,1.600000X1.600000*%
G04 #@! TD*
G04 #@! TA.AperFunction,ComponentPad*
%ADD17R,1.600000X1.600000*%
G04 #@! TD*
G04 #@! TA.AperFunction,ConnectorPad*
%ADD18R,1.800000X8.000000*%
G04 #@! TD*
G04 #@! TA.AperFunction,ConnectorPad*
%ADD19R,1.800000X7.000000*%
G04 #@! TD*
G04 #@! TA.AperFunction,ComponentPad*
%ADD20R,1.700000X1.700000*%
G04 #@! TD*
G04 #@! TA.AperFunction,ComponentPad*
%ADD21O,1.700000X1.700000*%
G04 #@! TD*
G04 #@! TA.AperFunction,ViaPad*
%ADD22C,0.800000*%
G04 #@! TD*
G04 #@! TA.AperFunction,Conductor*
%ADD23C,0.500000*%
G04 #@! TD*
G04 #@! TA.AperFunction,Conductor*
%ADD24C,0.400000*%
G04 #@! TD*
G04 #@! TA.AperFunction,Conductor*
%ADD25C,0.250000*%
G04 #@! TD*
G04 APERTURE END LIST*
D10*
D11*
X270105142Y-192218571D02*
X269390857Y-192218571D01*
X269319428Y-192932857D01*
X269390857Y-192861428D01*
X269533714Y-192790000D01*
X269890857Y-192790000D01*
X270033714Y-192861428D01*
X270105142Y-192932857D01*
X270176571Y-193075714D01*
X270176571Y-193432857D01*
X270105142Y-193575714D01*
X270033714Y-193647142D01*
X269890857Y-193718571D01*
X269533714Y-193718571D01*
X269390857Y-193647142D01*
X269319428Y-193575714D01*
D10*
D11*
X179466942Y-170246431D02*
X178966942Y-169532145D01*
X178609800Y-170246431D02*
X178609800Y-168746431D01*
X179181228Y-168746431D01*
X179324085Y-168817860D01*
X179395514Y-168889288D01*
X179466942Y-169032145D01*
X179466942Y-169246431D01*
X179395514Y-169389288D01*
X179324085Y-169460717D01*
X179181228Y-169532145D01*
X178609800Y-169532145D01*
X180324085Y-170246431D02*
X180181228Y-170175002D01*
X180109800Y-170103574D01*
X180038371Y-169960717D01*
X180038371Y-169532145D01*
X180109800Y-169389288D01*
X180181228Y-169317860D01*
X180324085Y-169246431D01*
X180538371Y-169246431D01*
X180681228Y-169317860D01*
X180752657Y-169389288D01*
X180824085Y-169532145D01*
X180824085Y-169960717D01*
X180752657Y-170103574D01*
X180681228Y-170175002D01*
X180538371Y-170246431D01*
X180324085Y-170246431D01*
X181466942Y-169246431D02*
X181466942Y-170246431D01*
X181466942Y-169389288D02*
X181538371Y-169317860D01*
X181681228Y-169246431D01*
X181895514Y-169246431D01*
X182038371Y-169317860D01*
X182109800Y-169460717D01*
X182109800Y-170246431D01*
X182824085Y-170246431D02*
X182824085Y-169246431D01*
X182824085Y-168746431D02*
X182752657Y-168817860D01*
X182824085Y-168889288D01*
X182895514Y-168817860D01*
X182824085Y-168746431D01*
X182824085Y-168889288D01*
X183395514Y-169246431D02*
X183752657Y-170246431D01*
X184109800Y-169246431D01*
X184895514Y-170246431D02*
X184752657Y-170175002D01*
X184681228Y-170103574D01*
X184609800Y-169960717D01*
X184609800Y-169532145D01*
X184681228Y-169389288D01*
X184752657Y-169317860D01*
X184895514Y-169246431D01*
X185109800Y-169246431D01*
X185252657Y-169317860D01*
X185324085Y-169389288D01*
X185395514Y-169532145D01*
X185395514Y-169960717D01*
X185324085Y-170103574D01*
X185252657Y-170175002D01*
X185109800Y-170246431D01*
X184895514Y-170246431D01*
X186038371Y-169246431D02*
X186038371Y-170246431D01*
X186038371Y-169389288D02*
X186109800Y-169317860D01*
X186252657Y-169246431D01*
X186466942Y-169246431D01*
X186609800Y-169317860D01*
X186681228Y-169460717D01*
X186681228Y-170246431D01*
X189395514Y-170103574D02*
X189324085Y-170175002D01*
X189109800Y-170246431D01*
X188966942Y-170246431D01*
X188752657Y-170175002D01*
X188609800Y-170032145D01*
X188538371Y-169889288D01*
X188466942Y-169603574D01*
X188466942Y-169389288D01*
X188538371Y-169103574D01*
X188609800Y-168960717D01*
X188752657Y-168817860D01*
X188966942Y-168746431D01*
X189109800Y-168746431D01*
X189324085Y-168817860D01*
X189395514Y-168889288D01*
X190252657Y-170246431D02*
X190109800Y-170175002D01*
X190038371Y-170103574D01*
X189966942Y-169960717D01*
X189966942Y-169532145D01*
X190038371Y-169389288D01*
X190109800Y-169317860D01*
X190252657Y-169246431D01*
X190466942Y-169246431D01*
X190609800Y-169317860D01*
X190681228Y-169389288D01*
X190752657Y-169532145D01*
X190752657Y-169960717D01*
X190681228Y-170103574D01*
X190609800Y-170175002D01*
X190466942Y-170246431D01*
X190252657Y-170246431D01*
X191324085Y-170175002D02*
X191466942Y-170246431D01*
X191752657Y-170246431D01*
X191895514Y-170175002D01*
X191966942Y-170032145D01*
X191966942Y-169960717D01*
X191895514Y-169817860D01*
X191752657Y-169746431D01*
X191538371Y-169746431D01*
X191395514Y-169675002D01*
X191324085Y-169532145D01*
X191324085Y-169460717D01*
X191395514Y-169317860D01*
X191538371Y-169246431D01*
X191752657Y-169246431D01*
X191895514Y-169317860D01*
X192395514Y-169246431D02*
X192966942Y-169246431D01*
X192609800Y-168746431D02*
X192609800Y-170032145D01*
X192681228Y-170175002D01*
X192824085Y-170246431D01*
X192966942Y-170246431D01*
X194109800Y-170246431D02*
X194109800Y-169460717D01*
X194038371Y-169317860D01*
X193895514Y-169246431D01*
X193609800Y-169246431D01*
X193466942Y-169317860D01*
X194109800Y-170175002D02*
X193966942Y-170246431D01*
X193609800Y-170246431D01*
X193466942Y-170175002D01*
X193395514Y-170032145D01*
X193395514Y-169889288D01*
X193466942Y-169746431D01*
X193609800Y-169675002D01*
X193966942Y-169675002D01*
X194109800Y-169603574D01*
D10*
D11*
X187617188Y-190342911D02*
X187617188Y-188842911D01*
X188117188Y-189914340D01*
X188617188Y-188842911D01*
X188617188Y-190342911D01*
X189260045Y-190271482D02*
X189474331Y-190342911D01*
X189831474Y-190342911D01*
X189974331Y-190271482D01*
X190045760Y-190200054D01*
X190117188Y-190057197D01*
X190117188Y-189914340D01*
X190045760Y-189771482D01*
X189974331Y-189700054D01*
X189831474Y-189628625D01*
X189545760Y-189557197D01*
X189402902Y-189485768D01*
X189331474Y-189414340D01*
X189260045Y-189271482D01*
X189260045Y-189128625D01*
X189331474Y-188985768D01*
X189402902Y-188914340D01*
X189545760Y-188842911D01*
X189902902Y-188842911D01*
X190117188Y-188914340D01*
X190617188Y-188842911D02*
X191617188Y-190342911D01*
X191617188Y-188842911D02*
X190617188Y-190342911D01*
X193331474Y-189557197D02*
X193831474Y-189557197D01*
X194045760Y-190342911D02*
X193331474Y-190342911D01*
X193331474Y-188842911D01*
X194045760Y-188842911D01*
X194688617Y-189557197D02*
X195188617Y-189557197D01*
X195402902Y-190342911D02*
X194688617Y-190342911D01*
X194688617Y-188842911D01*
X195402902Y-188842911D01*
X196045760Y-190342911D02*
X196045760Y-188842911D01*
X196617188Y-188842911D01*
X196760045Y-188914340D01*
X196831474Y-188985768D01*
X196902902Y-189128625D01*
X196902902Y-189342911D01*
X196831474Y-189485768D01*
X196760045Y-189557197D01*
X196617188Y-189628625D01*
X196045760Y-189628625D01*
X198402902Y-190342911D02*
X197902902Y-189628625D01*
X197545760Y-190342911D02*
X197545760Y-188842911D01*
X198117188Y-188842911D01*
X198260045Y-188914340D01*
X198331474Y-188985768D01*
X198402902Y-189128625D01*
X198402902Y-189342911D01*
X198331474Y-189485768D01*
X198260045Y-189557197D01*
X198117188Y-189628625D01*
X197545760Y-189628625D01*
X199331474Y-188842911D02*
X199617188Y-188842911D01*
X199760045Y-188914340D01*
X199902902Y-189057197D01*
X199974331Y-189342911D01*
X199974331Y-189842911D01*
X199902902Y-190128625D01*
X199760045Y-190271482D01*
X199617188Y-190342911D01*
X199331474Y-190342911D01*
X199188617Y-190271482D01*
X199045760Y-190128625D01*
X198974331Y-189842911D01*
X198974331Y-189342911D01*
X199045760Y-189057197D01*
X199188617Y-188914340D01*
X199331474Y-188842911D01*
X200617188Y-190342911D02*
X200617188Y-188842911D01*
X201117188Y-189914340D01*
X201617188Y-188842911D01*
X201617188Y-190342911D01*
X203474331Y-190342911D02*
X203474331Y-188842911D01*
X204045760Y-188842911D01*
X204188617Y-188914340D01*
X204260045Y-188985768D01*
X204331474Y-189128625D01*
X204331474Y-189342911D01*
X204260045Y-189485768D01*
X204188617Y-189557197D01*
X204045760Y-189628625D01*
X203474331Y-189628625D01*
X204974331Y-190342911D02*
X204974331Y-189342911D01*
X204974331Y-189628625D02*
X205045760Y-189485768D01*
X205117188Y-189414340D01*
X205260045Y-189342911D01*
X205402902Y-189342911D01*
X206117188Y-190342911D02*
X205974331Y-190271482D01*
X205902902Y-190200054D01*
X205831474Y-190057197D01*
X205831474Y-189628625D01*
X205902902Y-189485768D01*
X205974331Y-189414340D01*
X206117188Y-189342911D01*
X206331474Y-189342911D01*
X206474331Y-189414340D01*
X206545760Y-189485768D01*
X206617188Y-189628625D01*
X206617188Y-190057197D01*
X206545760Y-190200054D01*
X206474331Y-190271482D01*
X206331474Y-190342911D01*
X206117188Y-190342911D01*
X207902902Y-189342911D02*
X207902902Y-190557197D01*
X207831474Y-190700054D01*
X207760045Y-190771482D01*
X207617188Y-190842911D01*
X207402902Y-190842911D01*
X207260045Y-190771482D01*
X207902902Y-190271482D02*
X207760045Y-190342911D01*
X207474331Y-190342911D01*
X207331474Y-190271482D01*
X207260045Y-190200054D01*
X207188617Y-190057197D01*
X207188617Y-189628625D01*
X207260045Y-189485768D01*
X207331474Y-189414340D01*
X207474331Y-189342911D01*
X207760045Y-189342911D01*
X207902902Y-189414340D01*
X208617188Y-190342911D02*
X208617188Y-189342911D01*
X208617188Y-189628625D02*
X208688617Y-189485768D01*
X208760045Y-189414340D01*
X208902902Y-189342911D01*
X209045760Y-189342911D01*
X210188617Y-190342911D02*
X210188617Y-189557197D01*
X210117188Y-189414340D01*
X209974331Y-189342911D01*
X209688617Y-189342911D01*
X209545760Y-189414340D01*
X210188617Y-190271482D02*
X210045760Y-190342911D01*
X209688617Y-190342911D01*
X209545760Y-190271482D01*
X209474331Y-190128625D01*
X209474331Y-189985768D01*
X209545760Y-189842911D01*
X209688617Y-189771482D01*
X210045760Y-189771482D01*
X210188617Y-189700054D01*
X210902902Y-190342911D02*
X210902902Y-189342911D01*
X210902902Y-189485768D02*
X210974331Y-189414340D01*
X211117188Y-189342911D01*
X211331474Y-189342911D01*
X211474331Y-189414340D01*
X211545760Y-189557197D01*
X211545760Y-190342911D01*
X211545760Y-189557197D02*
X211617188Y-189414340D01*
X211760045Y-189342911D01*
X211974331Y-189342911D01*
X212117188Y-189414340D01*
X212188617Y-189557197D01*
X212188617Y-190342911D01*
X213545760Y-190342911D02*
X213545760Y-189557197D01*
X213474331Y-189414340D01*
X213331474Y-189342911D01*
X213045760Y-189342911D01*
X212902902Y-189414340D01*
X213545760Y-190271482D02*
X213402902Y-190342911D01*
X213045760Y-190342911D01*
X212902902Y-190271482D01*
X212831474Y-190128625D01*
X212831474Y-189985768D01*
X212902902Y-189842911D01*
X213045760Y-189771482D01*
X213402902Y-189771482D01*
X213545760Y-189700054D01*
X214260045Y-190342911D02*
X214260045Y-188842911D01*
X214260045Y-189414340D02*
X214402902Y-189342911D01*
X214688617Y-189342911D01*
X214831474Y-189414340D01*
X214902902Y-189485768D01*
X214974331Y-189628625D01*
X214974331Y-190057197D01*
X214902902Y-190200054D01*
X214831474Y-190271482D01*
X214688617Y-190342911D01*
X214402902Y-190342911D01*
X214260045Y-190271482D01*
X215831474Y-190342911D02*
X215688617Y-190271482D01*
X215617188Y-190128625D01*
X215617188Y-188842911D01*
X216974331Y-190271482D02*
X216831474Y-190342911D01*
X216545760Y-190342911D01*
X216402902Y-190271482D01*
X216331474Y-190128625D01*
X216331474Y-189557197D01*
X216402902Y-189414340D01*
X216545760Y-189342911D01*
X216831474Y-189342911D01*
X216974331Y-189414340D01*
X217045760Y-189557197D01*
X217045760Y-189700054D01*
X216331474Y-189842911D01*
D10*
D11*
X207406480Y-192346188D02*
X207477908Y-192274760D01*
X207620765Y-192203331D01*
X207977908Y-192203331D01*
X208120765Y-192274760D01*
X208192194Y-192346188D01*
X208263622Y-192489045D01*
X208263622Y-192631902D01*
X208192194Y-192846188D01*
X207335051Y-193703331D01*
X208263622Y-193703331D01*
X208763622Y-192203331D02*
X209692194Y-192203331D01*
X209192194Y-192774760D01*
X209406480Y-192774760D01*
X209549337Y-192846188D01*
X209620765Y-192917617D01*
X209692194Y-193060474D01*
X209692194Y-193417617D01*
X209620765Y-193560474D01*
X209549337Y-193631902D01*
X209406480Y-193703331D01*
X208977908Y-193703331D01*
X208835051Y-193631902D01*
X208763622Y-193560474D01*
X211406480Y-192131902D02*
X210120765Y-194060474D01*
X212192194Y-192203331D02*
X212335051Y-192203331D01*
X212477908Y-192274760D01*
X212549337Y-192346188D01*
X212620765Y-192489045D01*
X212692194Y-192774760D01*
X212692194Y-193131902D01*
X212620765Y-193417617D01*
X212549337Y-193560474D01*
X212477908Y-193631902D01*
X212335051Y-193703331D01*
X212192194Y-193703331D01*
X212049337Y-193631902D01*
X211977908Y-193560474D01*
X211906480Y-193417617D01*
X211835051Y-193131902D01*
X211835051Y-192774760D01*
X211906480Y-192489045D01*
X211977908Y-192346188D01*
X212049337Y-192274760D01*
X212192194Y-192203331D01*
X213977908Y-192203331D02*
X213692194Y-192203331D01*
X213549337Y-192274760D01*
X213477908Y-192346188D01*
X213335051Y-192560474D01*
X213263622Y-192846188D01*
X213263622Y-193417617D01*
X213335051Y-193560474D01*
X213406480Y-193631902D01*
X213549337Y-193703331D01*
X213835051Y-193703331D01*
X213977908Y-193631902D01*
X214049337Y-193560474D01*
X214120765Y-193417617D01*
X214120765Y-193060474D01*
X214049337Y-192917617D01*
X213977908Y-192846188D01*
X213835051Y-192774760D01*
X213549337Y-192774760D01*
X213406480Y-192846188D01*
X213335051Y-192917617D01*
X213263622Y-193060474D01*
X215835051Y-192131902D02*
X214549337Y-194060474D01*
X216263622Y-192346188D02*
X216335051Y-192274760D01*
X216477908Y-192203331D01*
X216835051Y-192203331D01*
X216977908Y-192274760D01*
X217049337Y-192346188D01*
X217120765Y-192489045D01*
X217120765Y-192631902D01*
X217049337Y-192846188D01*
X216192194Y-193703331D01*
X217120765Y-193703331D01*
X218049337Y-192203331D02*
X218192194Y-192203331D01*
X218335051Y-192274760D01*
X218406480Y-192346188D01*
X218477908Y-192489045D01*
X218549337Y-192774760D01*
X218549337Y-193131902D01*
X218477908Y-193417617D01*
X218406480Y-193560474D01*
X218335051Y-193631902D01*
X218192194Y-193703331D01*
X218049337Y-193703331D01*
X217906480Y-193631902D01*
X217835051Y-193560474D01*
X217763622Y-193417617D01*
X217692194Y-193131902D01*
X217692194Y-192774760D01*
X217763622Y-192489045D01*
X217835051Y-192346188D01*
X217906480Y-192274760D01*
X218049337Y-192203331D01*
X219120765Y-192346188D02*
X219192194Y-192274760D01*
X219335051Y-192203331D01*
X219692194Y-192203331D01*
X219835051Y-192274760D01*
X219906480Y-192346188D01*
X219977908Y-192489045D01*
X219977908Y-192631902D01*
X219906480Y-192846188D01*
X219049337Y-193703331D01*
X219977908Y-193703331D01*
X220906480Y-192203331D02*
X221049337Y-192203331D01*
X221192194Y-192274760D01*
X221263622Y-192346188D01*
X221335051Y-192489045D01*
X221406480Y-192774760D01*
X221406480Y-193131902D01*
X221335051Y-193417617D01*
X221263622Y-193560474D01*
X221192194Y-193631902D01*
X221049337Y-193703331D01*
X220906480Y-193703331D01*
X220763622Y-193631902D01*
X220692194Y-193560474D01*
X220620765Y-193417617D01*
X220549337Y-193131902D01*
X220549337Y-192774760D01*
X220620765Y-192489045D01*
X220692194Y-192346188D01*
X220763622Y-192274760D01*
X220906480Y-192203331D01*
D12*
X130347720Y-61330840D03*
X132887720Y-61330840D03*
X130347720Y-63870840D03*
X132887720Y-63870840D03*
X115183920Y-56266080D03*
X117723920Y-56266080D03*
X115183920Y-58806080D03*
X117723920Y-58806080D03*
X89860120Y-56230520D03*
X92400120Y-56230520D03*
X89860120Y-58770520D03*
X92400120Y-58770520D03*
X125303280Y-61330840D03*
X127843280Y-61330840D03*
X125303280Y-63870840D03*
X127843280Y-63870840D03*
X115163600Y-61330840D03*
X117703600Y-61330840D03*
X115163600Y-63870840D03*
X117703600Y-63870840D03*
X120223280Y-61351160D03*
X122763280Y-61351160D03*
X120223280Y-63891160D03*
X122763280Y-63891160D03*
X110119160Y-61330840D03*
X112659160Y-61330840D03*
X110119160Y-63870840D03*
X112659160Y-63870840D03*
X105023920Y-61305440D03*
X107563920Y-61305440D03*
X105023920Y-63845440D03*
X107563920Y-63845440D03*
X94919800Y-61285120D03*
X97459800Y-61285120D03*
X94919800Y-63825120D03*
X97459800Y-63825120D03*
X99984560Y-56220360D03*
X102524560Y-56220360D03*
X99984560Y-58760360D03*
X102524560Y-58760360D03*
X135407400Y-61351160D03*
X137947400Y-61351160D03*
X135407400Y-63891160D03*
X137947400Y-63891160D03*
X140482320Y-56286400D03*
X143022320Y-56286400D03*
X140482320Y-58826400D03*
X143022320Y-58826400D03*
X105003600Y-76428600D03*
X107543600Y-76428600D03*
X105003600Y-78968600D03*
X107543600Y-78968600D03*
X94899480Y-76408280D03*
X97439480Y-76408280D03*
X94899480Y-78948280D03*
X97439480Y-78948280D03*
X99991080Y-96779260D03*
X102531080Y-96779260D03*
X99991080Y-99319260D03*
X102531080Y-99319260D03*
X105045680Y-91709420D03*
X107585680Y-91709420D03*
X105045680Y-94249420D03*
X107585680Y-94249420D03*
D13*
X157949900Y-79425800D03*
D14*
X155409900Y-79425800D03*
X152869900Y-79425800D03*
X150329900Y-79425800D03*
X147789900Y-79425800D03*
X145249900Y-79425800D03*
X142709900Y-79425800D03*
X140169900Y-79425800D03*
X137629900Y-79425800D03*
X135089900Y-79425800D03*
X132549900Y-79425800D03*
X130009900Y-79425800D03*
X127469900Y-79425800D03*
X124929900Y-79425800D03*
X124929900Y-94665800D03*
X127469900Y-94665800D03*
X130009900Y-94665800D03*
X132549900Y-94665800D03*
X135089900Y-94665800D03*
X137629900Y-94665800D03*
X140169900Y-94665800D03*
X142709900Y-94665800D03*
X145249900Y-94665800D03*
X147789900Y-94665800D03*
X150329900Y-94665800D03*
X152869900Y-94665800D03*
X155409900Y-94665800D03*
X157949900Y-94665800D03*
D12*
X99965680Y-91719580D03*
X102505680Y-91719580D03*
X99965680Y-94259580D03*
X102505680Y-94259580D03*
X105071080Y-96769100D03*
X107611080Y-96769100D03*
X105071080Y-99309100D03*
X107611080Y-99309100D03*
D15*
X135128000Y-98044000D03*
D16*
X142748000Y-98044000D03*
D12*
X125328680Y-66390520D03*
X127868680Y-66390520D03*
X125328680Y-68930520D03*
X127868680Y-68930520D03*
X140462000Y-61351160D03*
X143002000Y-61351160D03*
X140462000Y-63891160D03*
X143002000Y-63891160D03*
X99964240Y-61285120D03*
X102504240Y-61285120D03*
X99964240Y-63825120D03*
X102504240Y-63825120D03*
X110144560Y-66390520D03*
X112684560Y-66390520D03*
X110144560Y-68930520D03*
X112684560Y-68930520D03*
X115189000Y-66390520D03*
X117729000Y-66390520D03*
X115189000Y-68930520D03*
X117729000Y-68930520D03*
X89839800Y-61295280D03*
X92379800Y-61295280D03*
X89839800Y-63835280D03*
X92379800Y-63835280D03*
X105049320Y-66365120D03*
X107589320Y-66365120D03*
X105049320Y-68905120D03*
X107589320Y-68905120D03*
X94945200Y-66344800D03*
X97485200Y-66344800D03*
X94945200Y-68884800D03*
X97485200Y-68884800D03*
X130373120Y-66390520D03*
X132913120Y-66390520D03*
X130373120Y-68930520D03*
X132913120Y-68930520D03*
X135432800Y-66410840D03*
X137972800Y-66410840D03*
X135432800Y-68950840D03*
X137972800Y-68950840D03*
X140467080Y-71475600D03*
X143007080Y-71475600D03*
X140467080Y-74015600D03*
X143007080Y-74015600D03*
X125308360Y-71455280D03*
X127848360Y-71455280D03*
X125308360Y-73995280D03*
X127848360Y-73995280D03*
X130352800Y-71455280D03*
X132892800Y-71455280D03*
X130352800Y-73995280D03*
X132892800Y-73995280D03*
X135412480Y-71475600D03*
X137952480Y-71475600D03*
X135412480Y-74015600D03*
X137952480Y-74015600D03*
D15*
X161290000Y-101092000D03*
D16*
X153670000Y-101092000D03*
D17*
X120142000Y-91440000D03*
D15*
X117642000Y-91440000D03*
X161290000Y-97790000D03*
D16*
X153670000Y-97790000D03*
D15*
X161353500Y-94640400D03*
X161353500Y-92140400D03*
D18*
X171947840Y-113383440D03*
X169407840Y-113383440D03*
X166867840Y-113383440D03*
X164327840Y-113383440D03*
X161787840Y-113383440D03*
X159247840Y-113383440D03*
X156707840Y-113383440D03*
X154167840Y-113383440D03*
X151627840Y-113383440D03*
X149087840Y-113383440D03*
X146547840Y-113383440D03*
X144007840Y-113383440D03*
X141467840Y-113383440D03*
X138927840Y-113383440D03*
X136387840Y-113383440D03*
X133847840Y-113383440D03*
X131307840Y-113383440D03*
X128767840Y-113383440D03*
X126227840Y-113383440D03*
X123687840Y-113383440D03*
X121147840Y-113383440D03*
D19*
X118602760Y-112890680D03*
D18*
X116067840Y-113383440D03*
X113527840Y-113383440D03*
X110987840Y-113383440D03*
D12*
X94940120Y-56220360D03*
X97480120Y-56220360D03*
X94940120Y-58760360D03*
X97480120Y-58760360D03*
X110139480Y-56266080D03*
X112679480Y-56266080D03*
X110139480Y-58806080D03*
X112679480Y-58806080D03*
X99923600Y-81473040D03*
X102463600Y-81473040D03*
X99923600Y-84013040D03*
X102463600Y-84013040D03*
X89824560Y-86542880D03*
X92364560Y-86542880D03*
X89824560Y-89082880D03*
X92364560Y-89082880D03*
X94904560Y-86532720D03*
X97444560Y-86532720D03*
X94904560Y-89072720D03*
X97444560Y-89072720D03*
X89799160Y-81483200D03*
X92339160Y-81483200D03*
X89799160Y-84023200D03*
X92339160Y-84023200D03*
X105008680Y-86553040D03*
X107548680Y-86553040D03*
X105008680Y-89093040D03*
X107548680Y-89093040D03*
X89819480Y-76418440D03*
X92359480Y-76418440D03*
X89819480Y-78958440D03*
X92359480Y-78958440D03*
X135427720Y-56286400D03*
X137967720Y-56286400D03*
X135427720Y-58826400D03*
X137967720Y-58826400D03*
X120243600Y-56286400D03*
X122783600Y-56286400D03*
X120243600Y-58826400D03*
X122783600Y-58826400D03*
X99943920Y-76408280D03*
X102483920Y-76408280D03*
X99943920Y-78948280D03*
X102483920Y-78948280D03*
X125323600Y-56266080D03*
X127863600Y-56266080D03*
X125323600Y-58806080D03*
X127863600Y-58806080D03*
X130368040Y-56266080D03*
X132908040Y-56266080D03*
X130368040Y-58806080D03*
X132908040Y-58806080D03*
X99949000Y-86532720D03*
X102489000Y-86532720D03*
X99949000Y-89072720D03*
X102489000Y-89072720D03*
X105044240Y-56240680D03*
X107584240Y-56240680D03*
X105044240Y-58780680D03*
X107584240Y-58780680D03*
X140487400Y-66410840D03*
X143027400Y-66410840D03*
X140487400Y-68950840D03*
X143027400Y-68950840D03*
X94924880Y-71409560D03*
X97464880Y-71409560D03*
X94924880Y-73949560D03*
X97464880Y-73949560D03*
X99969320Y-71409560D03*
X102509320Y-71409560D03*
X99969320Y-73949560D03*
X102509320Y-73949560D03*
X120248680Y-66410840D03*
X122788680Y-66410840D03*
X120248680Y-68950840D03*
X122788680Y-68950840D03*
X99989640Y-66344800D03*
X102529640Y-66344800D03*
X99989640Y-68884800D03*
X102529640Y-68884800D03*
X110124240Y-71455280D03*
X112664240Y-71455280D03*
X110124240Y-73995280D03*
X112664240Y-73995280D03*
X115168680Y-71455280D03*
X117708680Y-71455280D03*
X115168680Y-73995280D03*
X117708680Y-73995280D03*
X120228360Y-71475600D03*
X122768360Y-71475600D03*
X120228360Y-74015600D03*
X122768360Y-74015600D03*
X89844880Y-71419720D03*
X92384880Y-71419720D03*
X89844880Y-73959720D03*
X92384880Y-73959720D03*
X105029000Y-71429880D03*
X107569000Y-71429880D03*
X105029000Y-73969880D03*
X107569000Y-73969880D03*
X89865200Y-66354960D03*
X92405200Y-66354960D03*
X89865200Y-68894960D03*
X92405200Y-68894960D03*
X94879160Y-81473040D03*
X97419160Y-81473040D03*
X94879160Y-84013040D03*
X97419160Y-84013040D03*
X104983280Y-81493360D03*
X107523280Y-81493360D03*
X104983280Y-84033360D03*
X107523280Y-84033360D03*
X150571200Y-71495920D03*
X153111200Y-71495920D03*
X150571200Y-74035920D03*
X153111200Y-74035920D03*
X150591520Y-66431160D03*
X153131520Y-66431160D03*
X150591520Y-68971160D03*
X153131520Y-68971160D03*
X155635960Y-71501000D03*
X158175960Y-71501000D03*
X155635960Y-74041000D03*
X158175960Y-74041000D03*
X160680400Y-71501000D03*
X163220400Y-71501000D03*
X160680400Y-74041000D03*
X163220400Y-74041000D03*
X150586440Y-56306720D03*
X153126440Y-56306720D03*
X150586440Y-58846720D03*
X153126440Y-58846720D03*
X145526760Y-56286400D03*
X148066760Y-56286400D03*
X145526760Y-58826400D03*
X148066760Y-58826400D03*
X145511520Y-71475600D03*
X148051520Y-71475600D03*
X145511520Y-74015600D03*
X148051520Y-74015600D03*
X155656280Y-66436240D03*
X158196280Y-66436240D03*
X155656280Y-68976240D03*
X158196280Y-68976240D03*
X145531840Y-66410840D03*
X148071840Y-66410840D03*
X145531840Y-68950840D03*
X148071840Y-68950840D03*
X160700720Y-66436240D03*
X163240720Y-66436240D03*
X160700720Y-68976240D03*
X163240720Y-68976240D03*
X155630880Y-61376560D03*
X158170880Y-61376560D03*
X155630880Y-63916560D03*
X158170880Y-63916560D03*
X150566120Y-61371480D03*
X153106120Y-61371480D03*
X150566120Y-63911480D03*
X153106120Y-63911480D03*
X160675320Y-61376560D03*
X163215320Y-61376560D03*
X160675320Y-63916560D03*
X163215320Y-63916560D03*
X155651200Y-56311800D03*
X158191200Y-56311800D03*
X155651200Y-58851800D03*
X158191200Y-58851800D03*
X145506440Y-61351160D03*
X148046440Y-61351160D03*
X145506440Y-63891160D03*
X148046440Y-63891160D03*
D20*
X168656000Y-67818000D03*
D21*
X168656000Y-65278000D03*
X171196000Y-67818000D03*
X171196000Y-65278000D03*
X173736000Y-67818000D03*
X173736000Y-65278000D03*
X176276000Y-67818000D03*
X176276000Y-65278000D03*
X178816000Y-67818000D03*
X178816000Y-65278000D03*
X181356000Y-67818000D03*
X181356000Y-65278000D03*
X183896000Y-67818000D03*
X183896000Y-65278000D03*
D12*
X160695640Y-56311800D03*
X163235640Y-56311800D03*
X160695640Y-58851800D03*
X163235640Y-58851800D03*
X177292000Y-86868000D03*
X179832000Y-86868000D03*
X177292000Y-89408000D03*
X179832000Y-89408000D03*
X109982000Y-86614000D03*
X112522000Y-86614000D03*
X109982000Y-89154000D03*
X112522000Y-89154000D03*
X177292000Y-76454000D03*
X179832000Y-76454000D03*
X177292000Y-78994000D03*
X179832000Y-78994000D03*
X182372000Y-91948000D03*
X184912000Y-91948000D03*
X182372000Y-94488000D03*
X184912000Y-94488000D03*
X172212000Y-91948000D03*
X174752000Y-91948000D03*
X172212000Y-94488000D03*
X174752000Y-94488000D03*
X115316000Y-81534000D03*
X117856000Y-81534000D03*
X115316000Y-84074000D03*
X117856000Y-84074000D03*
X182285640Y-81711800D03*
X184825640Y-81711800D03*
X182285640Y-84251800D03*
X184825640Y-84251800D03*
X172212000Y-76454000D03*
X174752000Y-76454000D03*
X172212000Y-78994000D03*
X174752000Y-78994000D03*
X109982000Y-81534000D03*
X112522000Y-81534000D03*
X109982000Y-84074000D03*
X112522000Y-84074000D03*
X109982000Y-76454000D03*
X112522000Y-76454000D03*
X109982000Y-78994000D03*
X112522000Y-78994000D03*
X115316000Y-76454000D03*
X117856000Y-76454000D03*
X115316000Y-78994000D03*
X117856000Y-78994000D03*
X177292000Y-91948000D03*
X179832000Y-91948000D03*
X177292000Y-94488000D03*
X179832000Y-94488000D03*
X177292000Y-81788000D03*
X179832000Y-81788000D03*
X177292000Y-84328000D03*
X179832000Y-84328000D03*
X172212000Y-81788000D03*
X174752000Y-81788000D03*
X172212000Y-84328000D03*
X174752000Y-84328000D03*
X182372000Y-76454000D03*
X184912000Y-76454000D03*
X182372000Y-78994000D03*
X184912000Y-78994000D03*
X172212000Y-87122000D03*
X174752000Y-87122000D03*
X172212000Y-89662000D03*
X174752000Y-89662000D03*
X182285640Y-86868000D03*
X184825640Y-86868000D03*
X182285640Y-89408000D03*
X184825640Y-89408000D03*
D22*
X113792000Y-107950000D03*
X157537833Y-91406483D03*
X135128000Y-91440000D03*
X156972000Y-103886000D03*
X142240000Y-107696000D03*
X123418600Y-108508800D03*
X144780000Y-102108004D03*
X140970004Y-105410000D03*
X138926548Y-108205247D03*
X145641843Y-108783458D03*
X148589910Y-97859308D03*
X146641294Y-108750010D03*
X148946490Y-108736841D03*
X148603301Y-104648000D03*
X127027850Y-108572300D03*
X128828800Y-105867200D03*
X128778000Y-100838000D03*
X146050000Y-102616001D03*
X134874000Y-107441986D03*
X136398000Y-108203992D03*
X142526519Y-104316699D03*
X158242000Y-97028004D03*
X144333780Y-106464010D03*
X150114000Y-102870000D03*
X150876000Y-101854000D03*
X171401938Y-69868011D03*
X142800000Y-88175000D03*
X176530000Y-70612000D03*
X166115996Y-105918000D03*
X163353968Y-99060000D03*
D23*
X119888000Y-92994000D02*
X119888000Y-101854000D01*
X120142000Y-92740000D02*
X119888000Y-92994000D01*
X119888000Y-101854000D02*
X113792000Y-107950000D01*
X120142000Y-91440000D02*
X120142000Y-92740000D01*
X161328100Y-94665800D02*
X161353500Y-94640400D01*
X157949900Y-94665800D02*
X161328100Y-94665800D01*
D24*
X135128000Y-98044000D02*
X136328101Y-96843899D01*
X135527999Y-91839999D02*
X135128000Y-91440000D01*
X136328101Y-96843899D02*
X136328101Y-92640101D01*
D23*
X157537833Y-91406483D02*
X135161517Y-91406483D01*
X135161517Y-91406483D02*
X135128000Y-91440000D01*
D24*
X136328101Y-92640101D02*
X135527999Y-91839999D01*
X154853457Y-103886000D02*
X151043457Y-107696000D01*
X151043457Y-107696000D02*
X142805685Y-107696000D01*
X156972000Y-103886000D02*
X154853457Y-103886000D01*
X142805685Y-107696000D02*
X142240000Y-107696000D01*
D25*
X117925000Y-107200000D02*
X116900000Y-107200000D01*
X118602760Y-107877760D02*
X117925000Y-107200000D01*
X116900000Y-107200000D02*
X116067840Y-108032160D01*
X118602760Y-112890680D02*
X118602760Y-107877760D01*
X116067840Y-108032160D02*
X116067840Y-113383440D01*
D23*
X123018601Y-112714201D02*
X123687840Y-113383440D01*
X123018601Y-108908799D02*
X123018601Y-112714201D01*
X123418600Y-108508800D02*
X123018601Y-108908799D01*
D24*
X126227840Y-95907860D02*
X127469900Y-94665800D01*
X126227840Y-113383440D02*
X126227840Y-95907860D01*
X131248101Y-83204001D02*
X128308099Y-80263999D01*
X128767840Y-113383440D02*
X128767840Y-108983440D01*
X128308099Y-80263999D02*
X127469900Y-79425800D01*
X131248101Y-106503179D02*
X131248101Y-83204001D01*
X128767840Y-108983440D02*
X131248101Y-106503179D01*
X133788101Y-80664001D02*
X133388099Y-80263999D01*
X133388099Y-80263999D02*
X132549900Y-79425800D01*
X131307840Y-107365617D02*
X133788101Y-104885356D01*
X131307840Y-113383440D02*
X131307840Y-107365617D01*
X133788101Y-104885356D02*
X133788101Y-80664001D01*
X144214315Y-102108004D02*
X144780000Y-102108004D01*
X133847840Y-113383440D02*
X133847840Y-107284157D01*
X139023993Y-102108004D02*
X144214315Y-102108004D01*
X133847840Y-107284157D02*
X139023993Y-102108004D01*
X140404319Y-105410000D02*
X140970004Y-105410000D01*
X137687840Y-108983440D02*
X137687840Y-108126479D01*
X137687840Y-108126479D02*
X140404319Y-105410000D01*
X136387840Y-113383440D02*
X136387840Y-110283440D01*
X136387840Y-110283440D02*
X137687840Y-108983440D01*
D23*
X138927840Y-113383440D02*
X138927840Y-108206539D01*
X138927840Y-108206539D02*
X138926548Y-108205247D01*
D24*
X149266002Y-105664000D02*
X152031701Y-102898301D01*
X141224000Y-113139600D02*
X141467840Y-113383440D01*
X141467840Y-110283440D02*
X141224000Y-110039600D01*
X141467840Y-113383440D02*
X141467840Y-110283440D01*
X143087998Y-105664000D02*
X149266002Y-105664000D01*
X152031701Y-102898301D02*
X152031701Y-95503999D01*
X141224000Y-107527998D02*
X141224000Y-113139600D01*
X152031701Y-95503999D02*
X152869900Y-94665800D01*
X141224000Y-107527998D02*
X143087998Y-105664000D01*
X150329900Y-96119318D02*
X148589910Y-97859308D01*
X150329900Y-94665800D02*
X150329900Y-96119318D01*
D23*
X144007840Y-110283440D02*
X145507822Y-108783458D01*
X145507822Y-108783458D02*
X145641843Y-108783458D01*
X144007840Y-113383440D02*
X144007840Y-110283440D01*
X146547840Y-113383440D02*
X146547840Y-108843464D01*
X146547840Y-108843464D02*
X146641294Y-108750010D01*
D24*
X140169900Y-94665800D02*
X140169900Y-97241902D01*
X148603301Y-104082315D02*
X148603301Y-104648000D01*
X148603301Y-102715297D02*
X148603301Y-104082315D01*
X140169900Y-97241902D02*
X143981996Y-101053998D01*
X146942002Y-101053998D02*
X148603301Y-102715297D01*
X143981996Y-101053998D02*
X146942002Y-101053998D01*
D23*
X149087840Y-108878191D02*
X148946490Y-108736841D01*
X149087840Y-113383440D02*
X149087840Y-108878191D01*
D24*
X127427849Y-108172301D02*
X127427849Y-97247851D01*
X127027850Y-108572300D02*
X127427849Y-108172301D01*
X127427849Y-97247851D02*
X129171701Y-95503999D01*
X129171701Y-95503999D02*
X130009900Y-94665800D01*
X128828800Y-105867200D02*
X128828800Y-100888800D01*
X128828800Y-100888800D02*
X128778000Y-100838000D01*
X145650001Y-103016000D02*
X139299986Y-103016000D01*
X146050000Y-102616001D02*
X145650001Y-103016000D01*
X135273999Y-107041987D02*
X134874000Y-107441986D01*
X139299986Y-103016000D02*
X135273999Y-107041987D01*
X142526519Y-104316699D02*
X139719608Y-104316699D01*
X139719608Y-104316699D02*
X136398000Y-107638307D01*
X136398000Y-107638307D02*
X136398000Y-108203992D01*
X150073992Y-106464010D02*
X158242000Y-98296002D01*
X144333780Y-106464010D02*
X150073992Y-106464010D01*
X158242000Y-98296002D02*
X158242000Y-97593689D01*
X158242000Y-97593689D02*
X158242000Y-97028004D01*
X145249900Y-98005900D02*
X149714001Y-102470001D01*
X145249900Y-94665800D02*
X145249900Y-98005900D01*
X149714001Y-102470001D02*
X150114000Y-102870000D01*
X147789900Y-94665800D02*
X147789900Y-98767900D01*
X150476001Y-101454001D02*
X150876000Y-101854000D01*
X147789900Y-98767900D02*
X150476001Y-101454001D01*
X163807967Y-77746033D02*
X171401938Y-70152062D01*
X155409900Y-94665800D02*
X163807967Y-86267733D01*
X163807967Y-86267733D02*
X163807967Y-77746033D01*
X171401938Y-70152062D02*
X171401938Y-69868011D01*
D23*
X142709900Y-98005900D02*
X142748000Y-98044000D01*
X142709900Y-94665800D02*
X142709900Y-98005900D01*
D24*
X181356000Y-65278000D02*
X178816000Y-65278000D01*
X146852163Y-84071937D02*
X156633521Y-84071937D01*
X175025999Y-66528001D02*
X176276000Y-65278000D01*
X171013523Y-69068001D02*
X171723452Y-69068001D01*
X172485999Y-68305454D02*
X172485999Y-67217999D01*
X172485999Y-67217999D02*
X173175997Y-66528001D01*
X171723452Y-69068001D02*
X172485999Y-68305454D01*
X170601928Y-70103530D02*
X170601928Y-69479596D01*
X178816000Y-65278000D02*
X176276000Y-65278000D01*
X170601928Y-69479596D02*
X171013523Y-69068001D01*
X142800000Y-88124100D02*
X146852163Y-84071937D01*
X156633521Y-84071937D02*
X170601928Y-70103530D01*
X173175997Y-66528001D02*
X175025999Y-66528001D01*
X177966001Y-68667999D02*
X178816000Y-67818000D01*
X171947840Y-113383440D02*
X171947840Y-110283440D01*
X175637998Y-69811998D02*
X176822002Y-69811998D01*
X165608000Y-79841996D02*
X175637998Y-69811998D01*
X165608000Y-103943600D02*
X165608000Y-79841996D01*
X176822002Y-69811998D02*
X177966001Y-68667999D01*
X171947840Y-110283440D02*
X165608000Y-103943600D01*
X178562000Y-70612000D02*
X176530000Y-70612000D01*
X181356000Y-67818000D02*
X178562000Y-70612000D01*
X165007989Y-79086011D02*
X165007989Y-104809993D01*
X176276000Y-67818000D02*
X165007989Y-79086011D01*
X165715997Y-105518001D02*
X166115996Y-105918000D01*
X165007989Y-104809993D02*
X165715997Y-105518001D01*
D25*
X169407840Y-113383440D02*
X169407840Y-110215840D01*
D24*
X163353968Y-99625685D02*
X163353968Y-99060000D01*
X163353968Y-106305166D02*
X163353968Y-99625685D01*
X169407840Y-113383440D02*
X169407840Y-110283440D01*
X167698110Y-108573710D02*
X165622512Y-108573710D01*
X165622512Y-108573710D02*
X163353968Y-106305166D01*
X169407840Y-110283440D02*
X167698110Y-108573710D01*
X152927840Y-108983440D02*
X151627840Y-110283440D01*
D23*
X151627840Y-113383440D02*
X151627840Y-110213438D01*
D24*
X155344017Y-108983440D02*
X152927840Y-108983440D01*
X173736000Y-68660914D02*
X172201940Y-70194974D01*
X172201940Y-70200602D02*
X164407978Y-77994562D01*
X164407978Y-96821986D02*
X162553966Y-98675998D01*
X162553966Y-98675998D02*
X162553966Y-101773491D01*
X162553966Y-101773491D02*
X155344017Y-108983440D01*
X173736000Y-67818000D02*
X173736000Y-68660914D01*
X151627840Y-110283440D02*
X151627840Y-113383440D01*
X164407978Y-77994562D02*
X164407978Y-96821986D01*
X172201940Y-70194974D02*
X172201940Y-70200602D01*
X169945999Y-69910917D02*
X169945999Y-66528001D01*
X169945999Y-66528001D02*
X170346001Y-66127999D01*
X160431116Y-79425800D02*
X169945999Y-69910917D01*
X157949900Y-79425800D02*
X160431116Y-79425800D01*
X170346001Y-66127999D02*
X171196000Y-65278000D01*
X173736000Y-65278000D02*
X171196000Y-65278000D01*
X153464237Y-93427599D02*
X154171699Y-94135061D01*
X154171699Y-96515697D02*
X154870001Y-97213999D01*
X154870001Y-97213999D02*
X154870001Y-99891999D01*
X137629900Y-94665800D02*
X137629900Y-93480407D01*
X137682708Y-93427599D02*
X153464237Y-93427599D01*
X154171699Y-94135061D02*
X154171699Y-96515697D01*
X154469999Y-100292001D02*
X153670000Y-101092000D01*
X154870001Y-99891999D02*
X154469999Y-100292001D01*
X137629900Y-93480407D02*
X137682708Y-93427599D01*
M02*
