%TF.GenerationSoftware,KiCad,Pcbnew,(6.0.7)*%
%TF.CreationDate,2023-01-05T13:14:54+00:00*%
%TF.ProjectId,msx_eeprom,6d73785f-6565-4707-926f-6d2e6b696361,rev?*%
%TF.SameCoordinates,Original*%
%TF.FileFunction,Drillmap*%
%TF.FilePolarity,Positive*%
%FSLAX45Y45*%
G04 Gerber Fmt 4.5, Leading zero omitted, Abs format (unit mm)*
G04 Created by KiCad (PCBNEW (6.0.7)) date 2023-01-05 13:14:54*
%MOMM*%
%LPD*%
G01*
G04 APERTURE LIST*
%ADD10C,0.050000*%
%ADD11C,0.200000*%
%ADD12C,0.400000*%
G04 APERTURE END LIST*
D10*
X17393920Y-11811000D02*
X17383760Y-11821160D01*
X10916920Y-11821160D02*
X10911840Y-11816080D01*
X17368520Y-11836400D02*
X17343120Y-11851640D01*
X10896600Y-11780520D02*
X10891520Y-11755120D01*
X9662160Y-10739120D02*
X9662160Y-9646920D01*
X9662160Y-9646920D02*
X8514080Y-9646920D01*
X17404080Y-11755120D02*
X17404080Y-11770360D01*
X10937240Y-11841480D02*
X10916920Y-11821160D01*
X8509000Y-5323840D02*
X18785840Y-5323840D01*
X10891520Y-10749280D02*
X10891520Y-10744200D01*
X10896600Y-11785600D02*
X10896600Y-11780520D01*
X17383760Y-11821160D02*
X17368520Y-11836400D01*
X10891520Y-10744200D02*
X9662160Y-10739120D01*
X10962640Y-11851640D02*
X10937240Y-11841480D01*
X17307560Y-11861800D02*
X10982960Y-11856720D01*
X10906760Y-11805920D02*
X10896600Y-11785600D01*
X17404080Y-10744200D02*
X17404080Y-11755120D01*
X17399000Y-11790680D02*
X17393920Y-11811000D01*
X18785840Y-5323840D02*
X18785840Y-10744200D01*
X18785840Y-10744200D02*
X17404080Y-10744200D01*
X17404080Y-11770360D02*
X17399000Y-11790680D01*
X17343120Y-11851640D02*
X17322800Y-11856720D01*
X17322800Y-11856720D02*
X17307560Y-11861800D01*
X10911840Y-11816080D02*
X10906760Y-11805920D01*
X10891520Y-11755120D02*
X10891520Y-10749280D01*
X8514080Y-9646920D02*
X8509000Y-5323840D01*
X10982960Y-11856720D02*
X10962640Y-11851640D01*
D11*
D12*
X11113226Y-9445152D02*
X11513226Y-9845152D01*
X11513226Y-9445152D02*
X11113226Y-9845152D01*
X16733164Y-9904600D02*
X17133164Y-10304600D01*
X17133164Y-9904600D02*
X16733164Y-10304600D01*
D11*
X8764119Y-12174776D02*
X8764119Y-11974776D01*
X8811738Y-11974776D01*
X8840310Y-11984300D01*
X8859357Y-12003348D01*
X8868881Y-12022395D01*
X8878405Y-12060490D01*
X8878405Y-12089062D01*
X8868881Y-12127157D01*
X8859357Y-12146205D01*
X8840310Y-12165252D01*
X8811738Y-12174776D01*
X8764119Y-12174776D01*
X8964119Y-12174776D02*
X8964119Y-12041443D01*
X8964119Y-12079538D02*
X8973643Y-12060490D01*
X8983167Y-12050967D01*
X9002214Y-12041443D01*
X9021262Y-12041443D01*
X9087929Y-12174776D02*
X9087929Y-12041443D01*
X9087929Y-11974776D02*
X9078405Y-11984300D01*
X9087929Y-11993824D01*
X9097452Y-11984300D01*
X9087929Y-11974776D01*
X9087929Y-11993824D01*
X9211738Y-12174776D02*
X9192690Y-12165252D01*
X9183167Y-12146205D01*
X9183167Y-11974776D01*
X9316500Y-12174776D02*
X9297452Y-12165252D01*
X9287929Y-12146205D01*
X9287929Y-11974776D01*
X9545071Y-12174776D02*
X9545071Y-11974776D01*
X9611738Y-12117633D01*
X9678405Y-11974776D01*
X9678405Y-12174776D01*
X9859357Y-12174776D02*
X9859357Y-12070014D01*
X9849833Y-12050967D01*
X9830786Y-12041443D01*
X9792690Y-12041443D01*
X9773643Y-12050967D01*
X9859357Y-12165252D02*
X9840310Y-12174776D01*
X9792690Y-12174776D01*
X9773643Y-12165252D01*
X9764119Y-12146205D01*
X9764119Y-12127157D01*
X9773643Y-12108109D01*
X9792690Y-12098586D01*
X9840310Y-12098586D01*
X9859357Y-12089062D01*
X9954595Y-12041443D02*
X9954595Y-12241443D01*
X9954595Y-12050967D02*
X9973643Y-12041443D01*
X10011738Y-12041443D01*
X10030786Y-12050967D01*
X10040310Y-12060490D01*
X10049833Y-12079538D01*
X10049833Y-12136681D01*
X10040310Y-12155728D01*
X10030786Y-12165252D01*
X10011738Y-12174776D01*
X9973643Y-12174776D01*
X9954595Y-12165252D01*
X10135548Y-12155728D02*
X10145071Y-12165252D01*
X10135548Y-12174776D01*
X10126024Y-12165252D01*
X10135548Y-12155728D01*
X10135548Y-12174776D01*
X10135548Y-12050967D02*
X10145071Y-12060490D01*
X10135548Y-12070014D01*
X10126024Y-12060490D01*
X10135548Y-12050967D01*
X10135548Y-12070014D01*
X8306500Y-12404300D02*
X8506500Y-12604300D01*
X8506500Y-12404300D02*
X8306500Y-12604300D01*
X8849833Y-12461443D02*
X8849833Y-12594776D01*
X8802214Y-12385252D02*
X8754595Y-12528109D01*
X8878405Y-12528109D01*
X8954595Y-12575728D02*
X8964119Y-12585252D01*
X8954595Y-12594776D01*
X8945071Y-12585252D01*
X8954595Y-12575728D01*
X8954595Y-12594776D01*
X9087929Y-12394776D02*
X9106976Y-12394776D01*
X9126024Y-12404300D01*
X9135548Y-12413824D01*
X9145071Y-12432871D01*
X9154595Y-12470967D01*
X9154595Y-12518586D01*
X9145071Y-12556681D01*
X9135548Y-12575728D01*
X9126024Y-12585252D01*
X9106976Y-12594776D01*
X9087929Y-12594776D01*
X9068881Y-12585252D01*
X9059357Y-12575728D01*
X9049833Y-12556681D01*
X9040310Y-12518586D01*
X9040310Y-12470967D01*
X9049833Y-12432871D01*
X9059357Y-12413824D01*
X9068881Y-12404300D01*
X9087929Y-12394776D01*
X9278405Y-12394776D02*
X9297452Y-12394776D01*
X9316500Y-12404300D01*
X9326024Y-12413824D01*
X9335548Y-12432871D01*
X9345071Y-12470967D01*
X9345071Y-12518586D01*
X9335548Y-12556681D01*
X9326024Y-12575728D01*
X9316500Y-12585252D01*
X9297452Y-12594776D01*
X9278405Y-12594776D01*
X9259357Y-12585252D01*
X9249833Y-12575728D01*
X9240310Y-12556681D01*
X9230786Y-12518586D01*
X9230786Y-12470967D01*
X9240310Y-12432871D01*
X9249833Y-12413824D01*
X9259357Y-12404300D01*
X9278405Y-12394776D01*
X9468881Y-12394776D02*
X9487929Y-12394776D01*
X9506976Y-12404300D01*
X9516500Y-12413824D01*
X9526024Y-12432871D01*
X9535548Y-12470967D01*
X9535548Y-12518586D01*
X9526024Y-12556681D01*
X9516500Y-12575728D01*
X9506976Y-12585252D01*
X9487929Y-12594776D01*
X9468881Y-12594776D01*
X9449833Y-12585252D01*
X9440310Y-12575728D01*
X9430786Y-12556681D01*
X9421262Y-12518586D01*
X9421262Y-12470967D01*
X9430786Y-12432871D01*
X9440310Y-12413824D01*
X9449833Y-12404300D01*
X9468881Y-12394776D01*
X9621262Y-12594776D02*
X9621262Y-12461443D01*
X9621262Y-12480490D02*
X9630786Y-12470967D01*
X9649833Y-12461443D01*
X9678405Y-12461443D01*
X9697452Y-12470967D01*
X9706976Y-12490014D01*
X9706976Y-12594776D01*
X9706976Y-12490014D02*
X9716500Y-12470967D01*
X9735548Y-12461443D01*
X9764119Y-12461443D01*
X9783167Y-12470967D01*
X9792690Y-12490014D01*
X9792690Y-12594776D01*
X9887929Y-12594776D02*
X9887929Y-12461443D01*
X9887929Y-12480490D02*
X9897452Y-12470967D01*
X9916500Y-12461443D01*
X9945071Y-12461443D01*
X9964119Y-12470967D01*
X9973643Y-12490014D01*
X9973643Y-12594776D01*
X9973643Y-12490014D02*
X9983167Y-12470967D01*
X10002214Y-12461443D01*
X10030786Y-12461443D01*
X10049833Y-12470967D01*
X10059357Y-12490014D01*
X10059357Y-12594776D01*
X10449833Y-12385252D02*
X10278405Y-12642395D01*
X10706976Y-12394776D02*
X10726024Y-12394776D01*
X10745071Y-12404300D01*
X10754595Y-12413824D01*
X10764119Y-12432871D01*
X10773643Y-12470967D01*
X10773643Y-12518586D01*
X10764119Y-12556681D01*
X10754595Y-12575728D01*
X10745071Y-12585252D01*
X10726024Y-12594776D01*
X10706976Y-12594776D01*
X10687929Y-12585252D01*
X10678405Y-12575728D01*
X10668881Y-12556681D01*
X10659357Y-12518586D01*
X10659357Y-12470967D01*
X10668881Y-12432871D01*
X10678405Y-12413824D01*
X10687929Y-12404300D01*
X10706976Y-12394776D01*
X10859357Y-12575728D02*
X10868881Y-12585252D01*
X10859357Y-12594776D01*
X10849833Y-12585252D01*
X10859357Y-12575728D01*
X10859357Y-12594776D01*
X11059357Y-12594776D02*
X10945071Y-12594776D01*
X11002214Y-12594776D02*
X11002214Y-12394776D01*
X10983167Y-12423348D01*
X10964119Y-12442395D01*
X10945071Y-12451919D01*
X11240309Y-12394776D02*
X11145071Y-12394776D01*
X11135548Y-12490014D01*
X11145071Y-12480490D01*
X11164119Y-12470967D01*
X11211738Y-12470967D01*
X11230786Y-12480490D01*
X11240309Y-12490014D01*
X11249833Y-12509062D01*
X11249833Y-12556681D01*
X11240309Y-12575728D01*
X11230786Y-12585252D01*
X11211738Y-12594776D01*
X11164119Y-12594776D01*
X11145071Y-12585252D01*
X11135548Y-12575728D01*
X11316500Y-12394776D02*
X11449833Y-12394776D01*
X11364119Y-12594776D01*
X11621262Y-12394776D02*
X11526024Y-12394776D01*
X11516500Y-12490014D01*
X11526024Y-12480490D01*
X11545071Y-12470967D01*
X11592690Y-12470967D01*
X11611738Y-12480490D01*
X11621262Y-12490014D01*
X11630786Y-12509062D01*
X11630786Y-12556681D01*
X11621262Y-12575728D01*
X11611738Y-12585252D01*
X11592690Y-12594776D01*
X11545071Y-12594776D01*
X11526024Y-12585252D01*
X11516500Y-12575728D01*
X11706976Y-12394776D02*
X11706976Y-12432871D01*
X11783167Y-12394776D02*
X11783167Y-12432871D01*
X12078405Y-12670967D02*
X12068881Y-12661443D01*
X12049833Y-12632871D01*
X12040309Y-12613824D01*
X12030786Y-12585252D01*
X12021262Y-12537633D01*
X12021262Y-12499538D01*
X12030786Y-12451919D01*
X12040309Y-12423348D01*
X12049833Y-12404300D01*
X12068881Y-12375728D01*
X12078405Y-12366205D01*
X12145071Y-12413824D02*
X12154595Y-12404300D01*
X12173643Y-12394776D01*
X12221262Y-12394776D01*
X12240309Y-12404300D01*
X12249833Y-12413824D01*
X12259357Y-12432871D01*
X12259357Y-12451919D01*
X12249833Y-12480490D01*
X12135548Y-12594776D01*
X12259357Y-12594776D01*
X12497452Y-12594776D02*
X12497452Y-12394776D01*
X12583167Y-12594776D02*
X12583167Y-12490014D01*
X12573643Y-12470967D01*
X12554595Y-12461443D01*
X12526024Y-12461443D01*
X12506976Y-12470967D01*
X12497452Y-12480490D01*
X12706976Y-12594776D02*
X12687928Y-12585252D01*
X12678405Y-12575728D01*
X12668881Y-12556681D01*
X12668881Y-12499538D01*
X12678405Y-12480490D01*
X12687928Y-12470967D01*
X12706976Y-12461443D01*
X12735548Y-12461443D01*
X12754595Y-12470967D01*
X12764119Y-12480490D01*
X12773643Y-12499538D01*
X12773643Y-12556681D01*
X12764119Y-12575728D01*
X12754595Y-12585252D01*
X12735548Y-12594776D01*
X12706976Y-12594776D01*
X12887928Y-12594776D02*
X12868881Y-12585252D01*
X12859357Y-12566205D01*
X12859357Y-12394776D01*
X13040309Y-12585252D02*
X13021262Y-12594776D01*
X12983167Y-12594776D01*
X12964119Y-12585252D01*
X12954595Y-12566205D01*
X12954595Y-12490014D01*
X12964119Y-12470967D01*
X12983167Y-12461443D01*
X13021262Y-12461443D01*
X13040309Y-12470967D01*
X13049833Y-12490014D01*
X13049833Y-12509062D01*
X12954595Y-12528109D01*
X13126024Y-12585252D02*
X13145071Y-12594776D01*
X13183167Y-12594776D01*
X13202214Y-12585252D01*
X13211738Y-12566205D01*
X13211738Y-12556681D01*
X13202214Y-12537633D01*
X13183167Y-12528109D01*
X13154595Y-12528109D01*
X13135548Y-12518586D01*
X13126024Y-12499538D01*
X13126024Y-12490014D01*
X13135548Y-12470967D01*
X13154595Y-12461443D01*
X13183167Y-12461443D01*
X13202214Y-12470967D01*
X13278405Y-12670967D02*
X13287928Y-12661443D01*
X13306976Y-12632871D01*
X13316500Y-12613824D01*
X13326024Y-12585252D01*
X13335548Y-12537633D01*
X13335548Y-12499538D01*
X13326024Y-12451919D01*
X13316500Y-12423348D01*
X13306976Y-12404300D01*
X13287928Y-12375728D01*
X13278405Y-12366205D01*
X13640309Y-12670967D02*
X13630786Y-12661443D01*
X13611738Y-12632871D01*
X13602214Y-12613824D01*
X13592690Y-12585252D01*
X13583167Y-12537633D01*
X13583167Y-12499538D01*
X13592690Y-12451919D01*
X13602214Y-12423348D01*
X13611738Y-12404300D01*
X13630786Y-12375728D01*
X13640309Y-12366205D01*
X13716500Y-12461443D02*
X13716500Y-12594776D01*
X13716500Y-12480490D02*
X13726024Y-12470967D01*
X13745071Y-12461443D01*
X13773643Y-12461443D01*
X13792690Y-12470967D01*
X13802214Y-12490014D01*
X13802214Y-12594776D01*
X13926024Y-12594776D02*
X13906976Y-12585252D01*
X13897452Y-12575728D01*
X13887928Y-12556681D01*
X13887928Y-12499538D01*
X13897452Y-12480490D01*
X13906976Y-12470967D01*
X13926024Y-12461443D01*
X13954595Y-12461443D01*
X13973643Y-12470967D01*
X13983167Y-12480490D01*
X13992690Y-12499538D01*
X13992690Y-12556681D01*
X13983167Y-12575728D01*
X13973643Y-12585252D01*
X13954595Y-12594776D01*
X13926024Y-12594776D01*
X14049833Y-12461443D02*
X14126024Y-12461443D01*
X14078405Y-12394776D02*
X14078405Y-12566205D01*
X14087928Y-12585252D01*
X14106976Y-12594776D01*
X14126024Y-12594776D01*
X14345071Y-12461443D02*
X14345071Y-12661443D01*
X14345071Y-12470967D02*
X14364119Y-12461443D01*
X14402214Y-12461443D01*
X14421262Y-12470967D01*
X14430786Y-12480490D01*
X14440309Y-12499538D01*
X14440309Y-12556681D01*
X14430786Y-12575728D01*
X14421262Y-12585252D01*
X14402214Y-12594776D01*
X14364119Y-12594776D01*
X14345071Y-12585252D01*
X14554595Y-12594776D02*
X14535548Y-12585252D01*
X14526024Y-12566205D01*
X14526024Y-12394776D01*
X14716500Y-12594776D02*
X14716500Y-12490014D01*
X14706976Y-12470967D01*
X14687928Y-12461443D01*
X14649833Y-12461443D01*
X14630786Y-12470967D01*
X14716500Y-12585252D02*
X14697452Y-12594776D01*
X14649833Y-12594776D01*
X14630786Y-12585252D01*
X14621262Y-12566205D01*
X14621262Y-12547157D01*
X14630786Y-12528109D01*
X14649833Y-12518586D01*
X14697452Y-12518586D01*
X14716500Y-12509062D01*
X14783167Y-12461443D02*
X14859357Y-12461443D01*
X14811738Y-12394776D02*
X14811738Y-12566205D01*
X14821262Y-12585252D01*
X14840309Y-12594776D01*
X14859357Y-12594776D01*
X15002214Y-12585252D02*
X14983167Y-12594776D01*
X14945071Y-12594776D01*
X14926024Y-12585252D01*
X14916500Y-12566205D01*
X14916500Y-12490014D01*
X14926024Y-12470967D01*
X14945071Y-12461443D01*
X14983167Y-12461443D01*
X15002214Y-12470967D01*
X15011738Y-12490014D01*
X15011738Y-12509062D01*
X14916500Y-12528109D01*
X15183167Y-12594776D02*
X15183167Y-12394776D01*
X15183167Y-12585252D02*
X15164119Y-12594776D01*
X15126024Y-12594776D01*
X15106976Y-12585252D01*
X15097452Y-12575728D01*
X15087928Y-12556681D01*
X15087928Y-12499538D01*
X15097452Y-12480490D01*
X15106976Y-12470967D01*
X15126024Y-12461443D01*
X15164119Y-12461443D01*
X15183167Y-12470967D01*
X15259357Y-12670967D02*
X15268881Y-12661443D01*
X15287928Y-12632871D01*
X15297452Y-12613824D01*
X15306976Y-12585252D01*
X15316500Y-12537633D01*
X15316500Y-12499538D01*
X15306976Y-12451919D01*
X15297452Y-12423348D01*
X15287928Y-12404300D01*
X15268881Y-12375728D01*
X15259357Y-12366205D01*
M02*
