G04 #@! TF.GenerationSoftware,KiCad,Pcbnew,(5.1.5)-3*
G04 #@! TF.CreationDate,2020-07-01T21:27:04+01:00*
G04 #@! TF.ProjectId,msx_eeprom,6d73785f-6565-4707-926f-6d2e6b696361,rev?*
G04 #@! TF.SameCoordinates,Original*
G04 #@! TF.FileFunction,Copper,L1,Top*
G04 #@! TF.FilePolarity,Positive*
%FSLAX46Y46*%
G04 Gerber Fmt 4.6, Leading zero omitted, Abs format (unit mm)*
G04 Created by KiCad (PCBNEW (5.1.5)-3) date 2020-07-01 21:27:04*
%MOMM*%
%LPD*%
G04 APERTURE LIST*
%ADD10C,0.300000*%
%ADD11O,1.700000X1.700000*%
%ADD12R,1.700000X1.700000*%
%ADD13R,1.998980X1.998980*%
%ADD14R,1.800000X8.000000*%
%ADD15R,1.800000X7.000000*%
%ADD16R,1.676400X1.676400*%
%ADD17C,1.676400*%
%ADD18C,1.600000*%
%ADD19C,0.800000*%
%ADD20C,0.250000*%
G04 APERTURE END LIST*
D10*
X178014725Y-82659611D02*
X177514725Y-81945325D01*
X177157582Y-82659611D02*
X177157582Y-81159611D01*
X177729011Y-81159611D01*
X177871868Y-81231040D01*
X177943297Y-81302468D01*
X178014725Y-81445325D01*
X178014725Y-81659611D01*
X177943297Y-81802468D01*
X177871868Y-81873897D01*
X177729011Y-81945325D01*
X177157582Y-81945325D01*
X179229011Y-82588182D02*
X179086154Y-82659611D01*
X178800440Y-82659611D01*
X178657582Y-82588182D01*
X178586154Y-82445325D01*
X178586154Y-81873897D01*
X178657582Y-81731040D01*
X178800440Y-81659611D01*
X179086154Y-81659611D01*
X179229011Y-81731040D01*
X179300440Y-81873897D01*
X179300440Y-82016754D01*
X178586154Y-82159611D01*
X179800440Y-81659611D02*
X180157582Y-82659611D01*
X180514725Y-81659611D01*
X183014725Y-82659611D02*
X182157582Y-82659611D01*
X182586154Y-82659611D02*
X182586154Y-81159611D01*
X182443297Y-81373897D01*
X182300440Y-81516754D01*
X182157582Y-81588182D01*
X179466942Y-170246431D02*
X178966942Y-169532145D01*
X178609800Y-170246431D02*
X178609800Y-168746431D01*
X179181228Y-168746431D01*
X179324085Y-168817860D01*
X179395514Y-168889288D01*
X179466942Y-169032145D01*
X179466942Y-169246431D01*
X179395514Y-169389288D01*
X179324085Y-169460717D01*
X179181228Y-169532145D01*
X178609800Y-169532145D01*
X180324085Y-170246431D02*
X180181228Y-170175002D01*
X180109800Y-170103574D01*
X180038371Y-169960717D01*
X180038371Y-169532145D01*
X180109800Y-169389288D01*
X180181228Y-169317860D01*
X180324085Y-169246431D01*
X180538371Y-169246431D01*
X180681228Y-169317860D01*
X180752657Y-169389288D01*
X180824085Y-169532145D01*
X180824085Y-169960717D01*
X180752657Y-170103574D01*
X180681228Y-170175002D01*
X180538371Y-170246431D01*
X180324085Y-170246431D01*
X181466942Y-169246431D02*
X181466942Y-170246431D01*
X181466942Y-169389288D02*
X181538371Y-169317860D01*
X181681228Y-169246431D01*
X181895514Y-169246431D01*
X182038371Y-169317860D01*
X182109800Y-169460717D01*
X182109800Y-170246431D01*
X182824085Y-170246431D02*
X182824085Y-169246431D01*
X182824085Y-168746431D02*
X182752657Y-168817860D01*
X182824085Y-168889288D01*
X182895514Y-168817860D01*
X182824085Y-168746431D01*
X182824085Y-168889288D01*
X183395514Y-169246431D02*
X183752657Y-170246431D01*
X184109800Y-169246431D01*
X184895514Y-170246431D02*
X184752657Y-170175002D01*
X184681228Y-170103574D01*
X184609800Y-169960717D01*
X184609800Y-169532145D01*
X184681228Y-169389288D01*
X184752657Y-169317860D01*
X184895514Y-169246431D01*
X185109800Y-169246431D01*
X185252657Y-169317860D01*
X185324085Y-169389288D01*
X185395514Y-169532145D01*
X185395514Y-169960717D01*
X185324085Y-170103574D01*
X185252657Y-170175002D01*
X185109800Y-170246431D01*
X184895514Y-170246431D01*
X186038371Y-169246431D02*
X186038371Y-170246431D01*
X186038371Y-169389288D02*
X186109800Y-169317860D01*
X186252657Y-169246431D01*
X186466942Y-169246431D01*
X186609800Y-169317860D01*
X186681228Y-169460717D01*
X186681228Y-170246431D01*
X189395514Y-170103574D02*
X189324085Y-170175002D01*
X189109800Y-170246431D01*
X188966942Y-170246431D01*
X188752657Y-170175002D01*
X188609800Y-170032145D01*
X188538371Y-169889288D01*
X188466942Y-169603574D01*
X188466942Y-169389288D01*
X188538371Y-169103574D01*
X188609800Y-168960717D01*
X188752657Y-168817860D01*
X188966942Y-168746431D01*
X189109800Y-168746431D01*
X189324085Y-168817860D01*
X189395514Y-168889288D01*
X190252657Y-170246431D02*
X190109800Y-170175002D01*
X190038371Y-170103574D01*
X189966942Y-169960717D01*
X189966942Y-169532145D01*
X190038371Y-169389288D01*
X190109800Y-169317860D01*
X190252657Y-169246431D01*
X190466942Y-169246431D01*
X190609800Y-169317860D01*
X190681228Y-169389288D01*
X190752657Y-169532145D01*
X190752657Y-169960717D01*
X190681228Y-170103574D01*
X190609800Y-170175002D01*
X190466942Y-170246431D01*
X190252657Y-170246431D01*
X191324085Y-170175002D02*
X191466942Y-170246431D01*
X191752657Y-170246431D01*
X191895514Y-170175002D01*
X191966942Y-170032145D01*
X191966942Y-169960717D01*
X191895514Y-169817860D01*
X191752657Y-169746431D01*
X191538371Y-169746431D01*
X191395514Y-169675002D01*
X191324085Y-169532145D01*
X191324085Y-169460717D01*
X191395514Y-169317860D01*
X191538371Y-169246431D01*
X191752657Y-169246431D01*
X191895514Y-169317860D01*
X192395514Y-169246431D02*
X192966942Y-169246431D01*
X192609800Y-168746431D02*
X192609800Y-170032145D01*
X192681228Y-170175002D01*
X192824085Y-170246431D01*
X192966942Y-170246431D01*
X194109800Y-170246431D02*
X194109800Y-169460717D01*
X194038371Y-169317860D01*
X193895514Y-169246431D01*
X193609800Y-169246431D01*
X193466942Y-169317860D01*
X194109800Y-170175002D02*
X193966942Y-170246431D01*
X193609800Y-170246431D01*
X193466942Y-170175002D01*
X193395514Y-170032145D01*
X193395514Y-169889288D01*
X193466942Y-169746431D01*
X193609800Y-169675002D01*
X193966942Y-169675002D01*
X194109800Y-169603574D01*
X187617188Y-190342911D02*
X187617188Y-188842911D01*
X188117188Y-189914340D01*
X188617188Y-188842911D01*
X188617188Y-190342911D01*
X189260045Y-190271482D02*
X189474331Y-190342911D01*
X189831474Y-190342911D01*
X189974331Y-190271482D01*
X190045760Y-190200054D01*
X190117188Y-190057197D01*
X190117188Y-189914340D01*
X190045760Y-189771482D01*
X189974331Y-189700054D01*
X189831474Y-189628625D01*
X189545760Y-189557197D01*
X189402902Y-189485768D01*
X189331474Y-189414340D01*
X189260045Y-189271482D01*
X189260045Y-189128625D01*
X189331474Y-188985768D01*
X189402902Y-188914340D01*
X189545760Y-188842911D01*
X189902902Y-188842911D01*
X190117188Y-188914340D01*
X190617188Y-188842911D02*
X191617188Y-190342911D01*
X191617188Y-188842911D02*
X190617188Y-190342911D01*
X193331474Y-189557197D02*
X193831474Y-189557197D01*
X194045760Y-190342911D02*
X193331474Y-190342911D01*
X193331474Y-188842911D01*
X194045760Y-188842911D01*
X194688617Y-189557197D02*
X195188617Y-189557197D01*
X195402902Y-190342911D02*
X194688617Y-190342911D01*
X194688617Y-188842911D01*
X195402902Y-188842911D01*
X196045760Y-190342911D02*
X196045760Y-188842911D01*
X196617188Y-188842911D01*
X196760045Y-188914340D01*
X196831474Y-188985768D01*
X196902902Y-189128625D01*
X196902902Y-189342911D01*
X196831474Y-189485768D01*
X196760045Y-189557197D01*
X196617188Y-189628625D01*
X196045760Y-189628625D01*
X198402902Y-190342911D02*
X197902902Y-189628625D01*
X197545760Y-190342911D02*
X197545760Y-188842911D01*
X198117188Y-188842911D01*
X198260045Y-188914340D01*
X198331474Y-188985768D01*
X198402902Y-189128625D01*
X198402902Y-189342911D01*
X198331474Y-189485768D01*
X198260045Y-189557197D01*
X198117188Y-189628625D01*
X197545760Y-189628625D01*
X199331474Y-188842911D02*
X199617188Y-188842911D01*
X199760045Y-188914340D01*
X199902902Y-189057197D01*
X199974331Y-189342911D01*
X199974331Y-189842911D01*
X199902902Y-190128625D01*
X199760045Y-190271482D01*
X199617188Y-190342911D01*
X199331474Y-190342911D01*
X199188617Y-190271482D01*
X199045760Y-190128625D01*
X198974331Y-189842911D01*
X198974331Y-189342911D01*
X199045760Y-189057197D01*
X199188617Y-188914340D01*
X199331474Y-188842911D01*
X200617188Y-190342911D02*
X200617188Y-188842911D01*
X201117188Y-189914340D01*
X201617188Y-188842911D01*
X201617188Y-190342911D01*
X203474331Y-190342911D02*
X203474331Y-188842911D01*
X204045760Y-188842911D01*
X204188617Y-188914340D01*
X204260045Y-188985768D01*
X204331474Y-189128625D01*
X204331474Y-189342911D01*
X204260045Y-189485768D01*
X204188617Y-189557197D01*
X204045760Y-189628625D01*
X203474331Y-189628625D01*
X204974331Y-190342911D02*
X204974331Y-189342911D01*
X204974331Y-189628625D02*
X205045760Y-189485768D01*
X205117188Y-189414340D01*
X205260045Y-189342911D01*
X205402902Y-189342911D01*
X206117188Y-190342911D02*
X205974331Y-190271482D01*
X205902902Y-190200054D01*
X205831474Y-190057197D01*
X205831474Y-189628625D01*
X205902902Y-189485768D01*
X205974331Y-189414340D01*
X206117188Y-189342911D01*
X206331474Y-189342911D01*
X206474331Y-189414340D01*
X206545760Y-189485768D01*
X206617188Y-189628625D01*
X206617188Y-190057197D01*
X206545760Y-190200054D01*
X206474331Y-190271482D01*
X206331474Y-190342911D01*
X206117188Y-190342911D01*
X207902902Y-189342911D02*
X207902902Y-190557197D01*
X207831474Y-190700054D01*
X207760045Y-190771482D01*
X207617188Y-190842911D01*
X207402902Y-190842911D01*
X207260045Y-190771482D01*
X207902902Y-190271482D02*
X207760045Y-190342911D01*
X207474331Y-190342911D01*
X207331474Y-190271482D01*
X207260045Y-190200054D01*
X207188617Y-190057197D01*
X207188617Y-189628625D01*
X207260045Y-189485768D01*
X207331474Y-189414340D01*
X207474331Y-189342911D01*
X207760045Y-189342911D01*
X207902902Y-189414340D01*
X208617188Y-190342911D02*
X208617188Y-189342911D01*
X208617188Y-189628625D02*
X208688617Y-189485768D01*
X208760045Y-189414340D01*
X208902902Y-189342911D01*
X209045760Y-189342911D01*
X210188617Y-190342911D02*
X210188617Y-189557197D01*
X210117188Y-189414340D01*
X209974331Y-189342911D01*
X209688617Y-189342911D01*
X209545760Y-189414340D01*
X210188617Y-190271482D02*
X210045760Y-190342911D01*
X209688617Y-190342911D01*
X209545760Y-190271482D01*
X209474331Y-190128625D01*
X209474331Y-189985768D01*
X209545760Y-189842911D01*
X209688617Y-189771482D01*
X210045760Y-189771482D01*
X210188617Y-189700054D01*
X210902902Y-190342911D02*
X210902902Y-189342911D01*
X210902902Y-189485768D02*
X210974331Y-189414340D01*
X211117188Y-189342911D01*
X211331474Y-189342911D01*
X211474331Y-189414340D01*
X211545760Y-189557197D01*
X211545760Y-190342911D01*
X211545760Y-189557197D02*
X211617188Y-189414340D01*
X211760045Y-189342911D01*
X211974331Y-189342911D01*
X212117188Y-189414340D01*
X212188617Y-189557197D01*
X212188617Y-190342911D01*
X213545760Y-190342911D02*
X213545760Y-189557197D01*
X213474331Y-189414340D01*
X213331474Y-189342911D01*
X213045760Y-189342911D01*
X212902902Y-189414340D01*
X213545760Y-190271482D02*
X213402902Y-190342911D01*
X213045760Y-190342911D01*
X212902902Y-190271482D01*
X212831474Y-190128625D01*
X212831474Y-189985768D01*
X212902902Y-189842911D01*
X213045760Y-189771482D01*
X213402902Y-189771482D01*
X213545760Y-189700054D01*
X214260045Y-190342911D02*
X214260045Y-188842911D01*
X214260045Y-189414340D02*
X214402902Y-189342911D01*
X214688617Y-189342911D01*
X214831474Y-189414340D01*
X214902902Y-189485768D01*
X214974331Y-189628625D01*
X214974331Y-190057197D01*
X214902902Y-190200054D01*
X214831474Y-190271482D01*
X214688617Y-190342911D01*
X214402902Y-190342911D01*
X214260045Y-190271482D01*
X215831474Y-190342911D02*
X215688617Y-190271482D01*
X215617188Y-190128625D01*
X215617188Y-188842911D01*
X216974331Y-190271482D02*
X216831474Y-190342911D01*
X216545760Y-190342911D01*
X216402902Y-190271482D01*
X216331474Y-190128625D01*
X216331474Y-189557197D01*
X216402902Y-189414340D01*
X216545760Y-189342911D01*
X216831474Y-189342911D01*
X216974331Y-189414340D01*
X217045760Y-189557197D01*
X217045760Y-189700054D01*
X216331474Y-189842911D01*
X207406480Y-192346188D02*
X207477908Y-192274760D01*
X207620765Y-192203331D01*
X207977908Y-192203331D01*
X208120765Y-192274760D01*
X208192194Y-192346188D01*
X208263622Y-192489045D01*
X208263622Y-192631902D01*
X208192194Y-192846188D01*
X207335051Y-193703331D01*
X208263622Y-193703331D01*
X208763622Y-192203331D02*
X209692194Y-192203331D01*
X209192194Y-192774760D01*
X209406480Y-192774760D01*
X209549337Y-192846188D01*
X209620765Y-192917617D01*
X209692194Y-193060474D01*
X209692194Y-193417617D01*
X209620765Y-193560474D01*
X209549337Y-193631902D01*
X209406480Y-193703331D01*
X208977908Y-193703331D01*
X208835051Y-193631902D01*
X208763622Y-193560474D01*
X211406480Y-192131902D02*
X210120765Y-194060474D01*
X212192194Y-192203331D02*
X212335051Y-192203331D01*
X212477908Y-192274760D01*
X212549337Y-192346188D01*
X212620765Y-192489045D01*
X212692194Y-192774760D01*
X212692194Y-193131902D01*
X212620765Y-193417617D01*
X212549337Y-193560474D01*
X212477908Y-193631902D01*
X212335051Y-193703331D01*
X212192194Y-193703331D01*
X212049337Y-193631902D01*
X211977908Y-193560474D01*
X211906480Y-193417617D01*
X211835051Y-193131902D01*
X211835051Y-192774760D01*
X211906480Y-192489045D01*
X211977908Y-192346188D01*
X212049337Y-192274760D01*
X212192194Y-192203331D01*
X213977908Y-192203331D02*
X213692194Y-192203331D01*
X213549337Y-192274760D01*
X213477908Y-192346188D01*
X213335051Y-192560474D01*
X213263622Y-192846188D01*
X213263622Y-193417617D01*
X213335051Y-193560474D01*
X213406480Y-193631902D01*
X213549337Y-193703331D01*
X213835051Y-193703331D01*
X213977908Y-193631902D01*
X214049337Y-193560474D01*
X214120765Y-193417617D01*
X214120765Y-193060474D01*
X214049337Y-192917617D01*
X213977908Y-192846188D01*
X213835051Y-192774760D01*
X213549337Y-192774760D01*
X213406480Y-192846188D01*
X213335051Y-192917617D01*
X213263622Y-193060474D01*
X215835051Y-192131902D02*
X214549337Y-194060474D01*
X216263622Y-192346188D02*
X216335051Y-192274760D01*
X216477908Y-192203331D01*
X216835051Y-192203331D01*
X216977908Y-192274760D01*
X217049337Y-192346188D01*
X217120765Y-192489045D01*
X217120765Y-192631902D01*
X217049337Y-192846188D01*
X216192194Y-193703331D01*
X217120765Y-193703331D01*
X218049337Y-192203331D02*
X218192194Y-192203331D01*
X218335051Y-192274760D01*
X218406480Y-192346188D01*
X218477908Y-192489045D01*
X218549337Y-192774760D01*
X218549337Y-193131902D01*
X218477908Y-193417617D01*
X218406480Y-193560474D01*
X218335051Y-193631902D01*
X218192194Y-193703331D01*
X218049337Y-193703331D01*
X217906480Y-193631902D01*
X217835051Y-193560474D01*
X217763622Y-193417617D01*
X217692194Y-193131902D01*
X217692194Y-192774760D01*
X217763622Y-192489045D01*
X217835051Y-192346188D01*
X217906480Y-192274760D01*
X218049337Y-192203331D01*
X219120765Y-192346188D02*
X219192194Y-192274760D01*
X219335051Y-192203331D01*
X219692194Y-192203331D01*
X219835051Y-192274760D01*
X219906480Y-192346188D01*
X219977908Y-192489045D01*
X219977908Y-192631902D01*
X219906480Y-192846188D01*
X219049337Y-193703331D01*
X219977908Y-193703331D01*
X220906480Y-192203331D02*
X221049337Y-192203331D01*
X221192194Y-192274760D01*
X221263622Y-192346188D01*
X221335051Y-192489045D01*
X221406480Y-192774760D01*
X221406480Y-193131902D01*
X221335051Y-193417617D01*
X221263622Y-193560474D01*
X221192194Y-193631902D01*
X221049337Y-193703331D01*
X220906480Y-193703331D01*
X220763622Y-193631902D01*
X220692194Y-193560474D01*
X220620765Y-193417617D01*
X220549337Y-193131902D01*
X220549337Y-192774760D01*
X220620765Y-192489045D01*
X220692194Y-192346188D01*
X220763622Y-192274760D01*
X220906480Y-192203331D01*
X95975634Y-82334491D02*
X95475634Y-81620205D01*
X95118491Y-82334491D02*
X95118491Y-80834491D01*
X95689920Y-80834491D01*
X95832777Y-80905920D01*
X95904205Y-80977348D01*
X95975634Y-81120205D01*
X95975634Y-81334491D01*
X95904205Y-81477348D01*
X95832777Y-81548777D01*
X95689920Y-81620205D01*
X95118491Y-81620205D01*
X97475634Y-82191634D02*
X97404205Y-82263062D01*
X97189920Y-82334491D01*
X97047062Y-82334491D01*
X96832777Y-82263062D01*
X96689920Y-82120205D01*
X96618491Y-81977348D01*
X96547062Y-81691634D01*
X96547062Y-81477348D01*
X96618491Y-81191634D01*
X96689920Y-81048777D01*
X96832777Y-80905920D01*
X97047062Y-80834491D01*
X97189920Y-80834491D01*
X97404205Y-80905920D01*
X97475634Y-80977348D01*
X99189920Y-80977348D02*
X99261348Y-80905920D01*
X99404205Y-80834491D01*
X99761348Y-80834491D01*
X99904205Y-80905920D01*
X99975634Y-80977348D01*
X100047062Y-81120205D01*
X100047062Y-81263062D01*
X99975634Y-81477348D01*
X99118491Y-82334491D01*
X100047062Y-82334491D01*
X100975634Y-80834491D02*
X101118491Y-80834491D01*
X101261348Y-80905920D01*
X101332777Y-80977348D01*
X101404205Y-81120205D01*
X101475634Y-81405920D01*
X101475634Y-81763062D01*
X101404205Y-82048777D01*
X101332777Y-82191634D01*
X101261348Y-82263062D01*
X101118491Y-82334491D01*
X100975634Y-82334491D01*
X100832777Y-82263062D01*
X100761348Y-82191634D01*
X100689920Y-82048777D01*
X100618491Y-81763062D01*
X100618491Y-81405920D01*
X100689920Y-81120205D01*
X100761348Y-80977348D01*
X100832777Y-80905920D01*
X100975634Y-80834491D01*
X102047062Y-80977348D02*
X102118491Y-80905920D01*
X102261348Y-80834491D01*
X102618491Y-80834491D01*
X102761348Y-80905920D01*
X102832777Y-80977348D01*
X102904205Y-81120205D01*
X102904205Y-81263062D01*
X102832777Y-81477348D01*
X101975634Y-82334491D01*
X102904205Y-82334491D01*
X103832777Y-80834491D02*
X103975634Y-80834491D01*
X104118491Y-80905920D01*
X104189920Y-80977348D01*
X104261348Y-81120205D01*
X104332777Y-81405920D01*
X104332777Y-81763062D01*
X104261348Y-82048777D01*
X104189920Y-82191634D01*
X104118491Y-82263062D01*
X103975634Y-82334491D01*
X103832777Y-82334491D01*
X103689920Y-82263062D01*
X103618491Y-82191634D01*
X103547062Y-82048777D01*
X103475634Y-81763062D01*
X103475634Y-81405920D01*
X103547062Y-81120205D01*
X103618491Y-80977348D01*
X103689920Y-80905920D01*
X103832777Y-80834491D01*
D11*
X168955720Y-70909180D03*
X166415720Y-70909180D03*
X168955720Y-68369180D03*
X166415720Y-68369180D03*
X168955720Y-65829180D03*
X166415720Y-65829180D03*
X168955720Y-63289180D03*
X166415720Y-63289180D03*
X168955720Y-60749180D03*
X166415720Y-60749180D03*
X168955720Y-58209180D03*
X166415720Y-58209180D03*
X168955720Y-55669180D03*
D12*
X166415720Y-55669180D03*
D13*
X96917680Y-70383580D03*
X99457680Y-70383580D03*
X96917680Y-67843580D03*
X99457680Y-67843580D03*
X104537680Y-67833420D03*
X101997680Y-67833420D03*
X104537680Y-70373420D03*
X101997680Y-70373420D03*
X104563080Y-72893100D03*
X102023080Y-72893100D03*
X104563080Y-75433100D03*
X102023080Y-75433100D03*
X96943080Y-75443260D03*
X99483080Y-75443260D03*
X96943080Y-72903260D03*
X99483080Y-72903260D03*
X107050840Y-55118000D03*
X109590840Y-55118000D03*
X107050840Y-52578000D03*
X109590840Y-52578000D03*
X94391480Y-52532280D03*
X91851480Y-52532280D03*
X94391480Y-55072280D03*
X91851480Y-55072280D03*
X104495600Y-52552600D03*
X101955600Y-52552600D03*
X104495600Y-55092600D03*
X101955600Y-55092600D03*
X101935280Y-60157360D03*
X104475280Y-60157360D03*
X101935280Y-57617360D03*
X104475280Y-57617360D03*
X109570520Y-57642760D03*
X107030520Y-57642760D03*
X109570520Y-60182760D03*
X107030520Y-60182760D03*
X91831160Y-60137040D03*
X94371160Y-60137040D03*
X91831160Y-57597040D03*
X94371160Y-57597040D03*
X86771480Y-55082440D03*
X89311480Y-55082440D03*
X86771480Y-52542440D03*
X89311480Y-52542440D03*
X99415600Y-57597040D03*
X96875600Y-57597040D03*
X99415600Y-60137040D03*
X96875600Y-60137040D03*
X89291160Y-57607200D03*
X86751160Y-57607200D03*
X89291160Y-60147200D03*
X86751160Y-60147200D03*
X96895920Y-55072280D03*
X99435920Y-55072280D03*
X96895920Y-52532280D03*
X99435920Y-52532280D03*
X109595920Y-62702440D03*
X107055920Y-62702440D03*
X109595920Y-65242440D03*
X107055920Y-65242440D03*
X91856560Y-65196720D03*
X94396560Y-65196720D03*
X91856560Y-62656720D03*
X94396560Y-62656720D03*
X101960680Y-65217040D03*
X104500680Y-65217040D03*
X101960680Y-62677040D03*
X104500680Y-62677040D03*
X99441000Y-62656720D03*
X96901000Y-62656720D03*
X99441000Y-65196720D03*
X96901000Y-65196720D03*
X89316560Y-62666880D03*
X86776560Y-62666880D03*
X89316560Y-65206880D03*
X86776560Y-65206880D03*
X119735600Y-32410400D03*
X117195600Y-32410400D03*
X119735600Y-34950400D03*
X117195600Y-34950400D03*
X157647640Y-34975800D03*
X160187640Y-34975800D03*
X157647640Y-32435800D03*
X160187640Y-32435800D03*
X127320040Y-34930080D03*
X129860040Y-34930080D03*
X127320040Y-32390080D03*
X129860040Y-32390080D03*
X175331120Y-32466280D03*
X172791120Y-32466280D03*
X175331120Y-35006280D03*
X172791120Y-35006280D03*
X134919720Y-32410400D03*
X132379720Y-32410400D03*
X134919720Y-34950400D03*
X132379720Y-34950400D03*
X109631480Y-32390080D03*
X107091480Y-32390080D03*
X109631480Y-34930080D03*
X107091480Y-34930080D03*
X124815600Y-32390080D03*
X122275600Y-32390080D03*
X124815600Y-34930080D03*
X122275600Y-34930080D03*
X91892120Y-34884360D03*
X94432120Y-34884360D03*
X91892120Y-32344360D03*
X94432120Y-32344360D03*
X167746680Y-35006280D03*
X170286680Y-35006280D03*
X167746680Y-32466280D03*
X170286680Y-32466280D03*
X101996240Y-34904680D03*
X104536240Y-34904680D03*
X101996240Y-32364680D03*
X104536240Y-32364680D03*
X112135920Y-34930080D03*
X114675920Y-34930080D03*
X112135920Y-32390080D03*
X114675920Y-32390080D03*
X145018760Y-32410400D03*
X142478760Y-32410400D03*
X145018760Y-34950400D03*
X142478760Y-34950400D03*
X177850800Y-35026600D03*
X180390800Y-35026600D03*
X177850800Y-32486600D03*
X180390800Y-32486600D03*
X165247320Y-32456120D03*
X162707320Y-32456120D03*
X165247320Y-34996120D03*
X162707320Y-34996120D03*
X137434320Y-34950400D03*
X139974320Y-34950400D03*
X137434320Y-32410400D03*
X139974320Y-32410400D03*
X147538440Y-34970720D03*
X150078440Y-34970720D03*
X147538440Y-32430720D03*
X150078440Y-32430720D03*
X99476560Y-32344360D03*
X96936560Y-32344360D03*
X99476560Y-34884360D03*
X96936560Y-34884360D03*
X122255280Y-39994840D03*
X124795280Y-39994840D03*
X122255280Y-37454840D03*
X124795280Y-37454840D03*
X89352120Y-32354520D03*
X86812120Y-32354520D03*
X89352120Y-34894520D03*
X86812120Y-34894520D03*
X155143200Y-32435800D03*
X152603200Y-32435800D03*
X155143200Y-34975800D03*
X152603200Y-34975800D03*
X132359400Y-40015160D03*
X134899400Y-40015160D03*
X132359400Y-37475160D03*
X134899400Y-37475160D03*
X129839720Y-37454840D03*
X127299720Y-37454840D03*
X129839720Y-39994840D03*
X127299720Y-39994840D03*
X172770800Y-40071040D03*
X175310800Y-40071040D03*
X172770800Y-37531040D03*
X175310800Y-37531040D03*
X94411800Y-37409120D03*
X91871800Y-37409120D03*
X94411800Y-39949120D03*
X91871800Y-39949120D03*
X104515920Y-37429440D03*
X101975920Y-37429440D03*
X104515920Y-39969440D03*
X101975920Y-39969440D03*
X114655600Y-37454840D03*
X112115600Y-37454840D03*
X114655600Y-39994840D03*
X112115600Y-39994840D03*
X107071160Y-39994840D03*
X109611160Y-39994840D03*
X107071160Y-37454840D03*
X109611160Y-37454840D03*
X117175280Y-40015160D03*
X119715280Y-40015160D03*
X117175280Y-37475160D03*
X119715280Y-37475160D03*
X170266360Y-37531040D03*
X167726360Y-37531040D03*
X170266360Y-40071040D03*
X167726360Y-40071040D03*
X180370480Y-37551360D03*
X177830480Y-37551360D03*
X180370480Y-40091360D03*
X177830480Y-40091360D03*
X142458440Y-40015160D03*
X144998440Y-40015160D03*
X142458440Y-37475160D03*
X144998440Y-37475160D03*
X160167320Y-37500560D03*
X157627320Y-37500560D03*
X160167320Y-40040560D03*
X157627320Y-40040560D03*
X152582880Y-40040560D03*
X155122880Y-40040560D03*
X152582880Y-37500560D03*
X155122880Y-37500560D03*
X162687000Y-40060880D03*
X165227000Y-40060880D03*
X162687000Y-37520880D03*
X165227000Y-37520880D03*
X139954000Y-37475160D03*
X137414000Y-37475160D03*
X139954000Y-40015160D03*
X137414000Y-40015160D03*
X150058120Y-37495480D03*
X147518120Y-37495480D03*
X150058120Y-40035480D03*
X147518120Y-40035480D03*
X86791800Y-39959280D03*
X89331800Y-39959280D03*
X86791800Y-37419280D03*
X89331800Y-37419280D03*
X96916240Y-39949120D03*
X99456240Y-39949120D03*
X96916240Y-37409120D03*
X99456240Y-37409120D03*
X122280680Y-45054520D03*
X124820680Y-45054520D03*
X122280680Y-42514520D03*
X124820680Y-42514520D03*
X132384800Y-45074840D03*
X134924800Y-45074840D03*
X132384800Y-42534840D03*
X134924800Y-42534840D03*
X129865120Y-42514520D03*
X127325120Y-42514520D03*
X129865120Y-45054520D03*
X127325120Y-45054520D03*
X172796200Y-45130720D03*
X175336200Y-45130720D03*
X172796200Y-42590720D03*
X175336200Y-42590720D03*
X94437200Y-42468800D03*
X91897200Y-42468800D03*
X94437200Y-45008800D03*
X91897200Y-45008800D03*
X104541320Y-42489120D03*
X102001320Y-42489120D03*
X104541320Y-45029120D03*
X102001320Y-45029120D03*
X114681000Y-42514520D03*
X112141000Y-42514520D03*
X114681000Y-45054520D03*
X112141000Y-45054520D03*
X107096560Y-45054520D03*
X109636560Y-45054520D03*
X107096560Y-42514520D03*
X109636560Y-42514520D03*
X117200680Y-45074840D03*
X119740680Y-45074840D03*
X117200680Y-42534840D03*
X119740680Y-42534840D03*
X170291760Y-42590720D03*
X167751760Y-42590720D03*
X170291760Y-45130720D03*
X167751760Y-45130720D03*
X180395880Y-42611040D03*
X177855880Y-42611040D03*
X180395880Y-45151040D03*
X177855880Y-45151040D03*
X142483840Y-45074840D03*
X145023840Y-45074840D03*
X142483840Y-42534840D03*
X145023840Y-42534840D03*
X160192720Y-42560240D03*
X157652720Y-42560240D03*
X160192720Y-45100240D03*
X157652720Y-45100240D03*
X152608280Y-45100240D03*
X155148280Y-45100240D03*
X152608280Y-42560240D03*
X155148280Y-42560240D03*
X162712400Y-45120560D03*
X165252400Y-45120560D03*
X162712400Y-42580560D03*
X165252400Y-42580560D03*
X139979400Y-42534840D03*
X137439400Y-42534840D03*
X139979400Y-45074840D03*
X137439400Y-45074840D03*
X150083520Y-42555160D03*
X147543520Y-42555160D03*
X150083520Y-45095160D03*
X147543520Y-45095160D03*
X86817200Y-45018960D03*
X89357200Y-45018960D03*
X86817200Y-42478960D03*
X89357200Y-42478960D03*
X96941640Y-45008800D03*
X99481640Y-45008800D03*
X96941640Y-42468800D03*
X99481640Y-42468800D03*
X89336880Y-47543720D03*
X86796880Y-47543720D03*
X89336880Y-50083720D03*
X86796880Y-50083720D03*
X99461320Y-47533560D03*
X96921320Y-47533560D03*
X99461320Y-50073560D03*
X96921320Y-50073560D03*
X91876880Y-50073560D03*
X94416880Y-50073560D03*
X91876880Y-47533560D03*
X94416880Y-47533560D03*
X101981000Y-50093880D03*
X104521000Y-50093880D03*
X101981000Y-47553880D03*
X104521000Y-47553880D03*
X112120680Y-50119280D03*
X114660680Y-50119280D03*
X112120680Y-47579280D03*
X114660680Y-47579280D03*
X109616240Y-47579280D03*
X107076240Y-47579280D03*
X109616240Y-50119280D03*
X107076240Y-50119280D03*
X119720360Y-47599600D03*
X117180360Y-47599600D03*
X119720360Y-50139600D03*
X117180360Y-50139600D03*
X175315880Y-47655480D03*
X172775880Y-47655480D03*
X175315880Y-50195480D03*
X172775880Y-50195480D03*
X167731440Y-50195480D03*
X170271440Y-50195480D03*
X167731440Y-47655480D03*
X170271440Y-47655480D03*
X177835560Y-50215800D03*
X180375560Y-50215800D03*
X177835560Y-47675800D03*
X180375560Y-47675800D03*
X157632400Y-50165000D03*
X160172400Y-50165000D03*
X157632400Y-47625000D03*
X160172400Y-47625000D03*
X155127960Y-47625000D03*
X152587960Y-47625000D03*
X155127960Y-50165000D03*
X152587960Y-50165000D03*
X165232080Y-47645320D03*
X162692080Y-47645320D03*
X165232080Y-50185320D03*
X162692080Y-50185320D03*
X137419080Y-50139600D03*
X139959080Y-50139600D03*
X137419080Y-47599600D03*
X139959080Y-47599600D03*
X147523200Y-50159920D03*
X150063200Y-50159920D03*
X147523200Y-47619920D03*
X150063200Y-47619920D03*
X145003520Y-47599600D03*
X142463520Y-47599600D03*
X145003520Y-50139600D03*
X142463520Y-50139600D03*
X134904480Y-47599600D03*
X132364480Y-47599600D03*
X134904480Y-50139600D03*
X132364480Y-50139600D03*
X127304800Y-50119280D03*
X129844800Y-50119280D03*
X127304800Y-47579280D03*
X129844800Y-47579280D03*
X124800360Y-47579280D03*
X122260360Y-47579280D03*
X124800360Y-50119280D03*
X122260360Y-50119280D03*
D14*
X107939840Y-89507440D03*
X110479840Y-89507440D03*
X113019840Y-89507440D03*
D15*
X115554760Y-89014680D03*
D14*
X118099840Y-89507440D03*
X120639840Y-89507440D03*
X123179840Y-89507440D03*
X125719840Y-89507440D03*
X128259840Y-89507440D03*
X130799840Y-89507440D03*
X133339840Y-89507440D03*
X135879840Y-89507440D03*
X138419840Y-89507440D03*
X140959840Y-89507440D03*
X143499840Y-89507440D03*
X146039840Y-89507440D03*
X148579840Y-89507440D03*
X151119840Y-89507440D03*
X153659840Y-89507440D03*
X156199840Y-89507440D03*
X158739840Y-89507440D03*
X161279840Y-89507440D03*
X163819840Y-89507440D03*
X166359840Y-89507440D03*
X168899840Y-89507440D03*
D16*
X154901900Y-55549800D03*
D17*
X152361900Y-55549800D03*
X149821900Y-55549800D03*
X147281900Y-55549800D03*
X144741900Y-55549800D03*
X142201900Y-55549800D03*
X139661900Y-55549800D03*
X137121900Y-55549800D03*
X134581900Y-55549800D03*
X132041900Y-55549800D03*
X129501900Y-55549800D03*
X126961900Y-55549800D03*
X124421900Y-55549800D03*
X121881900Y-55549800D03*
X121881900Y-70789800D03*
X124421900Y-70789800D03*
X126961900Y-70789800D03*
X129501900Y-70789800D03*
X132041900Y-70789800D03*
X134581900Y-70789800D03*
X137121900Y-70789800D03*
X139661900Y-70789800D03*
X142201900Y-70789800D03*
X144741900Y-70789800D03*
X147281900Y-70789800D03*
X149821900Y-70789800D03*
X152361900Y-70789800D03*
X154901900Y-70789800D03*
D18*
X158305500Y-68264400D03*
X158305500Y-70764400D03*
D19*
X154889200Y-66205100D03*
X130416300Y-59715400D03*
X118097300Y-83883500D03*
X144774920Y-73317100D03*
X147147280Y-65570100D03*
X147147280Y-68688119D03*
X120370600Y-84632800D03*
X142497337Y-78375949D03*
X139288206Y-80050113D03*
X135777390Y-84228090D03*
X143573500Y-75933300D03*
X142594317Y-84907465D03*
X143593294Y-84862225D03*
X145619890Y-80414710D03*
X145927199Y-84804964D03*
X123952000Y-84696300D03*
X125780800Y-77165200D03*
X125780800Y-81991200D03*
X131524850Y-84531200D03*
X143389075Y-79267688D03*
X140271500Y-78041500D03*
X134149001Y-84457429D03*
X152053446Y-74421882D03*
X141593410Y-83856834D03*
X146748500Y-80518000D03*
X146812000Y-79349600D03*
X139763500Y-64236600D03*
X169677080Y-84439760D03*
X156984700Y-76039980D03*
X138518900Y-84518500D03*
X159682180Y-61666120D03*
X156522420Y-73243440D03*
D20*
X158280100Y-70789800D02*
X158305500Y-70764400D01*
X154901900Y-70789800D02*
X158280100Y-70789800D01*
X136996001Y-66295101D02*
X130816299Y-60115399D01*
X154323515Y-66205100D02*
X154233514Y-66295101D01*
X130816299Y-60115399D02*
X130416300Y-59715400D01*
X154889200Y-66205100D02*
X154323515Y-66205100D01*
X154233514Y-66295101D02*
X136996001Y-66295101D01*
X118097300Y-59334400D02*
X121881900Y-55549800D01*
X118097300Y-83883500D02*
X118097300Y-59334400D01*
X147147280Y-65570100D02*
X147712965Y-65570100D01*
X147712965Y-65570100D02*
X148165085Y-65117980D01*
X145905101Y-72186919D02*
X145905101Y-69930298D01*
X146747281Y-69088118D02*
X147147280Y-68688119D01*
X145905101Y-69930298D02*
X146747281Y-69088118D01*
X144774920Y-73317100D02*
X145905101Y-72186919D01*
X164464339Y-65079880D02*
X160545780Y-65079880D01*
X165213639Y-65829180D02*
X164464339Y-65079880D01*
X148165085Y-65117980D02*
X160545780Y-65079880D01*
X160545780Y-65079880D02*
X160825180Y-65117980D01*
X166415720Y-65829180D02*
X165213639Y-65829180D01*
X115554760Y-85264680D02*
X115554760Y-89014680D01*
X113019840Y-85257440D02*
X113568280Y-84709000D01*
X114999080Y-84709000D02*
X115554760Y-85264680D01*
X113568280Y-84709000D02*
X114999080Y-84709000D01*
X113019840Y-89507440D02*
X113019840Y-85257440D01*
X120370600Y-89238200D02*
X120639840Y-89507440D01*
X120370600Y-84632800D02*
X120370600Y-89238200D01*
X124421900Y-70789800D02*
X123179840Y-72031860D01*
X123179840Y-72031860D02*
X123179840Y-89507440D01*
X125719840Y-85257440D02*
X125719840Y-89507440D01*
X128125101Y-82852179D02*
X125719840Y-85257440D01*
X128125101Y-59253001D02*
X128125101Y-82852179D01*
X124421900Y-55549800D02*
X128125101Y-59253001D01*
X128259840Y-85257440D02*
X130665101Y-82852179D01*
X129501900Y-59874004D02*
X129501900Y-56735193D01*
X129501900Y-56735193D02*
X129501900Y-55549800D01*
X130665101Y-82852179D02*
X130665101Y-61037205D01*
X130665101Y-61037205D02*
X129501900Y-59874004D01*
X128259840Y-89507440D02*
X128259840Y-85257440D01*
X142097338Y-77975950D02*
X142497337Y-78375949D01*
X137389587Y-76840511D02*
X140961899Y-76840511D01*
X140961899Y-76840511D02*
X142097338Y-77975950D01*
X130799840Y-89507440D02*
X130799840Y-83430258D01*
X130799840Y-83430258D02*
X137389587Y-76840511D01*
X133339840Y-89507440D02*
X133339840Y-86407440D01*
X138888207Y-80450112D02*
X139288206Y-80050113D01*
X135052388Y-83897022D02*
X138499298Y-80450112D01*
X135052388Y-84694892D02*
X135052388Y-83897022D01*
X133339840Y-86407440D02*
X135052388Y-84694892D01*
X138499298Y-80450112D02*
X138888207Y-80450112D01*
X135879840Y-84330540D02*
X135777390Y-84228090D01*
X135879840Y-89507440D02*
X135879840Y-84330540D01*
X138419840Y-86407440D02*
X138419840Y-89507440D01*
X148983701Y-79527399D02*
X145379267Y-83131833D01*
X149821900Y-70789800D02*
X148983701Y-71627999D01*
X145379267Y-83131833D02*
X138832565Y-83131833D01*
X148983701Y-71627999D02*
X148983701Y-79527399D01*
X138832565Y-83131833D02*
X137269840Y-84694558D01*
X137269840Y-84694558D02*
X137269840Y-85257440D01*
X137269840Y-85257440D02*
X138419840Y-86407440D01*
X147281900Y-70789800D02*
X147281900Y-72224900D01*
X147281900Y-72224900D02*
X143573500Y-75933300D01*
X140959840Y-86407440D02*
X142459815Y-84907465D01*
X142459815Y-84907465D02*
X142594317Y-84907465D01*
X140959840Y-89507440D02*
X140959840Y-86407440D01*
X143499840Y-89507440D02*
X143499840Y-84955679D01*
X143499840Y-84955679D02*
X143593294Y-84862225D01*
X145561417Y-80414710D02*
X145619890Y-80414710D01*
X137121900Y-70789800D02*
X137121900Y-71975193D01*
X137121900Y-71975193D02*
X145561417Y-80414710D01*
X146039840Y-89507440D02*
X146039840Y-84917605D01*
X146039840Y-84917605D02*
X145927199Y-84804964D01*
X123952000Y-73799700D02*
X123952000Y-84130615D01*
X126961900Y-70789800D02*
X123952000Y-73799700D01*
X123952000Y-84130615D02*
X123952000Y-84696300D01*
X125780800Y-77165200D02*
X125780800Y-81991200D01*
X141772335Y-78444716D02*
X141772335Y-78716159D01*
X142323864Y-79267688D02*
X142823390Y-79267688D01*
X141772335Y-78716159D02*
X142323864Y-79267688D01*
X131524850Y-84531200D02*
X138765528Y-77290522D01*
X140618141Y-77290522D02*
X141772335Y-78444716D01*
X142823390Y-79267688D02*
X143389075Y-79267688D01*
X138765528Y-77290522D02*
X140618141Y-77290522D01*
X134149001Y-84163999D02*
X134149001Y-84457429D01*
X140271500Y-78041500D02*
X134149001Y-84163999D01*
X149433712Y-79713799D02*
X145461691Y-83685820D01*
X141764424Y-83685820D02*
X141593410Y-83856834D01*
X145461691Y-83685820D02*
X141764424Y-83685820D01*
X152053446Y-74421882D02*
X149433712Y-77041616D01*
X149433712Y-77041616D02*
X149433712Y-79713799D01*
X143039099Y-77108312D02*
X143338812Y-77108312D01*
X143338812Y-77108312D02*
X146348501Y-80118001D01*
X142201900Y-76271113D02*
X143039099Y-77108312D01*
X142201900Y-70789800D02*
X142201900Y-76271113D01*
X146348501Y-80118001D02*
X146748500Y-80518000D01*
X144120701Y-76658301D02*
X146812000Y-79349600D01*
X142848499Y-76281301D02*
X143225499Y-76658301D01*
X143225499Y-76658301D02*
X144120701Y-76658301D01*
X142848499Y-72683201D02*
X142848499Y-76281301D01*
X144741900Y-70789800D02*
X142848499Y-72683201D01*
X152361900Y-70789800D02*
X156730700Y-66421000D01*
X156730700Y-66421000D02*
X158915100Y-66421000D01*
X168105721Y-64139179D02*
X168955720Y-63289180D01*
X167590721Y-64654179D02*
X168105721Y-64139179D01*
X166979721Y-67004181D02*
X167590721Y-66393181D01*
X167590721Y-66393181D02*
X167590721Y-64654179D01*
X159498281Y-67004181D02*
X166979721Y-67004181D01*
X158915100Y-66421000D02*
X159498281Y-67004181D01*
X168955720Y-56871261D02*
X168955720Y-58209180D01*
X168955720Y-55669180D02*
X168955720Y-56871261D01*
X168955720Y-59411261D02*
X168955720Y-60749180D01*
X168955720Y-58209180D02*
X168955720Y-59411261D01*
X168955720Y-59010178D02*
X166979721Y-57034179D01*
X158649298Y-64236600D02*
X140329185Y-64236600D01*
X140329185Y-64236600D02*
X139763500Y-64236600D01*
X165851719Y-57034179D02*
X158649298Y-64236600D01*
X166979721Y-57034179D02*
X165851719Y-57034179D01*
X168955720Y-60749180D02*
X168955720Y-59010178D01*
X166415720Y-58209180D02*
X167116760Y-58209180D01*
X167297100Y-58209180D02*
X166415720Y-58209180D01*
X167780719Y-58692799D02*
X167297100Y-58209180D01*
X170130721Y-71473181D02*
X170130721Y-71361421D01*
X169519721Y-72084181D02*
X170130721Y-71473181D01*
X169407961Y-72084181D02*
X169519721Y-72084181D01*
X168899840Y-89507440D02*
X168899840Y-72592302D01*
X168899840Y-72592302D02*
X169407961Y-72084181D01*
X170130721Y-71361421D02*
X171269660Y-70222482D01*
X171269660Y-62329060D02*
X170864781Y-61924181D01*
X171269660Y-70222482D02*
X171269660Y-62329060D01*
X168391719Y-61924181D02*
X167780719Y-61313181D01*
X170864781Y-61924181D02*
X168391719Y-61924181D01*
X167780719Y-61313181D02*
X167780719Y-58692799D01*
X171719671Y-81831484D02*
X169677080Y-83874075D01*
X166415720Y-54569180D02*
X166490721Y-54494179D01*
X171719671Y-56694129D02*
X171719671Y-81831484D01*
X169519721Y-54494179D02*
X171719671Y-56694129D01*
X169677080Y-83874075D02*
X169677080Y-84439760D01*
X166415720Y-55669180D02*
X166415720Y-54569180D01*
X166490721Y-54494179D02*
X169519721Y-54494179D01*
X166359840Y-86407440D02*
X166359840Y-89507440D01*
X163121340Y-74203560D02*
X166415720Y-70909180D01*
X163121340Y-82018940D02*
X163121340Y-74203560D01*
X166359840Y-89507440D02*
X166359840Y-85257440D01*
X166359840Y-85257440D02*
X163121340Y-82018940D01*
X148579840Y-89507440D02*
X148579840Y-84444840D01*
X148579840Y-84444840D02*
X156584701Y-76439979D01*
X156584701Y-76439979D02*
X156984700Y-76039980D01*
X154901900Y-56885840D02*
X159682180Y-61666120D01*
X154901900Y-55549800D02*
X154901900Y-56885840D01*
X142340632Y-84135831D02*
X141557964Y-84918499D01*
X138918899Y-84918499D02*
X138518900Y-84518500D01*
X151155400Y-78628522D02*
X145648091Y-84135831D01*
X145648091Y-84135831D02*
X142340632Y-84135831D01*
X141557964Y-84918499D02*
X138918899Y-84918499D01*
X151155400Y-78628522D02*
X151155400Y-78610460D01*
X168955720Y-67167099D02*
X168955720Y-65829180D01*
X168955720Y-68369180D02*
X168955720Y-67167099D01*
X154525980Y-75239880D02*
X156522420Y-73243440D01*
X151155400Y-78610460D02*
X154525980Y-75239880D01*
X154525980Y-75239880D02*
X154663140Y-75102720D01*
X151198699Y-71348137D02*
X151803563Y-71953001D01*
X137408591Y-67963109D02*
X149552989Y-67963109D01*
X149552989Y-67963109D02*
X151198699Y-69608819D01*
X151198699Y-69608819D02*
X151198699Y-71348137D01*
X151803563Y-71953001D02*
X158746457Y-71953001D01*
X134581900Y-70789800D02*
X137408591Y-67963109D01*
X167780719Y-69734179D02*
X168105721Y-70059181D01*
X168105721Y-70059181D02*
X168955720Y-70909180D01*
X160965279Y-69734179D02*
X167780719Y-69734179D01*
X158746457Y-71953001D02*
X160965279Y-69734179D01*
M02*
