%TF.GenerationSoftware,KiCad,Pcbnew,(6.0.7)*%
%TF.CreationDate,2023-01-05T13:14:54+00:00*%
%TF.ProjectId,msx_eeprom,6d73785f-6565-4707-926f-6d2e6b696361,rev?*%
%TF.SameCoordinates,Original*%
%TF.FileFunction,Drillmap*%
%TF.FilePolarity,Positive*%
%FSLAX45Y45*%
G04 Gerber Fmt 4.5, Leading zero omitted, Abs format (unit mm)*
G04 Created by KiCad (PCBNEW (6.0.7)) date 2023-01-05 13:14:54*
%MOMM*%
%LPD*%
G01*
G04 APERTURE LIST*
%ADD10C,0.050000*%
%ADD11C,0.200000*%
%ADD12C,0.040000*%
%ADD13C,0.080000*%
%ADD14C,0.100000*%
%ADD15C,0.111760*%
%ADD16C,0.120000*%
G04 APERTURE END LIST*
D10*
X17393920Y-11811000D02*
X17383760Y-11821160D01*
X10916920Y-11821160D02*
X10911840Y-11816080D01*
X17368520Y-11836400D02*
X17343120Y-11851640D01*
X10896600Y-11780520D02*
X10891520Y-11755120D01*
X9662160Y-10739120D02*
X9662160Y-9646920D01*
X9662160Y-9646920D02*
X8514080Y-9646920D01*
X17404080Y-11755120D02*
X17404080Y-11770360D01*
X10937240Y-11841480D02*
X10916920Y-11821160D01*
X8509000Y-5323840D02*
X18785840Y-5323840D01*
X10891520Y-10749280D02*
X10891520Y-10744200D01*
X10896600Y-11785600D02*
X10896600Y-11780520D01*
X17383760Y-11821160D02*
X17368520Y-11836400D01*
X10891520Y-10744200D02*
X9662160Y-10739120D01*
X10962640Y-11851640D02*
X10937240Y-11841480D01*
X17307560Y-11861800D02*
X10982960Y-11856720D01*
X10906760Y-11805920D02*
X10896600Y-11785600D01*
X17404080Y-10744200D02*
X17404080Y-11755120D01*
X17399000Y-11790680D02*
X17393920Y-11811000D01*
X18785840Y-5323840D02*
X18785840Y-10744200D01*
X18785840Y-10744200D02*
X17404080Y-10744200D01*
X17404080Y-11770360D02*
X17399000Y-11790680D01*
X17343120Y-11851640D02*
X17322800Y-11856720D01*
X17322800Y-11856720D02*
X17307560Y-11861800D01*
X10911840Y-11816080D02*
X10906760Y-11805920D01*
X10891520Y-11755120D02*
X10891520Y-10749280D01*
X8514080Y-9646920D02*
X8509000Y-5323840D01*
X10982960Y-11856720D02*
X10962640Y-11851640D01*
D11*
D12*
X11359200Y-10775000D02*
X11399200Y-10815000D01*
X11399200Y-10775000D02*
X11359200Y-10815000D01*
X12321860Y-10830880D02*
X12361860Y-10870880D01*
X12361860Y-10830880D02*
X12321860Y-10870880D01*
X12682785Y-10837230D02*
X12722785Y-10877230D01*
X12722785Y-10837230D02*
X12682785Y-10877230D01*
X12857800Y-10063800D02*
X12897800Y-10103800D01*
X12897800Y-10063800D02*
X12857800Y-10103800D01*
X12862880Y-10566720D02*
X12902880Y-10606720D01*
X12902880Y-10566720D02*
X12862880Y-10606720D01*
X13467400Y-10724199D02*
X13507400Y-10764199D01*
X13507400Y-10724199D02*
X13467400Y-10764199D01*
X13492800Y-9124000D02*
X13532800Y-9164000D01*
X13532800Y-9124000D02*
X13492800Y-9164000D01*
X13619800Y-10800399D02*
X13659800Y-10840399D01*
X13659800Y-10800399D02*
X13619800Y-10840399D01*
X13872655Y-10800525D02*
X13912655Y-10840525D01*
X13912655Y-10800525D02*
X13872655Y-10840525D01*
X14077000Y-10521000D02*
X14117000Y-10561000D01*
X14117000Y-10521000D02*
X14077000Y-10561000D01*
X14204000Y-10749600D02*
X14244000Y-10789600D01*
X14244000Y-10749600D02*
X14204000Y-10789600D01*
X14232652Y-10411670D02*
X14272652Y-10451670D01*
X14272652Y-10411670D02*
X14232652Y-10451670D01*
X14260000Y-8797500D02*
X14300000Y-8837500D01*
X14300000Y-8797500D02*
X14260000Y-8837500D01*
X14413378Y-10626401D02*
X14453378Y-10666401D01*
X14453378Y-10626401D02*
X14413378Y-10666401D01*
X14458000Y-10190800D02*
X14498000Y-10230800D01*
X14498000Y-10190800D02*
X14458000Y-10230800D01*
X14544184Y-10858346D02*
X14584184Y-10898346D01*
X14584184Y-10858346D02*
X14544184Y-10898346D01*
X14585000Y-10241600D02*
X14625000Y-10281600D01*
X14625000Y-10241600D02*
X14585000Y-10281600D01*
X14644129Y-10855001D02*
X14684129Y-10895001D01*
X14684129Y-10855001D02*
X14644129Y-10895001D01*
X14838991Y-9765931D02*
X14878991Y-9805931D01*
X14878991Y-9765931D02*
X14838991Y-9805931D01*
X14840330Y-10444800D02*
X14880330Y-10484800D01*
X14880330Y-10444800D02*
X14840330Y-10484800D01*
X14874649Y-10853684D02*
X14914649Y-10893684D01*
X14914649Y-10853684D02*
X14874649Y-10893684D01*
X14991400Y-10267000D02*
X15031400Y-10307000D01*
X15031400Y-10267000D02*
X14991400Y-10307000D01*
X15067600Y-10165400D02*
X15107600Y-10205400D01*
X15107600Y-10165400D02*
X15067600Y-10205400D01*
X15677200Y-10368600D02*
X15717200Y-10408600D01*
X15717200Y-10368600D02*
X15677200Y-10408600D01*
X15733783Y-9120648D02*
X15773783Y-9160648D01*
X15773783Y-9120648D02*
X15733783Y-9160648D01*
X15804200Y-9682800D02*
X15844200Y-9722800D01*
X15844200Y-9682800D02*
X15804200Y-9722800D01*
X16315397Y-9886000D02*
X16355397Y-9926000D01*
X16355397Y-9886000D02*
X16315397Y-9926000D01*
X16591600Y-10571800D02*
X16631600Y-10611800D01*
X16631600Y-10571800D02*
X16591600Y-10611800D01*
X17120194Y-6966801D02*
X17160194Y-7006801D01*
X17160194Y-6966801D02*
X17120194Y-7006801D01*
X17633000Y-7041200D02*
X17673000Y-7081200D01*
X17673000Y-7041200D02*
X17633000Y-7081200D01*
D13*
X11804200Y-9144000D02*
G75*
G03*
X11804200Y-9144000I-40000J0D01*
G01*
X12054200Y-9144000D02*
G75*
G03*
X12054200Y-9144000I-40000J0D01*
G01*
X13552800Y-9804400D02*
G75*
G03*
X13552800Y-9804400I-40000J0D01*
G01*
X14314800Y-9804400D02*
G75*
G03*
X14314800Y-9804400I-40000J0D01*
G01*
X15407000Y-9779000D02*
G75*
G03*
X15407000Y-9779000I-40000J0D01*
G01*
X15407000Y-10109200D02*
G75*
G03*
X15407000Y-10109200I-40000J0D01*
G01*
X16169000Y-9779000D02*
G75*
G03*
X16169000Y-9779000I-40000J0D01*
G01*
X16169000Y-10109200D02*
G75*
G03*
X16169000Y-10109200I-40000J0D01*
G01*
X16175350Y-9214040D02*
G75*
G03*
X16175350Y-9214040I-40000J0D01*
G01*
X16175350Y-9464040D02*
G75*
G03*
X16175350Y-9464040I-40000J0D01*
G01*
D14*
X16865600Y-6477800D02*
X16865600Y-6577800D01*
X16815600Y-6527800D02*
X16915600Y-6527800D01*
X16865600Y-6731800D02*
X16865600Y-6831800D01*
X16815600Y-6781800D02*
X16915600Y-6781800D01*
X17119600Y-6477800D02*
X17119600Y-6577800D01*
X17069600Y-6527800D02*
X17169600Y-6527800D01*
X17119600Y-6731800D02*
X17119600Y-6831800D01*
X17069600Y-6781800D02*
X17169600Y-6781800D01*
X17373600Y-6477800D02*
X17373600Y-6577800D01*
X17323600Y-6527800D02*
X17423600Y-6527800D01*
X17373600Y-6731800D02*
X17373600Y-6831800D01*
X17323600Y-6781800D02*
X17423600Y-6781800D01*
X17627600Y-6477800D02*
X17627600Y-6577800D01*
X17577600Y-6527800D02*
X17677600Y-6527800D01*
X17627600Y-6731800D02*
X17627600Y-6831800D01*
X17577600Y-6781800D02*
X17677600Y-6781800D01*
X17881600Y-6477800D02*
X17881600Y-6577800D01*
X17831600Y-6527800D02*
X17931600Y-6527800D01*
X17881600Y-6731800D02*
X17881600Y-6831800D01*
X17831600Y-6781800D02*
X17931600Y-6781800D01*
X18135600Y-6477800D02*
X18135600Y-6577800D01*
X18085600Y-6527800D02*
X18185600Y-6527800D01*
X18135600Y-6731800D02*
X18135600Y-6831800D01*
X18085600Y-6781800D02*
X18185600Y-6781800D01*
X18389600Y-6477800D02*
X18389600Y-6577800D01*
X18339600Y-6527800D02*
X18439600Y-6527800D01*
X18389600Y-6731800D02*
X18389600Y-6831800D01*
X18339600Y-6781800D02*
X18439600Y-6781800D01*
D15*
X12532503Y-7982093D02*
X12532503Y-7903066D01*
X12453476Y-7903066D01*
X12453476Y-7982093D01*
X12532503Y-7982093D01*
X12532503Y-9506094D02*
X12532503Y-9427067D01*
X12453476Y-9427067D01*
X12453476Y-9506094D01*
X12532503Y-9506094D01*
X12786503Y-7982093D02*
X12786503Y-7903066D01*
X12707476Y-7903066D01*
X12707476Y-7982093D01*
X12786503Y-7982093D01*
X12786503Y-9506094D02*
X12786503Y-9427067D01*
X12707476Y-9427067D01*
X12707476Y-9506094D01*
X12786503Y-9506094D01*
X13040503Y-7982093D02*
X13040503Y-7903066D01*
X12961476Y-7903066D01*
X12961476Y-7982093D01*
X13040503Y-7982093D01*
X13040503Y-9506094D02*
X13040503Y-9427067D01*
X12961476Y-9427067D01*
X12961476Y-9506094D01*
X13040503Y-9506094D01*
X13294503Y-7982093D02*
X13294503Y-7903066D01*
X13215476Y-7903066D01*
X13215476Y-7982093D01*
X13294503Y-7982093D01*
X13294503Y-9506094D02*
X13294503Y-9427067D01*
X13215476Y-9427067D01*
X13215476Y-9506094D01*
X13294503Y-9506094D01*
X13548503Y-7982093D02*
X13548503Y-7903066D01*
X13469476Y-7903066D01*
X13469476Y-7982093D01*
X13548503Y-7982093D01*
X13548503Y-9506094D02*
X13548503Y-9427067D01*
X13469476Y-9427067D01*
X13469476Y-9506094D01*
X13548503Y-9506094D01*
X13802503Y-7982093D02*
X13802503Y-7903066D01*
X13723476Y-7903066D01*
X13723476Y-7982093D01*
X13802503Y-7982093D01*
X13802503Y-9506094D02*
X13802503Y-9427067D01*
X13723476Y-9427067D01*
X13723476Y-9506094D01*
X13802503Y-9506094D01*
X14056503Y-7982093D02*
X14056503Y-7903066D01*
X13977476Y-7903066D01*
X13977476Y-7982093D01*
X14056503Y-7982093D01*
X14056503Y-9506094D02*
X14056503Y-9427067D01*
X13977476Y-9427067D01*
X13977476Y-9506094D01*
X14056503Y-9506094D01*
X14310503Y-7982093D02*
X14310503Y-7903066D01*
X14231476Y-7903066D01*
X14231476Y-7982093D01*
X14310503Y-7982093D01*
X14310503Y-9506094D02*
X14310503Y-9427067D01*
X14231476Y-9427067D01*
X14231476Y-9506094D01*
X14310503Y-9506094D01*
X14564503Y-7982093D02*
X14564503Y-7903066D01*
X14485476Y-7903066D01*
X14485476Y-7982093D01*
X14564503Y-7982093D01*
X14564503Y-9506094D02*
X14564503Y-9427067D01*
X14485476Y-9427067D01*
X14485476Y-9506094D01*
X14564503Y-9506094D01*
X14818503Y-7982093D02*
X14818503Y-7903066D01*
X14739476Y-7903066D01*
X14739476Y-7982093D01*
X14818503Y-7982093D01*
X14818503Y-9506094D02*
X14818503Y-9427067D01*
X14739476Y-9427067D01*
X14739476Y-9506094D01*
X14818503Y-9506094D01*
X15072503Y-7982093D02*
X15072503Y-7903066D01*
X14993476Y-7903066D01*
X14993476Y-7982093D01*
X15072503Y-7982093D01*
X15072503Y-9506094D02*
X15072503Y-9427067D01*
X14993476Y-9427067D01*
X14993476Y-9506094D01*
X15072503Y-9506094D01*
X15326503Y-7982093D02*
X15326503Y-7903066D01*
X15247476Y-7903066D01*
X15247476Y-7982093D01*
X15326503Y-7982093D01*
X15326503Y-9506094D02*
X15326503Y-9427067D01*
X15247476Y-9427067D01*
X15247476Y-9506094D01*
X15326503Y-9506094D01*
X15580503Y-7982093D02*
X15580503Y-7903066D01*
X15501476Y-7903066D01*
X15501476Y-7982093D01*
X15580503Y-7982093D01*
X15580503Y-9506094D02*
X15580503Y-9427067D01*
X15501476Y-9427067D01*
X15501476Y-9506094D01*
X15580503Y-9506094D01*
X15834503Y-7982093D02*
X15834503Y-7903066D01*
X15755476Y-7903066D01*
X15755476Y-7982093D01*
X15834503Y-7982093D01*
X15834503Y-9506094D02*
X15834503Y-9427067D01*
X15755476Y-9427067D01*
X15755476Y-9506094D01*
X15834503Y-9506094D01*
D16*
X8979916Y-8208320D02*
X9039916Y-8148320D01*
X8979916Y-8088320D01*
X8919916Y-8148320D01*
X8979916Y-8208320D01*
X8979916Y-8462320D02*
X9039916Y-8402320D01*
X8979916Y-8342320D01*
X8919916Y-8402320D01*
X8979916Y-8462320D01*
X8981948Y-7701844D02*
X9041948Y-7641844D01*
X8981948Y-7581844D01*
X8921948Y-7641844D01*
X8981948Y-7701844D01*
X8981948Y-7955844D02*
X9041948Y-7895844D01*
X8981948Y-7835844D01*
X8921948Y-7895844D01*
X8981948Y-7955844D01*
X8982456Y-8714288D02*
X9042456Y-8654288D01*
X8982456Y-8594288D01*
X8922456Y-8654288D01*
X8982456Y-8714288D01*
X8982456Y-8968288D02*
X9042456Y-8908288D01*
X8982456Y-8848288D01*
X8922456Y-8908288D01*
X8982456Y-8968288D01*
X8983980Y-6189528D02*
X9043980Y-6129528D01*
X8983980Y-6069528D01*
X8923980Y-6129528D01*
X8983980Y-6189528D01*
X8983980Y-6443528D02*
X9043980Y-6383528D01*
X8983980Y-6323528D01*
X8923980Y-6383528D01*
X8983980Y-6443528D01*
X8984488Y-7201972D02*
X9044488Y-7141972D01*
X8984488Y-7081972D01*
X8924488Y-7141972D01*
X8984488Y-7201972D01*
X8984488Y-7455972D02*
X9044488Y-7395972D01*
X8984488Y-7335972D01*
X8924488Y-7395972D01*
X8984488Y-7455972D01*
X8986012Y-5683052D02*
X9046012Y-5623052D01*
X8986012Y-5563052D01*
X8926012Y-5623052D01*
X8986012Y-5683052D01*
X8986012Y-5937052D02*
X9046012Y-5877052D01*
X8986012Y-5817052D01*
X8926012Y-5877052D01*
X8986012Y-5937052D01*
X8986520Y-6695496D02*
X9046520Y-6635496D01*
X8986520Y-6575496D01*
X8926520Y-6635496D01*
X8986520Y-6695496D01*
X8986520Y-6949496D02*
X9046520Y-6889496D01*
X8986520Y-6829496D01*
X8926520Y-6889496D01*
X8986520Y-6949496D01*
X9233916Y-8208320D02*
X9293916Y-8148320D01*
X9233916Y-8088320D01*
X9173916Y-8148320D01*
X9233916Y-8208320D01*
X9233916Y-8462320D02*
X9293916Y-8402320D01*
X9233916Y-8342320D01*
X9173916Y-8402320D01*
X9233916Y-8462320D01*
X9235948Y-7701844D02*
X9295948Y-7641844D01*
X9235948Y-7581844D01*
X9175948Y-7641844D01*
X9235948Y-7701844D01*
X9235948Y-7955844D02*
X9295948Y-7895844D01*
X9235948Y-7835844D01*
X9175948Y-7895844D01*
X9235948Y-7955844D01*
X9236456Y-8714288D02*
X9296456Y-8654288D01*
X9236456Y-8594288D01*
X9176456Y-8654288D01*
X9236456Y-8714288D01*
X9236456Y-8968288D02*
X9296456Y-8908288D01*
X9236456Y-8848288D01*
X9176456Y-8908288D01*
X9236456Y-8968288D01*
X9237980Y-6189528D02*
X9297980Y-6129528D01*
X9237980Y-6069528D01*
X9177980Y-6129528D01*
X9237980Y-6189528D01*
X9237980Y-6443528D02*
X9297980Y-6383528D01*
X9237980Y-6323528D01*
X9177980Y-6383528D01*
X9237980Y-6443528D01*
X9238488Y-7201972D02*
X9298488Y-7141972D01*
X9238488Y-7081972D01*
X9178488Y-7141972D01*
X9238488Y-7201972D01*
X9238488Y-7455972D02*
X9298488Y-7395972D01*
X9238488Y-7335972D01*
X9178488Y-7395972D01*
X9238488Y-7455972D01*
X9240012Y-5683052D02*
X9300012Y-5623052D01*
X9240012Y-5563052D01*
X9180012Y-5623052D01*
X9240012Y-5683052D01*
X9240012Y-5937052D02*
X9300012Y-5877052D01*
X9240012Y-5817052D01*
X9180012Y-5877052D01*
X9240012Y-5937052D01*
X9240520Y-6695496D02*
X9300520Y-6635496D01*
X9240520Y-6575496D01*
X9180520Y-6635496D01*
X9240520Y-6695496D01*
X9240520Y-6949496D02*
X9300520Y-6889496D01*
X9240520Y-6829496D01*
X9180520Y-6889496D01*
X9240520Y-6949496D01*
X9487916Y-8207304D02*
X9547916Y-8147304D01*
X9487916Y-8087304D01*
X9427916Y-8147304D01*
X9487916Y-8207304D01*
X9487916Y-8461304D02*
X9547916Y-8401304D01*
X9487916Y-8341304D01*
X9427916Y-8401304D01*
X9487916Y-8461304D01*
X9489948Y-7700828D02*
X9549948Y-7640828D01*
X9489948Y-7580828D01*
X9429948Y-7640828D01*
X9489948Y-7700828D01*
X9489948Y-7954828D02*
X9549948Y-7894828D01*
X9489948Y-7834828D01*
X9429948Y-7894828D01*
X9489948Y-7954828D01*
X9490456Y-8713272D02*
X9550456Y-8653272D01*
X9490456Y-8593272D01*
X9430456Y-8653272D01*
X9490456Y-8713272D01*
X9490456Y-8967272D02*
X9550456Y-8907272D01*
X9490456Y-8847272D01*
X9430456Y-8907272D01*
X9490456Y-8967272D01*
X9491980Y-6188512D02*
X9551980Y-6128512D01*
X9491980Y-6068512D01*
X9431980Y-6128512D01*
X9491980Y-6188512D01*
X9491980Y-6442512D02*
X9551980Y-6382512D01*
X9491980Y-6322512D01*
X9431980Y-6382512D01*
X9491980Y-6442512D01*
X9492488Y-7200956D02*
X9552488Y-7140956D01*
X9492488Y-7080956D01*
X9432488Y-7140956D01*
X9492488Y-7200956D01*
X9492488Y-7454956D02*
X9552488Y-7394956D01*
X9492488Y-7334956D01*
X9432488Y-7394956D01*
X9492488Y-7454956D01*
X9494012Y-5682036D02*
X9554012Y-5622036D01*
X9494012Y-5562036D01*
X9434012Y-5622036D01*
X9494012Y-5682036D01*
X9494012Y-5936036D02*
X9554012Y-5876036D01*
X9494012Y-5816036D01*
X9434012Y-5876036D01*
X9494012Y-5936036D01*
X9494520Y-6694480D02*
X9554520Y-6634480D01*
X9494520Y-6574480D01*
X9434520Y-6634480D01*
X9494520Y-6694480D01*
X9494520Y-6948480D02*
X9554520Y-6888480D01*
X9494520Y-6828480D01*
X9434520Y-6888480D01*
X9494520Y-6948480D01*
X9741916Y-8207304D02*
X9801916Y-8147304D01*
X9741916Y-8087304D01*
X9681916Y-8147304D01*
X9741916Y-8207304D01*
X9741916Y-8461304D02*
X9801916Y-8401304D01*
X9741916Y-8341304D01*
X9681916Y-8401304D01*
X9741916Y-8461304D01*
X9743948Y-7700828D02*
X9803948Y-7640828D01*
X9743948Y-7580828D01*
X9683948Y-7640828D01*
X9743948Y-7700828D01*
X9743948Y-7954828D02*
X9803948Y-7894828D01*
X9743948Y-7834828D01*
X9683948Y-7894828D01*
X9743948Y-7954828D01*
X9744456Y-8713272D02*
X9804456Y-8653272D01*
X9744456Y-8593272D01*
X9684456Y-8653272D01*
X9744456Y-8713272D01*
X9744456Y-8967272D02*
X9804456Y-8907272D01*
X9744456Y-8847272D01*
X9684456Y-8907272D01*
X9744456Y-8967272D01*
X9745980Y-6188512D02*
X9805980Y-6128512D01*
X9745980Y-6068512D01*
X9685980Y-6128512D01*
X9745980Y-6188512D01*
X9745980Y-6442512D02*
X9805980Y-6382512D01*
X9745980Y-6322512D01*
X9685980Y-6382512D01*
X9745980Y-6442512D01*
X9746488Y-7200956D02*
X9806488Y-7140956D01*
X9746488Y-7080956D01*
X9686488Y-7140956D01*
X9746488Y-7200956D01*
X9746488Y-7454956D02*
X9806488Y-7394956D01*
X9746488Y-7334956D01*
X9686488Y-7394956D01*
X9746488Y-7454956D01*
X9748012Y-5682036D02*
X9808012Y-5622036D01*
X9748012Y-5562036D01*
X9688012Y-5622036D01*
X9748012Y-5682036D01*
X9748012Y-5936036D02*
X9808012Y-5876036D01*
X9748012Y-5816036D01*
X9688012Y-5876036D01*
X9748012Y-5936036D01*
X9748520Y-6694480D02*
X9808520Y-6634480D01*
X9748520Y-6574480D01*
X9688520Y-6634480D01*
X9748520Y-6694480D01*
X9748520Y-6948480D02*
X9808520Y-6888480D01*
X9748520Y-6828480D01*
X9688520Y-6888480D01*
X9748520Y-6948480D01*
X9992360Y-8207304D02*
X10052360Y-8147304D01*
X9992360Y-8087304D01*
X9932360Y-8147304D01*
X9992360Y-8207304D01*
X9992360Y-8461304D02*
X10052360Y-8401304D01*
X9992360Y-8341304D01*
X9932360Y-8401304D01*
X9992360Y-8461304D01*
X9994392Y-7700828D02*
X10054392Y-7640828D01*
X9994392Y-7580828D01*
X9934392Y-7640828D01*
X9994392Y-7700828D01*
X9994392Y-7954828D02*
X10054392Y-7894828D01*
X9994392Y-7834828D01*
X9934392Y-7894828D01*
X9994392Y-7954828D01*
X9994900Y-8713272D02*
X10054900Y-8653272D01*
X9994900Y-8593272D01*
X9934900Y-8653272D01*
X9994900Y-8713272D01*
X9994900Y-8967272D02*
X10054900Y-8907272D01*
X9994900Y-8847272D01*
X9934900Y-8907272D01*
X9994900Y-8967272D01*
X9996424Y-6188512D02*
X10056424Y-6128512D01*
X9996424Y-6068512D01*
X9936424Y-6128512D01*
X9996424Y-6188512D01*
X9996424Y-6442512D02*
X10056424Y-6382512D01*
X9996424Y-6322512D01*
X9936424Y-6382512D01*
X9996424Y-6442512D01*
X9996568Y-9231958D02*
X10056568Y-9171958D01*
X9996568Y-9111958D01*
X9936568Y-9171958D01*
X9996568Y-9231958D01*
X9996568Y-9485958D02*
X10056568Y-9425958D01*
X9996568Y-9365958D01*
X9936568Y-9425958D01*
X9996568Y-9485958D01*
X9996932Y-7200956D02*
X10056932Y-7140956D01*
X9996932Y-7080956D01*
X9936932Y-7140956D01*
X9996932Y-7200956D01*
X9996932Y-7454956D02*
X10056932Y-7394956D01*
X9996932Y-7334956D01*
X9936932Y-7394956D01*
X9996932Y-7454956D01*
X9998456Y-5682036D02*
X10058456Y-5622036D01*
X9998456Y-5562036D01*
X9938456Y-5622036D01*
X9998456Y-5682036D01*
X9998456Y-5936036D02*
X10058456Y-5876036D01*
X9998456Y-5816036D01*
X9938456Y-5876036D01*
X9998456Y-5936036D01*
X9998964Y-6694480D02*
X10058964Y-6634480D01*
X9998964Y-6574480D01*
X9938964Y-6634480D01*
X9998964Y-6694480D01*
X9998964Y-6948480D02*
X10058964Y-6888480D01*
X9998964Y-6828480D01*
X9938964Y-6888480D01*
X9998964Y-6948480D01*
X9999108Y-9737926D02*
X10059108Y-9677926D01*
X9999108Y-9617926D01*
X9939108Y-9677926D01*
X9999108Y-9737926D01*
X9999108Y-9991926D02*
X10059108Y-9931926D01*
X9999108Y-9871926D01*
X9939108Y-9931926D01*
X9999108Y-9991926D01*
X10246360Y-8207304D02*
X10306360Y-8147304D01*
X10246360Y-8087304D01*
X10186360Y-8147304D01*
X10246360Y-8207304D01*
X10246360Y-8461304D02*
X10306360Y-8401304D01*
X10246360Y-8341304D01*
X10186360Y-8401304D01*
X10246360Y-8461304D01*
X10248392Y-7700828D02*
X10308392Y-7640828D01*
X10248392Y-7580828D01*
X10188392Y-7640828D01*
X10248392Y-7700828D01*
X10248392Y-7954828D02*
X10308392Y-7894828D01*
X10248392Y-7834828D01*
X10188392Y-7894828D01*
X10248392Y-7954828D01*
X10248900Y-8713272D02*
X10308900Y-8653272D01*
X10248900Y-8593272D01*
X10188900Y-8653272D01*
X10248900Y-8713272D01*
X10248900Y-8967272D02*
X10308900Y-8907272D01*
X10248900Y-8847272D01*
X10188900Y-8907272D01*
X10248900Y-8967272D01*
X10250424Y-6188512D02*
X10310424Y-6128512D01*
X10250424Y-6068512D01*
X10190424Y-6128512D01*
X10250424Y-6188512D01*
X10250424Y-6442512D02*
X10310424Y-6382512D01*
X10250424Y-6322512D01*
X10190424Y-6382512D01*
X10250424Y-6442512D01*
X10250568Y-9231958D02*
X10310568Y-9171958D01*
X10250568Y-9111958D01*
X10190568Y-9171958D01*
X10250568Y-9231958D01*
X10250568Y-9485958D02*
X10310568Y-9425958D01*
X10250568Y-9365958D01*
X10190568Y-9425958D01*
X10250568Y-9485958D01*
X10250932Y-7200956D02*
X10310932Y-7140956D01*
X10250932Y-7080956D01*
X10190932Y-7140956D01*
X10250932Y-7200956D01*
X10250932Y-7454956D02*
X10310932Y-7394956D01*
X10250932Y-7334956D01*
X10190932Y-7394956D01*
X10250932Y-7454956D01*
X10252456Y-5682036D02*
X10312456Y-5622036D01*
X10252456Y-5562036D01*
X10192456Y-5622036D01*
X10252456Y-5682036D01*
X10252456Y-5936036D02*
X10312456Y-5876036D01*
X10252456Y-5816036D01*
X10192456Y-5876036D01*
X10252456Y-5936036D01*
X10252964Y-6694480D02*
X10312964Y-6634480D01*
X10252964Y-6574480D01*
X10192964Y-6634480D01*
X10252964Y-6694480D01*
X10252964Y-6948480D02*
X10312964Y-6888480D01*
X10252964Y-6828480D01*
X10192964Y-6888480D01*
X10252964Y-6948480D01*
X10253108Y-9737926D02*
X10313108Y-9677926D01*
X10253108Y-9617926D01*
X10193108Y-9677926D01*
X10253108Y-9737926D01*
X10253108Y-9991926D02*
X10313108Y-9931926D01*
X10253108Y-9871926D01*
X10193108Y-9931926D01*
X10253108Y-9991926D01*
X10498328Y-8209336D02*
X10558328Y-8149336D01*
X10498328Y-8089336D01*
X10438328Y-8149336D01*
X10498328Y-8209336D01*
X10498328Y-8463336D02*
X10558328Y-8403336D01*
X10498328Y-8343336D01*
X10438328Y-8403336D01*
X10498328Y-8463336D01*
X10500360Y-7702860D02*
X10560360Y-7642860D01*
X10500360Y-7582860D01*
X10440360Y-7642860D01*
X10500360Y-7702860D01*
X10500360Y-7956860D02*
X10560360Y-7896860D01*
X10500360Y-7836860D01*
X10440360Y-7896860D01*
X10500360Y-7956860D01*
X10500868Y-8715304D02*
X10560868Y-8655304D01*
X10500868Y-8595304D01*
X10440868Y-8655304D01*
X10500868Y-8715304D01*
X10500868Y-8969304D02*
X10560868Y-8909304D01*
X10500868Y-8849304D01*
X10440868Y-8909304D01*
X10500868Y-8969304D01*
X10502392Y-6190544D02*
X10562392Y-6130544D01*
X10502392Y-6070544D01*
X10442392Y-6130544D01*
X10502392Y-6190544D01*
X10502392Y-6444544D02*
X10562392Y-6384544D01*
X10502392Y-6324544D01*
X10442392Y-6384544D01*
X10502392Y-6444544D01*
X10502900Y-7202988D02*
X10562900Y-7142988D01*
X10502900Y-7082988D01*
X10442900Y-7142988D01*
X10502900Y-7202988D01*
X10502900Y-7456988D02*
X10562900Y-7396988D01*
X10502900Y-7336988D01*
X10442900Y-7396988D01*
X10502900Y-7456988D01*
X10504424Y-5684068D02*
X10564424Y-5624068D01*
X10504424Y-5564068D01*
X10444424Y-5624068D01*
X10504424Y-5684068D01*
X10504424Y-5938068D02*
X10564424Y-5878068D01*
X10504424Y-5818068D01*
X10444424Y-5878068D01*
X10504424Y-5938068D01*
X10504568Y-9230942D02*
X10564568Y-9170942D01*
X10504568Y-9110942D01*
X10444568Y-9170942D01*
X10504568Y-9230942D01*
X10504568Y-9484942D02*
X10564568Y-9424942D01*
X10504568Y-9364942D01*
X10444568Y-9424942D01*
X10504568Y-9484942D01*
X10504932Y-6696512D02*
X10564932Y-6636512D01*
X10504932Y-6576512D01*
X10444932Y-6636512D01*
X10504932Y-6696512D01*
X10504932Y-6950512D02*
X10564932Y-6890512D01*
X10504932Y-6830512D01*
X10444932Y-6890512D01*
X10504932Y-6950512D01*
X10507108Y-9736910D02*
X10567108Y-9676910D01*
X10507108Y-9616910D01*
X10447108Y-9676910D01*
X10507108Y-9736910D01*
X10507108Y-9990910D02*
X10567108Y-9930910D01*
X10507108Y-9870910D01*
X10447108Y-9930910D01*
X10507108Y-9990910D01*
X10752328Y-8209336D02*
X10812328Y-8149336D01*
X10752328Y-8089336D01*
X10692328Y-8149336D01*
X10752328Y-8209336D01*
X10752328Y-8463336D02*
X10812328Y-8403336D01*
X10752328Y-8343336D01*
X10692328Y-8403336D01*
X10752328Y-8463336D01*
X10754360Y-7702860D02*
X10814360Y-7642860D01*
X10754360Y-7582860D01*
X10694360Y-7642860D01*
X10754360Y-7702860D01*
X10754360Y-7956860D02*
X10814360Y-7896860D01*
X10754360Y-7836860D01*
X10694360Y-7896860D01*
X10754360Y-7956860D01*
X10754868Y-8715304D02*
X10814868Y-8655304D01*
X10754868Y-8595304D01*
X10694868Y-8655304D01*
X10754868Y-8715304D01*
X10754868Y-8969304D02*
X10814868Y-8909304D01*
X10754868Y-8849304D01*
X10694868Y-8909304D01*
X10754868Y-8969304D01*
X10756392Y-6190544D02*
X10816392Y-6130544D01*
X10756392Y-6070544D01*
X10696392Y-6130544D01*
X10756392Y-6190544D01*
X10756392Y-6444544D02*
X10816392Y-6384544D01*
X10756392Y-6324544D01*
X10696392Y-6384544D01*
X10756392Y-6444544D01*
X10756900Y-7202988D02*
X10816900Y-7142988D01*
X10756900Y-7082988D01*
X10696900Y-7142988D01*
X10756900Y-7202988D01*
X10756900Y-7456988D02*
X10816900Y-7396988D01*
X10756900Y-7336988D01*
X10696900Y-7396988D01*
X10756900Y-7456988D01*
X10758424Y-5684068D02*
X10818424Y-5624068D01*
X10758424Y-5564068D01*
X10698424Y-5624068D01*
X10758424Y-5684068D01*
X10758424Y-5938068D02*
X10818424Y-5878068D01*
X10758424Y-5818068D01*
X10698424Y-5878068D01*
X10758424Y-5938068D01*
X10758568Y-9230942D02*
X10818568Y-9170942D01*
X10758568Y-9110942D01*
X10698568Y-9170942D01*
X10758568Y-9230942D01*
X10758568Y-9484942D02*
X10818568Y-9424942D01*
X10758568Y-9364942D01*
X10698568Y-9424942D01*
X10758568Y-9484942D01*
X10758932Y-6696512D02*
X10818932Y-6636512D01*
X10758932Y-6576512D01*
X10698932Y-6636512D01*
X10758932Y-6696512D01*
X10758932Y-6950512D02*
X10818932Y-6890512D01*
X10758932Y-6830512D01*
X10698932Y-6890512D01*
X10758932Y-6950512D01*
X10761108Y-9736910D02*
X10821108Y-9676910D01*
X10761108Y-9616910D01*
X10701108Y-9676910D01*
X10761108Y-9736910D01*
X10761108Y-9990910D02*
X10821108Y-9930910D01*
X10761108Y-9870910D01*
X10701108Y-9930910D01*
X10761108Y-9990910D01*
X10998200Y-7705400D02*
X11058200Y-7645400D01*
X10998200Y-7585400D01*
X10938200Y-7645400D01*
X10998200Y-7705400D01*
X10998200Y-7959400D02*
X11058200Y-7899400D01*
X10998200Y-7839400D01*
X10938200Y-7899400D01*
X10998200Y-7959400D01*
X10998200Y-8213400D02*
X11058200Y-8153400D01*
X10998200Y-8093400D01*
X10938200Y-8153400D01*
X10998200Y-8213400D01*
X10998200Y-8467400D02*
X11058200Y-8407400D01*
X10998200Y-8347400D01*
X10938200Y-8407400D01*
X10998200Y-8467400D01*
X10998200Y-8721400D02*
X11058200Y-8661400D01*
X10998200Y-8601400D01*
X10938200Y-8661400D01*
X10998200Y-8721400D01*
X10998200Y-8975400D02*
X11058200Y-8915400D01*
X10998200Y-8855400D01*
X10938200Y-8915400D01*
X10998200Y-8975400D01*
X11011916Y-6193084D02*
X11071916Y-6133084D01*
X11011916Y-6073084D01*
X10951916Y-6133084D01*
X11011916Y-6193084D01*
X11011916Y-6447084D02*
X11071916Y-6387084D01*
X11011916Y-6327084D01*
X10951916Y-6387084D01*
X11011916Y-6447084D01*
X11012424Y-7205528D02*
X11072424Y-7145528D01*
X11012424Y-7085528D01*
X10952424Y-7145528D01*
X11012424Y-7205528D01*
X11012424Y-7459528D02*
X11072424Y-7399528D01*
X11012424Y-7339528D01*
X10952424Y-7399528D01*
X11012424Y-7459528D01*
X11013948Y-5686608D02*
X11073948Y-5626608D01*
X11013948Y-5566608D01*
X10953948Y-5626608D01*
X11013948Y-5686608D01*
X11013948Y-5940608D02*
X11073948Y-5880608D01*
X11013948Y-5820608D01*
X10953948Y-5880608D01*
X11013948Y-5940608D01*
X11014456Y-6699052D02*
X11074456Y-6639052D01*
X11014456Y-6579052D01*
X10954456Y-6639052D01*
X11014456Y-6699052D01*
X11014456Y-6953052D02*
X11074456Y-6893052D01*
X11014456Y-6833052D01*
X10954456Y-6893052D01*
X11014456Y-6953052D01*
X11252200Y-7705400D02*
X11312200Y-7645400D01*
X11252200Y-7585400D01*
X11192200Y-7645400D01*
X11252200Y-7705400D01*
X11252200Y-7959400D02*
X11312200Y-7899400D01*
X11252200Y-7839400D01*
X11192200Y-7899400D01*
X11252200Y-7959400D01*
X11252200Y-8213400D02*
X11312200Y-8153400D01*
X11252200Y-8093400D01*
X11192200Y-8153400D01*
X11252200Y-8213400D01*
X11252200Y-8467400D02*
X11312200Y-8407400D01*
X11252200Y-8347400D01*
X11192200Y-8407400D01*
X11252200Y-8467400D01*
X11252200Y-8721400D02*
X11312200Y-8661400D01*
X11252200Y-8601400D01*
X11192200Y-8661400D01*
X11252200Y-8721400D01*
X11252200Y-8975400D02*
X11312200Y-8915400D01*
X11252200Y-8855400D01*
X11192200Y-8915400D01*
X11252200Y-8975400D01*
X11265916Y-6193084D02*
X11325916Y-6133084D01*
X11265916Y-6073084D01*
X11205916Y-6133084D01*
X11265916Y-6193084D01*
X11265916Y-6447084D02*
X11325916Y-6387084D01*
X11265916Y-6327084D01*
X11205916Y-6387084D01*
X11265916Y-6447084D01*
X11266424Y-7205528D02*
X11326424Y-7145528D01*
X11266424Y-7085528D01*
X11206424Y-7145528D01*
X11266424Y-7205528D01*
X11266424Y-7459528D02*
X11326424Y-7399528D01*
X11266424Y-7339528D01*
X11206424Y-7399528D01*
X11266424Y-7459528D01*
X11267948Y-5686608D02*
X11327948Y-5626608D01*
X11267948Y-5566608D01*
X11207948Y-5626608D01*
X11267948Y-5686608D01*
X11267948Y-5940608D02*
X11327948Y-5880608D01*
X11267948Y-5820608D01*
X11207948Y-5880608D01*
X11267948Y-5940608D01*
X11268456Y-6699052D02*
X11328456Y-6639052D01*
X11268456Y-6579052D01*
X11208456Y-6639052D01*
X11268456Y-6699052D01*
X11268456Y-6953052D02*
X11328456Y-6893052D01*
X11268456Y-6833052D01*
X11208456Y-6893052D01*
X11268456Y-6953052D01*
X11516360Y-6193084D02*
X11576360Y-6133084D01*
X11516360Y-6073084D01*
X11456360Y-6133084D01*
X11516360Y-6193084D01*
X11516360Y-6447084D02*
X11576360Y-6387084D01*
X11516360Y-6327084D01*
X11456360Y-6387084D01*
X11516360Y-6447084D01*
X11516868Y-7205528D02*
X11576868Y-7145528D01*
X11516868Y-7085528D01*
X11456868Y-7145528D01*
X11516868Y-7205528D01*
X11516868Y-7459528D02*
X11576868Y-7399528D01*
X11516868Y-7339528D01*
X11456868Y-7399528D01*
X11516868Y-7459528D01*
X11518392Y-5686608D02*
X11578392Y-5626608D01*
X11518392Y-5566608D01*
X11458392Y-5626608D01*
X11518392Y-5686608D01*
X11518392Y-5940608D02*
X11578392Y-5880608D01*
X11518392Y-5820608D01*
X11458392Y-5880608D01*
X11518392Y-5940608D01*
X11518900Y-6699052D02*
X11578900Y-6639052D01*
X11518900Y-6579052D01*
X11458900Y-6639052D01*
X11518900Y-6699052D01*
X11518900Y-6953052D02*
X11578900Y-6893052D01*
X11518900Y-6833052D01*
X11458900Y-6893052D01*
X11518900Y-6953052D01*
X11531600Y-7705400D02*
X11591600Y-7645400D01*
X11531600Y-7585400D01*
X11471600Y-7645400D01*
X11531600Y-7705400D01*
X11531600Y-7959400D02*
X11591600Y-7899400D01*
X11531600Y-7839400D01*
X11471600Y-7899400D01*
X11531600Y-7959400D01*
X11531600Y-8213400D02*
X11591600Y-8153400D01*
X11531600Y-8093400D01*
X11471600Y-8153400D01*
X11531600Y-8213400D01*
X11531600Y-8467400D02*
X11591600Y-8407400D01*
X11531600Y-8347400D01*
X11471600Y-8407400D01*
X11531600Y-8467400D01*
X11770360Y-6193084D02*
X11830360Y-6133084D01*
X11770360Y-6073084D01*
X11710360Y-6133084D01*
X11770360Y-6193084D01*
X11770360Y-6447084D02*
X11830360Y-6387084D01*
X11770360Y-6327084D01*
X11710360Y-6387084D01*
X11770360Y-6447084D01*
X11770868Y-7205528D02*
X11830868Y-7145528D01*
X11770868Y-7085528D01*
X11710868Y-7145528D01*
X11770868Y-7205528D01*
X11770868Y-7459528D02*
X11830868Y-7399528D01*
X11770868Y-7339528D01*
X11710868Y-7399528D01*
X11770868Y-7459528D01*
X11772392Y-5686608D02*
X11832392Y-5626608D01*
X11772392Y-5566608D01*
X11712392Y-5626608D01*
X11772392Y-5686608D01*
X11772392Y-5940608D02*
X11832392Y-5880608D01*
X11772392Y-5820608D01*
X11712392Y-5880608D01*
X11772392Y-5940608D01*
X11772900Y-6699052D02*
X11832900Y-6639052D01*
X11772900Y-6579052D01*
X11712900Y-6639052D01*
X11772900Y-6699052D01*
X11772900Y-6953052D02*
X11832900Y-6893052D01*
X11772900Y-6833052D01*
X11712900Y-6893052D01*
X11772900Y-6953052D01*
X11785600Y-7705400D02*
X11845600Y-7645400D01*
X11785600Y-7585400D01*
X11725600Y-7645400D01*
X11785600Y-7705400D01*
X11785600Y-7959400D02*
X11845600Y-7899400D01*
X11785600Y-7839400D01*
X11725600Y-7899400D01*
X11785600Y-7959400D01*
X11785600Y-8213400D02*
X11845600Y-8153400D01*
X11785600Y-8093400D01*
X11725600Y-8153400D01*
X11785600Y-8213400D01*
X11785600Y-8467400D02*
X11845600Y-8407400D01*
X11785600Y-8347400D01*
X11725600Y-8407400D01*
X11785600Y-8467400D01*
X12022328Y-6195116D02*
X12082328Y-6135116D01*
X12022328Y-6075116D01*
X11962328Y-6135116D01*
X12022328Y-6195116D01*
X12022328Y-6449116D02*
X12082328Y-6389116D01*
X12022328Y-6329116D01*
X11962328Y-6389116D01*
X12022328Y-6449116D01*
X12022836Y-7207560D02*
X12082836Y-7147560D01*
X12022836Y-7087560D01*
X11962836Y-7147560D01*
X12022836Y-7207560D01*
X12022836Y-7461560D02*
X12082836Y-7401560D01*
X12022836Y-7341560D01*
X11962836Y-7401560D01*
X12022836Y-7461560D01*
X12024360Y-5688640D02*
X12084360Y-5628640D01*
X12024360Y-5568640D01*
X11964360Y-5628640D01*
X12024360Y-5688640D01*
X12024360Y-5942640D02*
X12084360Y-5882640D01*
X12024360Y-5822640D01*
X11964360Y-5882640D01*
X12024360Y-5942640D01*
X12024868Y-6701084D02*
X12084868Y-6641084D01*
X12024868Y-6581084D01*
X11964868Y-6641084D01*
X12024868Y-6701084D01*
X12024868Y-6955084D02*
X12084868Y-6895084D01*
X12024868Y-6835084D01*
X11964868Y-6895084D01*
X12024868Y-6955084D01*
X12276328Y-6195116D02*
X12336328Y-6135116D01*
X12276328Y-6075116D01*
X12216328Y-6135116D01*
X12276328Y-6195116D01*
X12276328Y-6449116D02*
X12336328Y-6389116D01*
X12276328Y-6329116D01*
X12216328Y-6389116D01*
X12276328Y-6449116D01*
X12276836Y-7207560D02*
X12336836Y-7147560D01*
X12276836Y-7087560D01*
X12216836Y-7147560D01*
X12276836Y-7207560D01*
X12276836Y-7461560D02*
X12336836Y-7401560D01*
X12276836Y-7341560D01*
X12216836Y-7401560D01*
X12276836Y-7461560D01*
X12278360Y-5688640D02*
X12338360Y-5628640D01*
X12278360Y-5568640D01*
X12218360Y-5628640D01*
X12278360Y-5688640D01*
X12278360Y-5942640D02*
X12338360Y-5882640D01*
X12278360Y-5822640D01*
X12218360Y-5882640D01*
X12278360Y-5942640D01*
X12278868Y-6701084D02*
X12338868Y-6641084D01*
X12278868Y-6581084D01*
X12218868Y-6641084D01*
X12278868Y-6701084D01*
X12278868Y-6955084D02*
X12338868Y-6895084D01*
X12278868Y-6835084D01*
X12218868Y-6895084D01*
X12278868Y-6955084D01*
X12530328Y-6193084D02*
X12590328Y-6133084D01*
X12530328Y-6073084D01*
X12470328Y-6133084D01*
X12530328Y-6193084D01*
X12530328Y-6447084D02*
X12590328Y-6387084D01*
X12530328Y-6327084D01*
X12470328Y-6387084D01*
X12530328Y-6447084D01*
X12530836Y-7205528D02*
X12590836Y-7145528D01*
X12530836Y-7085528D01*
X12470836Y-7145528D01*
X12530836Y-7205528D01*
X12530836Y-7459528D02*
X12590836Y-7399528D01*
X12530836Y-7339528D01*
X12470836Y-7399528D01*
X12530836Y-7459528D01*
X12532360Y-5686608D02*
X12592360Y-5626608D01*
X12532360Y-5566608D01*
X12472360Y-5626608D01*
X12532360Y-5686608D01*
X12532360Y-5940608D02*
X12592360Y-5880608D01*
X12532360Y-5820608D01*
X12472360Y-5880608D01*
X12532360Y-5940608D01*
X12532868Y-6699052D02*
X12592868Y-6639052D01*
X12532868Y-6579052D01*
X12472868Y-6639052D01*
X12532868Y-6699052D01*
X12532868Y-6953052D02*
X12592868Y-6893052D01*
X12532868Y-6833052D01*
X12472868Y-6893052D01*
X12532868Y-6953052D01*
X12784328Y-6193084D02*
X12844328Y-6133084D01*
X12784328Y-6073084D01*
X12724328Y-6133084D01*
X12784328Y-6193084D01*
X12784328Y-6447084D02*
X12844328Y-6387084D01*
X12784328Y-6327084D01*
X12724328Y-6387084D01*
X12784328Y-6447084D01*
X12784836Y-7205528D02*
X12844836Y-7145528D01*
X12784836Y-7085528D01*
X12724836Y-7145528D01*
X12784836Y-7205528D01*
X12784836Y-7459528D02*
X12844836Y-7399528D01*
X12784836Y-7339528D01*
X12724836Y-7399528D01*
X12784836Y-7459528D01*
X12786360Y-5686608D02*
X12846360Y-5626608D01*
X12786360Y-5566608D01*
X12726360Y-5626608D01*
X12786360Y-5686608D01*
X12786360Y-5940608D02*
X12846360Y-5880608D01*
X12786360Y-5820608D01*
X12726360Y-5880608D01*
X12786360Y-5940608D01*
X12786868Y-6699052D02*
X12846868Y-6639052D01*
X12786868Y-6579052D01*
X12726868Y-6639052D01*
X12786868Y-6699052D01*
X12786868Y-6953052D02*
X12846868Y-6893052D01*
X12786868Y-6833052D01*
X12726868Y-6893052D01*
X12786868Y-6953052D01*
X13034772Y-6193084D02*
X13094772Y-6133084D01*
X13034772Y-6073084D01*
X12974772Y-6133084D01*
X13034772Y-6193084D01*
X13034772Y-6447084D02*
X13094772Y-6387084D01*
X13034772Y-6327084D01*
X12974772Y-6387084D01*
X13034772Y-6447084D01*
X13035280Y-7205528D02*
X13095280Y-7145528D01*
X13035280Y-7085528D01*
X12975280Y-7145528D01*
X13035280Y-7205528D01*
X13035280Y-7459528D02*
X13095280Y-7399528D01*
X13035280Y-7339528D01*
X12975280Y-7399528D01*
X13035280Y-7459528D01*
X13036804Y-5686608D02*
X13096804Y-5626608D01*
X13036804Y-5566608D01*
X12976804Y-5626608D01*
X13036804Y-5686608D01*
X13036804Y-5940608D02*
X13096804Y-5880608D01*
X13036804Y-5820608D01*
X12976804Y-5880608D01*
X13036804Y-5940608D01*
X13037312Y-6699052D02*
X13097312Y-6639052D01*
X13037312Y-6579052D01*
X12977312Y-6639052D01*
X13037312Y-6699052D01*
X13037312Y-6953052D02*
X13097312Y-6893052D01*
X13037312Y-6833052D01*
X12977312Y-6893052D01*
X13037312Y-6953052D01*
X13288772Y-6193084D02*
X13348772Y-6133084D01*
X13288772Y-6073084D01*
X13228772Y-6133084D01*
X13288772Y-6193084D01*
X13288772Y-6447084D02*
X13348772Y-6387084D01*
X13288772Y-6327084D01*
X13228772Y-6387084D01*
X13288772Y-6447084D01*
X13289280Y-7205528D02*
X13349280Y-7145528D01*
X13289280Y-7085528D01*
X13229280Y-7145528D01*
X13289280Y-7205528D01*
X13289280Y-7459528D02*
X13349280Y-7399528D01*
X13289280Y-7339528D01*
X13229280Y-7399528D01*
X13289280Y-7459528D01*
X13290804Y-5686608D02*
X13350804Y-5626608D01*
X13290804Y-5566608D01*
X13230804Y-5626608D01*
X13290804Y-5686608D01*
X13290804Y-5940608D02*
X13350804Y-5880608D01*
X13290804Y-5820608D01*
X13230804Y-5880608D01*
X13290804Y-5940608D01*
X13291312Y-6699052D02*
X13351312Y-6639052D01*
X13291312Y-6579052D01*
X13231312Y-6639052D01*
X13291312Y-6699052D01*
X13291312Y-6953052D02*
X13351312Y-6893052D01*
X13291312Y-6833052D01*
X13231312Y-6893052D01*
X13291312Y-6953052D01*
X13540740Y-6195116D02*
X13600740Y-6135116D01*
X13540740Y-6075116D01*
X13480740Y-6135116D01*
X13540740Y-6195116D01*
X13540740Y-6449116D02*
X13600740Y-6389116D01*
X13540740Y-6329116D01*
X13480740Y-6389116D01*
X13540740Y-6449116D01*
X13541248Y-7207560D02*
X13601248Y-7147560D01*
X13541248Y-7087560D01*
X13481248Y-7147560D01*
X13541248Y-7207560D01*
X13541248Y-7461560D02*
X13601248Y-7401560D01*
X13541248Y-7341560D01*
X13481248Y-7401560D01*
X13541248Y-7461560D01*
X13542772Y-5688640D02*
X13602772Y-5628640D01*
X13542772Y-5568640D01*
X13482772Y-5628640D01*
X13542772Y-5688640D01*
X13542772Y-5942640D02*
X13602772Y-5882640D01*
X13542772Y-5822640D01*
X13482772Y-5882640D01*
X13542772Y-5942640D01*
X13543280Y-6701084D02*
X13603280Y-6641084D01*
X13543280Y-6581084D01*
X13483280Y-6641084D01*
X13543280Y-6701084D01*
X13543280Y-6955084D02*
X13603280Y-6895084D01*
X13543280Y-6835084D01*
X13483280Y-6895084D01*
X13543280Y-6955084D01*
X13794740Y-6195116D02*
X13854740Y-6135116D01*
X13794740Y-6075116D01*
X13734740Y-6135116D01*
X13794740Y-6195116D01*
X13794740Y-6449116D02*
X13854740Y-6389116D01*
X13794740Y-6329116D01*
X13734740Y-6389116D01*
X13794740Y-6449116D01*
X13795248Y-7207560D02*
X13855248Y-7147560D01*
X13795248Y-7087560D01*
X13735248Y-7147560D01*
X13795248Y-7207560D01*
X13795248Y-7461560D02*
X13855248Y-7401560D01*
X13795248Y-7341560D01*
X13735248Y-7401560D01*
X13795248Y-7461560D01*
X13796772Y-5688640D02*
X13856772Y-5628640D01*
X13796772Y-5568640D01*
X13736772Y-5628640D01*
X13796772Y-5688640D01*
X13796772Y-5942640D02*
X13856772Y-5882640D01*
X13796772Y-5822640D01*
X13736772Y-5882640D01*
X13796772Y-5942640D01*
X13797280Y-6701084D02*
X13857280Y-6641084D01*
X13797280Y-6581084D01*
X13737280Y-6641084D01*
X13797280Y-6701084D01*
X13797280Y-6955084D02*
X13857280Y-6895084D01*
X13797280Y-6835084D01*
X13737280Y-6895084D01*
X13797280Y-6955084D01*
X14046200Y-6195116D02*
X14106200Y-6135116D01*
X14046200Y-6075116D01*
X13986200Y-6135116D01*
X14046200Y-6195116D01*
X14046200Y-6449116D02*
X14106200Y-6389116D01*
X14046200Y-6329116D01*
X13986200Y-6389116D01*
X14046200Y-6449116D01*
X14046708Y-7207560D02*
X14106708Y-7147560D01*
X14046708Y-7087560D01*
X13986708Y-7147560D01*
X14046708Y-7207560D01*
X14046708Y-7461560D02*
X14106708Y-7401560D01*
X14046708Y-7341560D01*
X13986708Y-7401560D01*
X14046708Y-7461560D01*
X14048232Y-5688640D02*
X14108232Y-5628640D01*
X14048232Y-5568640D01*
X13988232Y-5628640D01*
X14048232Y-5688640D01*
X14048232Y-5942640D02*
X14108232Y-5882640D01*
X14048232Y-5822640D01*
X13988232Y-5882640D01*
X14048232Y-5942640D01*
X14048740Y-6701084D02*
X14108740Y-6641084D01*
X14048740Y-6581084D01*
X13988740Y-6641084D01*
X14048740Y-6701084D01*
X14048740Y-6955084D02*
X14108740Y-6895084D01*
X14048740Y-6835084D01*
X13988740Y-6895084D01*
X14048740Y-6955084D01*
X14300200Y-6195116D02*
X14360200Y-6135116D01*
X14300200Y-6075116D01*
X14240200Y-6135116D01*
X14300200Y-6195116D01*
X14300200Y-6449116D02*
X14360200Y-6389116D01*
X14300200Y-6329116D01*
X14240200Y-6389116D01*
X14300200Y-6449116D01*
X14300708Y-7207560D02*
X14360708Y-7147560D01*
X14300708Y-7087560D01*
X14240708Y-7147560D01*
X14300708Y-7207560D01*
X14300708Y-7461560D02*
X14360708Y-7401560D01*
X14300708Y-7341560D01*
X14240708Y-7401560D01*
X14300708Y-7461560D01*
X14302232Y-5688640D02*
X14362232Y-5628640D01*
X14302232Y-5568640D01*
X14242232Y-5628640D01*
X14302232Y-5688640D01*
X14302232Y-5942640D02*
X14362232Y-5882640D01*
X14302232Y-5822640D01*
X14242232Y-5882640D01*
X14302232Y-5942640D01*
X14302740Y-6701084D02*
X14362740Y-6641084D01*
X14302740Y-6581084D01*
X14242740Y-6641084D01*
X14302740Y-6701084D01*
X14302740Y-6955084D02*
X14362740Y-6895084D01*
X14302740Y-6835084D01*
X14242740Y-6895084D01*
X14302740Y-6955084D01*
X14550644Y-6195116D02*
X14610644Y-6135116D01*
X14550644Y-6075116D01*
X14490644Y-6135116D01*
X14550644Y-6195116D01*
X14550644Y-6449116D02*
X14610644Y-6389116D01*
X14550644Y-6329116D01*
X14490644Y-6389116D01*
X14550644Y-6449116D01*
X14551152Y-7207560D02*
X14611152Y-7147560D01*
X14551152Y-7087560D01*
X14491152Y-7147560D01*
X14551152Y-7207560D01*
X14551152Y-7461560D02*
X14611152Y-7401560D01*
X14551152Y-7341560D01*
X14491152Y-7401560D01*
X14551152Y-7461560D01*
X14552676Y-5688640D02*
X14612676Y-5628640D01*
X14552676Y-5568640D01*
X14492676Y-5628640D01*
X14552676Y-5688640D01*
X14552676Y-5942640D02*
X14612676Y-5882640D01*
X14552676Y-5822640D01*
X14492676Y-5882640D01*
X14552676Y-5942640D01*
X14553184Y-6701084D02*
X14613184Y-6641084D01*
X14553184Y-6581084D01*
X14493184Y-6641084D01*
X14553184Y-6701084D01*
X14553184Y-6955084D02*
X14613184Y-6895084D01*
X14553184Y-6835084D01*
X14493184Y-6895084D01*
X14553184Y-6955084D01*
X14804644Y-6195116D02*
X14864644Y-6135116D01*
X14804644Y-6075116D01*
X14744644Y-6135116D01*
X14804644Y-6195116D01*
X14804644Y-6449116D02*
X14864644Y-6389116D01*
X14804644Y-6329116D01*
X14744644Y-6389116D01*
X14804644Y-6449116D01*
X14805152Y-7207560D02*
X14865152Y-7147560D01*
X14805152Y-7087560D01*
X14745152Y-7147560D01*
X14805152Y-7207560D01*
X14805152Y-7461560D02*
X14865152Y-7401560D01*
X14805152Y-7341560D01*
X14745152Y-7401560D01*
X14805152Y-7461560D01*
X14806676Y-5688640D02*
X14866676Y-5628640D01*
X14806676Y-5568640D01*
X14746676Y-5628640D01*
X14806676Y-5688640D01*
X14806676Y-5942640D02*
X14866676Y-5882640D01*
X14806676Y-5822640D01*
X14746676Y-5882640D01*
X14806676Y-5942640D01*
X14807184Y-6701084D02*
X14867184Y-6641084D01*
X14807184Y-6581084D01*
X14747184Y-6641084D01*
X14807184Y-6701084D01*
X14807184Y-6955084D02*
X14867184Y-6895084D01*
X14807184Y-6835084D01*
X14747184Y-6895084D01*
X14807184Y-6955084D01*
X15056612Y-6197148D02*
X15116612Y-6137148D01*
X15056612Y-6077148D01*
X14996612Y-6137148D01*
X15056612Y-6197148D01*
X15056612Y-6451148D02*
X15116612Y-6391148D01*
X15056612Y-6331148D01*
X14996612Y-6391148D01*
X15056612Y-6451148D01*
X15057120Y-7209592D02*
X15117120Y-7149592D01*
X15057120Y-7089592D01*
X14997120Y-7149592D01*
X15057120Y-7209592D01*
X15057120Y-7463592D02*
X15117120Y-7403592D01*
X15057120Y-7343592D01*
X14997120Y-7403592D01*
X15057120Y-7463592D01*
X15058644Y-5690672D02*
X15118644Y-5630672D01*
X15058644Y-5570672D01*
X14998644Y-5630672D01*
X15058644Y-5690672D01*
X15058644Y-5944672D02*
X15118644Y-5884672D01*
X15058644Y-5824672D01*
X14998644Y-5884672D01*
X15058644Y-5944672D01*
X15059152Y-6703116D02*
X15119152Y-6643116D01*
X15059152Y-6583116D01*
X14999152Y-6643116D01*
X15059152Y-6703116D01*
X15059152Y-6957116D02*
X15119152Y-6897116D01*
X15059152Y-6837116D01*
X14999152Y-6897116D01*
X15059152Y-6957116D01*
X15310612Y-6197148D02*
X15370612Y-6137148D01*
X15310612Y-6077148D01*
X15250612Y-6137148D01*
X15310612Y-6197148D01*
X15310612Y-6451148D02*
X15370612Y-6391148D01*
X15310612Y-6331148D01*
X15250612Y-6391148D01*
X15310612Y-6451148D01*
X15311120Y-7209592D02*
X15371120Y-7149592D01*
X15311120Y-7089592D01*
X15251120Y-7149592D01*
X15311120Y-7209592D01*
X15311120Y-7463592D02*
X15371120Y-7403592D01*
X15311120Y-7343592D01*
X15251120Y-7403592D01*
X15311120Y-7463592D01*
X15312644Y-5690672D02*
X15372644Y-5630672D01*
X15312644Y-5570672D01*
X15252644Y-5630672D01*
X15312644Y-5690672D01*
X15312644Y-5944672D02*
X15372644Y-5884672D01*
X15312644Y-5824672D01*
X15252644Y-5884672D01*
X15312644Y-5944672D01*
X15313152Y-6703116D02*
X15373152Y-6643116D01*
X15313152Y-6583116D01*
X15253152Y-6643116D01*
X15313152Y-6703116D01*
X15313152Y-6957116D02*
X15373152Y-6897116D01*
X15313152Y-6837116D01*
X15253152Y-6897116D01*
X15313152Y-6957116D01*
X15563088Y-6197656D02*
X15623088Y-6137656D01*
X15563088Y-6077656D01*
X15503088Y-6137656D01*
X15563088Y-6197656D01*
X15563088Y-6451656D02*
X15623088Y-6391656D01*
X15563088Y-6331656D01*
X15503088Y-6391656D01*
X15563088Y-6451656D01*
X15563596Y-7210100D02*
X15623596Y-7150100D01*
X15563596Y-7090100D01*
X15503596Y-7150100D01*
X15563596Y-7210100D01*
X15563596Y-7464100D02*
X15623596Y-7404100D01*
X15563596Y-7344100D01*
X15503596Y-7404100D01*
X15563596Y-7464100D01*
X15565120Y-5691180D02*
X15625120Y-5631180D01*
X15565120Y-5571180D01*
X15505120Y-5631180D01*
X15565120Y-5691180D01*
X15565120Y-5945180D02*
X15625120Y-5885180D01*
X15565120Y-5825180D01*
X15505120Y-5885180D01*
X15565120Y-5945180D01*
X15565628Y-6703624D02*
X15625628Y-6643624D01*
X15565628Y-6583624D01*
X15505628Y-6643624D01*
X15565628Y-6703624D01*
X15565628Y-6957624D02*
X15625628Y-6897624D01*
X15565628Y-6837624D01*
X15505628Y-6897624D01*
X15565628Y-6957624D01*
X15817088Y-6197656D02*
X15877088Y-6137656D01*
X15817088Y-6077656D01*
X15757088Y-6137656D01*
X15817088Y-6197656D01*
X15817088Y-6451656D02*
X15877088Y-6391656D01*
X15817088Y-6331656D01*
X15757088Y-6391656D01*
X15817088Y-6451656D01*
X15817596Y-7210100D02*
X15877596Y-7150100D01*
X15817596Y-7090100D01*
X15757596Y-7150100D01*
X15817596Y-7210100D01*
X15817596Y-7464100D02*
X15877596Y-7404100D01*
X15817596Y-7344100D01*
X15757596Y-7404100D01*
X15817596Y-7464100D01*
X15819120Y-5691180D02*
X15879120Y-5631180D01*
X15819120Y-5571180D01*
X15759120Y-5631180D01*
X15819120Y-5691180D01*
X15819120Y-5945180D02*
X15879120Y-5885180D01*
X15819120Y-5825180D01*
X15759120Y-5885180D01*
X15819120Y-5945180D01*
X15819628Y-6703624D02*
X15879628Y-6643624D01*
X15819628Y-6583624D01*
X15759628Y-6643624D01*
X15819628Y-6703624D01*
X15819628Y-6957624D02*
X15879628Y-6897624D01*
X15819628Y-6837624D01*
X15759628Y-6897624D01*
X15819628Y-6957624D01*
X16067532Y-6197656D02*
X16127532Y-6137656D01*
X16067532Y-6077656D01*
X16007532Y-6137656D01*
X16067532Y-6197656D01*
X16067532Y-6451656D02*
X16127532Y-6391656D01*
X16067532Y-6331656D01*
X16007532Y-6391656D01*
X16067532Y-6451656D01*
X16068040Y-7210100D02*
X16128040Y-7150100D01*
X16068040Y-7090100D01*
X16008040Y-7150100D01*
X16068040Y-7210100D01*
X16068040Y-7464100D02*
X16128040Y-7404100D01*
X16068040Y-7344100D01*
X16008040Y-7404100D01*
X16068040Y-7464100D01*
X16069564Y-5691180D02*
X16129564Y-5631180D01*
X16069564Y-5571180D01*
X16009564Y-5631180D01*
X16069564Y-5691180D01*
X16069564Y-5945180D02*
X16129564Y-5885180D01*
X16069564Y-5825180D01*
X16009564Y-5885180D01*
X16069564Y-5945180D01*
X16070072Y-6703624D02*
X16130072Y-6643624D01*
X16070072Y-6583624D01*
X16010072Y-6643624D01*
X16070072Y-6703624D01*
X16070072Y-6957624D02*
X16130072Y-6897624D01*
X16070072Y-6837624D01*
X16010072Y-6897624D01*
X16070072Y-6957624D01*
X16321532Y-6197656D02*
X16381532Y-6137656D01*
X16321532Y-6077656D01*
X16261532Y-6137656D01*
X16321532Y-6197656D01*
X16321532Y-6451656D02*
X16381532Y-6391656D01*
X16321532Y-6331656D01*
X16261532Y-6391656D01*
X16321532Y-6451656D01*
X16322040Y-7210100D02*
X16382040Y-7150100D01*
X16322040Y-7090100D01*
X16262040Y-7150100D01*
X16322040Y-7210100D01*
X16322040Y-7464100D02*
X16382040Y-7404100D01*
X16322040Y-7344100D01*
X16262040Y-7404100D01*
X16322040Y-7464100D01*
X16323564Y-5691180D02*
X16383564Y-5631180D01*
X16323564Y-5571180D01*
X16263564Y-5631180D01*
X16323564Y-5691180D01*
X16323564Y-5945180D02*
X16383564Y-5885180D01*
X16323564Y-5825180D01*
X16263564Y-5885180D01*
X16323564Y-5945180D01*
X16324072Y-6703624D02*
X16384072Y-6643624D01*
X16324072Y-6583624D01*
X16264072Y-6643624D01*
X16324072Y-6703624D01*
X16324072Y-6957624D02*
X16384072Y-6897624D01*
X16324072Y-6837624D01*
X16264072Y-6897624D01*
X16324072Y-6957624D01*
X17221200Y-7705400D02*
X17281200Y-7645400D01*
X17221200Y-7585400D01*
X17161200Y-7645400D01*
X17221200Y-7705400D01*
X17221200Y-7959400D02*
X17281200Y-7899400D01*
X17221200Y-7839400D01*
X17161200Y-7899400D01*
X17221200Y-7959400D01*
X17221200Y-8238800D02*
X17281200Y-8178800D01*
X17221200Y-8118800D01*
X17161200Y-8178800D01*
X17221200Y-8238800D01*
X17221200Y-8492800D02*
X17281200Y-8432800D01*
X17221200Y-8372800D01*
X17161200Y-8432800D01*
X17221200Y-8492800D01*
X17221200Y-8772200D02*
X17281200Y-8712200D01*
X17221200Y-8652200D01*
X17161200Y-8712200D01*
X17221200Y-8772200D01*
X17221200Y-9026200D02*
X17281200Y-8966200D01*
X17221200Y-8906200D01*
X17161200Y-8966200D01*
X17221200Y-9026200D01*
X17221200Y-9254800D02*
X17281200Y-9194800D01*
X17221200Y-9134800D01*
X17161200Y-9194800D01*
X17221200Y-9254800D01*
X17221200Y-9508800D02*
X17281200Y-9448800D01*
X17221200Y-9388800D01*
X17161200Y-9448800D01*
X17221200Y-9508800D01*
X17475200Y-7705400D02*
X17535200Y-7645400D01*
X17475200Y-7585400D01*
X17415200Y-7645400D01*
X17475200Y-7705400D01*
X17475200Y-7959400D02*
X17535200Y-7899400D01*
X17475200Y-7839400D01*
X17415200Y-7899400D01*
X17475200Y-7959400D01*
X17475200Y-8238800D02*
X17535200Y-8178800D01*
X17475200Y-8118800D01*
X17415200Y-8178800D01*
X17475200Y-8238800D01*
X17475200Y-8492800D02*
X17535200Y-8432800D01*
X17475200Y-8372800D01*
X17415200Y-8432800D01*
X17475200Y-8492800D01*
X17475200Y-8772200D02*
X17535200Y-8712200D01*
X17475200Y-8652200D01*
X17415200Y-8712200D01*
X17475200Y-8772200D01*
X17475200Y-9026200D02*
X17535200Y-8966200D01*
X17475200Y-8906200D01*
X17415200Y-8966200D01*
X17475200Y-9026200D01*
X17475200Y-9254800D02*
X17535200Y-9194800D01*
X17475200Y-9134800D01*
X17415200Y-9194800D01*
X17475200Y-9254800D01*
X17475200Y-9508800D02*
X17535200Y-9448800D01*
X17475200Y-9388800D01*
X17415200Y-9448800D01*
X17475200Y-9508800D01*
X17729200Y-7705400D02*
X17789200Y-7645400D01*
X17729200Y-7585400D01*
X17669200Y-7645400D01*
X17729200Y-7705400D01*
X17729200Y-7959400D02*
X17789200Y-7899400D01*
X17729200Y-7839400D01*
X17669200Y-7899400D01*
X17729200Y-7959400D01*
X17729200Y-8238800D02*
X17789200Y-8178800D01*
X17729200Y-8118800D01*
X17669200Y-8178800D01*
X17729200Y-8238800D01*
X17729200Y-8492800D02*
X17789200Y-8432800D01*
X17729200Y-8372800D01*
X17669200Y-8432800D01*
X17729200Y-8492800D01*
X17729200Y-8746800D02*
X17789200Y-8686800D01*
X17729200Y-8626800D01*
X17669200Y-8686800D01*
X17729200Y-8746800D01*
X17729200Y-9000800D02*
X17789200Y-8940800D01*
X17729200Y-8880800D01*
X17669200Y-8940800D01*
X17729200Y-9000800D01*
X17729200Y-9254800D02*
X17789200Y-9194800D01*
X17729200Y-9134800D01*
X17669200Y-9194800D01*
X17729200Y-9254800D01*
X17729200Y-9508800D02*
X17789200Y-9448800D01*
X17729200Y-9388800D01*
X17669200Y-9448800D01*
X17729200Y-9508800D01*
X17983200Y-7705400D02*
X18043200Y-7645400D01*
X17983200Y-7585400D01*
X17923200Y-7645400D01*
X17983200Y-7705400D01*
X17983200Y-7959400D02*
X18043200Y-7899400D01*
X17983200Y-7839400D01*
X17923200Y-7899400D01*
X17983200Y-7959400D01*
X17983200Y-8238800D02*
X18043200Y-8178800D01*
X17983200Y-8118800D01*
X17923200Y-8178800D01*
X17983200Y-8238800D01*
X17983200Y-8492800D02*
X18043200Y-8432800D01*
X17983200Y-8372800D01*
X17923200Y-8432800D01*
X17983200Y-8492800D01*
X17983200Y-8746800D02*
X18043200Y-8686800D01*
X17983200Y-8626800D01*
X17923200Y-8686800D01*
X17983200Y-8746800D01*
X17983200Y-9000800D02*
X18043200Y-8940800D01*
X17983200Y-8880800D01*
X17923200Y-8940800D01*
X17983200Y-9000800D01*
X17983200Y-9254800D02*
X18043200Y-9194800D01*
X17983200Y-9134800D01*
X17923200Y-9194800D01*
X17983200Y-9254800D01*
X17983200Y-9508800D02*
X18043200Y-9448800D01*
X17983200Y-9388800D01*
X17923200Y-9448800D01*
X17983200Y-9508800D01*
X18228564Y-8231180D02*
X18288564Y-8171180D01*
X18228564Y-8111180D01*
X18168564Y-8171180D01*
X18228564Y-8231180D01*
X18228564Y-8485180D02*
X18288564Y-8425180D01*
X18228564Y-8365180D01*
X18168564Y-8425180D01*
X18228564Y-8485180D01*
X18228564Y-8746800D02*
X18288564Y-8686800D01*
X18228564Y-8626800D01*
X18168564Y-8686800D01*
X18228564Y-8746800D01*
X18228564Y-9000800D02*
X18288564Y-8940800D01*
X18228564Y-8880800D01*
X18168564Y-8940800D01*
X18228564Y-9000800D01*
X18237200Y-7705400D02*
X18297200Y-7645400D01*
X18237200Y-7585400D01*
X18177200Y-7645400D01*
X18237200Y-7705400D01*
X18237200Y-7959400D02*
X18297200Y-7899400D01*
X18237200Y-7839400D01*
X18177200Y-7899400D01*
X18237200Y-7959400D01*
X18237200Y-9254800D02*
X18297200Y-9194800D01*
X18237200Y-9134800D01*
X18177200Y-9194800D01*
X18237200Y-9254800D01*
X18237200Y-9508800D02*
X18297200Y-9448800D01*
X18237200Y-9388800D01*
X18177200Y-9448800D01*
X18237200Y-9508800D01*
X18482564Y-8231180D02*
X18542564Y-8171180D01*
X18482564Y-8111180D01*
X18422564Y-8171180D01*
X18482564Y-8231180D01*
X18482564Y-8485180D02*
X18542564Y-8425180D01*
X18482564Y-8365180D01*
X18422564Y-8425180D01*
X18482564Y-8485180D01*
X18482564Y-8746800D02*
X18542564Y-8686800D01*
X18482564Y-8626800D01*
X18422564Y-8686800D01*
X18482564Y-8746800D01*
X18482564Y-9000800D02*
X18542564Y-8940800D01*
X18482564Y-8880800D01*
X18422564Y-8940800D01*
X18482564Y-9000800D01*
X18491200Y-7705400D02*
X18551200Y-7645400D01*
X18491200Y-7585400D01*
X18431200Y-7645400D01*
X18491200Y-7705400D01*
X18491200Y-7959400D02*
X18551200Y-7899400D01*
X18491200Y-7839400D01*
X18431200Y-7899400D01*
X18491200Y-7959400D01*
X18491200Y-9254800D02*
X18551200Y-9194800D01*
X18491200Y-9134800D01*
X18431200Y-9194800D01*
X18491200Y-9254800D01*
X18491200Y-9508800D02*
X18551200Y-9448800D01*
X18491200Y-9388800D01*
X18431200Y-9448800D01*
X18491200Y-9508800D01*
D11*
X8764119Y-12174776D02*
X8764119Y-11974776D01*
X8811738Y-11974776D01*
X8840310Y-11984300D01*
X8859357Y-12003348D01*
X8868881Y-12022395D01*
X8878405Y-12060490D01*
X8878405Y-12089062D01*
X8868881Y-12127157D01*
X8859357Y-12146205D01*
X8840310Y-12165252D01*
X8811738Y-12174776D01*
X8764119Y-12174776D01*
X8964119Y-12174776D02*
X8964119Y-12041443D01*
X8964119Y-12079538D02*
X8973643Y-12060490D01*
X8983167Y-12050967D01*
X9002214Y-12041443D01*
X9021262Y-12041443D01*
X9087929Y-12174776D02*
X9087929Y-12041443D01*
X9087929Y-11974776D02*
X9078405Y-11984300D01*
X9087929Y-11993824D01*
X9097452Y-11984300D01*
X9087929Y-11974776D01*
X9087929Y-11993824D01*
X9211738Y-12174776D02*
X9192690Y-12165252D01*
X9183167Y-12146205D01*
X9183167Y-11974776D01*
X9316500Y-12174776D02*
X9297452Y-12165252D01*
X9287929Y-12146205D01*
X9287929Y-11974776D01*
X9545071Y-12174776D02*
X9545071Y-11974776D01*
X9611738Y-12117633D01*
X9678405Y-11974776D01*
X9678405Y-12174776D01*
X9859357Y-12174776D02*
X9859357Y-12070014D01*
X9849833Y-12050967D01*
X9830786Y-12041443D01*
X9792690Y-12041443D01*
X9773643Y-12050967D01*
X9859357Y-12165252D02*
X9840310Y-12174776D01*
X9792690Y-12174776D01*
X9773643Y-12165252D01*
X9764119Y-12146205D01*
X9764119Y-12127157D01*
X9773643Y-12108109D01*
X9792690Y-12098586D01*
X9840310Y-12098586D01*
X9859357Y-12089062D01*
X9954595Y-12041443D02*
X9954595Y-12241443D01*
X9954595Y-12050967D02*
X9973643Y-12041443D01*
X10011738Y-12041443D01*
X10030786Y-12050967D01*
X10040310Y-12060490D01*
X10049833Y-12079538D01*
X10049833Y-12136681D01*
X10040310Y-12155728D01*
X10030786Y-12165252D01*
X10011738Y-12174776D01*
X9973643Y-12174776D01*
X9954595Y-12165252D01*
X10135548Y-12155728D02*
X10145071Y-12165252D01*
X10135548Y-12174776D01*
X10126024Y-12165252D01*
X10135548Y-12155728D01*
X10135548Y-12174776D01*
X10135548Y-12050967D02*
X10145071Y-12060490D01*
X10135548Y-12070014D01*
X10126024Y-12060490D01*
X10135548Y-12050967D01*
X10135548Y-12070014D01*
D12*
X8466500Y-12484300D02*
X8506500Y-12524300D01*
X8506500Y-12484300D02*
X8466500Y-12524300D01*
D11*
X8802214Y-12394776D02*
X8821262Y-12394776D01*
X8840310Y-12404300D01*
X8849833Y-12413824D01*
X8859357Y-12432871D01*
X8868881Y-12470967D01*
X8868881Y-12518586D01*
X8859357Y-12556681D01*
X8849833Y-12575728D01*
X8840310Y-12585252D01*
X8821262Y-12594776D01*
X8802214Y-12594776D01*
X8783167Y-12585252D01*
X8773643Y-12575728D01*
X8764119Y-12556681D01*
X8754595Y-12518586D01*
X8754595Y-12470967D01*
X8764119Y-12432871D01*
X8773643Y-12413824D01*
X8783167Y-12404300D01*
X8802214Y-12394776D01*
X8954595Y-12575728D02*
X8964119Y-12585252D01*
X8954595Y-12594776D01*
X8945071Y-12585252D01*
X8954595Y-12575728D01*
X8954595Y-12594776D01*
X9135548Y-12461443D02*
X9135548Y-12594776D01*
X9087929Y-12385252D02*
X9040310Y-12528109D01*
X9164119Y-12528109D01*
X9278405Y-12394776D02*
X9297452Y-12394776D01*
X9316500Y-12404300D01*
X9326024Y-12413824D01*
X9335548Y-12432871D01*
X9345071Y-12470967D01*
X9345071Y-12518586D01*
X9335548Y-12556681D01*
X9326024Y-12575728D01*
X9316500Y-12585252D01*
X9297452Y-12594776D01*
X9278405Y-12594776D01*
X9259357Y-12585252D01*
X9249833Y-12575728D01*
X9240310Y-12556681D01*
X9230786Y-12518586D01*
X9230786Y-12470967D01*
X9240310Y-12432871D01*
X9249833Y-12413824D01*
X9259357Y-12404300D01*
X9278405Y-12394776D01*
X9468881Y-12394776D02*
X9487929Y-12394776D01*
X9506976Y-12404300D01*
X9516500Y-12413824D01*
X9526024Y-12432871D01*
X9535548Y-12470967D01*
X9535548Y-12518586D01*
X9526024Y-12556681D01*
X9516500Y-12575728D01*
X9506976Y-12585252D01*
X9487929Y-12594776D01*
X9468881Y-12594776D01*
X9449833Y-12585252D01*
X9440310Y-12575728D01*
X9430786Y-12556681D01*
X9421262Y-12518586D01*
X9421262Y-12470967D01*
X9430786Y-12432871D01*
X9440310Y-12413824D01*
X9449833Y-12404300D01*
X9468881Y-12394776D01*
X9621262Y-12594776D02*
X9621262Y-12461443D01*
X9621262Y-12480490D02*
X9630786Y-12470967D01*
X9649833Y-12461443D01*
X9678405Y-12461443D01*
X9697452Y-12470967D01*
X9706976Y-12490014D01*
X9706976Y-12594776D01*
X9706976Y-12490014D02*
X9716500Y-12470967D01*
X9735548Y-12461443D01*
X9764119Y-12461443D01*
X9783167Y-12470967D01*
X9792690Y-12490014D01*
X9792690Y-12594776D01*
X9887929Y-12594776D02*
X9887929Y-12461443D01*
X9887929Y-12480490D02*
X9897452Y-12470967D01*
X9916500Y-12461443D01*
X9945071Y-12461443D01*
X9964119Y-12470967D01*
X9973643Y-12490014D01*
X9973643Y-12594776D01*
X9973643Y-12490014D02*
X9983167Y-12470967D01*
X10002214Y-12461443D01*
X10030786Y-12461443D01*
X10049833Y-12470967D01*
X10059357Y-12490014D01*
X10059357Y-12594776D01*
X10449833Y-12385252D02*
X10278405Y-12642395D01*
X10706976Y-12394776D02*
X10726024Y-12394776D01*
X10745071Y-12404300D01*
X10754595Y-12413824D01*
X10764119Y-12432871D01*
X10773643Y-12470967D01*
X10773643Y-12518586D01*
X10764119Y-12556681D01*
X10754595Y-12575728D01*
X10745071Y-12585252D01*
X10726024Y-12594776D01*
X10706976Y-12594776D01*
X10687929Y-12585252D01*
X10678405Y-12575728D01*
X10668881Y-12556681D01*
X10659357Y-12518586D01*
X10659357Y-12470967D01*
X10668881Y-12432871D01*
X10678405Y-12413824D01*
X10687929Y-12404300D01*
X10706976Y-12394776D01*
X10859357Y-12575728D02*
X10868881Y-12585252D01*
X10859357Y-12594776D01*
X10849833Y-12585252D01*
X10859357Y-12575728D01*
X10859357Y-12594776D01*
X10992690Y-12394776D02*
X11011738Y-12394776D01*
X11030786Y-12404300D01*
X11040310Y-12413824D01*
X11049833Y-12432871D01*
X11059357Y-12470967D01*
X11059357Y-12518586D01*
X11049833Y-12556681D01*
X11040310Y-12575728D01*
X11030786Y-12585252D01*
X11011738Y-12594776D01*
X10992690Y-12594776D01*
X10973643Y-12585252D01*
X10964119Y-12575728D01*
X10954595Y-12556681D01*
X10945071Y-12518586D01*
X10945071Y-12470967D01*
X10954595Y-12432871D01*
X10964119Y-12413824D01*
X10973643Y-12404300D01*
X10992690Y-12394776D01*
X11249833Y-12594776D02*
X11135548Y-12594776D01*
X11192690Y-12594776D02*
X11192690Y-12394776D01*
X11173643Y-12423348D01*
X11154595Y-12442395D01*
X11135548Y-12451919D01*
X11430786Y-12394776D02*
X11335548Y-12394776D01*
X11326024Y-12490014D01*
X11335548Y-12480490D01*
X11354595Y-12470967D01*
X11402214Y-12470967D01*
X11421262Y-12480490D01*
X11430786Y-12490014D01*
X11440309Y-12509062D01*
X11440309Y-12556681D01*
X11430786Y-12575728D01*
X11421262Y-12585252D01*
X11402214Y-12594776D01*
X11354595Y-12594776D01*
X11335548Y-12585252D01*
X11326024Y-12575728D01*
X11506976Y-12394776D02*
X11640309Y-12394776D01*
X11554595Y-12594776D01*
X11706976Y-12394776D02*
X11706976Y-12432871D01*
X11783167Y-12394776D02*
X11783167Y-12432871D01*
X12078405Y-12670967D02*
X12068881Y-12661443D01*
X12049833Y-12632871D01*
X12040309Y-12613824D01*
X12030786Y-12585252D01*
X12021262Y-12537633D01*
X12021262Y-12499538D01*
X12030786Y-12451919D01*
X12040309Y-12423348D01*
X12049833Y-12404300D01*
X12068881Y-12375728D01*
X12078405Y-12366205D01*
X12135548Y-12394776D02*
X12259357Y-12394776D01*
X12192690Y-12470967D01*
X12221262Y-12470967D01*
X12240309Y-12480490D01*
X12249833Y-12490014D01*
X12259357Y-12509062D01*
X12259357Y-12556681D01*
X12249833Y-12575728D01*
X12240309Y-12585252D01*
X12221262Y-12594776D01*
X12164119Y-12594776D01*
X12145071Y-12585252D01*
X12135548Y-12575728D01*
X12383167Y-12394776D02*
X12402214Y-12394776D01*
X12421262Y-12404300D01*
X12430786Y-12413824D01*
X12440309Y-12432871D01*
X12449833Y-12470967D01*
X12449833Y-12518586D01*
X12440309Y-12556681D01*
X12430786Y-12575728D01*
X12421262Y-12585252D01*
X12402214Y-12594776D01*
X12383167Y-12594776D01*
X12364119Y-12585252D01*
X12354595Y-12575728D01*
X12345071Y-12556681D01*
X12335548Y-12518586D01*
X12335548Y-12470967D01*
X12345071Y-12432871D01*
X12354595Y-12413824D01*
X12364119Y-12404300D01*
X12383167Y-12394776D01*
X12687928Y-12594776D02*
X12687928Y-12394776D01*
X12773643Y-12594776D02*
X12773643Y-12490014D01*
X12764119Y-12470967D01*
X12745071Y-12461443D01*
X12716500Y-12461443D01*
X12697452Y-12470967D01*
X12687928Y-12480490D01*
X12897452Y-12594776D02*
X12878405Y-12585252D01*
X12868881Y-12575728D01*
X12859357Y-12556681D01*
X12859357Y-12499538D01*
X12868881Y-12480490D01*
X12878405Y-12470967D01*
X12897452Y-12461443D01*
X12926024Y-12461443D01*
X12945071Y-12470967D01*
X12954595Y-12480490D01*
X12964119Y-12499538D01*
X12964119Y-12556681D01*
X12954595Y-12575728D01*
X12945071Y-12585252D01*
X12926024Y-12594776D01*
X12897452Y-12594776D01*
X13078405Y-12594776D02*
X13059357Y-12585252D01*
X13049833Y-12566205D01*
X13049833Y-12394776D01*
X13230786Y-12585252D02*
X13211738Y-12594776D01*
X13173643Y-12594776D01*
X13154595Y-12585252D01*
X13145071Y-12566205D01*
X13145071Y-12490014D01*
X13154595Y-12470967D01*
X13173643Y-12461443D01*
X13211738Y-12461443D01*
X13230786Y-12470967D01*
X13240309Y-12490014D01*
X13240309Y-12509062D01*
X13145071Y-12528109D01*
X13316500Y-12585252D02*
X13335548Y-12594776D01*
X13373643Y-12594776D01*
X13392690Y-12585252D01*
X13402214Y-12566205D01*
X13402214Y-12556681D01*
X13392690Y-12537633D01*
X13373643Y-12528109D01*
X13345071Y-12528109D01*
X13326024Y-12518586D01*
X13316500Y-12499538D01*
X13316500Y-12490014D01*
X13326024Y-12470967D01*
X13345071Y-12461443D01*
X13373643Y-12461443D01*
X13392690Y-12470967D01*
X13468881Y-12670967D02*
X13478405Y-12661443D01*
X13497452Y-12632871D01*
X13506976Y-12613824D01*
X13516500Y-12585252D01*
X13526024Y-12537633D01*
X13526024Y-12499538D01*
X13516500Y-12451919D01*
X13506976Y-12423348D01*
X13497452Y-12404300D01*
X13478405Y-12375728D01*
X13468881Y-12366205D01*
D13*
X8506500Y-12768300D02*
G75*
G03*
X8506500Y-12768300I-40000J0D01*
G01*
D11*
X8802214Y-12658776D02*
X8821262Y-12658776D01*
X8840310Y-12668300D01*
X8849833Y-12677824D01*
X8859357Y-12696871D01*
X8868881Y-12734967D01*
X8868881Y-12782586D01*
X8859357Y-12820681D01*
X8849833Y-12839728D01*
X8840310Y-12849252D01*
X8821262Y-12858776D01*
X8802214Y-12858776D01*
X8783167Y-12849252D01*
X8773643Y-12839728D01*
X8764119Y-12820681D01*
X8754595Y-12782586D01*
X8754595Y-12734967D01*
X8764119Y-12696871D01*
X8773643Y-12677824D01*
X8783167Y-12668300D01*
X8802214Y-12658776D01*
X8954595Y-12839728D02*
X8964119Y-12849252D01*
X8954595Y-12858776D01*
X8945071Y-12849252D01*
X8954595Y-12839728D01*
X8954595Y-12858776D01*
X9078405Y-12744490D02*
X9059357Y-12734967D01*
X9049833Y-12725443D01*
X9040310Y-12706395D01*
X9040310Y-12696871D01*
X9049833Y-12677824D01*
X9059357Y-12668300D01*
X9078405Y-12658776D01*
X9116500Y-12658776D01*
X9135548Y-12668300D01*
X9145071Y-12677824D01*
X9154595Y-12696871D01*
X9154595Y-12706395D01*
X9145071Y-12725443D01*
X9135548Y-12734967D01*
X9116500Y-12744490D01*
X9078405Y-12744490D01*
X9059357Y-12754014D01*
X9049833Y-12763538D01*
X9040310Y-12782586D01*
X9040310Y-12820681D01*
X9049833Y-12839728D01*
X9059357Y-12849252D01*
X9078405Y-12858776D01*
X9116500Y-12858776D01*
X9135548Y-12849252D01*
X9145071Y-12839728D01*
X9154595Y-12820681D01*
X9154595Y-12782586D01*
X9145071Y-12763538D01*
X9135548Y-12754014D01*
X9116500Y-12744490D01*
X9278405Y-12658776D02*
X9297452Y-12658776D01*
X9316500Y-12668300D01*
X9326024Y-12677824D01*
X9335548Y-12696871D01*
X9345071Y-12734967D01*
X9345071Y-12782586D01*
X9335548Y-12820681D01*
X9326024Y-12839728D01*
X9316500Y-12849252D01*
X9297452Y-12858776D01*
X9278405Y-12858776D01*
X9259357Y-12849252D01*
X9249833Y-12839728D01*
X9240310Y-12820681D01*
X9230786Y-12782586D01*
X9230786Y-12734967D01*
X9240310Y-12696871D01*
X9249833Y-12677824D01*
X9259357Y-12668300D01*
X9278405Y-12658776D01*
X9468881Y-12658776D02*
X9487929Y-12658776D01*
X9506976Y-12668300D01*
X9516500Y-12677824D01*
X9526024Y-12696871D01*
X9535548Y-12734967D01*
X9535548Y-12782586D01*
X9526024Y-12820681D01*
X9516500Y-12839728D01*
X9506976Y-12849252D01*
X9487929Y-12858776D01*
X9468881Y-12858776D01*
X9449833Y-12849252D01*
X9440310Y-12839728D01*
X9430786Y-12820681D01*
X9421262Y-12782586D01*
X9421262Y-12734967D01*
X9430786Y-12696871D01*
X9440310Y-12677824D01*
X9449833Y-12668300D01*
X9468881Y-12658776D01*
X9621262Y-12858776D02*
X9621262Y-12725443D01*
X9621262Y-12744490D02*
X9630786Y-12734967D01*
X9649833Y-12725443D01*
X9678405Y-12725443D01*
X9697452Y-12734967D01*
X9706976Y-12754014D01*
X9706976Y-12858776D01*
X9706976Y-12754014D02*
X9716500Y-12734967D01*
X9735548Y-12725443D01*
X9764119Y-12725443D01*
X9783167Y-12734967D01*
X9792690Y-12754014D01*
X9792690Y-12858776D01*
X9887929Y-12858776D02*
X9887929Y-12725443D01*
X9887929Y-12744490D02*
X9897452Y-12734967D01*
X9916500Y-12725443D01*
X9945071Y-12725443D01*
X9964119Y-12734967D01*
X9973643Y-12754014D01*
X9973643Y-12858776D01*
X9973643Y-12754014D02*
X9983167Y-12734967D01*
X10002214Y-12725443D01*
X10030786Y-12725443D01*
X10049833Y-12734967D01*
X10059357Y-12754014D01*
X10059357Y-12858776D01*
X10449833Y-12649252D02*
X10278405Y-12906395D01*
X10706976Y-12658776D02*
X10726024Y-12658776D01*
X10745071Y-12668300D01*
X10754595Y-12677824D01*
X10764119Y-12696871D01*
X10773643Y-12734967D01*
X10773643Y-12782586D01*
X10764119Y-12820681D01*
X10754595Y-12839728D01*
X10745071Y-12849252D01*
X10726024Y-12858776D01*
X10706976Y-12858776D01*
X10687929Y-12849252D01*
X10678405Y-12839728D01*
X10668881Y-12820681D01*
X10659357Y-12782586D01*
X10659357Y-12734967D01*
X10668881Y-12696871D01*
X10678405Y-12677824D01*
X10687929Y-12668300D01*
X10706976Y-12658776D01*
X10859357Y-12839728D02*
X10868881Y-12849252D01*
X10859357Y-12858776D01*
X10849833Y-12849252D01*
X10859357Y-12839728D01*
X10859357Y-12858776D01*
X10992690Y-12658776D02*
X11011738Y-12658776D01*
X11030786Y-12668300D01*
X11040310Y-12677824D01*
X11049833Y-12696871D01*
X11059357Y-12734967D01*
X11059357Y-12782586D01*
X11049833Y-12820681D01*
X11040310Y-12839728D01*
X11030786Y-12849252D01*
X11011738Y-12858776D01*
X10992690Y-12858776D01*
X10973643Y-12849252D01*
X10964119Y-12839728D01*
X10954595Y-12820681D01*
X10945071Y-12782586D01*
X10945071Y-12734967D01*
X10954595Y-12696871D01*
X10964119Y-12677824D01*
X10973643Y-12668300D01*
X10992690Y-12658776D01*
X11126024Y-12658776D02*
X11249833Y-12658776D01*
X11183167Y-12734967D01*
X11211738Y-12734967D01*
X11230786Y-12744490D01*
X11240309Y-12754014D01*
X11249833Y-12773062D01*
X11249833Y-12820681D01*
X11240309Y-12839728D01*
X11230786Y-12849252D01*
X11211738Y-12858776D01*
X11154595Y-12858776D01*
X11135548Y-12849252D01*
X11126024Y-12839728D01*
X11440309Y-12858776D02*
X11326024Y-12858776D01*
X11383167Y-12858776D02*
X11383167Y-12658776D01*
X11364119Y-12687348D01*
X11345071Y-12706395D01*
X11326024Y-12715919D01*
X11621262Y-12658776D02*
X11526024Y-12658776D01*
X11516500Y-12754014D01*
X11526024Y-12744490D01*
X11545071Y-12734967D01*
X11592690Y-12734967D01*
X11611738Y-12744490D01*
X11621262Y-12754014D01*
X11630786Y-12773062D01*
X11630786Y-12820681D01*
X11621262Y-12839728D01*
X11611738Y-12849252D01*
X11592690Y-12858776D01*
X11545071Y-12858776D01*
X11526024Y-12849252D01*
X11516500Y-12839728D01*
X11706976Y-12658776D02*
X11706976Y-12696871D01*
X11783167Y-12658776D02*
X11783167Y-12696871D01*
X12078405Y-12934967D02*
X12068881Y-12925443D01*
X12049833Y-12896871D01*
X12040309Y-12877824D01*
X12030786Y-12849252D01*
X12021262Y-12801633D01*
X12021262Y-12763538D01*
X12030786Y-12715919D01*
X12040309Y-12687348D01*
X12049833Y-12668300D01*
X12068881Y-12639728D01*
X12078405Y-12630205D01*
X12259357Y-12858776D02*
X12145071Y-12858776D01*
X12202214Y-12858776D02*
X12202214Y-12658776D01*
X12183167Y-12687348D01*
X12164119Y-12706395D01*
X12145071Y-12715919D01*
X12383167Y-12658776D02*
X12402214Y-12658776D01*
X12421262Y-12668300D01*
X12430786Y-12677824D01*
X12440309Y-12696871D01*
X12449833Y-12734967D01*
X12449833Y-12782586D01*
X12440309Y-12820681D01*
X12430786Y-12839728D01*
X12421262Y-12849252D01*
X12402214Y-12858776D01*
X12383167Y-12858776D01*
X12364119Y-12849252D01*
X12354595Y-12839728D01*
X12345071Y-12820681D01*
X12335548Y-12782586D01*
X12335548Y-12734967D01*
X12345071Y-12696871D01*
X12354595Y-12677824D01*
X12364119Y-12668300D01*
X12383167Y-12658776D01*
X12687928Y-12858776D02*
X12687928Y-12658776D01*
X12773643Y-12858776D02*
X12773643Y-12754014D01*
X12764119Y-12734967D01*
X12745071Y-12725443D01*
X12716500Y-12725443D01*
X12697452Y-12734967D01*
X12687928Y-12744490D01*
X12897452Y-12858776D02*
X12878405Y-12849252D01*
X12868881Y-12839728D01*
X12859357Y-12820681D01*
X12859357Y-12763538D01*
X12868881Y-12744490D01*
X12878405Y-12734967D01*
X12897452Y-12725443D01*
X12926024Y-12725443D01*
X12945071Y-12734967D01*
X12954595Y-12744490D01*
X12964119Y-12763538D01*
X12964119Y-12820681D01*
X12954595Y-12839728D01*
X12945071Y-12849252D01*
X12926024Y-12858776D01*
X12897452Y-12858776D01*
X13078405Y-12858776D02*
X13059357Y-12849252D01*
X13049833Y-12830205D01*
X13049833Y-12658776D01*
X13230786Y-12849252D02*
X13211738Y-12858776D01*
X13173643Y-12858776D01*
X13154595Y-12849252D01*
X13145071Y-12830205D01*
X13145071Y-12754014D01*
X13154595Y-12734967D01*
X13173643Y-12725443D01*
X13211738Y-12725443D01*
X13230786Y-12734967D01*
X13240309Y-12754014D01*
X13240309Y-12773062D01*
X13145071Y-12792109D01*
X13316500Y-12849252D02*
X13335548Y-12858776D01*
X13373643Y-12858776D01*
X13392690Y-12849252D01*
X13402214Y-12830205D01*
X13402214Y-12820681D01*
X13392690Y-12801633D01*
X13373643Y-12792109D01*
X13345071Y-12792109D01*
X13326024Y-12782586D01*
X13316500Y-12763538D01*
X13316500Y-12754014D01*
X13326024Y-12734967D01*
X13345071Y-12725443D01*
X13373643Y-12725443D01*
X13392690Y-12734967D01*
X13468881Y-12934967D02*
X13478405Y-12925443D01*
X13497452Y-12896871D01*
X13506976Y-12877824D01*
X13516500Y-12849252D01*
X13526024Y-12801633D01*
X13526024Y-12763538D01*
X13516500Y-12715919D01*
X13506976Y-12687348D01*
X13497452Y-12668300D01*
X13478405Y-12639728D01*
X13468881Y-12630205D01*
D14*
X8456500Y-12982300D02*
X8456500Y-13082300D01*
X8406500Y-13032300D02*
X8506500Y-13032300D01*
D11*
X8868881Y-13122776D02*
X8754595Y-13122776D01*
X8811738Y-13122776D02*
X8811738Y-12922776D01*
X8792690Y-12951348D01*
X8773643Y-12970395D01*
X8754595Y-12979919D01*
X8954595Y-13103728D02*
X8964119Y-13113252D01*
X8954595Y-13122776D01*
X8945071Y-13113252D01*
X8954595Y-13103728D01*
X8954595Y-13122776D01*
X9087929Y-12922776D02*
X9106976Y-12922776D01*
X9126024Y-12932300D01*
X9135548Y-12941824D01*
X9145071Y-12960871D01*
X9154595Y-12998967D01*
X9154595Y-13046586D01*
X9145071Y-13084681D01*
X9135548Y-13103728D01*
X9126024Y-13113252D01*
X9106976Y-13122776D01*
X9087929Y-13122776D01*
X9068881Y-13113252D01*
X9059357Y-13103728D01*
X9049833Y-13084681D01*
X9040310Y-13046586D01*
X9040310Y-12998967D01*
X9049833Y-12960871D01*
X9059357Y-12941824D01*
X9068881Y-12932300D01*
X9087929Y-12922776D01*
X9278405Y-12922776D02*
X9297452Y-12922776D01*
X9316500Y-12932300D01*
X9326024Y-12941824D01*
X9335548Y-12960871D01*
X9345071Y-12998967D01*
X9345071Y-13046586D01*
X9335548Y-13084681D01*
X9326024Y-13103728D01*
X9316500Y-13113252D01*
X9297452Y-13122776D01*
X9278405Y-13122776D01*
X9259357Y-13113252D01*
X9249833Y-13103728D01*
X9240310Y-13084681D01*
X9230786Y-13046586D01*
X9230786Y-12998967D01*
X9240310Y-12960871D01*
X9249833Y-12941824D01*
X9259357Y-12932300D01*
X9278405Y-12922776D01*
X9468881Y-12922776D02*
X9487929Y-12922776D01*
X9506976Y-12932300D01*
X9516500Y-12941824D01*
X9526024Y-12960871D01*
X9535548Y-12998967D01*
X9535548Y-13046586D01*
X9526024Y-13084681D01*
X9516500Y-13103728D01*
X9506976Y-13113252D01*
X9487929Y-13122776D01*
X9468881Y-13122776D01*
X9449833Y-13113252D01*
X9440310Y-13103728D01*
X9430786Y-13084681D01*
X9421262Y-13046586D01*
X9421262Y-12998967D01*
X9430786Y-12960871D01*
X9440310Y-12941824D01*
X9449833Y-12932300D01*
X9468881Y-12922776D01*
X9621262Y-13122776D02*
X9621262Y-12989443D01*
X9621262Y-13008490D02*
X9630786Y-12998967D01*
X9649833Y-12989443D01*
X9678405Y-12989443D01*
X9697452Y-12998967D01*
X9706976Y-13018014D01*
X9706976Y-13122776D01*
X9706976Y-13018014D02*
X9716500Y-12998967D01*
X9735548Y-12989443D01*
X9764119Y-12989443D01*
X9783167Y-12998967D01*
X9792690Y-13018014D01*
X9792690Y-13122776D01*
X9887929Y-13122776D02*
X9887929Y-12989443D01*
X9887929Y-13008490D02*
X9897452Y-12998967D01*
X9916500Y-12989443D01*
X9945071Y-12989443D01*
X9964119Y-12998967D01*
X9973643Y-13018014D01*
X9973643Y-13122776D01*
X9973643Y-13018014D02*
X9983167Y-12998967D01*
X10002214Y-12989443D01*
X10030786Y-12989443D01*
X10049833Y-12998967D01*
X10059357Y-13018014D01*
X10059357Y-13122776D01*
X10449833Y-12913252D02*
X10278405Y-13170395D01*
X10706976Y-12922776D02*
X10726024Y-12922776D01*
X10745071Y-12932300D01*
X10754595Y-12941824D01*
X10764119Y-12960871D01*
X10773643Y-12998967D01*
X10773643Y-13046586D01*
X10764119Y-13084681D01*
X10754595Y-13103728D01*
X10745071Y-13113252D01*
X10726024Y-13122776D01*
X10706976Y-13122776D01*
X10687929Y-13113252D01*
X10678405Y-13103728D01*
X10668881Y-13084681D01*
X10659357Y-13046586D01*
X10659357Y-12998967D01*
X10668881Y-12960871D01*
X10678405Y-12941824D01*
X10687929Y-12932300D01*
X10706976Y-12922776D01*
X10859357Y-13103728D02*
X10868881Y-13113252D01*
X10859357Y-13122776D01*
X10849833Y-13113252D01*
X10859357Y-13103728D01*
X10859357Y-13122776D01*
X10992690Y-12922776D02*
X11011738Y-12922776D01*
X11030786Y-12932300D01*
X11040310Y-12941824D01*
X11049833Y-12960871D01*
X11059357Y-12998967D01*
X11059357Y-13046586D01*
X11049833Y-13084681D01*
X11040310Y-13103728D01*
X11030786Y-13113252D01*
X11011738Y-13122776D01*
X10992690Y-13122776D01*
X10973643Y-13113252D01*
X10964119Y-13103728D01*
X10954595Y-13084681D01*
X10945071Y-13046586D01*
X10945071Y-12998967D01*
X10954595Y-12960871D01*
X10964119Y-12941824D01*
X10973643Y-12932300D01*
X10992690Y-12922776D01*
X11126024Y-12922776D02*
X11249833Y-12922776D01*
X11183167Y-12998967D01*
X11211738Y-12998967D01*
X11230786Y-13008490D01*
X11240309Y-13018014D01*
X11249833Y-13037062D01*
X11249833Y-13084681D01*
X11240309Y-13103728D01*
X11230786Y-13113252D01*
X11211738Y-13122776D01*
X11154595Y-13122776D01*
X11135548Y-13113252D01*
X11126024Y-13103728D01*
X11345071Y-13122776D02*
X11383167Y-13122776D01*
X11402214Y-13113252D01*
X11411738Y-13103728D01*
X11430786Y-13075157D01*
X11440309Y-13037062D01*
X11440309Y-12960871D01*
X11430786Y-12941824D01*
X11421262Y-12932300D01*
X11402214Y-12922776D01*
X11364119Y-12922776D01*
X11345071Y-12932300D01*
X11335548Y-12941824D01*
X11326024Y-12960871D01*
X11326024Y-13008490D01*
X11335548Y-13027538D01*
X11345071Y-13037062D01*
X11364119Y-13046586D01*
X11402214Y-13046586D01*
X11421262Y-13037062D01*
X11430786Y-13027538D01*
X11440309Y-13008490D01*
X11611738Y-12989443D02*
X11611738Y-13122776D01*
X11564119Y-12913252D02*
X11516500Y-13056109D01*
X11640309Y-13056109D01*
X11706976Y-12922776D02*
X11706976Y-12960871D01*
X11783167Y-12922776D02*
X11783167Y-12960871D01*
X12078405Y-13198967D02*
X12068881Y-13189443D01*
X12049833Y-13160871D01*
X12040309Y-13141824D01*
X12030786Y-13113252D01*
X12021262Y-13065633D01*
X12021262Y-13027538D01*
X12030786Y-12979919D01*
X12040309Y-12951348D01*
X12049833Y-12932300D01*
X12068881Y-12903728D01*
X12078405Y-12894205D01*
X12259357Y-13122776D02*
X12145071Y-13122776D01*
X12202214Y-13122776D02*
X12202214Y-12922776D01*
X12183167Y-12951348D01*
X12164119Y-12970395D01*
X12145071Y-12979919D01*
X12430786Y-12989443D02*
X12430786Y-13122776D01*
X12383167Y-12913252D02*
X12335548Y-13056109D01*
X12459357Y-13056109D01*
X12687928Y-13122776D02*
X12687928Y-12922776D01*
X12773643Y-13122776D02*
X12773643Y-13018014D01*
X12764119Y-12998967D01*
X12745071Y-12989443D01*
X12716500Y-12989443D01*
X12697452Y-12998967D01*
X12687928Y-13008490D01*
X12897452Y-13122776D02*
X12878405Y-13113252D01*
X12868881Y-13103728D01*
X12859357Y-13084681D01*
X12859357Y-13027538D01*
X12868881Y-13008490D01*
X12878405Y-12998967D01*
X12897452Y-12989443D01*
X12926024Y-12989443D01*
X12945071Y-12998967D01*
X12954595Y-13008490D01*
X12964119Y-13027538D01*
X12964119Y-13084681D01*
X12954595Y-13103728D01*
X12945071Y-13113252D01*
X12926024Y-13122776D01*
X12897452Y-13122776D01*
X13078405Y-13122776D02*
X13059357Y-13113252D01*
X13049833Y-13094205D01*
X13049833Y-12922776D01*
X13230786Y-13113252D02*
X13211738Y-13122776D01*
X13173643Y-13122776D01*
X13154595Y-13113252D01*
X13145071Y-13094205D01*
X13145071Y-13018014D01*
X13154595Y-12998967D01*
X13173643Y-12989443D01*
X13211738Y-12989443D01*
X13230786Y-12998967D01*
X13240309Y-13018014D01*
X13240309Y-13037062D01*
X13145071Y-13056109D01*
X13316500Y-13113252D02*
X13335548Y-13122776D01*
X13373643Y-13122776D01*
X13392690Y-13113252D01*
X13402214Y-13094205D01*
X13402214Y-13084681D01*
X13392690Y-13065633D01*
X13373643Y-13056109D01*
X13345071Y-13056109D01*
X13326024Y-13046586D01*
X13316500Y-13027538D01*
X13316500Y-13018014D01*
X13326024Y-12998967D01*
X13345071Y-12989443D01*
X13373643Y-12989443D01*
X13392690Y-12998967D01*
X13468881Y-13198967D02*
X13478405Y-13189443D01*
X13497452Y-13160871D01*
X13506976Y-13141824D01*
X13516500Y-13113252D01*
X13526024Y-13065633D01*
X13526024Y-13027538D01*
X13516500Y-12979919D01*
X13506976Y-12951348D01*
X13497452Y-12932300D01*
X13478405Y-12903728D01*
X13468881Y-12894205D01*
D15*
X8490134Y-13335813D02*
X8490134Y-13256786D01*
X8411107Y-13256786D01*
X8411107Y-13335813D01*
X8490134Y-13335813D01*
D11*
X8868881Y-13386776D02*
X8754595Y-13386776D01*
X8811738Y-13386776D02*
X8811738Y-13186776D01*
X8792690Y-13215348D01*
X8773643Y-13234395D01*
X8754595Y-13243919D01*
X8954595Y-13367728D02*
X8964119Y-13377252D01*
X8954595Y-13386776D01*
X8945071Y-13377252D01*
X8954595Y-13367728D01*
X8954595Y-13386776D01*
X9154595Y-13386776D02*
X9040310Y-13386776D01*
X9097452Y-13386776D02*
X9097452Y-13186776D01*
X9078405Y-13215348D01*
X9059357Y-13234395D01*
X9040310Y-13243919D01*
X9345071Y-13386776D02*
X9230786Y-13386776D01*
X9287929Y-13386776D02*
X9287929Y-13186776D01*
X9268881Y-13215348D01*
X9249833Y-13234395D01*
X9230786Y-13243919D01*
X9459357Y-13272490D02*
X9440310Y-13262967D01*
X9430786Y-13253443D01*
X9421262Y-13234395D01*
X9421262Y-13224871D01*
X9430786Y-13205824D01*
X9440310Y-13196300D01*
X9459357Y-13186776D01*
X9497452Y-13186776D01*
X9516500Y-13196300D01*
X9526024Y-13205824D01*
X9535548Y-13224871D01*
X9535548Y-13234395D01*
X9526024Y-13253443D01*
X9516500Y-13262967D01*
X9497452Y-13272490D01*
X9459357Y-13272490D01*
X9440310Y-13282014D01*
X9430786Y-13291538D01*
X9421262Y-13310586D01*
X9421262Y-13348681D01*
X9430786Y-13367728D01*
X9440310Y-13377252D01*
X9459357Y-13386776D01*
X9497452Y-13386776D01*
X9516500Y-13377252D01*
X9526024Y-13367728D01*
X9535548Y-13348681D01*
X9535548Y-13310586D01*
X9526024Y-13291538D01*
X9516500Y-13282014D01*
X9497452Y-13272490D01*
X9621262Y-13386776D02*
X9621262Y-13253443D01*
X9621262Y-13272490D02*
X9630786Y-13262967D01*
X9649833Y-13253443D01*
X9678405Y-13253443D01*
X9697452Y-13262967D01*
X9706976Y-13282014D01*
X9706976Y-13386776D01*
X9706976Y-13282014D02*
X9716500Y-13262967D01*
X9735548Y-13253443D01*
X9764119Y-13253443D01*
X9783167Y-13262967D01*
X9792690Y-13282014D01*
X9792690Y-13386776D01*
X9887929Y-13386776D02*
X9887929Y-13253443D01*
X9887929Y-13272490D02*
X9897452Y-13262967D01*
X9916500Y-13253443D01*
X9945071Y-13253443D01*
X9964119Y-13262967D01*
X9973643Y-13282014D01*
X9973643Y-13386776D01*
X9973643Y-13282014D02*
X9983167Y-13262967D01*
X10002214Y-13253443D01*
X10030786Y-13253443D01*
X10049833Y-13262967D01*
X10059357Y-13282014D01*
X10059357Y-13386776D01*
X10449833Y-13177252D02*
X10278405Y-13434395D01*
X10706976Y-13186776D02*
X10726024Y-13186776D01*
X10745071Y-13196300D01*
X10754595Y-13205824D01*
X10764119Y-13224871D01*
X10773643Y-13262967D01*
X10773643Y-13310586D01*
X10764119Y-13348681D01*
X10754595Y-13367728D01*
X10745071Y-13377252D01*
X10726024Y-13386776D01*
X10706976Y-13386776D01*
X10687929Y-13377252D01*
X10678405Y-13367728D01*
X10668881Y-13348681D01*
X10659357Y-13310586D01*
X10659357Y-13262967D01*
X10668881Y-13224871D01*
X10678405Y-13205824D01*
X10687929Y-13196300D01*
X10706976Y-13186776D01*
X10859357Y-13367728D02*
X10868881Y-13377252D01*
X10859357Y-13386776D01*
X10849833Y-13377252D01*
X10859357Y-13367728D01*
X10859357Y-13386776D01*
X10992690Y-13186776D02*
X11011738Y-13186776D01*
X11030786Y-13196300D01*
X11040310Y-13205824D01*
X11049833Y-13224871D01*
X11059357Y-13262967D01*
X11059357Y-13310586D01*
X11049833Y-13348681D01*
X11040310Y-13367728D01*
X11030786Y-13377252D01*
X11011738Y-13386776D01*
X10992690Y-13386776D01*
X10973643Y-13377252D01*
X10964119Y-13367728D01*
X10954595Y-13348681D01*
X10945071Y-13310586D01*
X10945071Y-13262967D01*
X10954595Y-13224871D01*
X10964119Y-13205824D01*
X10973643Y-13196300D01*
X10992690Y-13186776D01*
X11230786Y-13253443D02*
X11230786Y-13386776D01*
X11183167Y-13177252D02*
X11135548Y-13320109D01*
X11259357Y-13320109D01*
X11421262Y-13253443D02*
X11421262Y-13386776D01*
X11373643Y-13177252D02*
X11326024Y-13320109D01*
X11449833Y-13320109D01*
X11564119Y-13186776D02*
X11583167Y-13186776D01*
X11602214Y-13196300D01*
X11611738Y-13205824D01*
X11621262Y-13224871D01*
X11630786Y-13262967D01*
X11630786Y-13310586D01*
X11621262Y-13348681D01*
X11611738Y-13367728D01*
X11602214Y-13377252D01*
X11583167Y-13386776D01*
X11564119Y-13386776D01*
X11545071Y-13377252D01*
X11535548Y-13367728D01*
X11526024Y-13348681D01*
X11516500Y-13310586D01*
X11516500Y-13262967D01*
X11526024Y-13224871D01*
X11535548Y-13205824D01*
X11545071Y-13196300D01*
X11564119Y-13186776D01*
X11706976Y-13186776D02*
X11706976Y-13224871D01*
X11783167Y-13186776D02*
X11783167Y-13224871D01*
X12078405Y-13462967D02*
X12068881Y-13453443D01*
X12049833Y-13424871D01*
X12040309Y-13405824D01*
X12030786Y-13377252D01*
X12021262Y-13329633D01*
X12021262Y-13291538D01*
X12030786Y-13243919D01*
X12040309Y-13215348D01*
X12049833Y-13196300D01*
X12068881Y-13167728D01*
X12078405Y-13158205D01*
X12145071Y-13205824D02*
X12154595Y-13196300D01*
X12173643Y-13186776D01*
X12221262Y-13186776D01*
X12240309Y-13196300D01*
X12249833Y-13205824D01*
X12259357Y-13224871D01*
X12259357Y-13243919D01*
X12249833Y-13272490D01*
X12135548Y-13386776D01*
X12259357Y-13386776D01*
X12373643Y-13272490D02*
X12354595Y-13262967D01*
X12345071Y-13253443D01*
X12335548Y-13234395D01*
X12335548Y-13224871D01*
X12345071Y-13205824D01*
X12354595Y-13196300D01*
X12373643Y-13186776D01*
X12411738Y-13186776D01*
X12430786Y-13196300D01*
X12440309Y-13205824D01*
X12449833Y-13224871D01*
X12449833Y-13234395D01*
X12440309Y-13253443D01*
X12430786Y-13262967D01*
X12411738Y-13272490D01*
X12373643Y-13272490D01*
X12354595Y-13282014D01*
X12345071Y-13291538D01*
X12335548Y-13310586D01*
X12335548Y-13348681D01*
X12345071Y-13367728D01*
X12354595Y-13377252D01*
X12373643Y-13386776D01*
X12411738Y-13386776D01*
X12430786Y-13377252D01*
X12440309Y-13367728D01*
X12449833Y-13348681D01*
X12449833Y-13310586D01*
X12440309Y-13291538D01*
X12430786Y-13282014D01*
X12411738Y-13272490D01*
X12687928Y-13386776D02*
X12687928Y-13186776D01*
X12773643Y-13386776D02*
X12773643Y-13282014D01*
X12764119Y-13262967D01*
X12745071Y-13253443D01*
X12716500Y-13253443D01*
X12697452Y-13262967D01*
X12687928Y-13272490D01*
X12897452Y-13386776D02*
X12878405Y-13377252D01*
X12868881Y-13367728D01*
X12859357Y-13348681D01*
X12859357Y-13291538D01*
X12868881Y-13272490D01*
X12878405Y-13262967D01*
X12897452Y-13253443D01*
X12926024Y-13253443D01*
X12945071Y-13262967D01*
X12954595Y-13272490D01*
X12964119Y-13291538D01*
X12964119Y-13348681D01*
X12954595Y-13367728D01*
X12945071Y-13377252D01*
X12926024Y-13386776D01*
X12897452Y-13386776D01*
X13078405Y-13386776D02*
X13059357Y-13377252D01*
X13049833Y-13358205D01*
X13049833Y-13186776D01*
X13230786Y-13377252D02*
X13211738Y-13386776D01*
X13173643Y-13386776D01*
X13154595Y-13377252D01*
X13145071Y-13358205D01*
X13145071Y-13282014D01*
X13154595Y-13262967D01*
X13173643Y-13253443D01*
X13211738Y-13253443D01*
X13230786Y-13262967D01*
X13240309Y-13282014D01*
X13240309Y-13301062D01*
X13145071Y-13320109D01*
X13316500Y-13377252D02*
X13335548Y-13386776D01*
X13373643Y-13386776D01*
X13392690Y-13377252D01*
X13402214Y-13358205D01*
X13402214Y-13348681D01*
X13392690Y-13329633D01*
X13373643Y-13320109D01*
X13345071Y-13320109D01*
X13326024Y-13310586D01*
X13316500Y-13291538D01*
X13316500Y-13282014D01*
X13326024Y-13262967D01*
X13345071Y-13253443D01*
X13373643Y-13253443D01*
X13392690Y-13262967D01*
X13468881Y-13462967D02*
X13478405Y-13453443D01*
X13497452Y-13424871D01*
X13506976Y-13405824D01*
X13516500Y-13377252D01*
X13526024Y-13329633D01*
X13526024Y-13291538D01*
X13516500Y-13243919D01*
X13506976Y-13215348D01*
X13497452Y-13196300D01*
X13478405Y-13167728D01*
X13468881Y-13158205D01*
D16*
X8446500Y-13620300D02*
X8506500Y-13560300D01*
X8446500Y-13500300D01*
X8386500Y-13560300D01*
X8446500Y-13620300D01*
D11*
X8868881Y-13650776D02*
X8754595Y-13650776D01*
X8811738Y-13650776D02*
X8811738Y-13450776D01*
X8792690Y-13479348D01*
X8773643Y-13498395D01*
X8754595Y-13507919D01*
X8954595Y-13631728D02*
X8964119Y-13641252D01*
X8954595Y-13650776D01*
X8945071Y-13641252D01*
X8954595Y-13631728D01*
X8954595Y-13650776D01*
X9040310Y-13469824D02*
X9049833Y-13460300D01*
X9068881Y-13450776D01*
X9116500Y-13450776D01*
X9135548Y-13460300D01*
X9145071Y-13469824D01*
X9154595Y-13488871D01*
X9154595Y-13507919D01*
X9145071Y-13536490D01*
X9030786Y-13650776D01*
X9154595Y-13650776D01*
X9278405Y-13450776D02*
X9297452Y-13450776D01*
X9316500Y-13460300D01*
X9326024Y-13469824D01*
X9335548Y-13488871D01*
X9345071Y-13526967D01*
X9345071Y-13574586D01*
X9335548Y-13612681D01*
X9326024Y-13631728D01*
X9316500Y-13641252D01*
X9297452Y-13650776D01*
X9278405Y-13650776D01*
X9259357Y-13641252D01*
X9249833Y-13631728D01*
X9240310Y-13612681D01*
X9230786Y-13574586D01*
X9230786Y-13526967D01*
X9240310Y-13488871D01*
X9249833Y-13469824D01*
X9259357Y-13460300D01*
X9278405Y-13450776D01*
X9468881Y-13450776D02*
X9487929Y-13450776D01*
X9506976Y-13460300D01*
X9516500Y-13469824D01*
X9526024Y-13488871D01*
X9535548Y-13526967D01*
X9535548Y-13574586D01*
X9526024Y-13612681D01*
X9516500Y-13631728D01*
X9506976Y-13641252D01*
X9487929Y-13650776D01*
X9468881Y-13650776D01*
X9449833Y-13641252D01*
X9440310Y-13631728D01*
X9430786Y-13612681D01*
X9421262Y-13574586D01*
X9421262Y-13526967D01*
X9430786Y-13488871D01*
X9440310Y-13469824D01*
X9449833Y-13460300D01*
X9468881Y-13450776D01*
X9621262Y-13650776D02*
X9621262Y-13517443D01*
X9621262Y-13536490D02*
X9630786Y-13526967D01*
X9649833Y-13517443D01*
X9678405Y-13517443D01*
X9697452Y-13526967D01*
X9706976Y-13546014D01*
X9706976Y-13650776D01*
X9706976Y-13546014D02*
X9716500Y-13526967D01*
X9735548Y-13517443D01*
X9764119Y-13517443D01*
X9783167Y-13526967D01*
X9792690Y-13546014D01*
X9792690Y-13650776D01*
X9887929Y-13650776D02*
X9887929Y-13517443D01*
X9887929Y-13536490D02*
X9897452Y-13526967D01*
X9916500Y-13517443D01*
X9945071Y-13517443D01*
X9964119Y-13526967D01*
X9973643Y-13546014D01*
X9973643Y-13650776D01*
X9973643Y-13546014D02*
X9983167Y-13526967D01*
X10002214Y-13517443D01*
X10030786Y-13517443D01*
X10049833Y-13526967D01*
X10059357Y-13546014D01*
X10059357Y-13650776D01*
X10449833Y-13441252D02*
X10278405Y-13698395D01*
X10706976Y-13450776D02*
X10726024Y-13450776D01*
X10745071Y-13460300D01*
X10754595Y-13469824D01*
X10764119Y-13488871D01*
X10773643Y-13526967D01*
X10773643Y-13574586D01*
X10764119Y-13612681D01*
X10754595Y-13631728D01*
X10745071Y-13641252D01*
X10726024Y-13650776D01*
X10706976Y-13650776D01*
X10687929Y-13641252D01*
X10678405Y-13631728D01*
X10668881Y-13612681D01*
X10659357Y-13574586D01*
X10659357Y-13526967D01*
X10668881Y-13488871D01*
X10678405Y-13469824D01*
X10687929Y-13460300D01*
X10706976Y-13450776D01*
X10859357Y-13631728D02*
X10868881Y-13641252D01*
X10859357Y-13650776D01*
X10849833Y-13641252D01*
X10859357Y-13631728D01*
X10859357Y-13650776D01*
X10992690Y-13450776D02*
X11011738Y-13450776D01*
X11030786Y-13460300D01*
X11040310Y-13469824D01*
X11049833Y-13488871D01*
X11059357Y-13526967D01*
X11059357Y-13574586D01*
X11049833Y-13612681D01*
X11040310Y-13631728D01*
X11030786Y-13641252D01*
X11011738Y-13650776D01*
X10992690Y-13650776D01*
X10973643Y-13641252D01*
X10964119Y-13631728D01*
X10954595Y-13612681D01*
X10945071Y-13574586D01*
X10945071Y-13526967D01*
X10954595Y-13488871D01*
X10964119Y-13469824D01*
X10973643Y-13460300D01*
X10992690Y-13450776D01*
X11230786Y-13517443D02*
X11230786Y-13650776D01*
X11183167Y-13441252D02*
X11135548Y-13584109D01*
X11259357Y-13584109D01*
X11316500Y-13450776D02*
X11449833Y-13450776D01*
X11364119Y-13650776D01*
X11516500Y-13469824D02*
X11526024Y-13460300D01*
X11545071Y-13450776D01*
X11592690Y-13450776D01*
X11611738Y-13460300D01*
X11621262Y-13469824D01*
X11630786Y-13488871D01*
X11630786Y-13507919D01*
X11621262Y-13536490D01*
X11506976Y-13650776D01*
X11630786Y-13650776D01*
X11706976Y-13450776D02*
X11706976Y-13488871D01*
X11783167Y-13450776D02*
X11783167Y-13488871D01*
X12078405Y-13726967D02*
X12068881Y-13717443D01*
X12049833Y-13688871D01*
X12040309Y-13669824D01*
X12030786Y-13641252D01*
X12021262Y-13593633D01*
X12021262Y-13555538D01*
X12030786Y-13507919D01*
X12040309Y-13479348D01*
X12049833Y-13460300D01*
X12068881Y-13431728D01*
X12078405Y-13422205D01*
X12135548Y-13450776D02*
X12259357Y-13450776D01*
X12192690Y-13526967D01*
X12221262Y-13526967D01*
X12240309Y-13536490D01*
X12249833Y-13546014D01*
X12259357Y-13565062D01*
X12259357Y-13612681D01*
X12249833Y-13631728D01*
X12240309Y-13641252D01*
X12221262Y-13650776D01*
X12164119Y-13650776D01*
X12145071Y-13641252D01*
X12135548Y-13631728D01*
X12326024Y-13450776D02*
X12459357Y-13450776D01*
X12373643Y-13650776D01*
X12526024Y-13469824D02*
X12535548Y-13460300D01*
X12554595Y-13450776D01*
X12602214Y-13450776D01*
X12621262Y-13460300D01*
X12630786Y-13469824D01*
X12640309Y-13488871D01*
X12640309Y-13507919D01*
X12630786Y-13536490D01*
X12516500Y-13650776D01*
X12640309Y-13650776D01*
X12878405Y-13650776D02*
X12878405Y-13450776D01*
X12964119Y-13650776D02*
X12964119Y-13546014D01*
X12954595Y-13526967D01*
X12935548Y-13517443D01*
X12906976Y-13517443D01*
X12887928Y-13526967D01*
X12878405Y-13536490D01*
X13087928Y-13650776D02*
X13068881Y-13641252D01*
X13059357Y-13631728D01*
X13049833Y-13612681D01*
X13049833Y-13555538D01*
X13059357Y-13536490D01*
X13068881Y-13526967D01*
X13087928Y-13517443D01*
X13116500Y-13517443D01*
X13135548Y-13526967D01*
X13145071Y-13536490D01*
X13154595Y-13555538D01*
X13154595Y-13612681D01*
X13145071Y-13631728D01*
X13135548Y-13641252D01*
X13116500Y-13650776D01*
X13087928Y-13650776D01*
X13268881Y-13650776D02*
X13249833Y-13641252D01*
X13240309Y-13622205D01*
X13240309Y-13450776D01*
X13421262Y-13641252D02*
X13402214Y-13650776D01*
X13364119Y-13650776D01*
X13345071Y-13641252D01*
X13335548Y-13622205D01*
X13335548Y-13546014D01*
X13345071Y-13526967D01*
X13364119Y-13517443D01*
X13402214Y-13517443D01*
X13421262Y-13526967D01*
X13430786Y-13546014D01*
X13430786Y-13565062D01*
X13335548Y-13584109D01*
X13506976Y-13641252D02*
X13526024Y-13650776D01*
X13564119Y-13650776D01*
X13583167Y-13641252D01*
X13592690Y-13622205D01*
X13592690Y-13612681D01*
X13583167Y-13593633D01*
X13564119Y-13584109D01*
X13535548Y-13584109D01*
X13516500Y-13574586D01*
X13506976Y-13555538D01*
X13506976Y-13546014D01*
X13516500Y-13526967D01*
X13535548Y-13517443D01*
X13564119Y-13517443D01*
X13583167Y-13526967D01*
X13659357Y-13726967D02*
X13668881Y-13717443D01*
X13687928Y-13688871D01*
X13697452Y-13669824D01*
X13706976Y-13641252D01*
X13716500Y-13593633D01*
X13716500Y-13555538D01*
X13706976Y-13507919D01*
X13697452Y-13479348D01*
X13687928Y-13460300D01*
X13668881Y-13431728D01*
X13659357Y-13422205D01*
M02*
