G04 #@! TF.GenerationSoftware,KiCad,Pcbnew,(5.1.5)-3*
G04 #@! TF.CreationDate,2020-07-01T21:27:04+01:00*
G04 #@! TF.ProjectId,msx_eeprom,6d73785f-6565-4707-926f-6d2e6b696361,rev?*
G04 #@! TF.SameCoordinates,Original*
G04 #@! TF.FileFunction,Copper,L2,Bot*
G04 #@! TF.FilePolarity,Positive*
%FSLAX46Y46*%
G04 Gerber Fmt 4.6, Leading zero omitted, Abs format (unit mm)*
G04 Created by KiCad (PCBNEW (5.1.5)-3) date 2020-07-01 21:27:04*
%MOMM*%
%LPD*%
G04 APERTURE LIST*
%ADD10O,1.700000X1.700000*%
%ADD11R,1.700000X1.700000*%
%ADD12R,1.998980X1.998980*%
%ADD13R,1.800000X8.000000*%
%ADD14R,1.676400X1.676400*%
%ADD15C,1.676400*%
%ADD16C,1.600000*%
%ADD17C,0.800000*%
%ADD18C,0.250000*%
G04 APERTURE END LIST*
D10*
X168955720Y-70909180D03*
X166415720Y-70909180D03*
X168955720Y-68369180D03*
X166415720Y-68369180D03*
X168955720Y-65829180D03*
X166415720Y-65829180D03*
X168955720Y-63289180D03*
X166415720Y-63289180D03*
X168955720Y-60749180D03*
X166415720Y-60749180D03*
X168955720Y-58209180D03*
X166415720Y-58209180D03*
X168955720Y-55669180D03*
D11*
X166415720Y-55669180D03*
D12*
X96917680Y-70383580D03*
X99457680Y-70383580D03*
X96917680Y-67843580D03*
X99457680Y-67843580D03*
X104537680Y-67833420D03*
X101997680Y-67833420D03*
X104537680Y-70373420D03*
X101997680Y-70373420D03*
X104563080Y-72893100D03*
X102023080Y-72893100D03*
X104563080Y-75433100D03*
X102023080Y-75433100D03*
X96943080Y-75443260D03*
X99483080Y-75443260D03*
X96943080Y-72903260D03*
X99483080Y-72903260D03*
X107050840Y-55118000D03*
X109590840Y-55118000D03*
X107050840Y-52578000D03*
X109590840Y-52578000D03*
X94391480Y-52532280D03*
X91851480Y-52532280D03*
X94391480Y-55072280D03*
X91851480Y-55072280D03*
X104495600Y-52552600D03*
X101955600Y-52552600D03*
X104495600Y-55092600D03*
X101955600Y-55092600D03*
X101935280Y-60157360D03*
X104475280Y-60157360D03*
X101935280Y-57617360D03*
X104475280Y-57617360D03*
X109570520Y-57642760D03*
X107030520Y-57642760D03*
X109570520Y-60182760D03*
X107030520Y-60182760D03*
X91831160Y-60137040D03*
X94371160Y-60137040D03*
X91831160Y-57597040D03*
X94371160Y-57597040D03*
X86771480Y-55082440D03*
X89311480Y-55082440D03*
X86771480Y-52542440D03*
X89311480Y-52542440D03*
X99415600Y-57597040D03*
X96875600Y-57597040D03*
X99415600Y-60137040D03*
X96875600Y-60137040D03*
X89291160Y-57607200D03*
X86751160Y-57607200D03*
X89291160Y-60147200D03*
X86751160Y-60147200D03*
X96895920Y-55072280D03*
X99435920Y-55072280D03*
X96895920Y-52532280D03*
X99435920Y-52532280D03*
X109595920Y-62702440D03*
X107055920Y-62702440D03*
X109595920Y-65242440D03*
X107055920Y-65242440D03*
X91856560Y-65196720D03*
X94396560Y-65196720D03*
X91856560Y-62656720D03*
X94396560Y-62656720D03*
X101960680Y-65217040D03*
X104500680Y-65217040D03*
X101960680Y-62677040D03*
X104500680Y-62677040D03*
X99441000Y-62656720D03*
X96901000Y-62656720D03*
X99441000Y-65196720D03*
X96901000Y-65196720D03*
X89316560Y-62666880D03*
X86776560Y-62666880D03*
X89316560Y-65206880D03*
X86776560Y-65206880D03*
X119735600Y-32410400D03*
X117195600Y-32410400D03*
X119735600Y-34950400D03*
X117195600Y-34950400D03*
X157647640Y-34975800D03*
X160187640Y-34975800D03*
X157647640Y-32435800D03*
X160187640Y-32435800D03*
X127320040Y-34930080D03*
X129860040Y-34930080D03*
X127320040Y-32390080D03*
X129860040Y-32390080D03*
X175331120Y-32466280D03*
X172791120Y-32466280D03*
X175331120Y-35006280D03*
X172791120Y-35006280D03*
X134919720Y-32410400D03*
X132379720Y-32410400D03*
X134919720Y-34950400D03*
X132379720Y-34950400D03*
X109631480Y-32390080D03*
X107091480Y-32390080D03*
X109631480Y-34930080D03*
X107091480Y-34930080D03*
X124815600Y-32390080D03*
X122275600Y-32390080D03*
X124815600Y-34930080D03*
X122275600Y-34930080D03*
X91892120Y-34884360D03*
X94432120Y-34884360D03*
X91892120Y-32344360D03*
X94432120Y-32344360D03*
X167746680Y-35006280D03*
X170286680Y-35006280D03*
X167746680Y-32466280D03*
X170286680Y-32466280D03*
X101996240Y-34904680D03*
X104536240Y-34904680D03*
X101996240Y-32364680D03*
X104536240Y-32364680D03*
X112135920Y-34930080D03*
X114675920Y-34930080D03*
X112135920Y-32390080D03*
X114675920Y-32390080D03*
X145018760Y-32410400D03*
X142478760Y-32410400D03*
X145018760Y-34950400D03*
X142478760Y-34950400D03*
X177850800Y-35026600D03*
X180390800Y-35026600D03*
X177850800Y-32486600D03*
X180390800Y-32486600D03*
X165247320Y-32456120D03*
X162707320Y-32456120D03*
X165247320Y-34996120D03*
X162707320Y-34996120D03*
X137434320Y-34950400D03*
X139974320Y-34950400D03*
X137434320Y-32410400D03*
X139974320Y-32410400D03*
X147538440Y-34970720D03*
X150078440Y-34970720D03*
X147538440Y-32430720D03*
X150078440Y-32430720D03*
X99476560Y-32344360D03*
X96936560Y-32344360D03*
X99476560Y-34884360D03*
X96936560Y-34884360D03*
X122255280Y-39994840D03*
X124795280Y-39994840D03*
X122255280Y-37454840D03*
X124795280Y-37454840D03*
X89352120Y-32354520D03*
X86812120Y-32354520D03*
X89352120Y-34894520D03*
X86812120Y-34894520D03*
X155143200Y-32435800D03*
X152603200Y-32435800D03*
X155143200Y-34975800D03*
X152603200Y-34975800D03*
X132359400Y-40015160D03*
X134899400Y-40015160D03*
X132359400Y-37475160D03*
X134899400Y-37475160D03*
X129839720Y-37454840D03*
X127299720Y-37454840D03*
X129839720Y-39994840D03*
X127299720Y-39994840D03*
X172770800Y-40071040D03*
X175310800Y-40071040D03*
X172770800Y-37531040D03*
X175310800Y-37531040D03*
X94411800Y-37409120D03*
X91871800Y-37409120D03*
X94411800Y-39949120D03*
X91871800Y-39949120D03*
X104515920Y-37429440D03*
X101975920Y-37429440D03*
X104515920Y-39969440D03*
X101975920Y-39969440D03*
X114655600Y-37454840D03*
X112115600Y-37454840D03*
X114655600Y-39994840D03*
X112115600Y-39994840D03*
X107071160Y-39994840D03*
X109611160Y-39994840D03*
X107071160Y-37454840D03*
X109611160Y-37454840D03*
X117175280Y-40015160D03*
X119715280Y-40015160D03*
X117175280Y-37475160D03*
X119715280Y-37475160D03*
X170266360Y-37531040D03*
X167726360Y-37531040D03*
X170266360Y-40071040D03*
X167726360Y-40071040D03*
X180370480Y-37551360D03*
X177830480Y-37551360D03*
X180370480Y-40091360D03*
X177830480Y-40091360D03*
X142458440Y-40015160D03*
X144998440Y-40015160D03*
X142458440Y-37475160D03*
X144998440Y-37475160D03*
X160167320Y-37500560D03*
X157627320Y-37500560D03*
X160167320Y-40040560D03*
X157627320Y-40040560D03*
X152582880Y-40040560D03*
X155122880Y-40040560D03*
X152582880Y-37500560D03*
X155122880Y-37500560D03*
X162687000Y-40060880D03*
X165227000Y-40060880D03*
X162687000Y-37520880D03*
X165227000Y-37520880D03*
X139954000Y-37475160D03*
X137414000Y-37475160D03*
X139954000Y-40015160D03*
X137414000Y-40015160D03*
X150058120Y-37495480D03*
X147518120Y-37495480D03*
X150058120Y-40035480D03*
X147518120Y-40035480D03*
X86791800Y-39959280D03*
X89331800Y-39959280D03*
X86791800Y-37419280D03*
X89331800Y-37419280D03*
X96916240Y-39949120D03*
X99456240Y-39949120D03*
X96916240Y-37409120D03*
X99456240Y-37409120D03*
X122280680Y-45054520D03*
X124820680Y-45054520D03*
X122280680Y-42514520D03*
X124820680Y-42514520D03*
X132384800Y-45074840D03*
X134924800Y-45074840D03*
X132384800Y-42534840D03*
X134924800Y-42534840D03*
X129865120Y-42514520D03*
X127325120Y-42514520D03*
X129865120Y-45054520D03*
X127325120Y-45054520D03*
X172796200Y-45130720D03*
X175336200Y-45130720D03*
X172796200Y-42590720D03*
X175336200Y-42590720D03*
X94437200Y-42468800D03*
X91897200Y-42468800D03*
X94437200Y-45008800D03*
X91897200Y-45008800D03*
X104541320Y-42489120D03*
X102001320Y-42489120D03*
X104541320Y-45029120D03*
X102001320Y-45029120D03*
X114681000Y-42514520D03*
X112141000Y-42514520D03*
X114681000Y-45054520D03*
X112141000Y-45054520D03*
X107096560Y-45054520D03*
X109636560Y-45054520D03*
X107096560Y-42514520D03*
X109636560Y-42514520D03*
X117200680Y-45074840D03*
X119740680Y-45074840D03*
X117200680Y-42534840D03*
X119740680Y-42534840D03*
X170291760Y-42590720D03*
X167751760Y-42590720D03*
X170291760Y-45130720D03*
X167751760Y-45130720D03*
X180395880Y-42611040D03*
X177855880Y-42611040D03*
X180395880Y-45151040D03*
X177855880Y-45151040D03*
X142483840Y-45074840D03*
X145023840Y-45074840D03*
X142483840Y-42534840D03*
X145023840Y-42534840D03*
X160192720Y-42560240D03*
X157652720Y-42560240D03*
X160192720Y-45100240D03*
X157652720Y-45100240D03*
X152608280Y-45100240D03*
X155148280Y-45100240D03*
X152608280Y-42560240D03*
X155148280Y-42560240D03*
X162712400Y-45120560D03*
X165252400Y-45120560D03*
X162712400Y-42580560D03*
X165252400Y-42580560D03*
X139979400Y-42534840D03*
X137439400Y-42534840D03*
X139979400Y-45074840D03*
X137439400Y-45074840D03*
X150083520Y-42555160D03*
X147543520Y-42555160D03*
X150083520Y-45095160D03*
X147543520Y-45095160D03*
X86817200Y-45018960D03*
X89357200Y-45018960D03*
X86817200Y-42478960D03*
X89357200Y-42478960D03*
X96941640Y-45008800D03*
X99481640Y-45008800D03*
X96941640Y-42468800D03*
X99481640Y-42468800D03*
X89336880Y-47543720D03*
X86796880Y-47543720D03*
X89336880Y-50083720D03*
X86796880Y-50083720D03*
X99461320Y-47533560D03*
X96921320Y-47533560D03*
X99461320Y-50073560D03*
X96921320Y-50073560D03*
X91876880Y-50073560D03*
X94416880Y-50073560D03*
X91876880Y-47533560D03*
X94416880Y-47533560D03*
X101981000Y-50093880D03*
X104521000Y-50093880D03*
X101981000Y-47553880D03*
X104521000Y-47553880D03*
X112120680Y-50119280D03*
X114660680Y-50119280D03*
X112120680Y-47579280D03*
X114660680Y-47579280D03*
X109616240Y-47579280D03*
X107076240Y-47579280D03*
X109616240Y-50119280D03*
X107076240Y-50119280D03*
X119720360Y-47599600D03*
X117180360Y-47599600D03*
X119720360Y-50139600D03*
X117180360Y-50139600D03*
X175315880Y-47655480D03*
X172775880Y-47655480D03*
X175315880Y-50195480D03*
X172775880Y-50195480D03*
X167731440Y-50195480D03*
X170271440Y-50195480D03*
X167731440Y-47655480D03*
X170271440Y-47655480D03*
X177835560Y-50215800D03*
X180375560Y-50215800D03*
X177835560Y-47675800D03*
X180375560Y-47675800D03*
X157632400Y-50165000D03*
X160172400Y-50165000D03*
X157632400Y-47625000D03*
X160172400Y-47625000D03*
X155127960Y-47625000D03*
X152587960Y-47625000D03*
X155127960Y-50165000D03*
X152587960Y-50165000D03*
X165232080Y-47645320D03*
X162692080Y-47645320D03*
X165232080Y-50185320D03*
X162692080Y-50185320D03*
X137419080Y-50139600D03*
X139959080Y-50139600D03*
X137419080Y-47599600D03*
X139959080Y-47599600D03*
X147523200Y-50159920D03*
X150063200Y-50159920D03*
X147523200Y-47619920D03*
X150063200Y-47619920D03*
X145003520Y-47599600D03*
X142463520Y-47599600D03*
X145003520Y-50139600D03*
X142463520Y-50139600D03*
X134904480Y-47599600D03*
X132364480Y-47599600D03*
X134904480Y-50139600D03*
X132364480Y-50139600D03*
X127304800Y-50119280D03*
X129844800Y-50119280D03*
X127304800Y-47579280D03*
X129844800Y-47579280D03*
X124800360Y-47579280D03*
X122260360Y-47579280D03*
X124800360Y-50119280D03*
X122260360Y-50119280D03*
D13*
X107939840Y-89507440D03*
X110479840Y-89507440D03*
X113019840Y-89507440D03*
X115559840Y-89507440D03*
X118099840Y-89507440D03*
X120639840Y-89507440D03*
X123179840Y-89507440D03*
X125719840Y-89507440D03*
X128259840Y-89507440D03*
X130799840Y-89507440D03*
X133339840Y-89507440D03*
X135879840Y-89507440D03*
X138419840Y-89507440D03*
X140959840Y-89507440D03*
X143499840Y-89507440D03*
X146039840Y-89507440D03*
X148579840Y-89507440D03*
X151119840Y-89507440D03*
X153659840Y-89507440D03*
X156199840Y-89507440D03*
X158739840Y-89507440D03*
X161279840Y-89507440D03*
X163819840Y-89507440D03*
X166359840Y-89507440D03*
X168899840Y-89507440D03*
D14*
X154901900Y-55549800D03*
D15*
X152361900Y-55549800D03*
X149821900Y-55549800D03*
X147281900Y-55549800D03*
X144741900Y-55549800D03*
X142201900Y-55549800D03*
X139661900Y-55549800D03*
X137121900Y-55549800D03*
X134581900Y-55549800D03*
X132041900Y-55549800D03*
X129501900Y-55549800D03*
X126961900Y-55549800D03*
X124421900Y-55549800D03*
X121881900Y-55549800D03*
X121881900Y-70789800D03*
X124421900Y-70789800D03*
X126961900Y-70789800D03*
X129501900Y-70789800D03*
X132041900Y-70789800D03*
X134581900Y-70789800D03*
X137121900Y-70789800D03*
X139661900Y-70789800D03*
X142201900Y-70789800D03*
X144741900Y-70789800D03*
X147281900Y-70789800D03*
X149821900Y-70789800D03*
X152361900Y-70789800D03*
X154901900Y-70789800D03*
D16*
X158305500Y-68264400D03*
X158305500Y-70764400D03*
D17*
X154889200Y-66205100D03*
X130416300Y-59715400D03*
X118097300Y-83883500D03*
X144774920Y-73317100D03*
X147147280Y-65570100D03*
X147147280Y-68688119D03*
X120370600Y-84632800D03*
X142497337Y-78375949D03*
X139288206Y-80050113D03*
X135777390Y-84228090D03*
X143573500Y-75933300D03*
X142594317Y-84907465D03*
X143593294Y-84862225D03*
X145619890Y-80414710D03*
X145927199Y-84804964D03*
X123952000Y-84696300D03*
X125780800Y-77165200D03*
X125780800Y-81991200D03*
X131524850Y-84531200D03*
X143389075Y-79267688D03*
X140271500Y-78041500D03*
X134149001Y-84457429D03*
X152053446Y-74421882D03*
X141593410Y-83856834D03*
X146748500Y-80518000D03*
X146812000Y-79349600D03*
X139763500Y-64236600D03*
X169677080Y-84439760D03*
X156984700Y-76039980D03*
X138518900Y-84518500D03*
X159682180Y-61666120D03*
X156522420Y-73243440D03*
D18*
X118402100Y-59637300D02*
X113019840Y-65019560D01*
X112095080Y-83642200D02*
X113017300Y-83642200D01*
X113019840Y-65019560D02*
X113017300Y-83642200D01*
X110479840Y-85257440D02*
X112095080Y-83642200D01*
X110479840Y-89507440D02*
X110479840Y-85257440D01*
X113017300Y-83642200D02*
X113019840Y-89507440D01*
X154901900Y-69604407D02*
X154889200Y-69591707D01*
X154901900Y-70789800D02*
X154901900Y-69604407D01*
X154889200Y-69591707D02*
X154889200Y-66205100D01*
X130338200Y-59637300D02*
X130416300Y-59715400D01*
X118402100Y-59637300D02*
X130338200Y-59637300D01*
X115559840Y-85257440D02*
X115620800Y-85196480D01*
X115559840Y-89507440D02*
X115559840Y-85257440D01*
X115620800Y-85196480D02*
X115620800Y-85001100D01*
X116748560Y-83873340D02*
X118099840Y-83873340D01*
X115620800Y-85001100D02*
X116748560Y-83873340D01*
X118099840Y-83886040D02*
X118097300Y-83883500D01*
X118099840Y-89507440D02*
X118099840Y-83886040D01*
X118097300Y-83883500D02*
X118099840Y-83873340D01*
X123045101Y-54386599D02*
X122720099Y-54711601D01*
X156000101Y-54386599D02*
X123045101Y-54386599D01*
X158305500Y-56691998D02*
X156000101Y-54386599D01*
X122720099Y-54711601D02*
X121881900Y-55549800D01*
X158305500Y-68264400D02*
X158305500Y-56691998D01*
X140868409Y-83508833D02*
X141221455Y-83155787D01*
X141221455Y-77648935D02*
X141246860Y-77623530D01*
X138419840Y-86407440D02*
X140868409Y-83958871D01*
X140868409Y-83958871D02*
X140868409Y-83508833D01*
X138419840Y-89507440D02*
X138419840Y-86407440D01*
X141221455Y-83155787D02*
X141221455Y-77648935D01*
X141246860Y-77623530D02*
X141246860Y-76845160D01*
X141246860Y-76845160D02*
X144774920Y-73317100D01*
X147147280Y-65570100D02*
X147147280Y-68688119D01*
X129501900Y-70789800D02*
X129501900Y-75501500D01*
X129501900Y-75501500D02*
X120370600Y-84632800D01*
X142897336Y-77975950D02*
X142497337Y-78375949D01*
X142201900Y-55549800D02*
X145905101Y-59253001D01*
X145905101Y-74968185D02*
X142897336Y-77975950D01*
X145905101Y-59253001D02*
X145905101Y-74968185D01*
X140850189Y-59278089D02*
X140850189Y-73488603D01*
X137121900Y-55549800D02*
X140850189Y-59278089D01*
X139288206Y-75050586D02*
X139288206Y-79484428D01*
X139288206Y-79484428D02*
X139288206Y-80050113D01*
X140850189Y-73488603D02*
X139288206Y-75050586D01*
X132041900Y-55549800D02*
X135777390Y-59285290D01*
X135777390Y-59285290D02*
X135777390Y-83662405D01*
X135777390Y-83662405D02*
X135777390Y-84228090D01*
X141671465Y-77835335D02*
X141671465Y-82861885D01*
X141671465Y-82861885D02*
X142594317Y-83784737D01*
X142594317Y-84341780D02*
X142594317Y-84907465D01*
X142594317Y-83784737D02*
X142594317Y-84341780D01*
X143573500Y-75933300D02*
X141671465Y-77835335D01*
X143593294Y-80126684D02*
X143593294Y-84296540D01*
X143593294Y-84296540D02*
X143593294Y-84862225D01*
X150985101Y-59253001D02*
X150985101Y-72734877D01*
X147281900Y-55549800D02*
X150985101Y-59253001D01*
X150985101Y-72734877D02*
X143593294Y-80126684D01*
X145619890Y-84497655D02*
X145927199Y-84804964D01*
X145619890Y-80414710D02*
X145619890Y-84497655D01*
X132041900Y-70789800D02*
X132041900Y-74657098D01*
X121789840Y-84909158D02*
X121789840Y-85257440D01*
X132041900Y-74657098D02*
X121789840Y-84909158D01*
X120639840Y-86407440D02*
X120639840Y-89507440D01*
X121789840Y-85257440D02*
X120639840Y-86407440D01*
X123179840Y-85468460D02*
X123179840Y-89507440D01*
X123952000Y-84696300D02*
X123179840Y-85468460D01*
X121881900Y-70789800D02*
X121881900Y-73266300D01*
X121881900Y-73266300D02*
X125780800Y-77165200D01*
X125780800Y-89446480D02*
X125719840Y-89507440D01*
X125780800Y-81991200D02*
X125780800Y-89446480D01*
X128259840Y-85257440D02*
X133205101Y-80312179D01*
X127800099Y-56387999D02*
X126961900Y-55549800D01*
X133205101Y-61431199D02*
X128161901Y-56387999D01*
X133205101Y-80312179D02*
X133205101Y-61431199D01*
X128161901Y-56387999D02*
X127800099Y-56387999D01*
X128259840Y-89507440D02*
X128259840Y-85257440D01*
X130799840Y-89507440D02*
X130799840Y-85256210D01*
X130799840Y-85256210D02*
X131524850Y-84531200D01*
X143789074Y-78867689D02*
X143389075Y-79267688D01*
X148658699Y-73998064D02*
X143789074Y-78867689D01*
X148658699Y-59466599D02*
X148658699Y-73998064D01*
X144741900Y-55549800D02*
X148658699Y-59466599D01*
X143365101Y-59253001D02*
X143365101Y-71610101D01*
X139661900Y-55549800D02*
X143365101Y-59253001D01*
X143365101Y-71610101D02*
X140322300Y-74652902D01*
X140322300Y-74652902D02*
X140322300Y-77990700D01*
X140322300Y-77990700D02*
X140271500Y-78041500D01*
X133339840Y-85257440D02*
X134139851Y-84457429D01*
X133339840Y-89507440D02*
X133339840Y-85257440D01*
X134139851Y-84457429D02*
X134149001Y-84457429D01*
X138285101Y-59253001D02*
X135420099Y-56387999D01*
X137029840Y-85257440D02*
X137029840Y-84934558D01*
X135420099Y-56387999D02*
X134581900Y-55549800D01*
X135879840Y-86407440D02*
X137029840Y-85257440D01*
X137029840Y-84934558D02*
X138285101Y-83679297D01*
X135879840Y-89507440D02*
X135879840Y-86407440D01*
X138285101Y-83679297D02*
X138285101Y-59253001D01*
X156065101Y-71348137D02*
X152991356Y-74421882D01*
X152991356Y-74421882D02*
X152619131Y-74421882D01*
X156065101Y-59253001D02*
X156065101Y-71348137D01*
X152361900Y-55549800D02*
X156065101Y-59253001D01*
X152619131Y-74421882D02*
X152053446Y-74421882D01*
X141593410Y-84422519D02*
X141593410Y-83856834D01*
X141593410Y-84623870D02*
X141593410Y-84422519D01*
X140959840Y-89507440D02*
X140959840Y-85257440D01*
X140959840Y-85257440D02*
X141593410Y-84623870D01*
X143499840Y-86407440D02*
X143499840Y-89507440D01*
X149821900Y-55549800D02*
X153738699Y-59466599D01*
X153738699Y-71222899D02*
X144649840Y-80311758D01*
X144649840Y-80311758D02*
X144649840Y-85257440D01*
X144649840Y-85257440D02*
X143499840Y-86407440D01*
X153738699Y-59466599D02*
X153738699Y-71222899D01*
X146748500Y-88798780D02*
X146039840Y-89507440D01*
X146748500Y-80518000D02*
X146748500Y-88798780D01*
X148579840Y-81117440D02*
X148579840Y-89507440D01*
X146812000Y-79349600D02*
X148579840Y-81117440D01*
X153659840Y-78165960D02*
X153659840Y-89507440D01*
X163835080Y-67990720D02*
X153659840Y-78165960D01*
X166415720Y-63289180D02*
X163835080Y-65869820D01*
X163835080Y-65869820D02*
X163835080Y-67990720D01*
X139661900Y-70789800D02*
X139661900Y-64338200D01*
X139661900Y-64338200D02*
X139763500Y-64236600D01*
X170130721Y-62725179D02*
X169329723Y-61924181D01*
X167590721Y-61924181D02*
X166415720Y-60749180D01*
X165421463Y-76182439D02*
X170130721Y-71473181D01*
X170130721Y-71473181D02*
X170130721Y-62725179D01*
X166359840Y-83487260D02*
X163542980Y-80670400D01*
X166359840Y-89507440D02*
X166359840Y-83487260D01*
X163542980Y-80670400D02*
X163542980Y-77175360D01*
X163542980Y-77175360D02*
X164535901Y-76182439D01*
X169329723Y-61924181D02*
X167590721Y-61924181D01*
X164535901Y-76182439D02*
X165421463Y-76182439D01*
X168899840Y-85217000D02*
X168899840Y-89507440D01*
X169677080Y-84439760D02*
X168899840Y-85217000D01*
X163093400Y-69926200D02*
X156984700Y-76034900D01*
X156984700Y-76034900D02*
X156984700Y-76039980D01*
X164655500Y-68369180D02*
X156984700Y-76039980D01*
X166415720Y-68369180D02*
X164655500Y-68369180D01*
X160082179Y-62066119D02*
X159682180Y-61666120D01*
X166931661Y-62066119D02*
X160082179Y-62066119D01*
X167590721Y-62725179D02*
X166931661Y-62066119D01*
X167590721Y-64464181D02*
X167590721Y-62725179D01*
X168955720Y-65829180D02*
X167590721Y-64464181D01*
X156522420Y-73243440D02*
X156522420Y-58501280D01*
X154901900Y-56880760D02*
X154901900Y-55549800D01*
X156522420Y-58501280D02*
X154901900Y-56880760D01*
M02*
